<svg xmlns="http://www.w3.org/2000/svg" xmlns:xlink="http://www.w3.org/1999/xlink" fill="none" version="1.1" width="248" height="248" viewBox="0 0 248 248"><defs><mask id="master_svg0_0_832"><g style="mix-blend-mode:passthrough"><ellipse cx="124" cy="124" rx="124" ry="124" fill="#FFFFFF" fill-opacity="1"/></g></mask><filter id="master_svg1_0_834" filterUnits="objectBoundingBox" color-interpolation-filters="sRGB" x="-47.55206298828125" y="-22.703369140625" width="244.16799926757812" height="375.88232421875"><feFlood flood-opacity="0" result="BackgroundImageFix"/><feColorMatrix in="SourceAlpha" type="matrix" values="0 0 0 0 0 0 0 0 0 0 0 0 0 0 0 0 0 0 127 0"/><feOffset dy="19.832727432250977" dx="-8.263636589050293"/><feGaussianBlur stdDeviation="8.263636589050293"/><feColorMatrix type="matrix" values="0 0 0 0 0.4000000059604645 0 0 0 0 0.29666668176651 0 0 0 0 0.29666668176651 0 0 0 1 0"/><feBlend mode="normal" in2="BackgroundImageFix" result="effect1_dropShadow"/><feBlend mode="normal" in="SourceGraphic" in2="effect1_dropShadow" result="shape"/></filter><filter id="master_svg2_0_836" filterUnits="objectBoundingBox" color-interpolation-filters="sRGB" x="-28.647274017333984" y="-28.647274017333984" width="207.74787139892578" height="65.56121444702148"><feFlood flood-opacity="0" result="BackgroundImageFix"/><feBlend mode="normal" in="SourceGraphic" in2="BackgroundImageFix" result="shape"/><feGaussianBlur stdDeviation="7.161818504333496" result="effect1_foregroundBlur"/></filter><filter id="master_svg3_0_837" filterUnits="objectBoundingBox" color-interpolation-filters="sRGB" x="-8.814545631408691" y="-8.814545631408691" width="96.43786811828613" height="26.99798011779785"><feFlood flood-opacity="0" result="BackgroundImageFix"/><feBlend mode="normal" in="SourceGraphic" in2="BackgroundImageFix" result="shape"/><feGaussianBlur stdDeviation="2.203636407852173" result="effect1_foregroundBlur"/></filter><filter id="master_svg4_0_838" filterUnits="objectBoundingBox" color-interpolation-filters="sRGB" x="-8.814545631408691" y="-8.814545631408691" width="35.815757751464844" height="24.793542861938477"><feFlood flood-opacity="0" result="BackgroundImageFix"/><feBlend mode="normal" in="SourceGraphic" in2="BackgroundImageFix" result="shape"/><feGaussianBlur stdDeviation="2.203636407852173" result="effect1_foregroundBlur"/></filter><filter id="master_svg5_0_839" filterUnits="objectBoundingBox" color-interpolation-filters="sRGB" x="-5.509090900421143" y="-5.509090900421143" width="26.807546615600586" height="15.750912189483643"><feFlood flood-opacity="0" result="BackgroundImageFix"/><feBlend mode="normal" in="SourceGraphic" in2="BackgroundImageFix" result="shape"/><feGaussianBlur stdDeviation="1.3772727251052856" result="effect1_foregroundBlur"/></filter><filter id="master_svg6_0_840" filterUnits="objectBoundingBox" color-interpolation-filters="sRGB" x="0" y="0" width="122.65179443359375" height="259.613037109375"><feFlood flood-opacity="0" result="BackgroundImageFix"/><feBlend mode="normal" in="SourceGraphic" in2="BackgroundImageFix" result="shape"/><feColorMatrix in="SourceAlpha" type="matrix" result="hardAlpha" values="0 0 0 0 0 0 0 0 0 0 0 0 0 0 0 0 0 0 127 0"/><feOffset dy="-0.5509091019630432" dx="-0.5509091019630432"/><feGaussianBlur stdDeviation="0.2754545509815216"/><feComposite in2="hardAlpha" operator="arithmetic" k2="-1" k3="1"/><feColorMatrix type="matrix" values="0 0 0 0 0.9791666865348816 0 0 0 0 0.846061110496521 0 0 0 0 0.6119791865348816 0 0 0 1 0"/><feBlend mode="normal" in2="shape" result="effect1_innerShadow"/><feColorMatrix in="SourceAlpha" type="matrix" result="hardAlpha" values="0 0 0 0 0 0 0 0 0 0 0 0 0 0 0 0 0 0 127 0"/><feOffset dy="1.1018182039260864" dx="-0.5509091019630432"/><feGaussianBlur stdDeviation="2.203636407852173"/><feComposite in2="hardAlpha" operator="arithmetic" k2="-1" k3="1"/><feColorMatrix type="matrix" values="0 0 0 0 1 0 0 0 0 0.8396087884902954 0 0 0 0 0.5541666746139526 0 0 0 1 0"/><feBlend mode="normal" in2="effect1_innerShadow" result="effect2_innerShadow"/><feColorMatrix in="SourceAlpha" type="matrix" result="hardAlpha" values="0 0 0 0 0 0 0 0 0 0 0 0 0 0 0 0 0 0 127 0"/><feOffset dy="0.5509091019630432" dx="0.5509091019630432"/><feGaussianBlur stdDeviation="1.9281818866729736"/><feComposite in2="hardAlpha" operator="arithmetic" k2="-1" k3="1"/><feColorMatrix type="matrix" values="0 0 0 0 0.929411768913269 0 0 0 0 0.6862746477127075 0 0 0 0 0.2509803771972656 0 0 0 0.7900000214576721 0"/><feBlend mode="normal" in2="effect2_innerShadow" result="effect3_innerShadow"/><feColorMatrix in="SourceAlpha" type="matrix" result="hardAlpha" values="0 0 0 0 0 0 0 0 0 0 0 0 0 0 0 0 0 0 127 0"/><feOffset dy="-4.958181858062744" dx="26.99454689025879"/><feGaussianBlur stdDeviation="20.934545516967773"/><feComposite in2="hardAlpha" operator="arithmetic" k2="-1" k3="1"/><feColorMatrix type="matrix" values="0 0 0 0 0.6823529601097107 0 0 0 0 0.4274509847164154 0 0 0 0 0.16470588743686676 0 0 0 1 0"/><feBlend mode="normal" in2="effect3_innerShadow" result="effect4_innerShadow"/></filter><filter id="master_svg7_0_842" filterUnits="objectBoundingBox" color-interpolation-filters="sRGB" x="-31.952728271484375" y="-31.952728271484375" width="121.22101211547852" height="121.2209243774414"><feFlood flood-opacity="0" result="BackgroundImageFix"/><feBlend mode="normal" in="SourceGraphic" in2="BackgroundImageFix" result="shape"/><feGaussianBlur stdDeviation="7.988182067871094" result="effect1_foregroundBlur"/></filter><filter id="master_svg8_0_843" filterUnits="objectBoundingBox" color-interpolation-filters="sRGB" x="-30.850910186767578" y="-30.850910186767578" width="86.5018196105957" height="90.3595962524414"><feFlood flood-opacity="0" result="BackgroundImageFix"/><feBlend mode="normal" in="SourceGraphic" in2="BackgroundImageFix" result="shape"/><feGaussianBlur stdDeviation="7.7127275466918945" result="effect1_foregroundBlur"/></filter><filter id="master_svg9_0_844" filterUnits="objectBoundingBox" color-interpolation-filters="sRGB" x="-17.629091262817383" y="-17.629091262817383" width="53.011573791503906" height="42.92364978790283"><feFlood flood-opacity="0" result="BackgroundImageFix"/><feBlend mode="normal" in="SourceGraphic" in2="BackgroundImageFix" result="shape"/><feGaussianBlur stdDeviation="4.407272815704346" result="effect1_foregroundBlur"/></filter><filter id="master_svga_0_845" filterUnits="objectBoundingBox" color-interpolation-filters="sRGB" x="-13.221818923950195" y="-13.221818923950195" width="58.64757537841797" height="92.89693832397461"><feFlood flood-opacity="0" result="BackgroundImageFix"/><feBlend mode="normal" in="SourceGraphic" in2="BackgroundImageFix" result="shape"/><feGaussianBlur stdDeviation="3.305454730987549" result="effect1_foregroundBlur"/></filter><filter id="master_svgb_0_846" filterUnits="objectBoundingBox" color-interpolation-filters="sRGB" x="-13.221818923950195" y="-13.221818923950195" width="56.52022933959961" height="88.35639190673828"><feFlood flood-opacity="0" result="BackgroundImageFix"/><feBlend mode="normal" in="SourceGraphic" in2="BackgroundImageFix" result="shape"/><feGaussianBlur stdDeviation="3.305454730987549" result="effect1_foregroundBlur"/></filter><filter id="master_svgc_0_847" filterUnits="objectBoundingBox" color-interpolation-filters="sRGB" x="-13.221818923950195" y="-13.221818923950195" width="87.06587600708008" height="76.04364013671875"><feFlood flood-opacity="0" result="BackgroundImageFix"/><feBlend mode="normal" in="SourceGraphic" in2="BackgroundImageFix" result="shape"/><feGaussianBlur stdDeviation="3.305454730987549" result="effect1_foregroundBlur"/></filter><filter id="master_svgd_0_848" filterUnits="objectBoundingBox" color-interpolation-filters="sRGB" x="-13.221818923950195" y="-13.221818923950195" width="53.615108489990234" height="69.70111083984375"><feFlood flood-opacity="0" result="BackgroundImageFix"/><feBlend mode="normal" in="SourceGraphic" in2="BackgroundImageFix" result="shape"/><feGaussianBlur stdDeviation="3.305454730987549" result="effect1_foregroundBlur"/></filter><filter id="master_svge_0_851" filterUnits="objectBoundingBox" color-interpolation-filters="sRGB" x="-5.509091138839722" y="-5.509091138839722" width="32.51314830780029" height="35.819823265075684"><feFlood flood-opacity="0" result="BackgroundImageFix"/><feColorMatrix in="SourceAlpha" type="matrix" values="0 0 0 0 0 0 0 0 0 0 0 0 0 0 0 0 0 0 127 0"/><feOffset dy="-0.5509091019630432" dx="0.5509091019630432"/><feGaussianBlur stdDeviation="0.8263636827468872"/><feColorMatrix type="matrix" values="0 0 0 0 0.7686274647712708 0 0 0 0 0.5176470279693604 0 0 0 0 0.1921568512916565 0 0 0 0.7300000190734863 0"/><feBlend mode="normal" in2="BackgroundImageFix" result="effect1_dropShadow"/><feColorMatrix in="SourceAlpha" type="matrix" values="0 0 0 0 0 0 0 0 0 0 0 0 0 0 0 0 0 0 127 0"/><feOffset dy="0.5509091019630432" dx="-0.5509091019630432"/><feGaussianBlur stdDeviation="0.5509091019630432"/><feColorMatrix type="matrix" values="0 0 0 0 0.6166666746139526 0 0 0 0 0.3967849910259247 0 0 0 0 0.14645832777023315 0 0 0 0.6899999976158142 0"/><feBlend mode="normal" in2="effect1_dropShadow" result="effect2_dropShadow"/><feBlend mode="normal" in="SourceGraphic" in2="effect2_dropShadow" result="shape"/><feColorMatrix in="SourceAlpha" type="matrix" result="hardAlpha" values="0 0 0 0 0 0 0 0 0 0 0 0 0 0 0 0 0 0 127 0"/><feOffset dy="0" dx="1.1018182039260864"/><feGaussianBlur stdDeviation="1.1018182039260864"/><feComposite in2="hardAlpha" operator="arithmetic" k2="-1" k3="1"/><feColorMatrix type="matrix" values="0 0 0 0 1 0 0 0 0 1 0 0 0 0 1 0 0 0 0.25 0"/><feBlend mode="normal" in2="shape" result="effect3_innerShadow"/><feColorMatrix in="SourceAlpha" type="matrix" result="hardAlpha" values="0 0 0 0 0 0 0 0 0 0 0 0 0 0 0 0 0 0 127 0"/><feOffset dy="0" dx="6.059999942779541"/><feGaussianBlur stdDeviation="3.8563637733459473"/><feComposite in2="hardAlpha" operator="arithmetic" k2="-1" k3="1"/><feColorMatrix type="matrix" values="0 0 0 0 0.7416666746139526 0 0 0 0 0.6342394351959229 0 0 0 0 0.4419097304344177 0 0 0 1 0"/><feBlend mode="normal" in2="effect3_innerShadow" result="effect4_innerShadow"/></filter><filter id="master_svgf_0_853" filterUnits="objectBoundingBox" color-interpolation-filters="sRGB" x="0" y="0" width="8.817777633666992" height="8.817777633666992"><feFlood flood-opacity="0" result="BackgroundImageFix"/><feBlend mode="normal" in="SourceGraphic" in2="BackgroundImageFix" result="shape"/><feColorMatrix in="SourceAlpha" type="matrix" result="hardAlpha" values="0 0 0 0 0 0 0 0 0 0 0 0 0 0 0 0 0 0 127 0"/><feOffset dy="0.5509091019630432" dx="-0.5509091019630432"/><feGaussianBlur stdDeviation="0.5509091019630432"/><feComposite in2="hardAlpha" operator="arithmetic" k2="-1" k3="1"/><feColorMatrix type="matrix" values="0 0 0 0 1 0 0 0 0 1 0 0 0 0 1 0 0 0 0.5 0"/><feBlend mode="normal" in2="shape" result="effect1_innerShadow"/></filter><filter id="master_svgg_0_854" filterUnits="objectBoundingBox" color-interpolation-filters="sRGB" x="-5.509090900421143" y="-5.509090900421143" width="14.875959634780884" height="12.107478737831116"><feFlood flood-opacity="0" result="BackgroundImageFix"/><feBlend mode="normal" in="SourceGraphic" in2="BackgroundImageFix" result="shape"/><feGaussianBlur stdDeviation="1.3772727251052856" result="effect1_foregroundBlur"/></filter><filter id="master_svgh_0_856" filterUnits="objectBoundingBox" color-interpolation-filters="sRGB" x="-2.754545509815216" y="-1.6527273058891296" width="36.9228253364563" height="37.47394609451294"><feFlood flood-opacity="0" result="BackgroundImageFix"/><feColorMatrix in="SourceAlpha" type="matrix" values="0 0 0 0 0 0 0 0 0 0 0 0 0 0 0 0 0 0 127 0"/><feOffset dy="0.5509091019630432" dx="-0.5509091019630432"/><feGaussianBlur stdDeviation="0.5509091019630432"/><feColorMatrix type="matrix" values="0 0 0 0 0.6166666746139526 0 0 0 0 0.3967849910259247 0 0 0 0 0.14645832777023315 0 0 0 0.6899999976158142 0"/><feBlend mode="normal" in2="BackgroundImageFix" result="effect1_dropShadow"/><feBlend mode="normal" in="SourceGraphic" in2="effect1_dropShadow" result="shape"/><feColorMatrix in="SourceAlpha" type="matrix" result="hardAlpha" values="0 0 0 0 0 0 0 0 0 0 0 0 0 0 0 0 0 0 127 0"/><feOffset dy="-1.1018182039260864" dx="-1.6527273654937744"/><feGaussianBlur stdDeviation="1.3772727251052856"/><feComposite in2="hardAlpha" operator="arithmetic" k2="-1" k3="1"/><feColorMatrix type="matrix" values="0 0 0 0 0.6823529601097107 0 0 0 0 0.4588235914707184 0 0 0 0 0.16862744092941284 0 0 0 0.3100000023841858 0"/><feBlend mode="normal" in2="shape" result="effect2_innerShadow"/><feColorMatrix in="SourceAlpha" type="matrix" result="hardAlpha" values="0 0 0 0 0 0 0 0 0 0 0 0 0 0 0 0 0 0 127 0"/><feOffset dy="0" dx="1.1018182039260864"/><feGaussianBlur stdDeviation="1.1018182039260864"/><feComposite in2="hardAlpha" operator="arithmetic" k2="-1" k3="1"/><feColorMatrix type="matrix" values="0 0 0 0 1 0 0 0 0 1 0 0 0 0 1 0 0 0 0.25 0"/><feBlend mode="normal" in2="effect2_innerShadow" result="effect3_innerShadow"/><feColorMatrix in="SourceAlpha" type="matrix" result="hardAlpha" values="0 0 0 0 0 0 0 0 0 0 0 0 0 0 0 0 0 0 127 0"/><feOffset dy="0" dx="6.059999942779541"/><feGaussianBlur stdDeviation="3.8563637733459473"/><feComposite in2="hardAlpha" operator="arithmetic" k2="-1" k3="1"/><feColorMatrix type="matrix" values="0 0 0 0 0.7416666746139526 0 0 0 0 0.6342394351959229 0 0 0 0 0.4419097304344177 0 0 0 1 0"/><feBlend mode="normal" in2="effect3_innerShadow" result="effect4_innerShadow"/></filter><filter id="master_svgi_0_858" filterUnits="objectBoundingBox" color-interpolation-filters="sRGB" x="0" y="0" width="8.817777633666992" height="8.817777633666992"><feFlood flood-opacity="0" result="BackgroundImageFix"/><feBlend mode="normal" in="SourceGraphic" in2="BackgroundImageFix" result="shape"/><feColorMatrix in="SourceAlpha" type="matrix" result="hardAlpha" values="0 0 0 0 0 0 0 0 0 0 0 0 0 0 0 0 0 0 127 0"/><feOffset dy="0.5509091019630432" dx="-0.5509091019630432"/><feGaussianBlur stdDeviation="0.5509091019630432"/><feComposite in2="hardAlpha" operator="arithmetic" k2="-1" k3="1"/><feColorMatrix type="matrix" values="0 0 0 0 1 0 0 0 0 1 0 0 0 0 1 0 0 0 0.5 0"/><feBlend mode="normal" in2="shape" result="effect1_innerShadow"/></filter><filter id="master_svgj_0_859" filterUnits="objectBoundingBox" color-interpolation-filters="sRGB" x="-5.509090900421143" y="-5.509090900421143" width="14.875959634780884" height="12.107478737831116"><feFlood flood-opacity="0" result="BackgroundImageFix"/><feBlend mode="normal" in="SourceGraphic" in2="BackgroundImageFix" result="shape"/><feGaussianBlur stdDeviation="1.3772727251052856" result="effect1_foregroundBlur"/></filter><filter id="master_svgk_0_861" filterUnits="objectBoundingBox" color-interpolation-filters="sRGB" x="-6.060000360012054" y="-7.712727665901184" width="90.9238452911377" height="24.731904983520508"><feFlood flood-opacity="0" result="BackgroundImageFix"/><feColorMatrix in="SourceAlpha" type="matrix" values="0 0 0 0 0 0 0 0 0 0 0 0 0 0 0 0 0 0 127 0"/><feOffset dy="-1.1018182039260864" dx="0.5509091019630432"/><feGaussianBlur stdDeviation="1.6527273654937744"/><feColorMatrix type="matrix" values="0 0 0 0 0.6352941393852234 0 0 0 0 0.42745092511177063 0 0 0 0 0.16862744092941284 0 0 0 0.6899999976158142 0"/><feBlend mode="normal" in2="BackgroundImageFix" result="effect1_dropShadow"/><feBlend mode="normal" in="SourceGraphic" in2="effect1_dropShadow" result="shape"/><feColorMatrix in="SourceAlpha" type="matrix" result="hardAlpha" values="0 0 0 0 0 0 0 0 0 0 0 0 0 0 0 0 0 0 127 0"/><feOffset dy="0" dx="0"/><feGaussianBlur stdDeviation="0.5509091019630432"/><feComposite in2="hardAlpha" operator="arithmetic" k2="-1" k3="1"/><feColorMatrix type="matrix" values="0 0 0 0 0.8745098114013672 0 0 0 0 0.6666666865348816 0 0 0 0 0.30980393290519714 0 0 0 1 0"/><feBlend mode="normal" in2="shape" result="effect2_innerShadow"/><feColorMatrix in="SourceAlpha" type="matrix" result="hardAlpha" values="0 0 0 0 0 0 0 0 0 0 0 0 0 0 0 0 0 0 127 0"/><feOffset dy="0.5509091019630432" dx="0"/><feGaussianBlur stdDeviation="1.3772727251052856"/><feComposite in2="hardAlpha" operator="arithmetic" k2="-1" k3="1"/><feColorMatrix type="matrix" values="0 0 0 0 0 0 0 0 0 0 0 0 0 0 0 0 0 0 0.25 0"/><feBlend mode="normal" in2="effect2_innerShadow" result="effect3_innerShadow"/></filter><linearGradient x1="0.03184613958001137" y1="0.5649071931838989" x2="0.9376918077468872" y2="0.7960054874420166" id="master_svgl__076"><stop offset="0%" stop-color="#8A3009" stop-opacity="1"/><stop offset="100%" stop-color="#E39828" stop-opacity="0.3700000047683716"/></linearGradient><filter id="master_svgm_0_862" filterUnits="objectBoundingBox" color-interpolation-filters="sRGB" x="-8.814545631408691" y="-8.814545631408691" width="100.74609565734863" height="62.36756706237793"><feFlood flood-opacity="0" result="BackgroundImageFix"/><feBlend mode="normal" in="SourceGraphic" in2="BackgroundImageFix" result="shape"/><feGaussianBlur stdDeviation="2.203636407852173" result="effect1_foregroundBlur"/></filter><linearGradient x1="0.5708487629890442" y1="0.4927402436733246" x2="1.0184110403060913" y2="0.41882917284965515" id="master_svgn__077"><stop offset="0%" stop-color="#B7762F" stop-opacity="1"/><stop offset="100%" stop-color="#B7762F" stop-opacity="0"/></linearGradient><filter id="master_svgo_0_863" filterUnits="objectBoundingBox" color-interpolation-filters="sRGB" x="-8.814545631408691" y="-8.814545631408691" width="96.48555946350098" height="29.71918773651123"><feFlood flood-opacity="0" result="BackgroundImageFix"/><feBlend mode="normal" in="SourceGraphic" in2="BackgroundImageFix" result="shape"/><feGaussianBlur stdDeviation="2.203636407852173" result="effect1_foregroundBlur"/></filter><filter id="master_svgp_0_864" filterUnits="objectBoundingBox" color-interpolation-filters="sRGB" x="-4.407272815704346" y="-4.407272815704346" width="41.56491565704346" height="15.817813396453857"><feFlood flood-opacity="0" result="BackgroundImageFix"/><feBlend mode="normal" in="SourceGraphic" in2="BackgroundImageFix" result="shape"/><feGaussianBlur stdDeviation="1.1018182039260864" result="effect1_foregroundBlur"/></filter><filter id="master_svgq_0_865" filterUnits="objectBoundingBox" color-interpolation-filters="sRGB" x="-4.407272815704346" y="-4.407272815704346" width="18.282952308654785" height="13.942861080169678"><feFlood flood-opacity="0" result="BackgroundImageFix"/><feBlend mode="normal" in="SourceGraphic" in2="BackgroundImageFix" result="shape"/><feGaussianBlur stdDeviation="1.1018182039260864" result="effect1_foregroundBlur"/></filter><linearGradient x1="0.451728492975235" y1="0.5810264945030212" x2="0.8011059761047363" y2="0.5936746597290039" id="master_svgr__080"><stop offset="0%" stop-color="#B77D33" stop-opacity="1"/><stop offset="100%" stop-color="#B77D33" stop-opacity="0"/></linearGradient><filter id="master_svgs_0_867" filterUnits="objectBoundingBox" color-interpolation-filters="sRGB" x="0" y="0" width="37.5144157409668" height="174.91824340820312"><feFlood flood-opacity="0" result="BackgroundImageFix"/><feBlend mode="normal" in="SourceGraphic" in2="BackgroundImageFix" result="shape"/><feColorMatrix in="SourceAlpha" type="matrix" result="hardAlpha" values="0 0 0 0 0 0 0 0 0 0 0 0 0 0 0 0 0 0 127 0"/><feOffset dy="-3.305454730987549" dx="-2.203636407852173"/><feGaussianBlur stdDeviation="3.580909252166748"/><feComposite in2="hardAlpha" operator="arithmetic" k2="-1" k3="1"/><feColorMatrix type="matrix" values="0 0 0 0 0.6291666626930237 0 0 0 0 0.37833887338638306 0 0 0 0 0.1468055546283722 0 0 0 1 0"/><feBlend mode="normal" in2="shape" result="effect1_innerShadow"/><feColorMatrix in="SourceAlpha" type="matrix" result="hardAlpha" values="0 0 0 0 0 0 0 0 0 0 0 0 0 0 0 0 0 0 127 0"/><feOffset dy="1.1018182039260864" dx="-0.5509091019630432"/><feGaussianBlur stdDeviation="2.203636407852173"/><feComposite in2="hardAlpha" operator="arithmetic" k2="-1" k3="1"/><feColorMatrix type="matrix" values="0 0 0 0 1 0 0 0 0 0.8396087884902954 0 0 0 0 0.5541666746139526 0 0 0 1 0"/><feBlend mode="normal" in2="effect1_innerShadow" result="effect2_innerShadow"/><feColorMatrix in="SourceAlpha" type="matrix" result="hardAlpha" values="0 0 0 0 0 0 0 0 0 0 0 0 0 0 0 0 0 0 127 0"/><feOffset dy="-4.958181858062744" dx="8.263636589050293"/><feGaussianBlur stdDeviation="9.640909194946289"/><feComposite in2="hardAlpha" operator="arithmetic" k2="-1" k3="1"/><feColorMatrix type="matrix" values="0 0 0 0 0.6823529601097107 0 0 0 0 0.4274509847164154 0 0 0 0 0.16470588743686676 0 0 0 1 0"/><feBlend mode="normal" in2="effect2_innerShadow" result="effect3_innerShadow"/></filter><filter id="master_svgt_0_868" filterUnits="objectBoundingBox" color-interpolation-filters="sRGB" x="-16.527273178100586" y="-16.527273178100586" width="37.20422887802124" height="77.12495803833008"><feFlood flood-opacity="0" result="BackgroundImageFix"/><feBlend mode="normal" in="SourceGraphic" in2="BackgroundImageFix" result="shape"/><feGaussianBlur stdDeviation="4.1318182945251465" result="effect1_foregroundBlur"/></filter><filter id="master_svgu_0_869" filterUnits="objectBoundingBox" color-interpolation-filters="sRGB" x="-9.916363716125488" y="-9.916363716125488" width="27.973660469055176" height="86.60093879699707"><feFlood flood-opacity="0" result="BackgroundImageFix"/><feBlend mode="normal" in="SourceGraphic" in2="BackgroundImageFix" result="shape"/><feGaussianBlur stdDeviation="2.479090929031372" result="effect1_foregroundBlur"/></filter><filter id="master_svgv_0_870" filterUnits="objectBoundingBox" color-interpolation-filters="sRGB" x="-16.527273178100586" y="-16.527273178100586" width="54.6160888671875" height="67.07149124145508"><feFlood flood-opacity="0" result="BackgroundImageFix"/><feBlend mode="normal" in="SourceGraphic" in2="BackgroundImageFix" result="shape"/><feGaussianBlur stdDeviation="4.1318182945251465" result="effect1_foregroundBlur"/></filter><filter id="master_svgw_0_872" filterUnits="objectBoundingBox" color-interpolation-filters="sRGB" x="0" y="0" width="41.68564224243164" height="153.63491821289062"><feFlood flood-opacity="0" result="BackgroundImageFix"/><feBlend mode="normal" in="SourceGraphic" in2="BackgroundImageFix" result="shape"/><feColorMatrix in="SourceAlpha" type="matrix" result="hardAlpha" values="0 0 0 0 0 0 0 0 0 0 0 0 0 0 0 0 0 0 127 0"/><feOffset dy="0" dx="5.509090900421143"/><feGaussianBlur stdDeviation="2.203636407852173"/><feComposite in2="hardAlpha" operator="arithmetic" k2="-1" k3="1"/><feColorMatrix type="matrix" values="0 0 0 0 0.9803921580314636 0 0 0 0 0.772549033164978 0 0 0 0 0.4000000059604645 0 0 0 1 0"/><feBlend mode="normal" in2="shape" result="effect1_innerShadow"/><feColorMatrix in="SourceAlpha" type="matrix" result="hardAlpha" values="0 0 0 0 0 0 0 0 0 0 0 0 0 0 0 0 0 0 127 0"/><feOffset dy="2.203636407852173" dx="6.059999942779541"/><feGaussianBlur stdDeviation="1.9281818866729736"/><feComposite in2="hardAlpha" operator="arithmetic" k2="-1" k3="1"/><feColorMatrix type="matrix" values="0 0 0 0 0.6784313917160034 0 0 0 0 0.41960784792900085 0 0 0 0 0.12941177189350128 0 0 0 1 0"/><feBlend mode="normal" in2="effect1_innerShadow" result="effect2_innerShadow"/><feColorMatrix in="SourceAlpha" type="matrix" result="hardAlpha" values="0 0 0 0 0 0 0 0 0 0 0 0 0 0 0 0 0 0 127 0"/><feOffset dy="-4.958181858062744" dx="8.263636589050293"/><feGaussianBlur stdDeviation="8.539091110229492"/><feComposite in2="hardAlpha" operator="arithmetic" k2="-1" k3="1"/><feColorMatrix type="matrix" values="0 0 0 0 0.6823529601097107 0 0 0 0 0.38211768865585327 0 0 0 0 0.16470587253570557 0 0 0 0.8100000023841858 0"/><feBlend mode="normal" in2="effect2_innerShadow" result="effect3_innerShadow"/></filter><filter id="master_svgx_0_874" filterUnits="objectBoundingBox" color-interpolation-filters="sRGB" x="0" y="0" width="41.68564224243164" height="153.63491821289062"><feFlood flood-opacity="0" result="BackgroundImageFix"/><feBlend mode="normal" in="SourceGraphic" in2="BackgroundImageFix" result="shape"/><feColorMatrix in="SourceAlpha" type="matrix" result="hardAlpha" values="0 0 0 0 0 0 0 0 0 0 0 0 0 0 0 0 0 0 127 0"/><feOffset dy="0" dx="5.509090900421143"/><feGaussianBlur stdDeviation="2.203636407852173"/><feComposite in2="hardAlpha" operator="arithmetic" k2="-1" k3="1"/><feColorMatrix type="matrix" values="0 0 0 0 0.9803921580314636 0 0 0 0 0.772549033164978 0 0 0 0 0.4000000059604645 0 0 0 1 0"/><feBlend mode="normal" in2="shape" result="effect1_innerShadow"/><feColorMatrix in="SourceAlpha" type="matrix" result="hardAlpha" values="0 0 0 0 0 0 0 0 0 0 0 0 0 0 0 0 0 0 127 0"/><feOffset dy="2.203636407852173" dx="6.059999942779541"/><feGaussianBlur stdDeviation="1.9281818866729736"/><feComposite in2="hardAlpha" operator="arithmetic" k2="-1" k3="1"/><feColorMatrix type="matrix" values="0 0 0 0 0.6784313917160034 0 0 0 0 0.41960784792900085 0 0 0 0 0.12941177189350128 0 0 0 1 0"/><feBlend mode="normal" in2="effect1_innerShadow" result="effect2_innerShadow"/><feColorMatrix in="SourceAlpha" type="matrix" result="hardAlpha" values="0 0 0 0 0 0 0 0 0 0 0 0 0 0 0 0 0 0 127 0"/><feOffset dy="-4.958181858062744" dx="8.263636589050293"/><feGaussianBlur stdDeviation="8.539091110229492"/><feComposite in2="hardAlpha" operator="arithmetic" k2="-1" k3="1"/><feColorMatrix type="matrix" values="0 0 0 0 0.6823529601097107 0 0 0 0 0.38211768865585327 0 0 0 0 0.16470587253570557 0 0 0 0.8100000023841858 0"/><feBlend mode="normal" in2="effect2_innerShadow" result="effect3_innerShadow"/></filter><mask id="master_svgy_0_874"><g style="mix-blend-mode:passthrough" filter="url(#master_svgx_0_874)"><path d="M188.82947678222655,180.48882247314452C182.87747678222655,165.49862247314454,171.65315678222657,155.68883247314454,166.78500678222656,152.65772247314453C163.11093578222656,153.48438947314452,159.45523678222656,165.49862247314454,174.22497678222658,206.94212247314454C192.68727678222655,258.74672247314453,159.08782678222656,280.1607224731445,165.18480678222656,287.12872247314453C167.11369678222655,289.3337224731445,168.10168678222655,281.8937224731445,172.29613678222657,296.2217224731445C174.51287678222656,303.79472247314453,178.35837678222657,303.9377224731445,184.42057678222656,305.86672247314453C190.48277678222655,307.79572247314456,194.89167678222657,303.9377224731445,201.22947678222656,278.31072247314455C207.56727678222657,252.68472247314452,205.36277678222655,222.09772247314453,201.22947678222656,213.27992247314452C197.09617678222656,204.46212247314452,196.26947678222655,199.22662247314452,188.82947678222655,180.48882247314452C188.82947678222655,180.48882247314452,188.82947678222655,180.48882247314452,188.82947678222655,180.48882247314452Z" fill="#FFFFFF" fill-opacity="1"/></g></mask><filter id="master_svgz_0_875" filterUnits="objectBoundingBox" color-interpolation-filters="sRGB" x="-13.221818923950195" y="-13.221818923950195" width="48.85795783996582" height="51.21200180053711"><feFlood flood-opacity="0" result="BackgroundImageFix"/><feBlend mode="normal" in="SourceGraphic" in2="BackgroundImageFix" result="shape"/><feGaussianBlur stdDeviation="3.305454730987549" result="effect1_foregroundBlur"/></filter><filter id="master_svg10_0_876" filterUnits="objectBoundingBox" color-interpolation-filters="sRGB" x="-13.221818923950195" y="-13.221818923950195" width="57.92024612426758" height="54.31072425842285"><feFlood flood-opacity="0" result="BackgroundImageFix"/><feBlend mode="normal" in="SourceGraphic" in2="BackgroundImageFix" result="shape"/><feGaussianBlur stdDeviation="3.305454730987549" result="effect1_foregroundBlur"/></filter><filter id="master_svg11_0_877" filterUnits="objectBoundingBox" color-interpolation-filters="sRGB" x="-18.73090934753418" y="-18.73090934753418" width="78.41845703125" height="91.35689926147461"><feFlood flood-opacity="0" result="BackgroundImageFix"/><feBlend mode="normal" in="SourceGraphic" in2="BackgroundImageFix" result="shape"/><feGaussianBlur stdDeviation="4.682727336883545" result="effect1_foregroundBlur"/></filter><filter id="master_svg12_0_879" filterUnits="objectBoundingBox" color-interpolation-filters="sRGB" x="0" y="0" width="86.49972534179688" height="53.18296813964844"><feFlood flood-opacity="0" result="BackgroundImageFix"/><feBlend mode="normal" in="SourceGraphic" in2="BackgroundImageFix" result="shape"/><feColorMatrix in="SourceAlpha" type="matrix" result="hardAlpha" values="0 0 0 0 0 0 0 0 0 0 0 0 0 0 0 0 0 0 127 0"/><feOffset dy="2.203636407852173" dx="0"/><feGaussianBlur stdDeviation="2.203636407852173"/><feComposite in2="hardAlpha" operator="arithmetic" k2="-1" k3="1"/><feColorMatrix type="matrix" values="0 0 0 0 0.7882353067398071 0 0 0 0 0.5490195751190186 0 0 0 0 0.24705880880355835 0 0 0 0.7300000190734863 0"/><feBlend mode="normal" in2="shape" result="effect1_innerShadow"/><feColorMatrix in="SourceAlpha" type="matrix" result="hardAlpha" values="0 0 0 0 0 0 0 0 0 0 0 0 0 0 0 0 0 0 127 0"/><feOffset dy="-1.6527273654937744" dx="2.203636407852173"/><feGaussianBlur stdDeviation="2.203636407852173"/><feComposite in2="hardAlpha" operator="arithmetic" k2="-1" k3="1"/><feColorMatrix type="matrix" values="0 0 0 0 0.6784313917160034 0 0 0 0 0.41960784792900085 0 0 0 0 0.12941177189350128 0 0 0 1 0"/><feBlend mode="normal" in2="effect1_innerShadow" result="effect2_innerShadow"/><feColorMatrix in="SourceAlpha" type="matrix" result="hardAlpha" values="0 0 0 0 0 0 0 0 0 0 0 0 0 0 0 0 0 0 127 0"/><feOffset dy="-4.958181858062744" dx="8.263636589050293"/><feGaussianBlur stdDeviation="8.539091110229492"/><feComposite in2="hardAlpha" operator="arithmetic" k2="-1" k3="1"/><feColorMatrix type="matrix" values="0 0 0 0 0.6823529601097107 0 0 0 0 0.38211768865585327 0 0 0 0 0.16470587253570557 0 0 0 0.8100000023841858 0"/><feBlend mode="normal" in2="effect2_innerShadow" result="effect3_innerShadow"/></filter><filter id="master_svg13_0_880" filterUnits="objectBoundingBox" color-interpolation-filters="sRGB" x="-7.7127275466918945" y="-7.7127275466918945" width="69.49003410339355" height="60.06545448303223"><feFlood flood-opacity="0" result="BackgroundImageFix"/><feBlend mode="normal" in="SourceGraphic" in2="BackgroundImageFix" result="shape"/><feGaussianBlur stdDeviation="1.9281818866729736" result="effect1_foregroundBlur"/></filter><filter id="master_svg14_0_881" filterUnits="objectBoundingBox" color-interpolation-filters="sRGB" x="-6.610909461975098" y="-6.610909461975098" width="40.963165283203125" height="32.07173728942871"><feFlood flood-opacity="0" result="BackgroundImageFix"/><feBlend mode="normal" in="SourceGraphic" in2="BackgroundImageFix" result="shape"/><feGaussianBlur stdDeviation="1.6527273654937744" result="effect1_foregroundBlur"/></filter><linearGradient x1="0.32778987288475037" y1="0.6724461913108826" x2="0.049665164202451706" y2="0.7601566314697266" id="master_svg15__089"><stop offset="0%" stop-color="#EDB65B" stop-opacity="1"/><stop offset="100%" stop-color="#EDB65B" stop-opacity="0"/></linearGradient><filter id="master_svg16_0_883" filterUnits="objectBoundingBox" color-interpolation-filters="sRGB" x="0" y="0" width="86.49972534179688" height="53.18296813964844"><feFlood flood-opacity="0" result="BackgroundImageFix"/><feBlend mode="normal" in="SourceGraphic" in2="BackgroundImageFix" result="shape"/><feColorMatrix in="SourceAlpha" type="matrix" result="hardAlpha" values="0 0 0 0 0 0 0 0 0 0 0 0 0 0 0 0 0 0 127 0"/><feOffset dy="2.203636407852173" dx="0"/><feGaussianBlur stdDeviation="2.203636407852173"/><feComposite in2="hardAlpha" operator="arithmetic" k2="-1" k3="1"/><feColorMatrix type="matrix" values="0 0 0 0 0.7882353067398071 0 0 0 0 0.5490195751190186 0 0 0 0 0.24705880880355835 0 0 0 0.7300000190734863 0"/><feBlend mode="normal" in2="shape" result="effect1_innerShadow"/><feColorMatrix in="SourceAlpha" type="matrix" result="hardAlpha" values="0 0 0 0 0 0 0 0 0 0 0 0 0 0 0 0 0 0 127 0"/><feOffset dy="-1.6527273654937744" dx="2.203636407852173"/><feGaussianBlur stdDeviation="2.203636407852173"/><feComposite in2="hardAlpha" operator="arithmetic" k2="-1" k3="1"/><feColorMatrix type="matrix" values="0 0 0 0 0.6784313917160034 0 0 0 0 0.41960784792900085 0 0 0 0 0.12941177189350128 0 0 0 1 0"/><feBlend mode="normal" in2="effect1_innerShadow" result="effect2_innerShadow"/><feColorMatrix in="SourceAlpha" type="matrix" result="hardAlpha" values="0 0 0 0 0 0 0 0 0 0 0 0 0 0 0 0 0 0 127 0"/><feOffset dy="-4.958181858062744" dx="8.263636589050293"/><feGaussianBlur stdDeviation="8.539091110229492"/><feComposite in2="hardAlpha" operator="arithmetic" k2="-1" k3="1"/><feColorMatrix type="matrix" values="0 0 0 0 0.6823529601097107 0 0 0 0 0.38211768865585327 0 0 0 0 0.16470587253570557 0 0 0 0.8100000023841858 0"/><feBlend mode="normal" in2="effect2_innerShadow" result="effect3_innerShadow"/></filter><mask id="master_svg17_0_883"><g style="mix-blend-mode:passthrough" filter="url(#master_svg16_0_883)"><path d="M86.06462199707032,316.00726309814456C85.40328199707031,310.4961630981445,80.4382419970703,296.84656309814454,79.8578319970703,291.0423630981445C78.48004199707032,277.26456309814455,75.72454199707032,276.5436630981445,88.95112199707032,287.7356930981445C124.77302199707032,318.04716309814455,161.6976219970703,277.5399930981445,164.72882199707033,280.2957550981445C165.8023219970703,281.27148309814453,164.5981219970703,293.41176309814455,163.22042199707033,311.87396309814454C161.8426219970703,330.33616309814454,147.78932199707032,335.02066309814455,144.7581219970703,323.9983630981445C141.72702199707032,312.9761630981445,137.3182219970703,305.8117630981445,121.06022199707031,305.2606630981445C104.80242199707031,304.70956309814454,107.1922219970703,332.5946630981445,100.39352199707031,333.09176309814455C87.57345199707031,334.02906309814455,86.89128199707031,322.89616309814454,86.06462199707032,316.00726309814456C86.06462199707032,316.00726309814456,86.06462199707032,316.00726309814456,86.06462199707032,316.00726309814456Z" fill="#FFFFFF" fill-opacity="1"/></g></mask><filter id="master_svg18_0_884" filterUnits="objectBoundingBox" color-interpolation-filters="sRGB" x="-8.814545631408691" y="-8.814545631408691" width="30.75232219696045" height="29.92227077484131"><feFlood flood-opacity="0" result="BackgroundImageFix"/><feBlend mode="normal" in="SourceGraphic" in2="BackgroundImageFix" result="shape"/><feGaussianBlur stdDeviation="2.203636407852173" result="effect1_foregroundBlur"/></filter><filter id="master_svg19_0_885" filterUnits="objectBoundingBox" color-interpolation-filters="sRGB" x="-8.814545631408691" y="-8.814545631408691" width="47.5623664855957" height="45.66907501220703"><feFlood flood-opacity="0" result="BackgroundImageFix"/><feBlend mode="normal" in="SourceGraphic" in2="BackgroundImageFix" result="shape"/><feGaussianBlur stdDeviation="2.203636407852173" result="effect1_foregroundBlur"/></filter><filter id="master_svg1a_0_886" filterUnits="objectBoundingBox" color-interpolation-filters="sRGB" x="-13.221818923950195" y="-13.221818923950195" width="74.27325439453125" height="39.73356533050537"><feFlood flood-opacity="0" result="BackgroundImageFix"/><feBlend mode="normal" in="SourceGraphic" in2="BackgroundImageFix" result="shape"/><feGaussianBlur stdDeviation="3.305454730987549" result="effect1_foregroundBlur"/></filter></defs><g style="mix-blend-mode:passthrough"><g style="mix-blend-mode:passthrough"><ellipse cx="124" cy="124" rx="124" ry="124" fill="#937E7E" fill-opacity="1"/></g><g style="mix-blend-mode:passthrough" mask="url(#master_svg0_0_832)"><g style="mix-blend-mode:passthrough" filter="url(#master_svg1_0_834)"><g style="mix-blend-mode:passthrough"><g style="mix-blend-mode:passthrough" filter="url(#master_svg2_0_836)"><ellipse cx="121.90416717529297" cy="333.6977939605713" rx="75.2266616821289" ry="4.133333206176758" fill="#9E8C6C" fill-opacity="1"/></g><g style="mix-blend-mode:passthrough" filter="url(#master_svg3_0_837)"><path d="M163.04017785644533,331.8629809106445C163.04017785644533,333.10647091064453,159.8955778564453,332.9887509106445,125.30177785644531,335.80317091064455C84.70421275614531,338.6176709106445,84.70417785644531,334.23223091064455,84.70417785644531,332.9887509106445C84.70417785644531,331.74525091064453,86.70549785644532,327.35987258818454,135.59407785644532,327.35987091064453C169.38407785644532,327.35987091064453,163.04017785644533,330.61948091064454,163.04017785644533,331.8629809106445C163.04017785644533,331.8629809106445,163.04017785644533,331.8629809106445,163.04017785644533,331.8629809106445Z" fill="#9E8C6C" fill-opacity="1"/></g><g style="mix-blend-mode:passthrough" transform="matrix(0.9818266034126282,0.1897798776626587,-0.1897798776626587,0.981826663017273,63.8551016325946,-11.001482646178374)" filter="url(#master_svg4_0_838)"><path d="M107.44799865722656,331.35469044189455C107.44799865722656,332.3056004418945,106.72229865722656,332.21558044189453,98.73916865722656,334.36779044189456C89.37050671099657,336.5200504418945,89.37049865722656,333.16649044189455,89.37049865722656,332.21558044189453C89.37049865722656,331.2646704418945,89.83234265722656,327.9111417247145,101.11429865722656,327.91114044189453C108.91199865722656,327.91114044189453,107.44799865722656,330.4037804418945,107.44799865722656,331.35469044189455C107.44799865722656,331.35469044189455,107.44799865722656,331.35469044189455,107.44799865722656,331.35469044189455Z" fill="#563313" fill-opacity="1"/></g><g style="mix-blend-mode:passthrough" transform="matrix(0.981826663017273,0.18977989256381989,-0.1897798776626587,0.981826663017273,64.52447984503578,-21.29833988159703)" filter="url(#master_svg5_0_839)"><path d="M159.16370939941407,328.53258012939455C159.16370939941407,329.1607401293945,158.53360939941408,329.10127012939455,151.60274939941405,330.52299012939454C143.46901639158406,331.9447401293945,143.46900939941406,329.72942012939455,143.46900939941406,329.10127012939455C143.46900939941406,328.4731101293945,143.86997439941408,326.25782097681054,153.66480939941405,326.25782012939453C160.43460939941406,326.25782012939453,159.16370939941407,327.9044201293945,159.16370939941407,328.53258012939455C159.16370939941407,328.53258012939455,159.16370939941407,328.53258012939455,159.16370939941407,328.53258012939455Z" fill="#563313" fill-opacity="1"/></g></g><g style="mix-blend-mode:passthrough" filter="url(#master_svg6_0_840)"><path d="M86.15168898925782,74.06585450439454C86.59258898925782,60.39825450439453,92.32528898925781,46.618474504394534,101.30718898925781,44.58133450439453C128.03618898925782,38.51911450439453,142.75198898925782,46.83707450439453,149.2539889892578,50.64358450439453C157.3426889892578,55.37905450439453,164.5940889892578,83.49335450439453,162.75608898925782,94.73245450439452C161.21418898925782,104.15995450439453,160.92158898925783,138.97975450439452,172.6760889892578,166.65255450439452C185.9030889892578,197.79055450439452,191.4140889892578,261.9945545043945,168.26708898925781,285.69255450439454C144.22948898925782,310.30255450439455,99.10278898925782,303.60355450439454,76.78278898925781,288.72355450439454C54.46276898925781,273.84355450439455,61.62721398925781,211.01755450439452,66.86276898925782,201.64855450439453C72.09828898925781,192.27955450439453,71.82278898925782,147.91455450439452,71.82278898925782,135.51495450439455C71.82278898925782,123.11495450439453,76.2316889892578,113.74605450439454,78.71168898925781,101.34605450439453C81.19168898925781,88.94575450439453,85.60058898925782,91.15025450439452,86.15168898925782,74.06585450439454C86.15168898925782,74.06585450439454,86.15168898925782,74.06585450439454,86.15168898925782,74.06585450439454Z" fill="#FBC666" fill-opacity="1"/></g><g style="mix-blend-mode:passthrough"><g style="mix-blend-mode:passthrough" filter="url(#master_svg7_0_842)"><path d="M118.69500715332032,75.30210177001953C116.76530715332031,67.30726177001954,121.1073071533203,62.38358177001953,123.51960715332031,60.92111177001953C157.53220715332031,51.41503177001953,149.3307071533203,79.20200177001954,152.70780715332032,88.95180177001953C156.0850071533203,98.70160177001952,152.2256071533203,113.08260177001952,150.53690715332033,113.57010177001953C148.84830715332032,114.05760177001953,132.9274071533203,117.22640177001952,127.13800715332032,116.00730177001952C121.34860715332032,114.78880177001953,112.66450715332032,116.25150177001953,110.73460715332031,116.00730177001952C108.80490715332031,115.76380177001954,101.80929715332032,117.47000177001954,97.46724015332032,110.40140177001953C93.12518715332031,103.33280177001953,109.28730715332031,105.52650177001954,114.11180715332031,105.52650177001954C118.93630715332031,105.52650177001954,123.51960715332031,100.40790177001952,123.51960715332031,91.87680177001954C123.51960715332031,83.34570177001953,121.1073071533203,85.29560177001953,118.69500715332032,75.30210177001953C118.69500715332032,75.30210177001953,118.69500715332032,75.30210177001953,118.69500715332032,75.30210177001953Z" fill="#F1BC61" fill-opacity="1"/></g><g style="opacity:0.800000011920929;mix-blend-mode:passthrough" filter="url(#master_svg8_0_843)"><path d="M97.98342258300781,107.12662169189453C104.35902258300781,109.46052169189453,107.52262258300782,106.88352169189453,108.30752258300781,105.30332169189452C107.82452258300782,97.76702169189453,104.54012258300781,83.56935169189452,95.26642258300781,87.07012869189452C83.67445758300781,91.44610169189453,81.3198225830078,114.41992169189453,85.30458258300781,115.14932169189453C89.28934258300781,115.87862169189452,90.01383258300781,104.20932169189453,97.98342258300781,107.12662169189453C97.98342258300781,107.12662169189453,97.98342258300781,107.12662169189453,97.98342258300781,107.12662169189453Z" fill="#964B15" fill-opacity="1"/></g><g style="opacity:0.5600000023841858;mix-blend-mode:passthrough" transform="matrix(0.4061012864112854,0.9138280749320984,-0.9138280749320984,0.4061012864112854,160.41855252618598,-64.96826461387127)" filter="url(#master_svg9_0_844)"><path d="M140.01848807128906,98.26583723876954C144.91399807128906,99.09646723876953,147.34309807128906,98.17930723876952,147.94579807128906,97.61690723876953C147.57489807128906,94.93464723876953,145.05299807128907,89.88162723876952,137.93236807128906,91.12757823876953C129.03159807128907,92.68501723876953,129.42613207128906,93.09279723876953,131.24491807128905,94.90798723876954C132.94179807128907,96.60153723876954,133.89921807128906,97.22754723876953,140.01848807128906,98.26583723876954C140.01848807128906,98.26583723876954,140.01848807128906,98.26583723876954,140.01848807128906,98.26583723876954Z" fill="#5E3807" fill-opacity="1"/></g><g style="opacity:0.4000000059604645;mix-blend-mode:passthrough" filter="url(#master_svga_0_845)"><path d="M89.63343600097656,252.40881192626952C87.73518600097657,230.36431192626952,99.58402600097656,220.99552192626953,93.79742600097656,219.06661192626953C88.01073600097656,217.13770192626953,84.94898600097656,223.19994192626953,84.94898600097656,229.26211192626954C84.94898600097656,235.32431192626953,76.98857600097656,242.21321192626954,84.94898600097656,250.51101192626953C88.95501600097656,254.68681192626954,84.39787600097657,257.3999119262695,84.94898600097656,260.1555119262695C85.50009600097657,262.9110119262695,91.31740600097656,263.43101192626955,93.79742600097656,267.28881192626955C96.27742600097656,271.14661192626954,100.96192600097656,267.28881192626955,103.99302600097656,273.90231192626953C107.78002600097656,282.16451192626954,100.41072600097657,282.16901192626955,108.95292600097656,284.92451192626953C117.49522600097657,287.68011192626955,112.81072600097656,264.8399119262695,106.74852600097657,264.8399119262695C100.68632600097656,264.8399119262695,99.00232600097657,267.5955119262695,95.97122600097656,264.8399119262695C92.94012600097656,262.0844119262695,89.99429600097656,256.59951192626954,89.63343600097656,252.40881192626952C89.63343600097656,252.40881192626952,89.63343600097656,252.40881192626952,89.63343600097656,252.40881192626952Z" fill="#F8C364" fill-opacity="1"/></g><g style="opacity:0.4000000059604645;mix-blend-mode:passthrough" filter="url(#master_svgb_0_846)"><path d="M97.90021045410157,249.40890958251953C100.10464045410156,245.82670958251953,99.55353045410156,236.18219958251953,97.90021045410157,232.87556958251952C93.76687645410156,226.81333958251952,93.21577845410157,232.87556958251952,93.21577845410157,238.93775958251953C93.21577845410157,238.93775958251953,93.21577845410157,249.40890958251953,93.21577845410157,249.40890958251953C93.21577845410157,255.19560958251952,92.66466745410156,256.2978095825195,93.21577845410157,259.0534095825195C93.76688745410156,261.8089095825195,95.42022045410157,263.7378095825195,97.90021045410157,267.5956095825195C100.38020045410157,271.45340958251955,101.75798045410156,270.35110958251954,102.03353045410157,281.3734095825195C102.30909045410156,292.3954095825195,110.02464045410156,289.0887095825195,118.56684045410157,291.84430958251954C127.10904045410156,294.5998095825195,121.87354045410156,283.3023095825195,115.81134045410155,283.3023095825195C109.74904045410156,283.3023095825195,107.26904045410156,266.4934095825195,104.23794045410156,263.7378095825195C101.20686045410156,260.98220958251954,95.69577045410156,252.99110958251953,97.90021045410157,249.40890958251953C97.90021045410157,249.40890958251953,97.90021045410157,249.40890958251953,97.90021045410157,249.40890958251953Z" fill="#BE8036" fill-opacity="1"/></g><g style="opacity:0.10000000149011612;mix-blend-mode:passthrough" filter="url(#master_svgc_0_847)"><path d="M104.04492687988281,171.81277677001952C103.65342687988282,163.85327677001953,97.68220687988281,155.06875677001952,93.52192687988281,153.12742677001953C93.52192687988281,144.14877677001954,103.80022687988281,159.92206677001954,123.13332687988282,168.90067677001952C142.4663268798828,177.87937677001952,139.04022687988282,168.90067677001952,147.6055268798828,168.90067677001952C157.1499268798828,168.90067677001952,156.1706268798828,174.48207677001955,145.15832687988282,181.03407677001954C140.57512687988282,183.76087677001954,117.01522687988282,174.96737677001954,111.8761268798828,190.25537677001952C106.73692687988282,205.54337677001953,93.52192687988281,198.74877677001953,93.52192687988281,197.29267677001954C93.52192687988281,195.83667677001952,104.53442687988282,181.76207677001952,104.04492687988281,171.81277677001952C104.04492687988281,171.81277677001952,104.04492687988281,171.81277677001952,104.04492687988281,171.81277677001952Z" fill="#BE8036" fill-opacity="1"/></g><g style="opacity:0.20000000298023224;mix-blend-mode:passthrough" filter="url(#master_svgd_0_848)"><path d="M92.97083287597655,168.64005325439453C93.85261287597656,164.23116325439454,92.60344287597657,161.84301325439452,91.86863287597656,161.20005325439453C91.86863287597656,160.74079325439453,92.30951287597657,159.82227325439453,94.07305287597656,159.82227325439453C96.27750287597657,159.82227325439453,98.75752287597656,161.20005325439453,100.41082287597656,162.30227325439452C102.06412287597657,163.40449325439454,102.33972287597656,164.50671325439453,102.61532287597656,168.64005325439453C102.89082287597657,172.77337325439453,104.26862287597656,171.12007325439453,106.19752287597656,172.49787325439453C108.12642287597656,173.87557325439454,113.63752287597656,177.18227325439454,114.46412287597656,180.21337325439453C115.29082287597656,183.24447325439453,112.53532287597656,184.62227325439454,108.95302287597656,186.55117325439454C105.37082287597656,188.48007325439454,103.16642287597656,191.78667325439454,98.75752287597656,199.22667325439454C94.34861287597656,206.66667325439454,89.38862287597657,201.43117325439454,87.73529187597656,199.22667325439454C86.08195287597657,197.02227325439452,91.86863287597656,195.09337325439452,92.97083287597655,191.78667325439454C94.07305287597656,188.48007325439454,96.55305287597656,183.52007325439453,92.97083287597655,180.21337325439453C89.38863287597657,176.90667325439452,91.86863287597656,174.15117325439454,92.97083287597655,168.64005325439453C92.97083287597655,168.64005325439453,92.97083287597655,168.64005325439453,92.97083287597655,168.64005325439453Z" fill="#F8C364" fill-opacity="1"/></g></g><g style="mix-blend-mode:passthrough"><g style="mix-blend-mode:passthrough"><g style="mix-blend-mode:passthrough" filter="url(#master_svge_0_851)"><path d="M140.9581372314453,79.93423204189453C144.8809372314453,80.06939644189453,148.8784372314453,81.17423044189454,151.48333723144532,84.08656044189453C153.9725372314453,86.86958044189453,154.16513723144533,90.80914044189453,154.00993723144532,94.52634044189453C153.86273723144532,98.04814044189453,153.00413723144533,101.49874044189453,150.6458372314453,104.13554044189453C148.1362372314453,106.94154044189453,144.7397372314453,109.08484044189453,140.9581372314453,109.11954044189453C137.14888723144531,109.15454044189454,133.52731723144532,107.21854044189453,131.0895172314453,104.31504044189452C128.8381672314453,101.63354044189452,128.9403762314453,98.00814044189454,128.7057072314453,94.52634044189453C128.44394823144532,90.64274044189453,127.16416223144532,86.32596044189454,129.6754672314453,83.33513044189453C132.2905372314453,80.22070644189454,136.87437723144532,79.79351844189453,140.9581372314453,79.93423204189453C140.9581372314453,79.93423204189453,140.9581372314453,79.93423204189453,140.9581372314453,79.93423204189453Z" fill-rule="evenodd" fill="#FFFFFF" fill-opacity="1"/></g><g style="mix-blend-mode:passthrough"><g style="mix-blend-mode:passthrough" filter="url(#master_svgf_0_853)"><ellipse cx="139.7208547592163" cy="95.89327144622803" rx="4.408888816833496" ry="4.408888816833496" fill="#292929" fill-opacity="1"/></g><g style="mix-blend-mode:passthrough" transform="matrix(0.775951087474823,-0.6307930946350098,0.6307930946350098,0.775951087474823,-28.162607623481563,109.64827846144408)" filter="url(#master_svgg_0_854)"><ellipse cx="142.20087683200836" cy="95.01365023851395" rx="1.9288889169692993" ry="0.5446484684944153" fill="#FFFFFF" fill-opacity="1"/></g></g></g><g style="mix-blend-mode:passthrough"><g style="mix-blend-mode:passthrough" filter="url(#master_svgh_0_856)"><path d="M109.41555129394531,76.16944428564453C113.49745129394532,76.29553328564454,118.07945129394531,75.92366828564452,120.88115129394531,78.90255028564454C123.64475129394532,81.84083028564453,122.67195129394531,86.36113028564453,122.79785129394531,90.39773028564453C122.93055129394531,94.65583028564453,124.0963512939453,99.17233028564453,121.62115129394532,102.63493028564453C118.83285129394531,106.53553028564453,114.20155129394531,109.04993028564454,109.41555129394531,109.11863028564453C104.57565129394531,109.18803028564453,100.28454129394531,106.41533028564453,96.85553129394532,102.99023028564453C93.41898129394531,99.55763028564454,90.6016862939453,95.26073028564453,90.67328658394531,90.39773028564453C90.74407959394532,85.58966028564453,93.39717129394532,81.07455028564453,97.22097129394531,78.17170028564453C100.63472129394532,75.58011428564453,105.13555129394531,76.03723808564453,109.41555129394531,76.16944428564453C109.41555129394531,76.16944428564453,109.41555129394531,76.16944428564453,109.41555129394531,76.16944428564453Z" fill-rule="evenodd" fill="#FFFFFF" fill-opacity="1"/></g><g style="mix-blend-mode:passthrough"><g style="mix-blend-mode:passthrough" filter="url(#master_svgi_0_858)"><ellipse cx="107.75643825531006" cy="95.89327144622803" rx="4.408888816833496" ry="4.408888816833496" fill="#292929" fill-opacity="1"/></g><g style="mix-blend-mode:passthrough" transform="matrix(0.775951087474823,-0.6307930946350098,0.6307930946350098,0.775951087474823,-35.32421405554396,89.48530675618758)" filter="url(#master_svgj_0_859)"><ellipse cx="110.23639929294586" cy="95.01365023851395" rx="1.9288889169692993" ry="0.5446484684944153" fill="#FFFFFF" fill-opacity="1"/></g></g></g></g><g style="mix-blend-mode:passthrough"><g style="mix-blend-mode:passthrough" filter="url(#master_svgk_0_861)"><path d="M89.99261530456543,116.99984294189453C85.29883530456543,116.78728294189453,81.60663530456543,113.83793294189454,79.77086530456543,111.75247094189453C79.33199630456544,111.25390394189454,78.48451390456543,111.23420994189453,78.55630254456543,111.89453094189453C78.86763630456542,114.75819294189454,87.35574530456543,119.49048294189453,89.99261530456543,119.49048294189453C93.01711530456544,119.49048294189453,94.94191530456543,120.73577294189454,97.96641530456543,120.73577294189454C100.99111530456543,120.73577294189454,109.23991530456543,123.84910294189453,116.11391530456544,122.60380294189453C122.98801530456544,121.35842294189453,122.71301530456543,122.60380294189453,132.0618153045654,122.60380294189453C141.41051530456542,122.60380294189453,141.41051530456542,122.29240294189454,150.75901530456542,119.49048294189453C158.83611530456542,117.06962294189454,156.08661530456544,115.75457294189454,154.43711530456542,115.75457294189454C152.4350153045654,115.75457294189454,149.65961530456542,116.99984294189453,143.61001530456542,117.93387294189453C137.56101530456544,118.86784294189454,133.43661530456544,120.42445294189453,126.56251530456544,119.49048294189453C119.68841530456544,118.55651294189452,111.98951530456543,120.73577294189454,106.49031530456543,119.49048294189453C100.99111530456543,118.24519294189453,96.86661530456543,117.31122294189453,89.99261530456543,116.99984294189453C89.99261530456543,116.99984294189453,89.99261530456543,116.99984294189453,89.99261530456543,116.99984294189453Z" fill="url(#master_svgl__076)" fill-opacity="1"/></g><g style="opacity:0.30000001192092896;mix-blend-mode:passthrough" filter="url(#master_svgm_0_862)"><path d="M114.09420368347168,126.75553177001953C95.90760368347168,124.82664177001953,84.88535368347168,123.72442177001953,78.54757368347168,117.93775177001953C78.54757368347168,121.79553177001954,75.61139368347168,130.11205177001952,77.44533268347168,136.39995177001953C79.37419368347167,143.01335177001954,74.06688368347167,164.29735177001953,80.47646368347168,162.57775177001952C91.77420368347168,159.54665177001954,87.36540368347168,132.89995177001953,95.35650368347169,139.43105177001954C116.21130368347167,156.47565177001954,147.71220368347167,148.52445177001954,155.7033036834717,145.76885177001952C161.0733036834717,143.91705177001953,159.83660368347168,139.70665177001953,159.83660368347168,132.89995177001953C159.83660368347168,121.91752177001953,157.17260368347166,127.30664177001952,157.3566036834717,124.27553177001953C157.81570368347167,122.98960177001953,155.0971036834717,124.93686177001953,142.7522036834717,125.37775177001953C127.32090368347167,125.92886177001954,137.38600368347167,129.22585177001952,114.09420368347168,126.75553177001953C114.09420368347168,126.75553177001953,114.09420368347168,126.75553177001953,114.09420368347168,126.75553177001953Z" fill="url(#master_svgn__077)" fill-opacity="1"/></g><g style="mix-blend-mode:passthrough" filter="url(#master_svgo_0_863)"><path d="M114.09425973815918,123.44889114501953C95.90755973815918,121.52000114501953,84.88533973815917,120.41778114501953,78.54755973815918,114.63111114501953C78.54755973815918,118.48889114501954,89.05855973815918,122.20062114501953,95.35635973815918,124.00000114501952C101.14305973815918,125.65331114501953,102.24535973815918,125.65331114501953,108.85865973815918,126.20441114501953C115.38595973815919,126.74841114501953,130.62755973815916,127.30671114501953,144.40535973815918,125.37781114501954C155.28155973815916,123.85506114501953,157.1729597381592,124.00000114501952,157.35645973815917,120.96889114501953C157.81555973815918,119.68296114501953,155.0968597381592,121.63022114501953,142.7519597381592,122.07111114501953C127.32085973815919,122.62222114501954,137.38585973815918,125.91921114501953,114.09425973815918,123.44889114501953C114.09425973815918,123.44889114501953,114.09425973815918,123.44889114501953,114.09425973815918,123.44889114501953Z" fill="#F2B74F" fill-opacity="1"/></g><g style="opacity:0.8999999761581421;mix-blend-mode:passthrough" transform="matrix(0.9829452633857727,-0.18389804661273956,0.18389806151390076,0.9829453229904175,-20.04726646528593,25.232670650129194)" filter="url(#master_svgp_0_864)"><path d="M158.7347337158203,122.56134466064454C158.07593371582033,126.85716466064453,137.2147337158203,127.70295466064454,130.51860371582032,127.70295466064454C123.82245371582032,127.70295466064454,125.1869657158203,122.07393466064453,130.73701371582032,123.19741466064453C139.40433371582031,125.77782466064453,139.7852337158203,122.74961466064453,143.0769337158203,122.74961466064453C149.7730337158203,122.74961466064453,159.3935337158203,118.26554466064454,158.7347337158203,122.56134466064454C158.7347337158203,122.56134466064454,158.7347337158203,122.56134466064454,158.7347337158203,122.56134466064454Z" fill="#F3B84F" fill-opacity="1"/></g><g style="mix-blend-mode:passthrough" transform="matrix(0.9015500545501709,0.432674765586853,-0.4326747953891754,0.9015500545501709,54.947843118176706,-23.248933072830596)" filter="url(#master_svgq_0_865)"><ellipse cx="83.29616737365723" cy="111.68403840065002" rx="4.734203338623047" ry="2.564157724380493" fill="url(#master_svgr__080)" fill-opacity="1"/></g></g><g style="mix-blend-mode:passthrough"><g style="mix-blend-mode:passthrough" filter="url(#master_svgs_0_867)"><path d="M60.49540383300781,170.04721583251953C63.14070383300781,153.51384583251954,73.48320383300782,143.59383583251955,75.09980383300781,145.79829983251952C78.1309038330078,149.93161583251953,70.9665038330078,209.17591583251954,67.93540383300781,232.32261583251955C64.90430383300782,255.46941583251953,84.35620383300781,287.3744158325195,80.3354038330078,291.56741583251954C77.72090383300781,294.29341583251954,77.30430383300782,299.2824158325195,75.09980383300781,310.30441583251957C72.8954038330078,321.32741583251953,60.49540383300781,322.70441583251954,50.85092383300781,317.46941583251953C41.20648383300781,312.23341583251954,50.421003833007816,273.26141583251956,48.095383833007816,269.24741583251955C45.205273833007816,264.25741583251954,40.379833833007815,238.93591583251953,45.89094383300781,225.15821583251955C51.40203383300781,211.38041583251953,57.188703833007814,190.71381583251951,60.49540383300781,170.04721583251953C60.49540383300781,170.04721583251953,60.49540383300781,170.04721583251953,60.49540383300781,170.04721583251953Z" fill="#FFD481" fill-opacity="1"/></g><g style="mix-blend-mode:passthrough" transform="matrix(0.9956538081169128,0.09313158690929413,-0.09313159435987473,0.9956538081169128,14.824557986044454,-5.642439189731931)" filter="url(#master_svgt_0_868)"><ellipse cx="69.94112849235535" cy="178.04668807983398" rx="2.074841260910034" ry="22.035205841064453" fill="#F7C263" fill-opacity="1"/></g><g style="opacity:0.8999999761581421;mix-blend-mode:passthrough" transform="matrix(0.9875661134719849,-0.15720424056053162,0.15720424056053162,0.9875661134719849,-32.30712622155875,12.322343746244314)" filter="url(#master_svgu_0_869)"><path d="M64.74142346191407,252.75075059814452C64.98350346191407,263.5628505981445,65.91062346191406,277.1622505981445,65.37118346191406,277.1622505981445C64.83174346191406,277.1622505981445,61.74342346191406,258.65165059814456,61.74342346191406,252.10095059814452C61.74342346191406,245.55025059814454,63.00877346191406,230.91785059814453,63.64824346191406,228.79675059814454C77.24512346191406,183.69625059814453,64.30495346191407,233.25595059814452,64.74142346191407,252.75075059814452C64.74142346191407,252.75075059814452,64.74142346191407,252.75075059814452,64.74142346191407,252.75075059814452Z" fill="#A35B0E" fill-opacity="1"/></g><g style="mix-blend-mode:passthrough" transform="matrix(0.9956538081169128,0.09313160181045532,-0.09313160181045532,0.9956538081169128,26.778702784745747,-3.967141166247984)" filter="url(#master_svgv_0_870)"><path d="M77.25233615722657,304.5138420043945C78.75053615722656,314.6137420043945,71.60243615722656,318.88394200439456,67.59193615722657,318.88394200439456C63.58160615722656,318.88394200439456,55.89389953362656,319.97814200439456,55.893936157357416,312.8770420043945C55.893936157357416,305.2190420043945,59.02397615722656,293.57986200439456,62.37163615722656,290.4072620043945C78.89603615722656,274.74694200439455,77.25233615722657,296.85574200439453,77.25233615722657,304.5138420043945C77.25233615722657,304.5138420043945,77.25233615722657,304.5138420043945,77.25233615722657,304.5138420043945Z" fill="#F5C777" fill-opacity="1"/></g></g><g style="mix-blend-mode:passthrough"><g style="mix-blend-mode:passthrough" filter="url(#master_svgw_0_872)"><path d="M188.81104416503905,180.48882247314452C182.85904416503905,165.49862247314454,171.63472416503907,155.68883247314454,166.76657416503906,152.65772247314453C163.09250316503906,153.48438947314452,159.43680416503906,165.49862247314454,174.20654416503908,206.94212247314454C192.66884416503905,258.74672247314453,159.06939416503906,280.1607224731445,165.16637416503906,287.12872247314453C167.09526416503905,289.3337224731445,168.08325416503905,281.8937224731445,172.27770416503907,296.2217224731445C174.49444416503906,303.79472247314453,178.33994416503907,303.9377224731445,184.40214416503906,305.86672247314453C190.46434416503905,307.79572247314456,194.87324416503907,303.9377224731445,201.21104416503906,278.31072247314455C207.54884416503907,252.68472247314452,205.34434416503905,222.09772247314453,201.21104416503906,213.27992247314452C197.07774416503906,204.46212247314452,196.25104416503905,199.22662247314452,188.81104416503905,180.48882247314452C188.81104416503905,180.48882247314452,188.81104416503905,180.48882247314452,188.81104416503905,180.48882247314452Z" fill="#FFD481" fill-opacity="1"/></g><g style="mix-blend-mode:passthrough" mask="url(#master_svgy_0_874)"><g style="mix-blend-mode:passthrough" filter="url(#master_svgz_0_875)"><path d="M170.67746963378906,280.7654512700195C170.23657963378906,284.07211427001954,166.45228963378906,286.55212427001953,164.61524963378906,287.3787942700195C172.05524963378906,286.27656427001955,168.74857963378906,296.7477142700195,175.91304963378906,301.70771427001955C183.07744963378906,306.66771427001953,187.76194963378907,304.1877142700195,186.93524963378906,304.1877142700195C186.10854963378907,304.1877142700195,180.04634963378908,301.73331427001955,177.84194963378906,296.49781427001955C175.63744963378906,291.2622142700195,171.22857963378905,276.63211427001954,170.67746963378906,280.7654512700195C170.67746963378906,280.7654512700195,170.67746963378906,280.7654512700195,170.67746963378906,280.7654512700195Z" fill="#AC691F" fill-opacity="1"/></g><g style="mix-blend-mode:passthrough" transform="matrix(0.7548332214355469,0.6559167504310608,-0.6559167504310608,0.7548332810401917,135.9214171396493,-74.26829771324037)" filter="url(#master_svg10_0_876)"><path d="M198.1827362548828,166.31296348876953C201.4121362548828,180.42266348876953,190.9816362548828,166.19836348876953,183.19453625488282,166.19836348876953C175.4074462548828,166.19836348876953,168.7612262548828,172.08136348876954,168.7612262548828,167.50596348876954C168.7612262548828,162.93056348876954,162.1451562548828,143.33373348876952,177.1565062548828,144.76145448876954C184.76133625488282,145.48474848876953,194.9534362548828,152.20331348876954,198.1827362548828,166.31296348876953C198.1827362548828,166.31296348876953,198.1827362548828,166.31296348876953,198.1827362548828,166.31296348876953Z" fill="#FAC566" fill-opacity="1"/></g></g><g style="mix-blend-mode:passthrough" filter="url(#master_svg11_0_877)"><path d="M146.9796935595703,285.75105372314454C154.91572355957032,278.91725372314454,167.55452355957033,266.09475372314455,170.40192355957032,258.7466537231445C191.6197235595703,201.15555372314452,183.1464235595703,297.52525372314454,174.8108235595703,289.8843537231445C164.89082355957032,280.79115372314453,164.3397235595703,285.75105372314454,155.52192355957033,291.26215372314454C146.7041735595703,296.7735537231445,137.05968355957032,294.2932537231445,146.9796935595703,285.75105372314454C146.9796935595703,285.75105372314454,146.9796935595703,285.75105372314454,146.9796935595703,285.75105372314454Z" fill="#F1BA5E" fill-opacity="1"/></g></g><g style="mix-blend-mode:passthrough"><g style="mix-blend-mode:passthrough" filter="url(#master_svg12_0_879)"><path d="M85.67533977050782,316.50262442626956C85.01399977050781,310.9915244262695,80.0489597705078,297.34192442626954,79.4685497705078,291.5377244262695C78.09075977050782,277.75992442626955,75.33525977050782,277.0390244262695,88.56183977050782,288.2310544262695C124.38373977050782,318.54252442626955,161.3083397705078,278.0353544262695,164.33953977050783,280.7911164262695C165.4130397705078,281.76684442626953,164.2088397705078,293.90712442626955,162.83113977050783,312.36932442626954C161.4533397705078,330.83152442626954,147.40003977050782,335.51602442626955,144.3688397705078,324.4937244262695C141.33773977050782,313.4715244262695,136.9289397705078,306.3071244262695,120.67093977050781,305.7560244262695C104.41313977050781,305.20492442626954,106.8029397705078,333.0900244262695,100.00423977050781,333.58712442626955C87.18416977050781,334.52442442626955,86.50199977050781,323.39152442626954,85.67533977050782,316.50262442626956C85.67533977050782,316.50262442626956,85.67533977050782,316.50262442626956,85.67533977050782,316.50262442626956Z" fill="#FFD481" fill-opacity="1"/></g><g style="mix-blend-mode:passthrough" filter="url(#master_svg13_0_880)"><path d="M89.38855939941406,295.3615091918945C79.02769939941406,291.8344091918945,72.21229939941406,266.88000919189454,70.37525939941406,256.50072719189455C78.64192939941407,253.19405919189452,77.56339939941407,285.9852091918945,95.17525939941406,287.36300919189455C134.30415939941406,290.4240091918945,126.58855939941407,300.9066091918945,115.29085939941406,300.9066091918945C113.54805939941406,300.9066091918945,102.33965939941406,299.77040919189454,89.38855939941406,295.3615091918945C89.38855939941406,295.3615091918945,89.38855939941406,295.3615091918945,89.38855939941406,295.3615091918945Z" fill="#BF7E39" fill-opacity="1"/></g><g style="mix-blend-mode:passthrough" filter="url(#master_svg14_0_881)"><path d="M130.16654493066406,292.63986309814453C131.81986893066406,289.33319309814453,144.44727893066405,285.87189309814454,145.94077893066407,284.66874309814455C147.43437893066405,283.46559309814455,155.38057893066406,279.65618609814453,156.68747893066407,279.98432309814456C157.99427893066405,280.3124600981445,158.27477893066407,285.63105309814455,155.41887893066405,289.0776430981445C153.21437893066405,291.7379630981445,139.98057893066405,296.45776309814454,135.12654893066406,298.4265630981445C130.27256893066405,300.3953630981445,129.33163493066405,294.3097630981445,130.16654493066406,292.63986309814453C130.16654493066406,292.63986309814453,130.16654493066406,292.63986309814453,130.16654493066406,292.63986309814453Z" fill="url(#master_svg15__089)" fill-opacity="1"/></g><g style="mix-blend-mode:passthrough" mask="url(#master_svg17_0_883)"><g style="mix-blend-mode:passthrough" transform="matrix(0.7071067690849304,-0.7071067690849304,0.7071067690849304,0.7071067690849304,-153.12898818736403,191.6581622667086)" filter="url(#master_svg18_0_884)"><path d="M154.95602477441406,286.5509367700195C155.61081777441407,286.5509367700195,161.61419877441406,281.2727057700195,162.26897877441405,280.74521737001953C162.67822877441407,280.2417057700195,167.18876877441406,282.4994667700195,167.76166877441406,282.6433167700195C168.33456877441407,282.7871767700195,167.15586877441407,286.26469677001955,165.90376877441406,287.77572677001956C164.93736877441407,288.94209677001953,160.70833877441407,292.03032677001954,158.58025877441406,292.89352677001955C156.45218877441405,293.7566267700195,154.13753777441406,286.5509367700195,154.95602477441406,286.5509367700195C154.95602477441406,286.5509367700195,154.95602477441406,286.5509367700195,154.95602477441406,286.5509367700195Z" fill="#EEB75C" fill-opacity="1"/></g><g style="mix-blend-mode:passthrough" transform="matrix(0.9659258127212524,0.2588190734386444,-0.2588190734386444,0.9659258723258972,72.61063071236435,-30.18135200008055)" filter="url(#master_svg19_0_885)"><path d="M151.31500811035156,274.08464473876955C152.80854311035156,274.08464473876955,166.50191311035155,262.04543473876953,167.99541311035156,260.84226073876954C168.92891311035157,259.69377973876954,179.21711311035156,264.8435747387695,180.52391311035157,265.17171473876954C181.83071311035155,265.49985473876956,179.14211311035157,273.43184473876954,176.28621311035155,276.87844473876953C174.08171311035156,279.53874473876954,164.43561311035157,286.5829447387695,159.58165311035157,288.5517447387695C154.72767311035156,290.52054473876956,149.44809311035155,274.08464473876955,151.31500811035156,274.08464473876955C151.31500811035156,274.08464473876955,151.31500811035156,274.08464473876955,151.31500811035156,274.08464473876955Z" fill="#F0B95E" fill-opacity="1"/></g></g><g style="mix-blend-mode:passthrough" filter="url(#master_svg1a_0_886)"><path d="M102.33969422363282,288.5066785543945C115.56635422363281,290.54155325439456,139.0906542236328,291.51683325439456,141.5706542236328,290.31882325439454C152.8927542236328,284.8494732543945,145.8775542236328,292.91556325439456,138.43755422363282,296.22223325439455C135.0896542236328,297.7101832543945,124.93525422363281,301.23327325439453,111.43305422363281,301.7333732543945C103.99304422363281,302.00887325439453,95.17524422363282,287.40446325439456,102.33969422363282,288.5066785543945C102.33969422363282,288.5066785543945,102.33969422363282,288.5066785543945,102.33969422363282,288.5066785543945Z" fill="#CB8E43" fill-opacity="1"/></g></g></g></g></g></svg>