<svg xmlns="http://www.w3.org/2000/svg" xmlns:xlink="http://www.w3.org/1999/xlink" fill="none" version="1.1" width="248" height="248" viewBox="0 0 248 248"><defs><mask id="master_svg0_0_975"><g style="mix-blend-mode:passthrough"><ellipse cx="124" cy="124" rx="124" ry="124" fill="#FFFFFF" fill-opacity="1"/></g></mask><filter id="master_svg1_0_977" filterUnits="objectBoundingBox" color-interpolation-filters="sRGB" x="-53.34442138671875" y="-13.2218017578125" width="234.07608032226562" height="373.5753173828125"><feFlood flood-opacity="0" result="BackgroundImageFix"/><feColorMatrix in="SourceAlpha" type="matrix" values="0 0 0 0 0 0 0 0 0 0 0 0 0 0 0 0 0 0 127 0"/><feOffset dy="19.832727432250977" dx="-8.263636589050293"/><feGaussianBlur stdDeviation="8.263636589050293"/><feColorMatrix type="matrix" values="0 0 0 0 0.031354159116744995 0 0 0 0 0.27895110845565796 0 0 0 0 0.3583333194255829 0 0 0 1 0"/><feBlend mode="normal" in2="BackgroundImageFix" result="effect1_dropShadow"/><feBlend mode="normal" in="SourceGraphic" in2="effect1_dropShadow" result="shape"/></filter><filter id="master_svg2_0_979" filterUnits="objectBoundingBox" color-interpolation-filters="sRGB" x="-30.581872940063477" y="-30.581872940063477" width="197.65597915649414" height="69.98867416381836"><feFlood flood-opacity="0" result="BackgroundImageFix"/><feBlend mode="normal" in="SourceGraphic" in2="BackgroundImageFix" result="shape"/><feGaussianBlur stdDeviation="7.645468235015869" result="effect1_foregroundBlur"/></filter><filter id="master_svg3_0_980" filterUnits="objectBoundingBox" color-interpolation-filters="sRGB" x="-9.409807205200195" y="-9.409807205200195" width="132.3671989440918" height="28.821208953857422"><feFlood flood-opacity="0" result="BackgroundImageFix"/><feBlend mode="normal" in="SourceGraphic" in2="BackgroundImageFix" result="shape"/><feGaussianBlur stdDeviation="2.352451801300049" result="effect1_foregroundBlur"/></filter><filter id="master_svg4_0_982" filterUnits="objectBoundingBox" color-interpolation-filters="sRGB" x="0" y="0" width="134.95449829101562" height="204.6522674560547"><feFlood flood-opacity="0" result="BackgroundImageFix"/><feBlend mode="normal" in="SourceGraphic" in2="BackgroundImageFix" result="shape"/><feColorMatrix in="SourceAlpha" type="matrix" result="hardAlpha" values="0 0 0 0 0 0 0 0 0 0 0 0 0 0 0 0 0 0 127 0"/><feOffset dy="1.1762259006500244" dx="-3.5286777019500732"/><feGaussianBlur stdDeviation="8.821694374084473"/><feComposite in2="hardAlpha" operator="arithmetic" k2="-1" k3="1"/><feColorMatrix type="matrix" values="0 0 0 0 0.46666666865348816 0 0 0 0 0.4274509847164154 0 0 0 0 0.4431372582912445 0 0 0 0.5799999833106995 0"/><feBlend mode="normal" in2="shape" result="effect1_innerShadow"/><feColorMatrix in="SourceAlpha" type="matrix" result="hardAlpha" values="0 0 0 0 0 0 0 0 0 0 0 0 0 0 0 0 0 0 127 0"/><feOffset dy="0" dx="2.9405646324157715"/><feGaussianBlur stdDeviation="3.5286777019500732"/><feComposite in2="hardAlpha" operator="arithmetic" k2="-1" k3="1"/><feColorMatrix type="matrix" values="0 0 0 0 0.6041666865348816 0 0 0 0 0.5815104246139526 0 0 0 0 0.5928385257720947 0 0 0 1 0"/><feBlend mode="normal" in2="effect1_innerShadow" result="effect2_innerShadow"/><feColorMatrix in="SourceAlpha" type="matrix" result="hardAlpha" values="0 0 0 0 0 0 0 0 0 0 0 0 0 0 0 0 0 0 127 0"/><feOffset dy="0.5881129503250122" dx="14.114710807800293"/><feGaussianBlur stdDeviation="5.881129264831543"/><feComposite in2="hardAlpha" operator="arithmetic" k2="-1" k3="1"/><feColorMatrix type="matrix" values="0 0 0 0 0.34166666865348816 0 0 0 0 0.3075000047683716 0 0 0 0 0.34166666865348816 0 0 0 0.5400000214576721 0"/><feBlend mode="normal" in2="effect2_innerShadow" result="effect3_innerShadow"/><feColorMatrix in="SourceAlpha" type="matrix" result="hardAlpha" values="0 0 0 0 0 0 0 0 0 0 0 0 0 0 0 0 0 0 127 0"/><feOffset dy="6.469242095947266" dx="0"/><feGaussianBlur stdDeviation="3.5286777019500732"/><feComposite in2="hardAlpha" operator="arithmetic" k2="-1" k3="1"/><feColorMatrix type="matrix" values="0 0 0 0 0.47058823704719543 0 0 0 0 0.43921568989753723 0 0 0 0 0.4588235318660736 0 0 0 0.6000000238418579 0"/><feBlend mode="normal" in2="effect3_innerShadow" result="effect4_innerShadow"/><feColorMatrix in="SourceAlpha" type="matrix" result="hardAlpha" values="0 0 0 0 0 0 0 0 0 0 0 0 0 0 0 0 0 0 127 0"/><feOffset dy="-2.352451801300049" dx="17.055274963378906"/><feGaussianBlur stdDeviation="5.881129264831543"/><feComposite in2="hardAlpha" operator="arithmetic" k2="-1" k3="1"/><feColorMatrix type="matrix" values="0 0 0 0 0.42352941632270813 0 0 0 0 0.3921568691730499 0 0 0 0 0.4156862795352936 0 0 0 0.8299999833106995 0"/><feBlend mode="normal" in2="effect4_innerShadow" result="effect5_innerShadow"/><feColorMatrix in="SourceAlpha" type="matrix" result="hardAlpha" values="0 0 0 0 0 0 0 0 0 0 0 0 0 0 0 0 0 0 127 0"/><feOffset dy="-7.0573554039001465" dx="32.34621047973633"/><feGaussianBlur stdDeviation="17.643388748168945"/><feComposite in2="hardAlpha" operator="arithmetic" k2="-1" k3="1"/><feColorMatrix type="matrix" values="0 0 0 0 0.48627451062202454 0 0 0 0 0.45098039507865906 0 0 0 0 0.4627451002597809 0 0 0 1 0"/><feBlend mode="normal" in2="effect5_innerShadow" result="effect6_innerShadow"/></filter><filter id="master_svg5_0_983" filterUnits="objectBoundingBox" color-interpolation-filters="sRGB" x="-14.114710807800293" y="-14.114710807800293" width="52.66629409790039" height="71.31661796569824"><feFlood flood-opacity="0" result="BackgroundImageFix"/><feBlend mode="normal" in="SourceGraphic" in2="BackgroundImageFix" result="shape"/><feGaussianBlur stdDeviation="3.5286777019500732" result="effect1_foregroundBlur"/></filter><filter id="master_svg6_0_984" filterUnits="objectBoundingBox" color-interpolation-filters="sRGB" x="-14.114710807800293" y="-14.114710807800293" width="52.66629409790039" height="71.31661796569824"><feFlood flood-opacity="0" result="BackgroundImageFix"/><feBlend mode="normal" in="SourceGraphic" in2="BackgroundImageFix" result="shape"/><feGaussianBlur stdDeviation="3.5286777019500732" result="effect1_foregroundBlur"/></filter><filter id="master_svg7_0_985" filterUnits="objectBoundingBox" color-interpolation-filters="sRGB" x="-12.257984161376953" y="-12.257984161376953" width="33.88487720489502" height="56.48042297363281"><feFlood flood-opacity="0" result="BackgroundImageFix"/><feBlend mode="normal" in="SourceGraphic" in2="BackgroundImageFix" result="shape"/><feGaussianBlur stdDeviation="3.0644960403442383" result="effect1_foregroundBlur"/></filter><filter id="master_svg8_0_986" filterUnits="objectBoundingBox" color-interpolation-filters="sRGB" x="-14.114710807800293" y="-14.114710807800293" width="52.66629600524902" height="71.31661415100098"><feFlood flood-opacity="0" result="BackgroundImageFix"/><feBlend mode="normal" in="SourceGraphic" in2="BackgroundImageFix" result="shape"/><feGaussianBlur stdDeviation="3.5286777019500732" result="effect1_foregroundBlur"/></filter><filter id="master_svg9_0_987" filterUnits="objectBoundingBox" color-interpolation-filters="sRGB" x="-14.114710807800293" y="-14.114710807800293" width="52.66629409790039" height="71.31661796569824"><feFlood flood-opacity="0" result="BackgroundImageFix"/><feBlend mode="normal" in="SourceGraphic" in2="BackgroundImageFix" result="shape"/><feGaussianBlur stdDeviation="3.5286777019500732" result="effect1_foregroundBlur"/></filter><filter id="master_svga_0_990" filterUnits="objectBoundingBox" color-interpolation-filters="sRGB" x="0" y="0" width="36.57261276245117" height="30.571857452392578"><feFlood flood-opacity="0" result="BackgroundImageFix"/><feBlend mode="normal" in="SourceGraphic" in2="BackgroundImageFix" result="shape"/><feColorMatrix in="SourceAlpha" type="matrix" result="hardAlpha" values="0 0 0 0 0 0 0 0 0 0 0 0 0 0 0 0 0 0 127 0"/><feOffset dy="0" dx="1.1762259006500244"/><feGaussianBlur stdDeviation="1.1762259006500244"/><feComposite in2="hardAlpha" operator="arithmetic" k2="-1" k3="1"/><feColorMatrix type="matrix" values="0 0 0 0 1 0 0 0 0 1 0 0 0 0 1 0 0 0 0.25 0"/><feBlend mode="normal" in2="shape" result="effect1_innerShadow"/><feColorMatrix in="SourceAlpha" type="matrix" result="hardAlpha" values="0 0 0 0 0 0 0 0 0 0 0 0 0 0 0 0 0 0 127 0"/><feOffset dy="0" dx="6.469242095947266"/><feGaussianBlur stdDeviation="4.704903602600098"/><feComposite in2="hardAlpha" operator="arithmetic" k2="-1" k3="1"/><feColorMatrix type="matrix" values="0 0 0 0 0.545098066329956 0 0 0 0 0.5254902243614197 0 0 0 0 0.5333333611488342 0 0 0 0.6399999856948853 0"/><feBlend mode="normal" in2="effect1_innerShadow" result="effect2_innerShadow"/></filter><filter id="master_svgb_0_991" filterUnits="objectBoundingBox" color-interpolation-filters="sRGB" x="-2.646508276462555" y="-2.0583953261375427" width="14.11816120147705" height="10.588204860687256"><feFlood flood-opacity="0" result="BackgroundImageFix"/><feColorMatrix in="SourceAlpha" type="matrix" values="0 0 0 0 0 0 0 0 0 0 0 0 0 0 0 0 0 0 127 0"/><feOffset dy="0.2940564751625061" dx="-0.2940564751625061"/><feGaussianBlur stdDeviation="0.5881129503250122"/><feColorMatrix type="matrix" values="0 0 0 0 0 0 0 0 0 0 0 0 0 0 0 0 0 0 0.25 0"/><feBlend mode="normal" in2="BackgroundImageFix" result="effect1_dropShadow"/><feBlend mode="normal" in="SourceGraphic" in2="effect1_dropShadow" result="shape"/><feColorMatrix in="SourceAlpha" type="matrix" result="hardAlpha" values="0 0 0 0 0 0 0 0 0 0 0 0 0 0 0 0 0 0 127 0"/><feOffset dy="0.5881129503250122" dx="-0.5881129503250122"/><feGaussianBlur stdDeviation="0.5881129503250122"/><feComposite in2="hardAlpha" operator="arithmetic" k2="-1" k3="1"/><feColorMatrix type="matrix" values="0 0 0 0 1 0 0 0 0 1 0 0 0 0 1 0 0 0 0.5 0"/><feBlend mode="normal" in2="shape" result="effect2_innerShadow"/></filter><filter id="master_svgc_0_993" filterUnits="objectBoundingBox" color-interpolation-filters="sRGB" x="0" y="0" width="36.57261276245117" height="30.571857452392578"><feFlood flood-opacity="0" result="BackgroundImageFix"/><feBlend mode="normal" in="SourceGraphic" in2="BackgroundImageFix" result="shape"/><feColorMatrix in="SourceAlpha" type="matrix" result="hardAlpha" values="0 0 0 0 0 0 0 0 0 0 0 0 0 0 0 0 0 0 127 0"/><feOffset dy="0" dx="1.1762259006500244"/><feGaussianBlur stdDeviation="1.1762259006500244"/><feComposite in2="hardAlpha" operator="arithmetic" k2="-1" k3="1"/><feColorMatrix type="matrix" values="0 0 0 0 1 0 0 0 0 1 0 0 0 0 1 0 0 0 0.25 0"/><feBlend mode="normal" in2="shape" result="effect1_innerShadow"/><feColorMatrix in="SourceAlpha" type="matrix" result="hardAlpha" values="0 0 0 0 0 0 0 0 0 0 0 0 0 0 0 0 0 0 127 0"/><feOffset dy="0" dx="6.469242095947266"/><feGaussianBlur stdDeviation="4.704903602600098"/><feComposite in2="hardAlpha" operator="arithmetic" k2="-1" k3="1"/><feColorMatrix type="matrix" values="0 0 0 0 0.545098066329956 0 0 0 0 0.5254902243614197 0 0 0 0 0.5333333611488342 0 0 0 0.6399999856948853 0"/><feBlend mode="normal" in2="effect1_innerShadow" result="effect2_innerShadow"/></filter><filter id="master_svgd_0_994" filterUnits="objectBoundingBox" color-interpolation-filters="sRGB" x="-2.940564751625061" y="-2.0583953261375427" width="14.11816120147705" height="10.588204860687256"><feFlood flood-opacity="0" result="BackgroundImageFix"/><feColorMatrix in="SourceAlpha" type="matrix" values="0 0 0 0 0 0 0 0 0 0 0 0 0 0 0 0 0 0 127 0"/><feOffset dy="0.2940564751625061" dx="-0.5881129503250122"/><feGaussianBlur stdDeviation="0.5881129503250122"/><feColorMatrix type="matrix" values="0 0 0 0 0 0 0 0 0 0 0 0 0 0 0 0 0 0 0.25 0"/><feBlend mode="normal" in2="BackgroundImageFix" result="effect1_dropShadow"/><feBlend mode="normal" in="SourceGraphic" in2="effect1_dropShadow" result="shape"/><feColorMatrix in="SourceAlpha" type="matrix" result="hardAlpha" values="0 0 0 0 0 0 0 0 0 0 0 0 0 0 0 0 0 0 127 0"/><feOffset dy="0.5881129503250122" dx="-0.5881129503250122"/><feGaussianBlur stdDeviation="0.5881129503250122"/><feComposite in2="hardAlpha" operator="arithmetic" k2="-1" k3="1"/><feColorMatrix type="matrix" values="0 0 0 0 1 0 0 0 0 1 0 0 0 0 1 0 0 0 0.5 0"/><feBlend mode="normal" in2="shape" result="effect2_innerShadow"/></filter><filter id="master_svge_0_996" filterUnits="objectBoundingBox" color-interpolation-filters="sRGB" x="-7.0573554039001465" y="-7.0573554039001465" width="129.7945737838745" height="66.43454647064209"><feFlood flood-opacity="0" result="BackgroundImageFix"/><feBlend mode="normal" in="SourceGraphic" in2="BackgroundImageFix" result="shape"/><feGaussianBlur stdDeviation="1.7643388509750366" result="effect1_foregroundBlur"/></filter><filter id="master_svgf_0_997" filterUnits="objectBoundingBox" color-interpolation-filters="sRGB" x="-2.352451801300049" y="-2.352451801300049" width="119.98524570465088" height="48.69320011138916"><feFlood flood-opacity="0" result="BackgroundImageFix"/><feBlend mode="normal" in="SourceGraphic" in2="BackgroundImageFix" result="shape"/><feGaussianBlur stdDeviation="0.5881129503250122" result="effect1_foregroundBlur"/></filter><filter id="master_svgg_0_998" filterUnits="objectBoundingBox" color-interpolation-filters="sRGB" x="0" y="0" width="137.1151885986328" height="154.3902587890625"><feFlood flood-opacity="0" result="BackgroundImageFix"/><feBlend mode="normal" in="SourceGraphic" in2="BackgroundImageFix" result="shape"/><feColorMatrix in="SourceAlpha" type="matrix" result="hardAlpha" values="0 0 0 0 0 0 0 0 0 0 0 0 0 0 0 0 0 0 127 0"/><feOffset dy="6.469242095947266" dx="0"/><feGaussianBlur stdDeviation="3.5286777019500732"/><feComposite in2="hardAlpha" operator="arithmetic" k2="-1" k3="1"/><feColorMatrix type="matrix" values="0 0 0 0 0.47058823704719543 0 0 0 0 0.43921568989753723 0 0 0 0 0.4588235318660736 0 0 0 0.6000000238418579 0"/><feBlend mode="normal" in2="shape" result="effect1_innerShadow"/><feColorMatrix in="SourceAlpha" type="matrix" result="hardAlpha" values="0 0 0 0 0 0 0 0 0 0 0 0 0 0 0 0 0 0 127 0"/><feOffset dy="-2.352451801300049" dx="4.704903602600098"/><feGaussianBlur stdDeviation="2.64650821685791"/><feComposite in2="hardAlpha" operator="arithmetic" k2="-1" k3="1"/><feColorMatrix type="matrix" values="0 0 0 0 0.42352941632270813 0 0 0 0 0.3921568691730499 0 0 0 0 0.4156862795352936 0 0 0 0.8299999833106995 0"/><feBlend mode="normal" in2="effect1_innerShadow" result="effect2_innerShadow"/><feColorMatrix in="SourceAlpha" type="matrix" result="hardAlpha" values="0 0 0 0 0 0 0 0 0 0 0 0 0 0 0 0 0 0 127 0"/><feOffset dy="-2.352451801300049" dx="5.29301643371582"/><feGaussianBlur stdDeviation="6.469242095947266"/><feComposite in2="hardAlpha" operator="arithmetic" k2="-1" k3="1"/><feColorMatrix type="matrix" values="0 0 0 0 0.48627451062202454 0 0 0 0 0.45098039507865906 0 0 0 0 0.4627451002597809 0 0 0 1 0"/><feBlend mode="normal" in2="effect2_innerShadow" result="effect3_innerShadow"/></filter><filter id="master_svgh_0_999" filterUnits="objectBoundingBox" color-interpolation-filters="sRGB" x="-7.0573554039001465" y="-7.0573554039001465" width="67.99768352508545" height="40.48207759857178"><feFlood flood-opacity="0" result="BackgroundImageFix"/><feBlend mode="normal" in="SourceGraphic" in2="BackgroundImageFix" result="shape"/><feGaussianBlur stdDeviation="1.7643388509750366" result="effect1_foregroundBlur"/></filter><filter id="master_svgi_0_1000" filterUnits="objectBoundingBox" color-interpolation-filters="sRGB" x="-54.106390833854675" y="-62.92808485031128" width="160.00908279418945" height="162.36236953735352"><feFlood flood-opacity="0" result="BackgroundImageFix"/><feColorMatrix in="SourceAlpha" type="matrix" values="0 0 0 0 0 0 0 0 0 0 0 0 0 0 0 0 0 0 127 0"/><feOffset dy="-0.5881129503250122" dx="-0.5881129503250122"/><feGaussianBlur stdDeviation="5.587072849273682"/><feColorMatrix type="matrix" values="0 0 0 0 0.40833333134651184 0 0 0 0 0.2449999898672104 0 0 0 0 0.26249998807907104 0 0 0 1 0"/><feBlend mode="normal" in2="BackgroundImageFix" result="effect1_dropShadow"/><feColorMatrix in="SourceAlpha" type="matrix" values="0 0 0 0 0 0 0 0 0 0 0 0 0 0 0 0 0 0 127 0"/><feOffset dy="0" dx="-2.352451801300049"/><feGaussianBlur stdDeviation="0"/><feColorMatrix type="matrix" values="0 0 0 0 0.9098039269447327 0 0 0 0 0.5764706134796143 0 0 0 0 0.6235294342041016 0 0 0 1 0"/><feBlend mode="normal" in2="effect1_dropShadow" result="effect2_dropShadow"/><feColorMatrix in="SourceAlpha" type="matrix" values="0 0 0 0 0 0 0 0 0 0 0 0 0 0 0 0 0 0 127 0"/><feOffset dy="1.7643388509750366" dx="1.7643388509750366"/><feGaussianBlur stdDeviation="0"/><feColorMatrix type="matrix" values="0 0 0 0 0.9098039269447327 0 0 0 0 0.5764706134796143 0 0 0 0 0.6235294342041016 0 0 0 1 0"/><feBlend mode="normal" in2="effect2_dropShadow" result="effect3_dropShadow"/><feColorMatrix in="SourceAlpha" type="matrix" values="0 0 0 0 0 0 0 0 0 0 0 0 0 0 0 0 0 0 127 0"/><feOffset dy="-1.1762259006500244" dx="0.5881129503250122"/><feGaussianBlur stdDeviation="1.7643388509750366"/><feColorMatrix type="matrix" values="0 0 0 0 0 0 0 0 0 0 0 0 0 0 0 0 0 0 0.25 0"/><feBlend mode="normal" in2="effect3_dropShadow" result="effect4_dropShadow"/><feColorMatrix in="SourceAlpha" type="matrix" values="0 0 0 0 0 0 0 0 0 0 0 0 0 0 0 0 0 0 127 0"/><feOffset dy="-2.9405646324157715" dx="2.9405646324157715"/><feGaussianBlur stdDeviation="2.352451801300049"/><feColorMatrix type="matrix" values="0 0 0 0 0.875 0 0 0 0 0.8385416865348816 0 0 0 0 0.8704427480697632 0 0 0 0.6700000166893005 0"/><feBlend mode="normal" in2="effect4_dropShadow" result="effect5_dropShadow"/><feColorMatrix in="SourceAlpha" type="matrix" values="0 0 0 0 0 0 0 0 0 0 0 0 0 0 0 0 0 0 127 0"/><feOffset dy="0.5881129503250122" dx="1.7643388509750366"/><feGaussianBlur stdDeviation="1.7643388509750366"/><feColorMatrix type="matrix" values="0 0 0 0 0.45098039507865906 0 0 0 0 0.41960784792900085 0 0 0 0 0.4431372582912445 0 0 0 1 0"/><feBlend mode="normal" in2="effect5_dropShadow" result="effect6_dropShadow"/><feColorMatrix in="SourceAlpha" type="matrix" values="0 0 0 0 0 0 0 0 0 0 0 0 0 0 0 0 0 0 127 0"/><feOffset dy="1.1762259006500244" dx="3.5286777019500732"/><feGaussianBlur stdDeviation="3.5286777019500732"/><feColorMatrix type="matrix" values="0 0 0 0 0.5708333253860474 0 0 0 0 0.49947917461395264 0 0 0 0 0.5529947876930237 0 0 0 1 0"/><feBlend mode="normal" in2="effect6_dropShadow" result="effect7_dropShadow"/><feBlend mode="normal" in="SourceGraphic" in2="effect7_dropShadow" result="shape"/><feColorMatrix in="SourceAlpha" type="matrix" result="hardAlpha" values="0 0 0 0 0 0 0 0 0 0 0 0 0 0 0 0 0 0 127 0"/><feOffset dy="0.5881129503250122" dx="0.5881129503250122"/><feGaussianBlur stdDeviation="1.7643388509750366"/><feComposite in2="hardAlpha" operator="arithmetic" k2="-1" k3="1"/><feColorMatrix type="matrix" values="0 0 0 0 0.5041666626930237 0 0 0 0 0.3067013621330261 0 0 0 0 0.3261241614818573 0 0 0 1 0"/><feBlend mode="normal" in2="shape" result="effect8_innerShadow"/><feColorMatrix in="SourceAlpha" type="matrix" result="hardAlpha" values="0 0 0 0 0 0 0 0 0 0 0 0 0 0 0 0 0 0 127 0"/><feOffset dy="-1.1762259006500244" dx="16.4671630859375"/><feGaussianBlur stdDeviation="8.821694374084473"/><feComposite in2="hardAlpha" operator="arithmetic" k2="-1" k3="1"/><feColorMatrix type="matrix" values="0 0 0 0 0.572549045085907 0 0 0 0 0.3450980484485626 0 0 0 0 0.36862748861312866 0 0 0 0.7799999713897705 0"/><feBlend mode="normal" in2="effect8_innerShadow" result="effect9_innerShadow"/></filter><filter id="master_svgj_0_1001" filterUnits="objectBoundingBox" color-interpolation-filters="sRGB" x="-34.11054992675781" y="-34.11054992675781" width="120.43196105957031" height="121.90547943115234"><feFlood flood-opacity="0" result="BackgroundImageFix"/><feBlend mode="normal" in="SourceGraphic" in2="BackgroundImageFix" result="shape"/><feGaussianBlur stdDeviation="8.527637481689453" result="effect1_foregroundBlur"/></filter><filter id="master_svgk_0_1003" filterUnits="objectBoundingBox" color-interpolation-filters="sRGB" x="-9.409807205200195" y="-6.469242453575134" width="55.27019023895264" height="52.63549327850342"><feFlood flood-opacity="0" result="BackgroundImageFix"/><feColorMatrix in="SourceAlpha" type="matrix" values="0 0 0 0 0 0 0 0 0 0 0 0 0 0 0 0 0 0 127 0"/><feOffset dy="0.5881129503250122" dx="-2.352451801300049"/><feGaussianBlur stdDeviation="1.7643388509750366"/><feColorMatrix type="matrix" values="0 0 0 0 0.5291666388511658 0 0 0 0 0.19402778148651123 0 0 0 0 0.19402778148651123 0 0 0 1 0"/><feBlend mode="normal" in2="BackgroundImageFix" result="effect1_dropShadow"/><feBlend mode="normal" in="SourceGraphic" in2="effect1_dropShadow" result="shape"/><feColorMatrix in="SourceAlpha" type="matrix" result="hardAlpha" values="0 0 0 0 0 0 0 0 0 0 0 0 0 0 0 0 0 0 127 0"/><feOffset dy="0" dx="1.1762259006500244"/><feGaussianBlur stdDeviation="1.1762259006500244"/><feComposite in2="hardAlpha" operator="arithmetic" k2="-1" k3="1"/><feColorMatrix type="matrix" values="0 0 0 0 1 0 0 0 0 1 0 0 0 0 1 0 0 0 0.25 0"/><feBlend mode="normal" in2="shape" result="effect2_innerShadow"/><feColorMatrix in="SourceAlpha" type="matrix" result="hardAlpha" values="0 0 0 0 0 0 0 0 0 0 0 0 0 0 0 0 0 0 127 0"/><feOffset dy="0" dx="6.469242095947266"/><feGaussianBlur stdDeviation="4.704903602600098"/><feComposite in2="hardAlpha" operator="arithmetic" k2="-1" k3="1"/><feColorMatrix type="matrix" values="0 0 0 0 0.5916666388511658 0 0 0 0 0.4634721875190735 0 0 0 0 0.49952688813209534 0 0 0 0.699999988079071 0"/><feBlend mode="normal" in2="effect2_innerShadow" result="effect3_innerShadow"/></filter><filter id="master_svgl_0_1004" filterUnits="objectBoundingBox" color-interpolation-filters="sRGB" x="-5.881129503250122" y="-3.5286777019500732" width="41.90287208557129" height="41.46559715270996"><feFlood flood-opacity="0" result="BackgroundImageFix"/><feColorMatrix in="SourceAlpha" type="matrix" values="0 0 0 0 0 0 0 0 0 0 0 0 0 0 0 0 0 0 127 0"/><feOffset dy="1.1762259006500244" dx="-1.1762259006500244"/><feGaussianBlur stdDeviation="1.1762259006500244"/><feColorMatrix type="matrix" values="0 0 0 0 0.44999998807907104 0 0 0 0 0.17812499403953552 0 0 0 0 0.21767041087150574 0 0 0 1 0"/><feBlend mode="normal" in2="BackgroundImageFix" result="effect1_dropShadow"/><feBlend mode="normal" in="SourceGraphic" in2="effect1_dropShadow" result="shape"/><feColorMatrix in="SourceAlpha" type="matrix" result="hardAlpha" values="0 0 0 0 0 0 0 0 0 0 0 0 0 0 0 0 0 0 127 0"/><feOffset dy="0" dx="1.1762259006500244"/><feGaussianBlur stdDeviation="1.1762259006500244"/><feComposite in2="hardAlpha" operator="arithmetic" k2="-1" k3="1"/><feColorMatrix type="matrix" values="0 0 0 0 1 0 0 0 0 1 0 0 0 0 1 0 0 0 0.25 0"/><feBlend mode="normal" in2="shape" result="effect2_innerShadow"/><feColorMatrix in="SourceAlpha" type="matrix" result="hardAlpha" values="0 0 0 0 0 0 0 0 0 0 0 0 0 0 0 0 0 0 127 0"/><feOffset dy="0" dx="6.469242095947266"/><feGaussianBlur stdDeviation="4.704903602600098"/><feComposite in2="hardAlpha" operator="arithmetic" k2="-1" k3="1"/><feColorMatrix type="matrix" values="0 0 0 0 0.5916666388511658 0 0 0 0 0.4634721875190735 0 0 0 0 0.49952688813209534 0 0 0 0.699999988079071 0"/><feBlend mode="normal" in2="effect2_innerShadow" result="effect3_innerShadow"/></filter><filter id="master_svgm_0_1006" filterUnits="objectBoundingBox" color-interpolation-filters="sRGB" x="0" y="0" width="9.413257598876953" height="9.413257598876953"><feFlood flood-opacity="0" result="BackgroundImageFix"/><feBlend mode="normal" in="SourceGraphic" in2="BackgroundImageFix" result="shape"/><feColorMatrix in="SourceAlpha" type="matrix" result="hardAlpha" values="0 0 0 0 0 0 0 0 0 0 0 0 0 0 0 0 0 0 127 0"/><feOffset dy="0.5881129503250122" dx="-0.5881129503250122"/><feGaussianBlur stdDeviation="0.5881129503250122"/><feComposite in2="hardAlpha" operator="arithmetic" k2="-1" k3="1"/><feColorMatrix type="matrix" values="0 0 0 0 1 0 0 0 0 1 0 0 0 0 1 0 0 0 0.5 0"/><feBlend mode="normal" in2="shape" result="effect1_innerShadow"/></filter><filter id="master_svgn_0_1007" filterUnits="objectBoundingBox" color-interpolation-filters="sRGB" x="-5.881129264831543" y="-5.881129264831543" width="15.880558490753174" height="12.925117492675781"><feFlood flood-opacity="0" result="BackgroundImageFix"/><feBlend mode="normal" in="SourceGraphic" in2="BackgroundImageFix" result="shape"/><feGaussianBlur stdDeviation="1.4702823162078857" result="effect1_foregroundBlur"/></filter><filter id="master_svgo_0_1008" filterUnits="objectBoundingBox" color-interpolation-filters="sRGB" x="-1.1762259006500244" y="-1.1762259006500244" width="5.165146350860596" height="3.1095580458641052"><feFlood flood-opacity="0" result="BackgroundImageFix"/><feBlend mode="normal" in="SourceGraphic" in2="BackgroundImageFix" result="shape"/><feGaussianBlur stdDeviation="0.2940564751625061" result="effect1_foregroundBlur"/></filter><filter id="master_svgp_0_1010" filterUnits="objectBoundingBox" color-interpolation-filters="sRGB" x="0" y="0" width="9.413257598876953" height="9.413257598876953"><feFlood flood-opacity="0" result="BackgroundImageFix"/><feBlend mode="normal" in="SourceGraphic" in2="BackgroundImageFix" result="shape"/><feColorMatrix in="SourceAlpha" type="matrix" result="hardAlpha" values="0 0 0 0 0 0 0 0 0 0 0 0 0 0 0 0 0 0 127 0"/><feOffset dy="0.5881129503250122" dx="-0.5881129503250122"/><feGaussianBlur stdDeviation="0.5881129503250122"/><feComposite in2="hardAlpha" operator="arithmetic" k2="-1" k3="1"/><feColorMatrix type="matrix" values="0 0 0 0 1 0 0 0 0 1 0 0 0 0 1 0 0 0 0.5 0"/><feBlend mode="normal" in2="shape" result="effect1_innerShadow"/></filter><filter id="master_svgq_0_1011" filterUnits="objectBoundingBox" color-interpolation-filters="sRGB" x="-5.881129264831543" y="-5.881129264831543" width="15.880558490753174" height="12.925117492675781"><feFlood flood-opacity="0" result="BackgroundImageFix"/><feBlend mode="normal" in="SourceGraphic" in2="BackgroundImageFix" result="shape"/><feGaussianBlur stdDeviation="1.4702823162078857" result="effect1_foregroundBlur"/></filter><filter id="master_svgr_0_1012" filterUnits="objectBoundingBox" color-interpolation-filters="sRGB" x="-1.1762259006500244" y="-1.1762259006500244" width="5.213037967681885" height="2.9645420908927917"><feFlood flood-opacity="0" result="BackgroundImageFix"/><feBlend mode="normal" in="SourceGraphic" in2="BackgroundImageFix" result="shape"/><feGaussianBlur stdDeviation="0.2940564751625061" result="effect1_foregroundBlur"/></filter><filter id="master_svgs_0_1013" filterUnits="objectBoundingBox" color-interpolation-filters="sRGB" x="-5.881129264831543" y="-5.881129264831543" width="19.41053009033203" height="30.588781356811523"><feFlood flood-opacity="0" result="BackgroundImageFix"/><feBlend mode="normal" in="SourceGraphic" in2="BackgroundImageFix" result="shape"/><feGaussianBlur stdDeviation="1.4702823162078857" result="effect1_foregroundBlur"/></filter><filter id="master_svgt_0_1014" filterUnits="objectBoundingBox" color-interpolation-filters="sRGB" x="-2.352451801300049" y="-2.352451801300049" width="7.646546363830566" height="16.471474647521973"><feFlood flood-opacity="0" result="BackgroundImageFix"/><feBlend mode="normal" in="SourceGraphic" in2="BackgroundImageFix" result="shape"/><feGaussianBlur stdDeviation="0.5881129503250122" result="effect1_foregroundBlur"/></filter><filter id="master_svgu_0_1016" filterUnits="objectBoundingBox" color-interpolation-filters="sRGB" x="-9.409807205200195" y="-5.29301655292511" width="134.539324760437" height="45.913580894470215"><feFlood flood-opacity="0" result="BackgroundImageFix"/><feColorMatrix in="SourceAlpha" type="matrix" values="0 0 0 0 0 0 0 0 0 0 0 0 0 0 0 0 0 0 127 0"/><feOffset dy="1.7643388509750366" dx="-2.352451801300049"/><feGaussianBlur stdDeviation="1.7643388509750366"/><feColorMatrix type="matrix" values="0 0 0 0 0.3583333194255829 0 0 0 0 0.23590277135372162 0 0 0 0 0.25144949555397034 0 0 0 1 0"/><feBlend mode="normal" in2="BackgroundImageFix" result="effect1_dropShadow"/><feBlend mode="normal" in="SourceGraphic" in2="effect1_dropShadow" result="shape"/><feColorMatrix in="SourceAlpha" type="matrix" result="hardAlpha" values="0 0 0 0 0 0 0 0 0 0 0 0 0 0 0 0 0 0 127 0"/><feOffset dy="-1.7643388509750366" dx="2.352451801300049"/><feGaussianBlur stdDeviation="2.352451801300049"/><feComposite in2="hardAlpha" operator="arithmetic" k2="-1" k3="1"/><feColorMatrix type="matrix" values="0 0 0 0 0.11826387047767639 0 0 0 0 0.3859027624130249 0 0 0 0 0.5458333492279053 0 0 0 1 0"/><feBlend mode="normal" in2="shape" result="effect2_innerShadow"/><feColorMatrix in="SourceAlpha" type="matrix" result="hardAlpha" values="0 0 0 0 0 0 0 0 0 0 0 0 0 0 0 0 0 0 127 0"/><feOffset dy="-0.5881129503250122" dx="5.29301643371582"/><feGaussianBlur stdDeviation="4.410847187042236"/><feComposite in2="hardAlpha" operator="arithmetic" k2="-1" k3="1"/><feColorMatrix type="matrix" values="0 0 0 0 0.23137255012989044 0 0 0 0 0.47058823704719543 0 0 0 0 0.615686297416687 0 0 0 1 0"/><feBlend mode="normal" in2="effect2_innerShadow" result="effect3_innerShadow"/></filter><filter id="master_svgv_0_1017" filterUnits="objectBoundingBox" color-interpolation-filters="sRGB" x="-15.290936708450317" y="-15.290936708450317" width="116.18985271453857" height="20.179516315460205"><feFlood flood-opacity="0" result="BackgroundImageFix"/><feColorMatrix in="SourceAlpha" type="matrix" values="0 0 0 0 0 0 0 0 0 0 0 0 0 0 0 0 0 0 127 0"/><feOffset dy="-2.352451801300049" dx="0"/><feGaussianBlur stdDeviation="1.7643388509750366"/><feColorMatrix type="matrix" values="0 0 0 0 0.12467014789581299 0 0 0 0 0.48312437534332275 0 0 0 0 0.6958333253860474 0 0 0 1 0"/><feBlend mode="normal" in2="BackgroundImageFix" result="effect1_dropShadow"/><feColorMatrix in="SourceAlpha" type="matrix" values="0 0 0 0 0 0 0 0 0 0 0 0 0 0 0 0 0 0 127 0"/><feOffset dy="2.352451801300049" dx="0"/><feGaussianBlur stdDeviation="1.1762259006500244"/><feColorMatrix type="matrix" values="0 0 0 0 0.1343749761581421 0 0 0 0 0.4994626045227051 0 0 0 0 0.7166666388511658 0 0 0 1 0"/><feBlend mode="normal" in2="effect1_dropShadow" result="effect2_dropShadow"/><feBlend mode="normal" in="SourceGraphic" in2="effect2_dropShadow" result="shape"/><feGaussianBlur stdDeviation="0.8821694254875183" result="effect3_foregroundBlur"/></filter><filter id="master_svgw_0_1018" filterUnits="objectBoundingBox" color-interpolation-filters="sRGB" x="-4.704903602600098" y="-4.704903602600098" width="23.366345405578613" height="11.785938739776611"><feFlood flood-opacity="0" result="BackgroundImageFix"/><feBlend mode="normal" in="SourceGraphic" in2="BackgroundImageFix" result="shape"/><feGaussianBlur stdDeviation="1.1762259006500244" result="effect1_foregroundBlur"/></filter><filter id="master_svgx_0_1019" filterUnits="objectBoundingBox" color-interpolation-filters="sRGB" x="-4.704903602600098" y="-4.704903602600098" width="22.353050231933594" height="11.174792885780334"><feFlood flood-opacity="0" result="BackgroundImageFix"/><feBlend mode="normal" in="SourceGraphic" in2="BackgroundImageFix" result="shape"/><feGaussianBlur stdDeviation="1.1762259006500244" result="effect1_foregroundBlur"/></filter><filter id="master_svgy_0_1020" filterUnits="objectBoundingBox" color-interpolation-filters="sRGB" x="-9.409807205200195" y="-7.0573554039001465" width="28.172344207763672" height="12.629392147064209"><feFlood flood-opacity="0" result="BackgroundImageFix"/><feColorMatrix in="SourceAlpha" type="matrix" values="0 0 0 0 0 0 0 0 0 0 0 0 0 0 0 0 0 0 127 0"/><feOffset dy="2.352451801300049" dx="0"/><feGaussianBlur stdDeviation="1.1762259006500244"/><feColorMatrix type="matrix" values="0 0 0 0 0.05079859495162964 0 0 0 0 0.42161932587623596 0 0 0 0 0.6416666507720947 0 0 0 1 0"/><feBlend mode="normal" in2="BackgroundImageFix" result="effect1_dropShadow"/><feBlend mode="normal" in="SourceGraphic" in2="effect1_dropShadow" result="shape"/><feGaussianBlur stdDeviation="1.1762259006500244" result="effect2_foregroundBlur"/></filter><filter id="master_svgz_0_1021" filterUnits="objectBoundingBox" color-interpolation-filters="sRGB" x="-9.409807205200195" y="-8.821694254875183" width="21.184457778930664" height="12.160545825958252"><feFlood flood-opacity="0" result="BackgroundImageFix"/><feColorMatrix in="SourceAlpha" type="matrix" values="0 0 0 0 0 0 0 0 0 0 0 0 0 0 0 0 0 0 127 0"/><feOffset dy="0.5881129503250122" dx="0"/><feGaussianBlur stdDeviation="1.1762259006500244"/><feColorMatrix type="matrix" values="0 0 0 0 0.05079859495162964 0 0 0 0 0.42161932587623596 0 0 0 0 0.6416666507720947 0 0 0 1 0"/><feBlend mode="normal" in2="BackgroundImageFix" result="effect1_dropShadow"/><feBlend mode="normal" in="SourceGraphic" in2="effect1_dropShadow" result="shape"/><feGaussianBlur stdDeviation="1.1762259006500244" result="effect2_foregroundBlur"/></filter><filter id="master_svg10_0_1022" filterUnits="objectBoundingBox" color-interpolation-filters="sRGB" x="-7.0573554039001465" y="-7.0573554039001465" width="48.41160488128662" height="20.015252113342285"><feFlood flood-opacity="0" result="BackgroundImageFix"/><feBlend mode="normal" in="SourceGraphic" in2="BackgroundImageFix" result="shape"/><feGaussianBlur stdDeviation="1.7643388509750366" result="effect1_foregroundBlur"/></filter><filter id="master_svg11_0_1023" filterUnits="objectBoundingBox" color-interpolation-filters="sRGB" x="-23.524517059326172" y="-23.524517059326172" width="83.48987579345703" height="77.96975898742676"><feFlood flood-opacity="0" result="BackgroundImageFix"/><feBlend mode="normal" in="SourceGraphic" in2="BackgroundImageFix" result="shape"/><feGaussianBlur stdDeviation="5.881129264831543" result="effect1_foregroundBlur"/></filter></defs><g style="mix-blend-mode:passthrough"><g style="mix-blend-mode:passthrough"><ellipse cx="124" cy="124" rx="124" ry="124" fill="#1B9EC8" fill-opacity="1"/></g><g style="mix-blend-mode:passthrough" mask="url(#master_svg0_0_975)"><g style="mix-blend-mode:passthrough" filter="url(#master_svg1_0_977)"><g style="mix-blend-mode:passthrough"><g style="opacity:0.6700000166893005;mix-blend-mode:passthrough" filter="url(#master_svg2_0_979)"><ellipse cx="122.80611419677734" cy="338.65893173217773" rx="68.2461166381836" ry="4.412464141845703" fill="#54363E" fill-opacity="1"/></g><g style="opacity:0.699999988079071;mix-blend-mode:passthrough" transform="matrix(0.9995121359825134,0.031232835724949837,-0.031232833862304688,0.9995121359825134,10.324681801666884,-1.90217692894214)" filter="url(#master_svg3_0_980)"><path d="M178.91659814453124,334.34689048095703C178.91659814453124,335.674370480957,174.38559814453123,335.54866048095704,124.54329814453125,338.55321048095703C66.05064842783125,341.55768048095706,66.05059814453125,336.87618048095703,66.05059814453125,335.54866048095704C66.05059814453125,334.22121048095704,68.93409814453125,329.53968227177705,139.37259814453125,329.53968048095703C188.05759814453126,329.53968048095703,178.91659814453124,333.01941048095705,178.91659814453124,334.34689048095703C178.91659814453124,334.34689048095703,178.91659814453124,334.34689048095703,178.91659814453124,334.34689048095703Z" fill="#372127" fill-opacity="1"/></g></g><g style="mix-blend-mode:passthrough"><g style="mix-blend-mode:passthrough" filter="url(#master_svg4_0_982)"><path d="M56.325042724609375,195.53079356689454C56.325042724609375,195.53079356689454,56.325042724609375,133.75626756689454,56.325042724609375,133.75626756689454C107.80374272460938,133.75626756689454,196.34704272460937,126.40216356689453,191.05204272460938,158.76019356689454C185.75704272460936,191.11799356689454,190.16904272460937,243.48009356689454,187.8160427246094,252.30509356689453C185.46304272460938,261.12909356689454,185.16904272460937,264.07109356689455,187.8160427246094,302.6070935668945C190.46404272460939,341.1420935668946,166.34204272460937,336.4350935668945,158.9880427246094,335.8470935668945C151.63424272460938,335.25909356689453,108.09794272460937,338.20009356689457,82.21154272460937,337.61209356689454C56.325042724609375,337.0240935668945,59.56084272460937,295.25309356689456,59.855012724609374,289.07509356689457C60.149182724609375,282.89709356689457,58.38419272460938,236.71409356689452,58.09003272460937,229.94819356689453C57.79586272460938,223.1821935668945,56.325042724609375,209.35649356689453,56.325042724609375,195.53079356689454C56.325042724609375,195.53079356689454,56.325042724609375,195.53079356689454,56.325042724609375,195.53079356689454Z" fill="#B6A9B3" fill-opacity="1"/></g><g style="opacity:0.30000001192092896;mix-blend-mode:passthrough" transform="matrix(0.7662355303764343,-0.642559826374054,0.642559826374054,0.7662355303764343,-178.15050670969185,130.1937978353967)" filter="url(#master_svg5_0_983)"><path d="M95.27633172851563,311.5957004418945C96.67101172851562,314.3850104418945,98.29800172851563,316.93511044189455,96.43849172851563,319.95689044189453C94.57893172851563,322.9786904418945,98.72759172851562,327.25549044189455,101.28447172851563,329.5798904418945C103.84137172851563,331.90429044189455,106.43347172851563,348.5472904418945,111.54727172851562,348.5472904418945C116.66097172851562,348.5472904418945,114.33097172851562,354.83859044189455,107.12527172851563,352.5141904418945C99.91957172851562,350.1897904418945,99.05710172851562,353.42519044189453,98.82464172851563,344.1274904418945C98.59224172851563,334.82979044189454,98.03721172851563,338.9609904418945,95.94525172851563,335.70679044189455C93.85325172851563,332.45259044189453,92.95184172851563,330.41679044189453,92.48696172851562,328.0923904418945C92.48455172851563,328.08029044189453,92.48218172851563,328.0685904418945,92.47984172851562,328.05689044189455C92.33965172851562,327.65629044189455,92.25657172851562,326.94669044189453,92.47984172851562,328.05689044189455C92.62191172851563,328.4627904418945,92.82261172851562,328.5513904418945,92.82261172851562,326.1072904418945C92.82261172851562,321.2259904418945,89.85977172851562,324.62639044189456,89.85977172851562,319.5126004418945C89.85977172851562,314.3988804418945,91.78968172851563,306.48196044189456,95.27633172851563,311.5957004418945C95.27633172851563,311.5957004418945,95.27633172851563,311.5957004418945,95.27633172851563,311.5957004418945Z" fill="#7E7479" fill-opacity="1"/></g><g style="opacity:0.20000000298023224;mix-blend-mode:passthrough" transform="matrix(0.9659258723258972,0.2588188648223877,-0.2588188350200653,0.9659258723258972,59.38875199638619,-16.76433541947108)" filter="url(#master_svg6_0_984)"><path d="M98.77987176757813,218.82250708251954C100.17455176757812,221.61181708251954,101.80154176757813,224.16191708251952,99.94203176757813,227.18369708251953C98.08247176757813,230.20549708251954,102.23113176757812,234.48229708251952,104.78801176757813,236.80669708251952C107.34491176757813,239.13109708251955,109.93701176757813,255.77409708251952,115.05081176757812,255.77409708251952C120.16451176757812,255.77409708251952,117.83451176757812,262.06539708251955,110.62881176757813,259.7409970825195C103.42311176757812,257.4165970825195,102.56064176757812,260.65199708251953,102.32818176757813,251.35429708251954C102.09578176757813,242.05659708251954,101.54075176757813,246.18779708251952,99.44879176757813,242.93359708251953C97.35679176757813,239.67939708251953,96.45538176757813,237.64359708251953,95.99050176757812,235.31919708251954C95.98809176757813,235.30709708251953,95.98572176757813,235.29539708251954,95.98338176757812,235.28369708251952C95.84319176757812,234.88309708251953,95.76011176757812,234.17349708251953,95.98338176757812,235.28369708251952C96.12545176757813,235.68959708251953,96.32615176757812,235.77819708251954,96.32615176757812,233.33409708251952C96.32615176757812,228.45279708251954,93.36331176757812,231.85319708251953,93.36331176757812,226.73940708251953C93.36331176757812,221.62568708251953,95.29322176757813,213.70876708251953,98.77987176757813,218.82250708251954C98.77987176757813,218.82250708251954,98.77987176757813,218.82250708251954,98.77987176757813,218.82250708251954Z" fill="#7E7479" fill-opacity="1"/></g><g style="opacity:0.10000000149011612;mix-blend-mode:passthrough" filter="url(#master_svg7_0_985)"><path d="M162.0183302832031,285.53984372314454C162.10794028320313,287.6685037231445,162.41314028320312,289.76190372314454,160.3721002832031,290.6575137231445C158.33107028320313,291.55317372314454,159.74373028320312,295.6582537231445,160.70316028320312,298.01575372314454C161.66259028320312,300.37335372314453,158.56278028320313,310.6768537231445,161.80687028320312,312.8168537231445C165.05094028320312,314.9567537231445,161.77942028320314,317.46655372314456,157.87084028320314,313.16365372314453C153.9622702832031,308.86065372314454,152.49284028320312,310.2919537231445,154.99578028320312,305.04455372314453C157.49873028320312,299.79715372314456,155.96902028320312,301.85315372314454,155.5695502832031,299.1752537231445C155.17008028320313,296.4972537231445,155.17855028320312,294.9923537231445,155.54624028320313,293.51028372314454C155.5481502832031,293.50262372314455,155.55001028320314,293.4950737231445,155.55184028320312,293.4876837231445C155.57709028320312,293.2071137231445,155.72668028320314,292.77928372314454,155.55184028320312,293.4876837231445C155.52624028320312,293.7719537231445,155.62833028320313,293.90495372314456,156.32505028320313,292.5511837231445C157.71651028320312,289.8473737231445,154.8676302832031,290.4910237231445,156.32535028320314,287.65844372314456C157.78307028320313,284.8258737231445,161.26419028320313,281.2482037231445,162.0183302832031,285.53984372314454C162.0183302832031,285.53984372314454,162.0183302832031,285.53984372314454,162.0183302832031,285.53984372314454Z" fill="#7E7479" fill-opacity="1"/></g><g style="opacity:0.6000000238418579;mix-blend-mode:passthrough" transform="matrix(0.9992314577102661,-0.039198137819767,0.039198137819767,0.9992314577102661,-11.280799229218076,2.94902219782648)" filter="url(#master_svg8_0_986)"><path d="M74.98098260742188,290.8063938012695C76.37566260742187,293.5957038012695,78.00265260742188,296.14580380126955,76.14314260742188,299.16758380126953C74.28358260742188,302.1893838012695,78.43224260742187,306.46618380126955,80.98912260742188,308.7905838012695C83.54602260742188,311.11498380126955,86.13812260742188,327.7579838012695,91.25192260742188,327.7579838012695C96.36562260742187,327.7579838012695,94.03562260742187,334.04928380126955,86.82992260742188,331.7248838012695C79.62422260742187,329.4004838012695,78.76175260742187,332.63588380126953,78.52929260742188,323.3381838012695C78.29689260742188,314.04048380126954,77.74186260742188,318.1716838012695,75.64990260742188,314.91748380126955C73.55790260742188,311.66328380126953,72.65649260742188,309.62748380126953,72.19161260742187,307.3030838012695C72.18920260742188,307.29098380126953,72.18683260742188,307.2792838012695,72.18449260742187,307.26758380126955C72.04430260742187,306.86698380126955,71.96122260742187,306.15738380126953,72.18449260742187,307.26758380126955C72.32656260742188,307.6734838012695,72.52726260742187,307.7620838012695,72.52726260742187,305.3179838012695C72.52726260742187,300.4366838012695,69.56442260742188,303.83708380126956,69.56442260742188,298.7232938012695C69.56442260742188,293.6095738012695,71.49433260742188,285.69265380126956,74.98098260742188,290.8063938012695C74.98098260742188,290.8063938012695,74.98098260742188,290.8063938012695,74.98098260742188,290.8063938012695Z" fill="#7E7479" fill-opacity="1"/></g><g style="opacity:0.699999988079071;mix-blend-mode:passthrough" transform="matrix(0.9741021990776062,0.22610817849636078,-0.22610819339752197,0.9741021990776062,56.03731168370268,-10.198480988879965)" filter="url(#master_svg9_0_987)"><path d="M77.95559198242188,241.17895239501954C79.35027198242187,243.96826239501954,80.97726198242188,246.51836239501952,79.11775198242188,249.54014239501953C77.25819198242188,252.56194239501954,81.40685198242187,256.83874239501955,83.96373198242188,259.1631423950195C86.52063198242188,261.48754239501955,89.11273198242188,278.1305423950195,94.22653198242188,278.1305423950195C99.34023198242187,278.1305423950195,97.01023198242187,284.42184239501955,89.80453198242188,282.0974423950195C82.59883198242187,279.7730423950195,81.73636198242187,283.00844239501953,81.50390198242188,273.7107423950195C81.27150198242188,264.41304239501954,80.71647198242188,268.5442423950195,78.62451198242188,265.29004239501955C76.53251198242188,262.03584239501953,75.63110198242188,260.00004239501953,75.16622198242187,257.6756423950195C75.16381198242188,257.66354239501953,75.16144198242188,257.6518423950195,75.15910198242187,257.64014239501955C75.01891198242187,257.23954239501955,74.93583198242187,256.52994239501953,75.15910198242187,257.64014239501955C75.30117198242188,258.0460423950195,75.50187198242187,258.1346423950195,75.50187198242187,255.69054239501952C75.50187198242187,250.80924239501954,72.53903198242188,254.20964239501953,72.53903198242188,249.09585239501953C72.53903198242188,243.98213239501953,74.46894198242188,236.06521239501953,77.95559198242188,241.17895239501954C77.95559198242188,241.17895239501954,77.95559198242188,241.17895239501954,77.95559198242188,241.17895239501954Z" fill="#7E7479" fill-opacity="1"/></g></g><g style="mix-blend-mode:passthrough"><g style="mix-blend-mode:passthrough"><g style="mix-blend-mode:passthrough" filter="url(#master_svga_0_990)"><path d="M104.32444965820312,42.496445904394534C90.20457365820313,43.43777450439453,89.02791865820312,59.16575450439453,90.20457465820313,66.91215450439454C96.97035965820312,77.79615450439454,125.79844965820313,72.20705450439453,126.38674965820312,64.85295450439453C126.97514965820312,57.49875450439453,121.97434965820312,41.31978450439453,104.32444965820312,42.496445904394534C104.32444965820312,42.496445904394534,104.32444965820312,42.496445904394534,104.32444965820312,42.496445904394534Z" fill="#EEEEEE" fill-opacity="1"/></g><g style="mix-blend-mode:passthrough" filter="url(#master_svgb_0_991)"><path d="M105.22450696289063,44.23479668251953C103.74832396289062,44.33857608251953,99.54103696289063,48.526767082519534,107.58645696289062,49.95305708251953C114.37718696289062,51.15684708251953,113.78668696289063,43.632880082519534,105.22450696289063,44.23479668251953C105.22450696289063,44.23479668251953,105.22450696289063,44.23479668251953,105.22450696289063,44.23479668251953Z" fill="#292929" fill-opacity="1"/></g></g><g style="mix-blend-mode:passthrough" transform="matrix(-1,0,0,1,318.75732421875,0)"><g style="mix-blend-mode:passthrough" filter="url(#master_svgc_0_993)"><path d="M173.843462109375,42.496445904394534C159.723586109375,43.43777450439453,158.546931109375,59.16575450439453,159.723587109375,66.91215450439454C166.489372109375,77.79615450439454,195.31746210937501,72.20705450439453,195.905762109375,64.85295450439453C196.494162109375,57.49875450439453,191.493362109375,41.31978450439453,173.843462109375,42.496445904394534C173.843462109375,42.496445904394534,173.843462109375,42.496445904394534,173.843462109375,42.496445904394534Z" fill="#EDECEC" fill-opacity="1"/></g><g style="mix-blend-mode:passthrough" transform="matrix(0.9659258127212524,-0.2588190734386444,0.2588190734386444,0.9659258127212524,-5.951966259573737,45.71075087187546)" filter="url(#master_svgd_0_994)"><path d="M173.0494276171875,45.49456230751953C171.5732446171875,45.59834170751953,167.3659576171875,49.786532707519534,175.4113776171875,51.21282270751953C182.2021076171875,52.41661270751953,181.6116076171875,44.892645707519534,173.0494276171875,45.49456230751953C173.0494276171875,45.49456230751953,173.0494276171875,45.49456230751953,173.0494276171875,45.49456230751953Z" fill="#292929" fill-opacity="1"/></g></g></g><g style="mix-blend-mode:passthrough"><g style="mix-blend-mode:passthrough" filter="url(#master_svge_0_996)"><path d="M87.21220346679688,203.63759083251952C138.04390346679688,223.40559083251952,169.38230346679688,202.65699083251954,178.69730346679688,189.81189083251954C139.9656034667969,183.63439083251953,60.26050346679688,129.80229083251953,63.09072676679688,182.16359083251953C63.56137046679687,190.87079083251953,79.36780346679687,200.10759083251952,87.21220346679688,203.63759083251952C87.21220346679688,203.63759083251952,87.21220346679688,203.63759083251952,87.21220346679688,203.63759083251952Z" fill="#665E63" fill-opacity="1"/></g><g style="mix-blend-mode:passthrough" filter="url(#master_svgf_0_997)"><path d="M88.09475844726563,202.46087325439453C138.92645844726565,222.22877325439453,170.55865844726563,200.89197325439454,179.87365844726563,188.04677325439454C141.14245844726562,181.86937325439453,39.911258447265624,143.73577325439453,70.15078844726563,186.57597325439454C73.68070844726563,191.57677325439454,78.68155844726563,198.80017325439454,88.09475844726563,202.46087325439453C88.09475844726563,202.46087325439453,88.09475844726563,202.46087325439453,88.09475844726563,202.46087325439453Z" fill="#61565D" fill-opacity="1"/></g><g style="mix-blend-mode:passthrough" filter="url(#master_svgg_0_998)"><path d="M56.38199952460938,144.27393497314455C54.73468272460938,83.08763497314453,89.23034272460937,60.14281497314453,106.68404272460938,56.31867497314453C126.98134272460938,53.08286497314453,178.46004272460937,48.96457497314453,190.52104272460937,113.38633497314453C203.44004272460938,182.39453497314452,170.51704272460938,203.40053497314454,149.6320427246094,207.22553497314453C136.54694272460938,209.62053497314454,58.441152724609374,220.75653497314454,56.38199952460938,144.27393497314455C56.38199952460938,144.27393497314455,56.38199952460938,144.27393497314455,56.38199952460938,144.27393497314455Z" fill="#B1A9B0" fill-opacity="1"/></g><g style="opacity:0.800000011920929;mix-blend-mode:passthrough" filter="url(#master_svgh_0_999)"><path d="M138.69116801757812,72.14616911376953C111.33376801757812,70.38117911376953,120.74695301757812,68.32202911376953,138.69116801757812,68.32202911376953C153.39926801757812,70.08701911376953,162.51856801757813,77.14696911376953,167.10706801757811,84.20692911376953C173.11576801757812,93.45212911376953,182.3115680175781,101.13102911376953,167.10706801757811,86.56022911376954C153.03116801757812,73.07087911376954,142.67256801757813,72.40290911376952,138.72806801757812,72.14854911376953C138.72806801757812,72.14854911376953,138.69116801757812,72.14616911376953,138.69116801757812,72.14616911376953C138.69116801757812,72.14616911376953,138.69116801757812,72.14616911376953,138.69116801757812,72.14616911376953Z" fill="#FFFFFF" fill-opacity="1"/></g><g style="mix-blend-mode:passthrough" filter="url(#master_svgi_0_1000)"><path d="M68.70026538085938,144.33907208251952C61.508325380859375,101.82237208251954,88.47826538085937,82.71440208251953,102.86206538085938,76.78093208251953C111.85196538085938,73.07251608251953,164.69276538085938,62.06837208251953,178.67726538085938,110.10957208251953C193.36126538085938,160.55277208251954,165.4918653808594,181.27057208251955,149.31016538085936,187.27557208251955C133.12846538085938,193.28057208251954,77.69026538085937,197.48457208251955,68.70026538085938,144.33907208251952C68.70026538085938,144.33907208251952,68.70026538085938,144.33907208251952,68.70026538085938,144.33907208251952Z" fill="#E8939F" fill-opacity="1"/></g><g style="opacity:0.800000011920929;mix-blend-mode:passthrough" filter="url(#master_svgj_0_1001)"><path d="M71.32026899414062,130.09659395751953C81.03481899414062,98.03267395751953,93.97801899414063,103.52374395751953,103.68551899414062,100.38599395751953C135.92601899414063,100.38599395751953,118.58271899414063,123.82109395751954,109.26751899414063,133.3323939575195C74.85024899414063,128.91989395751952,88.97011899414062,152.45309395751954,83.08681899414063,153.92389395751954C77.20355899414062,155.39469395751954,66.60195899414063,145.66989395751955,71.32026899414062,130.09659395751953C71.32026899414062,130.09659395751953,71.32026899414062,130.09659395751953,71.32026899414062,130.09659395751953Z" fill="#7E444D" fill-opacity="1"/></g></g><g style="mix-blend-mode:passthrough"><g style="mix-blend-mode:passthrough" filter="url(#master_svgk_0_1003)"><path d="M130.91050981445312,125.39638059082031C115.84957981445312,114.01708059082031,128.85133981445313,95.09752059082031,137.38210981445312,93.6266725908203C169.58040981445313,88.07516059082032,167.88310981445312,121.96188059082031,161.20940981445312,127.45558059082032C156.92920981445312,130.97888059082032,144.14790981445313,135.3979805908203,130.91050981445312,125.39638059082031C130.91050981445312,125.39638059082031,130.91050981445312,125.39638059082031,130.91050981445312,125.39638059082031Z" fill="#FFFFFF" fill-opacity="1"/></g><g style="mix-blend-mode:passthrough" filter="url(#master_svgl_0_1004)"><path d="M101.49403786132812,100.98088699707031C112.96645786132812,97.2347569970703,123.16415786132812,103.43225699707031,124.43885786132813,106.57003699707032C125.73005786132812,108.39916699707031,125.21965786132813,111.42769699707031,125.45355786132812,114.50579699707032C125.60315786132813,116.47339699707031,127.08035786132812,118.28729699707031,126.18465786132813,120.38909699707031C124.65075786132812,123.98879699707031,121.23345786132813,127.5703969970703,114.73135786132812,130.39729699707033C94.43409086132813,139.22229699707032,87.08000786132813,105.68753699707031,101.49403786132812,100.98088699707031C101.49403786132812,100.98088699707031,101.49403786132812,100.98088699707031,101.49403786132812,100.98088699707031Z" fill="#FFFFFF" fill-opacity="1"/></g><g style="mix-blend-mode:passthrough" transform="matrix(0.2588190734386444,0.9659258127212524,-0.9659258127212524,0.2588190734386444,210.22451873076034,-62.95934165794682)"><g style="mix-blend-mode:passthrough" transform="matrix(1,-1.6880433051369437e-8,1.6880433051369437e-8,1,-0.0000017809751113873062,0.0000024668620426382404)" filter="url(#master_svgm_0_1006)"><ellipse cx="150.84399604797363" cy="110.2119255065918" rx="4.706628799438477" ry="4.706628799438477" fill="#292929" fill-opacity="1"/></g><g style="mix-blend-mode:passthrough" transform="matrix(0.7759510278701782,-0.6307930946350098,0.630793035030365,0.7759510278701782,-34.63343168275867,119.8747774695355)" filter="url(#master_svgn_0_1007)"><ellipse cx="153.4916832447052" cy="109.27276134490967" rx="2.059149980545044" ry="0.5814294815063477" fill="#FFFFFF" fill-opacity="1"/></g><g style="mix-blend-mode:passthrough" transform="matrix(0.7759510278701782,-0.6307930946350098,0.6307931542396545,0.775951087474823,-34.1879564108832,120.5120664314851)" filter="url(#master_svgo_0_1008)"><ellipse cx="153.95875358581543" cy="108.76141330599785" rx="1.4063472747802734" ry="0.3785531222820282" fill="#FFFFFF" fill-opacity="1"/></g></g><g style="mix-blend-mode:passthrough" transform="matrix(0.2588190734386444,0.9659258127212524,-0.9659258127212524,0.2588190734386444,190.866439100521,-35.37805655891293)"><g style="mix-blend-mode:passthrough" transform="matrix(1,-1.6880433051369437e-8,1.6880433051369437e-8,1,-0.0000018008378361855648,0.000002000095179255368)" filter="url(#master_svgp_0_1010)"><ellipse cx="123.19264030456543" cy="111.38859748840332" rx="4.706628799438477" ry="4.706628799438477" fill="#292929" fill-opacity="1"/></g><g style="mix-blend-mode:passthrough" transform="matrix(0.7759510278701782,-0.6307930946350098,0.630793035030365,0.7759510278701782,-41.571003006810315,102.69615270708437)" filter="url(#master_svgq_0_1011)"><ellipse cx="125.840327501297" cy="110.44955539703369" rx="2.059149980545044" ry="0.5814294815063477" fill="#FFFFFF" fill-opacity="1"/></g><g style="mix-blend-mode:passthrough" transform="matrix(0.7759510278701782,-0.6307930946350098,0.630793035030365,0.775951087474823,-41.182259507996605,103.33798776113463)" filter="url(#master_svgr_0_1012)"><ellipse cx="126.30937099456787" cy="109.94785270094872" rx="1.430293083190918" ry="0.30604514479637146" fill="#FFFFFF" fill-opacity="1"/></g></g><g style="mix-blend-mode:passthrough" filter="url(#master_svgs_0_1013)"><path d="M127.08465608398437,114.54365832519531C128.26017608398436,122.62665832519531,132.25688608398437,124.7661583251953,125.20380608398438,119.7738583251953C123.32300608398438,122.86435832519531,124.49855608398437,117.56355832519532,124.49855608398437,114.54365832519531C124.49855608398437,112.09080832519531,121.19667908398438,108.13374832519531,121.67728738398438,106.93627832519532C121.78836308398438,106.65951832519531,123.88251608398437,109.29022832519532,124.02824608398437,109.07589832519531C131.78668608398436,97.6647083251953,125.90915608398437,106.46079832519531,127.08465608398437,114.54365832519531C127.08465608398437,114.54365832519531,127.08465608398437,114.54365832519531,127.08465608398437,114.54365832519531Z" fill="#FBFAFA" fill-opacity="1"/></g><g style="mix-blend-mode:passthrough" filter="url(#master_svgt_0_1014)"><path d="M124.07915890351562,108.80170652832031C123.69255960351562,108.1647245283203,124.56241160351563,107.82853692832032,125.04565860351562,107.74006652832031C128.18678860351562,110.39417652832032,126.49539860351562,119.15276652832031,126.25376860351562,119.15276652832031C126.01214860351563,119.15276652832031,124.56239960351563,119.94896652832031,125.04565860351562,119.15276652832031C125.52891860351562,118.35646652832031,124.56241160351563,109.5979465283203,124.07915890351562,108.80170652832031C124.07915890351562,108.80170652832031,124.07915890351562,108.80170652832031,124.07915890351562,108.80170652832031Z" fill="#FFFFFF" fill-opacity="1"/></g></g><g style="mix-blend-mode:passthrough"><g style="mix-blend-mode:passthrough" filter="url(#master_svgu_0_1016)"><path d="M65.82985559726562,145.16263995361328C64.18253969726563,131.51341595361328,85.14668969726563,130.45442595361328,95.83458969726563,131.6310829536133C108.67978969726562,133.8863399536133,139.95908969726563,136.6318699536133,162.3154896972656,133.10189995361327C190.26118969726562,128.6894399536133,187.02518969726563,141.63263995361328,184.67218969726562,150.16343995361328C182.31918969726564,158.69413995361327,159.6684896972656,159.57663995361327,150.25488969726564,161.63583995361327C140.84198969726563,163.69503995361327,122.60348969726562,163.40083995361329,114.07278969726562,161.63583995361327C105.54198969726562,159.87083995361328,97.89378969726562,159.57663995361327,93.48128969726562,159.57663995361327C89.06878969726563,159.57663995361327,67.88900969726562,162.22413995361327,65.82985559726562,145.16263995361328C65.82985559726562,145.16263995361328,65.82985559726562,145.16263995361328,65.82985559726562,145.16263995361328Z" fill="#47A2D7" fill-opacity="1"/></g><g style="mix-blend-mode:passthrough" filter="url(#master_svgv_0_1017)"><path d="M137.51430180664062,146.8637326098633C134.23630180664063,146.8637326098633,93.29160180664063,144.90264060986328,77.21060180664062,145.3929126098633C85.31441180664062,146.5506026098633,116.54260180664062,148.32025260986327,137.51430180664062,148.0403926098633C159.17350180664062,147.7513626098633,179.2856018066406,144.80458460986327,179.2856018066406,144.80458460986327C179.2856018066406,143.08933260986328,143.10370180664063,146.8637426098633,137.51430180664062,146.8637326098633C137.51430180664062,146.8637326098633,137.51430180664062,146.8637326098633,137.51430180664062,146.8637326098633Z" fill="#2178B2" fill-opacity="1"/></g><g style="opacity:0.6000000238418579;mix-blend-mode:passthrough" filter="url(#master_svgw_0_1018)"><path d="M107.99680896679688,141.86298370361328C107.99680896679688,141.86298370361328,120.64589096679687,141.86298370361328,120.64589096679687,141.86298370361328C122.11659096679688,143.6279737036133,121.82249096679688,143.92213370361327,117.99839096679688,144.21630370361328C114.17424096679687,144.51046370361328,105.34933096679687,141.86298370361328,107.99680896679688,141.86298370361328C107.99680896679688,141.86298370361328,107.99680896679688,141.86298370361328,107.99680896679688,141.86298370361328Z" fill="#D1EEFF" fill-opacity="1"/></g><g style="opacity:0.6000000238418579;mix-blend-mode:passthrough" filter="url(#master_svgx_0_1019)"><path d="M108.54980487304688,153.04120635986328C108.54980487304688,153.04120635986328,120.28046987304688,153.04120635986328,120.28046987304688,153.04120635986328C121.64446987304687,154.35223635986327,121.37166987304687,154.57073635986328,117.82525987304687,154.78924635986328C114.27874987304688,155.0077463598633,106.09454987304687,153.04120635986328,108.54980487304688,153.04120635986328C108.54980487304688,153.04120635986328,108.54980487304688,153.04120635986328,108.54980487304688,153.04120635986328Z" fill="#D1EEFF" fill-opacity="1"/></g><g style="opacity:0.6000000238418579;mix-blend-mode:passthrough" transform="matrix(0.9853581190109253,-0.1704978048801422,0.17049778997898102,0.9853581190109253,-22.44695193783457,24.567097846746037)" filter="url(#master_svgy_0_1020)"><path d="M133.3544932714844,143.0902452504883C136.0226532714844,143.55190125048827,145.26380327148436,143.0902452504883,149.52610327148437,143.0902452504883C151.40650327148438,145.3623442504883,151.03040327148437,145.7410142504883,146.1413032714844,146.11970425048827C136.93129327148438,146.8330642504883,128.18081327148437,142.19507625048828,133.3544932714844,143.0902452504883C133.3544932714844,143.0902452504883,133.3544932714844,143.0902452504883,133.3544932714844,143.0902452504883Z" fill="#D1EEFF" fill-opacity="1"/></g><g style="opacity:0.699999988079071;mix-blend-mode:passthrough" transform="matrix(0.9853581190109253,-0.1704978048801422,0.17049777507781982,0.9853581190109253,-24.23863900744891,25.498243578706024)" filter="url(#master_svgz_0_1021)"><path d="M137.30555896679687,153.9706853473633C138.97999596679688,154.36511204736328,144.7793659667969,153.9706853473633,147.45421596679688,153.9706853473633C148.63431596679686,155.91191104736328,148.39831596679687,156.23544104736328,145.33008596679687,156.5589810473633C139.5502259667969,157.16846104736328,134.05875596679687,153.2058770473633,137.30555896679687,153.9706853473633C137.30555896679687,153.9706853473633,137.30555896679687,153.9706853473633,137.30555896679687,153.9706853473633Z" fill="#D8F1FF" fill-opacity="1"/></g><g style="opacity:0.5;mix-blend-mode:passthrough" transform="matrix(0.9853581190109253,-0.17049777507781982,0.17049778997898102,0.9853580594062805,-26.38745263458452,23.515024188427105)" filter="url(#master_svg10_0_1022)"><path d="M124.26786314648437,165.49160615673827C126.38839014648437,166.01336115673828,146.81060014648438,167.8644581567383,150.19810014648436,167.8644581567383C162.36840014648436,167.8644581567383,159.44090014648438,170.9805881567383,147.50800014648436,171.28826815673827C140.14650014648439,171.47812815673828,120.15606014648438,164.47990515673828,124.26786314648437,165.49160615673827C124.26786314648437,165.49160615673827,124.26786314648437,165.49160615673827,124.26786314648437,165.49160615673827Z" fill="#FFEFF1" fill-opacity="1"/></g><g style="opacity:0.5;mix-blend-mode:passthrough" filter="url(#master_svg11_0_1023)"><path d="M103.09708051757812,161.27785050048828C88.27128051757812,153.27655050048827,93.19358051757813,137.74472050048828,97.50798051757812,130.97895050048828C66.91498051757813,130.97895050048828,65.81287351757813,139.37160050048828,66.91500251757813,150.3937505004883C68.38571051757812,165.10195050048827,94.76248051757813,161.6701505004883,103.09708051757812,161.27785050048828C103.09708051757812,161.27785050048828,103.09708051757812,161.27785050048828,103.09708051757812,161.27785050048828Z" fill="#1F455A" fill-opacity="1"/></g></g></g></g></g></svg>