<svg xmlns="http://www.w3.org/2000/svg" xmlns:xlink="http://www.w3.org/1999/xlink" fill="none" version="1.1" width="248" height="248" viewBox="0 0 248 248"><defs><mask id="master_svg0_0_1027"><g style="mix-blend-mode:passthrough"><ellipse cx="124" cy="124" rx="124" ry="124" fill="#FFFFFF" fill-opacity="1"/></g></mask><filter id="master_svg1_0_1029" filterUnits="objectBoundingBox" color-interpolation-filters="sRGB" x="-41.318177223205566" y="-13.221923828125" width="272.61871337890625" height="274.91650390625"><feFlood flood-opacity="0" result="BackgroundImageFix"/><feColorMatrix in="SourceAlpha" type="matrix" values="0 0 0 0 0 0 0 0 0 0 0 0 0 0 0 0 0 0 127 0"/><feOffset dy="19.832727432250977" dx="-8.263636589050293"/><feGaussianBlur stdDeviation="8.263636589050293"/><feColorMatrix type="matrix" values="0 0 0 0 0.1527777910232544 0 0 0 0 0.3913690149784088 0 0 0 0 0.6666666865348816 0 0 0 1 0"/><feBlend mode="normal" in2="BackgroundImageFix" result="effect1_dropShadow"/><feBlend mode="normal" in="SourceGraphic" in2="effect1_dropShadow" result="shape"/></filter><filter id="master_svg2_0_1031" filterUnits="objectBoundingBox" color-interpolation-filters="sRGB" x="-28.647274017333984" y="-28.647274017333984" width="207.74787139892578" height="65.56121444702148"><feFlood flood-opacity="0" result="BackgroundImageFix"/><feBlend mode="normal" in="SourceGraphic" in2="BackgroundImageFix" result="shape"/><feGaussianBlur stdDeviation="7.161818504333496" result="effect1_foregroundBlur"/></filter><filter id="master_svg3_0_1032" filterUnits="objectBoundingBox" color-interpolation-filters="sRGB" x="-8.814545631408691" y="-8.814545631408691" width="96.43786811828613" height="26.99798011779785"><feFlood flood-opacity="0" result="BackgroundImageFix"/><feBlend mode="normal" in="SourceGraphic" in2="BackgroundImageFix" result="shape"/><feGaussianBlur stdDeviation="2.203636407852173" result="effect1_foregroundBlur"/></filter><filter id="master_svg4_0_1033" filterUnits="objectBoundingBox" color-interpolation-filters="sRGB" x="-6.610909461975098" y="-6.610909461975098" width="58.71675682067871" height="25.090752601623535"><feFlood flood-opacity="0" result="BackgroundImageFix"/><feBlend mode="normal" in="SourceGraphic" in2="BackgroundImageFix" result="shape"/><feGaussianBlur stdDeviation="1.6527273654937744" result="effect1_foregroundBlur"/></filter><filter id="master_svg5_0_1034" filterUnits="objectBoundingBox" color-interpolation-filters="sRGB" x="-6.610909461975098" y="-6.610909461975098" width="56.5059757232666" height="25.333632469177246"><feFlood flood-opacity="0" result="BackgroundImageFix"/><feBlend mode="normal" in="SourceGraphic" in2="BackgroundImageFix" result="shape"/><feGaussianBlur stdDeviation="1.6527273654937744" result="effect1_foregroundBlur"/></filter><mask id="master_svg6_0_1038"><g style="mix-blend-mode:passthrough"><path d="M48.40058889312744,138.05329833984376C49.06188889312744,128.57418833984374,61.71908889312744,122.53033833984375,67.96498889312744,120.69329833984375C73.47628889312745,123.90810833984375,85.43548889312744,131.27459833984375,89.18298889312744,135.02219833984375C93.86748889312744,139.70659833984377,61.62718889312744,195.09329833984376,56.94278889312744,194.54219833984376C52.25838889312744,193.99109833984375,52.53388889312744,198.39999833984376,40.96058889312744,209.14659833984376C29.38718889312744,219.89329833984374,20.018338893127442,200.32889833984376,20.845008893127442,190.40889833984374C21.671678893127442,180.48889833984376,18.365008893127442,179.93769833984373,15.333898893127442,174.97769833984376C12.302788893127442,170.01769833984375,16.436128893127442,167.81329833984375,23.60055889312744,165.33329833984374C30.76498889312744,162.85329833984375,47.57388889312744,149.90219833984375,48.40058889312744,138.05329833984376C48.40058889312744,138.05329833984376,48.40058889312744,138.05329833984376,48.40058889312744,138.05329833984376Z" fill="#FFFFFF" fill-opacity="1"/></g></mask><filter id="master_svg7_0_1039" filterUnits="objectBoundingBox" color-interpolation-filters="sRGB" x="-16.527273178100586" y="-16.527273178100586" width="65.16373443603516" height="84.53742218017578"><feFlood flood-opacity="0" result="BackgroundImageFix"/><feBlend mode="normal" in="SourceGraphic" in2="BackgroundImageFix" result="shape"/><feGaussianBlur stdDeviation="4.1318182945251465" result="effect1_foregroundBlur"/></filter><filter id="master_svg8_0_1040" filterUnits="objectBoundingBox" color-interpolation-filters="sRGB" x="-6.610909461975098" y="-6.610909461975098" width="26.714396476745605" height="29.20561408996582"><feFlood flood-opacity="0" result="BackgroundImageFix"/><feBlend mode="normal" in="SourceGraphic" in2="BackgroundImageFix" result="shape"/><feGaussianBlur stdDeviation="1.6527273654937744" result="effect1_foregroundBlur"/></filter><filter id="master_svg9_0_1041" filterUnits="objectBoundingBox" color-interpolation-filters="sRGB" x="-16.527273178100586" y="-16.527273178100586" width="56.23064422607422" height="70.21431350708008"><feFlood flood-opacity="0" result="BackgroundImageFix"/><feBlend mode="normal" in="SourceGraphic" in2="BackgroundImageFix" result="shape"/><feGaussianBlur stdDeviation="4.1318182945251465" result="effect1_foregroundBlur"/></filter><filter id="master_svga_0_1042" filterUnits="objectBoundingBox" color-interpolation-filters="sRGB" x="-12.119999885559082" y="-12.119999885559082" width="47.68733024597168" height="75.74811363220215"><feFlood flood-opacity="0" result="BackgroundImageFix"/><feBlend mode="normal" in="SourceGraphic" in2="BackgroundImageFix" result="shape"/><feGaussianBlur stdDeviation="3.0299999713897705" result="effect1_foregroundBlur"/></filter><filter id="master_svgb_0_1045" filterUnits="objectBoundingBox" color-interpolation-filters="sRGB" x="0" y="0" width="42.316978454589844" height="88.42301177978516"><feFlood flood-opacity="0" result="BackgroundImageFix"/><feBlend mode="normal" in="SourceGraphic" in2="BackgroundImageFix" result="shape"/><feColorMatrix in="SourceAlpha" type="matrix" result="hardAlpha" values="0 0 0 0 0 0 0 0 0 0 0 0 0 0 0 0 0 0 127 0"/><feOffset dy="6.059999942779541" dx="3.8563637733459473"/><feGaussianBlur stdDeviation="3.0299999713897705"/><feComposite in2="hardAlpha" operator="arithmetic" k2="-1" k3="1"/><feColorMatrix type="matrix" values="0 0 0 0 0.8627451062202454 0 0 0 0 0.7490196228027344 0 0 0 0 0.5490196347236633 0 0 0 1 0"/><feBlend mode="normal" in2="shape" result="effect1_innerShadow"/><feColorMatrix in="SourceAlpha" type="matrix" result="hardAlpha" values="0 0 0 0 0 0 0 0 0 0 0 0 0 0 0 0 0 0 127 0"/><feOffset dy="1.1018182039260864" dx="-0.5509091019630432"/><feGaussianBlur stdDeviation="2.203636407852173"/><feComposite in2="hardAlpha" operator="arithmetic" k2="-1" k3="1"/><feColorMatrix type="matrix" values="0 0 0 0 0.4833333194255829 0 0 0 0 0.30775463581085205 0 0 0 0 0.11076390743255615 0 0 0 1 0"/><feBlend mode="normal" in2="effect1_innerShadow" result="effect2_innerShadow"/><feColorMatrix in="SourceAlpha" type="matrix" result="hardAlpha" values="0 0 0 0 0 0 0 0 0 0 0 0 0 0 0 0 0 0 127 0"/><feOffset dy="-4.958181858062744" dx="20.934545516967773"/><feGaussianBlur stdDeviation="21.21000099182129"/><feComposite in2="hardAlpha" operator="arithmetic" k2="-1" k3="1"/><feColorMatrix type="matrix" values="0 0 0 0 0.5958333611488342 0 0 0 0 0.4149015545845032 0 0 0 0 0.22840279340744019 0 0 0 1 0"/><feBlend mode="normal" in2="effect2_innerShadow" result="effect3_innerShadow"/></filter><filter id="master_svgc_0_1047" filterUnits="objectBoundingBox" color-interpolation-filters="sRGB" x="0" y="0" width="42.316978454589844" height="88.42301177978516"><feFlood flood-opacity="0" result="BackgroundImageFix"/><feBlend mode="normal" in="SourceGraphic" in2="BackgroundImageFix" result="shape"/><feColorMatrix in="SourceAlpha" type="matrix" result="hardAlpha" values="0 0 0 0 0 0 0 0 0 0 0 0 0 0 0 0 0 0 127 0"/><feOffset dy="1.1018182039260864" dx="-0.5509091019630432"/><feGaussianBlur stdDeviation="2.203636407852173"/><feComposite in2="hardAlpha" operator="arithmetic" k2="-1" k3="1"/><feColorMatrix type="matrix" values="0 0 0 0 1 0 0 0 0 0.9055640697479248 0 0 0 0 0.737500011920929 0 0 0 1 0"/><feBlend mode="normal" in2="shape" result="effect1_innerShadow"/><feColorMatrix in="SourceAlpha" type="matrix" result="hardAlpha" values="0 0 0 0 0 0 0 0 0 0 0 0 0 0 0 0 0 0 127 0"/><feOffset dy="-4.958181858062744" dx="20.934545516967773"/><feGaussianBlur stdDeviation="21.21000099182129"/><feComposite in2="hardAlpha" operator="arithmetic" k2="-1" k3="1"/><feColorMatrix type="matrix" values="0 0 0 0 0.5958333611488342 0 0 0 0 0.4149015545845032 0 0 0 0 0.22840279340744019 0 0 0 1 0"/><feBlend mode="normal" in2="effect1_innerShadow" result="effect2_innerShadow"/></filter><mask id="master_svgd_0_1047"><g style="mix-blend-mode:passthrough" filter="url(#master_svgc_0_1047)"><path d="M39.85289606109619,146.28632880859374C44.26178606109619,139.67302880859376,59.87653606109619,130.67155880859374,67.13293606109619,126.99748380859376C75.95063606109619,122.13106880859375,75.12403606109619,140.77532880859374,72.91953606109618,152.62412880859375C71.7769360610962,158.76602880859375,69.06183606109619,176.87302880859374,71.54173606109619,184.03752880859375C74.02173606109619,191.20202880859375,73.7462360610962,193.68202880859377,75.12403606109619,203.32642880859373C76.50183606109618,212.97092880859375,82.8395360610962,214.34872880859376,71.54173606109619,214.62422880859376C60.244036061096196,214.89982880859375,60.79513606109619,197.81532880859373,56.661836061096196,197.26422880859377C52.52843606109619,196.71312880859375,45.088456061096196,186.79312880859374,39.85289606109619,176.87302880859374C34.61734606109619,166.95302880859376,34.341786061096194,154.55302880859375,39.85289606109619,146.28632880859374C39.85289606109619,146.28632880859374,39.85289606109619,146.28632880859374,39.85289606109619,146.28632880859374Z" fill="#FFFFFF" fill-opacity="1"/></g></mask><filter id="master_svge_0_1048" filterUnits="objectBoundingBox" color-interpolation-filters="sRGB" x="-8.814545631408691" y="-8.814545631408691" width="57.771249771118164" height="95.5710620880127"><feFlood flood-opacity="0" result="BackgroundImageFix"/><feBlend mode="normal" in="SourceGraphic" in2="BackgroundImageFix" result="shape"/><feGaussianBlur stdDeviation="2.203636407852173" result="effect1_foregroundBlur"/></filter><filter id="master_svgf_0_1049" filterUnits="objectBoundingBox" color-interpolation-filters="sRGB" x="-6.610909461975098" y="-6.610909461975098" width="35.817373275756836" height="47.39071846008301"><feFlood flood-opacity="0" result="BackgroundImageFix"/><feBlend mode="normal" in="SourceGraphic" in2="BackgroundImageFix" result="shape"/><feGaussianBlur stdDeviation="1.6527273654937744" result="effect1_foregroundBlur"/></filter><filter id="master_svgg_0_1050" filterUnits="objectBoundingBox" color-interpolation-filters="sRGB" x="-8.814545631408691" y="-8.814545631408691" width="31.406869888305664" height="38.571319580078125"><feFlood flood-opacity="0" result="BackgroundImageFix"/><feBlend mode="normal" in="SourceGraphic" in2="BackgroundImageFix" result="shape"/><feGaussianBlur stdDeviation="2.203636407852173" result="effect1_foregroundBlur"/></filter><filter id="master_svgh_0_1051" filterUnits="objectBoundingBox" color-interpolation-filters="sRGB" x="-11.018181800842285" y="-11.018181800842285" width="32.507473945617676" height="62.267473220825195"><feFlood flood-opacity="0" result="BackgroundImageFix"/><feBlend mode="normal" in="SourceGraphic" in2="BackgroundImageFix" result="shape"/><feGaussianBlur stdDeviation="2.7545454502105713" result="effect1_foregroundBlur"/></filter><filter id="master_svgi_0_1053" filterUnits="objectBoundingBox" color-interpolation-filters="sRGB" x="0" y="0" width="41.176307678222656" height="88.45553588867188"><feFlood flood-opacity="0" result="BackgroundImageFix"/><feBlend mode="normal" in="SourceGraphic" in2="BackgroundImageFix" result="shape"/><feColorMatrix in="SourceAlpha" type="matrix" result="hardAlpha" values="0 0 0 0 0 0 0 0 0 0 0 0 0 0 0 0 0 0 127 0"/><feOffset dy="6.059999942779541" dx="3.8563637733459473"/><feGaussianBlur stdDeviation="3.0299999713897705"/><feComposite in2="hardAlpha" operator="arithmetic" k2="-1" k3="1"/><feColorMatrix type="matrix" values="0 0 0 0 0.9916666746139526 0 0 0 0 0.8034336566925049 0 0 0 0 0.48343753814697266 0 0 0 1 0"/><feBlend mode="normal" in2="shape" result="effect1_innerShadow"/><feColorMatrix in="SourceAlpha" type="matrix" result="hardAlpha" values="0 0 0 0 0 0 0 0 0 0 0 0 0 0 0 0 0 0 127 0"/><feOffset dy="-4.958181858062744" dx="20.934545516967773"/><feGaussianBlur stdDeviation="21.21000099182129"/><feComposite in2="hardAlpha" operator="arithmetic" k2="-1" k3="1"/><feColorMatrix type="matrix" values="0 0 0 0 0.7749999761581421 0 0 0 0 0.5802563428878784 0 0 0 0 0.23250001668930054 0 0 0 1 0"/><feBlend mode="normal" in2="effect1_innerShadow" result="effect2_innerShadow"/></filter><filter id="master_svgj_0_1055" filterUnits="objectBoundingBox" color-interpolation-filters="sRGB" x="0" y="0" width="41.176307678222656" height="88.45553588867188"><feFlood flood-opacity="0" result="BackgroundImageFix"/><feBlend mode="normal" in="SourceGraphic" in2="BackgroundImageFix" result="shape"/><feColorMatrix in="SourceAlpha" type="matrix" result="hardAlpha" values="0 0 0 0 0 0 0 0 0 0 0 0 0 0 0 0 0 0 127 0"/><feOffset dy="6.059999942779541" dx="3.8563637733459473"/><feGaussianBlur stdDeviation="3.0299999713897705"/><feComposite in2="hardAlpha" operator="arithmetic" k2="-1" k3="1"/><feColorMatrix type="matrix" values="0 0 0 0 0.875 0 0 0 0 0.7642747163772583 0 0 0 0 0.5760416984558105 0 0 0 1 0"/><feBlend mode="normal" in2="shape" result="effect1_innerShadow"/><feColorMatrix in="SourceAlpha" type="matrix" result="hardAlpha" values="0 0 0 0 0 0 0 0 0 0 0 0 0 0 0 0 0 0 127 0"/><feOffset dy="-4.958181858062744" dx="20.934545516967773"/><feGaussianBlur stdDeviation="21.21000099182129"/><feComposite in2="hardAlpha" operator="arithmetic" k2="-1" k3="1"/><feColorMatrix type="matrix" values="0 0 0 0 0.5958333611488342 0 0 0 0 0.4149015545845032 0 0 0 0 0.22840279340744019 0 0 0 1 0"/><feBlend mode="normal" in2="effect1_innerShadow" result="effect2_innerShadow"/></filter><mask id="master_svgk_0_1055"><g style="mix-blend-mode:passthrough" filter="url(#master_svgj_0_1055)"><path d="M219.34223239898682,141.91347451171876C214.9333323989868,130.89122451171875,199.50223239898682,128.31936911171874,192.33783239898682,128.41122114171876C191.69483239898682,133.92235451171874,190.7946323989868,146.98367451171876,192.33783239898682,155.14017451171875C194.26663239898681,165.33567451171876,189.0311223989868,192.33997451171876,188.48001239898682,195.09547451171875C188.03912239898682,197.29997451171874,182.41779239898682,210.52667451171874,179.66223239898682,216.86437451171875C181.86667239898682,216.86437451171875,187.1022323989868,215.21107451171875,190.40893239898682,208.59777451171874C194.5422323989868,200.33107451171875,201.15553239898682,192.61547451171873,207.4933323989868,182.69567451171875C207.4933323989868,182.69567451171875,207.6336323989868,182.47617451171874,207.6336323989868,182.47617451171874C213.99203239898682,172.52517451171875,224.81293239898682,155.59007451171874,219.34223239898682,141.91347451171876C219.34223239898682,141.91347451171876,219.34223239898682,141.91347451171876,219.34223239898682,141.91347451171876Z" fill="#FFFFFF" fill-opacity="1"/></g></mask><filter id="master_svgl_0_1056" filterUnits="objectBoundingBox" color-interpolation-filters="sRGB" x="-8.814545631408691" y="-8.814545631408691" width="41.80138969421387" height="60.7283878326416"><feFlood flood-opacity="0" result="BackgroundImageFix"/><feBlend mode="normal" in="SourceGraphic" in2="BackgroundImageFix" result="shape"/><feGaussianBlur stdDeviation="2.203636407852173" result="effect1_foregroundBlur"/></filter><linearGradient x1="0.5015842914581299" y1="0.3963974416255951" x2="0.5" y2="0.9999999403953552" id="master_svgm__83"><stop offset="0%" stop-color="#613D1D" stop-opacity="1"/><stop offset="100%" stop-color="#613D1D" stop-opacity="0"/></linearGradient><filter id="master_svgn_0_1057" filterUnits="objectBoundingBox" color-interpolation-filters="sRGB" x="-7.7127275466918945" y="-7.7127275466918945" width="32.213958740234375" height="57.80936622619629"><feFlood flood-opacity="0" result="BackgroundImageFix"/><feBlend mode="normal" in="SourceGraphic" in2="BackgroundImageFix" result="shape"/><feGaussianBlur stdDeviation="1.9281818866729736" result="effect1_foregroundBlur"/></filter><filter id="master_svgo_0_1058" filterUnits="objectBoundingBox" color-interpolation-filters="sRGB" x="-5.509090900421143" y="-5.509090900421143" width="24.244848251342773" height="35.267069816589355"><feFlood flood-opacity="0" result="BackgroundImageFix"/><feBlend mode="normal" in="SourceGraphic" in2="BackgroundImageFix" result="shape"/><feGaussianBlur stdDeviation="1.3772727251052856" result="effect1_foregroundBlur"/></filter><linearGradient x1="0.5015842914581299" y1="0.3963974416255951" x2="0.5" y2="0.9999999403953552" id="master_svgp__85"><stop offset="0%" stop-color="#511F03" stop-opacity="1"/><stop offset="100%" stop-color="#613D1D" stop-opacity="0"/></linearGradient><filter id="master_svgq_0_1059" filterUnits="objectBoundingBox" color-interpolation-filters="sRGB" x="0" y="0" width="127.11703491210938" height="198.46426391601562"><feFlood flood-opacity="0" result="BackgroundImageFix"/><feBlend mode="normal" in="SourceGraphic" in2="BackgroundImageFix" result="shape"/><feColorMatrix in="SourceAlpha" type="matrix" result="hardAlpha" values="0 0 0 0 0 0 0 0 0 0 0 0 0 0 0 0 0 0 127 0"/><feOffset dy="1.1018182039260864" dx="-0.5509091019630432"/><feGaussianBlur stdDeviation="2.203636407852173"/><feComposite in2="hardAlpha" operator="arithmetic" k2="-1" k3="1"/><feColorMatrix type="matrix" values="0 0 0 0 1 0 0 0 0 0.9055640697479248 0 0 0 0 0.737500011920929 0 0 0 1 0"/><feBlend mode="normal" in2="shape" result="effect1_innerShadow"/><feColorMatrix in="SourceAlpha" type="matrix" result="hardAlpha" values="0 0 0 0 0 0 0 0 0 0 0 0 0 0 0 0 0 0 127 0"/><feOffset dy="-4.958181858062744" dx="20.934545516967773"/><feGaussianBlur stdDeviation="21.21000099182129"/><feComposite in2="hardAlpha" operator="arithmetic" k2="-1" k3="1"/><feColorMatrix type="matrix" values="0 0 0 0 0.5958333611488342 0 0 0 0 0.4149015545845032 0 0 0 0 0.22840279340744019 0 0 0 1 0"/><feBlend mode="normal" in2="effect1_innerShadow" result="effect2_innerShadow"/></filter><filter id="master_svgr_0_1061" filterUnits="objectBoundingBox" color-interpolation-filters="sRGB" x="0" y="0" width="127.11703491210938" height="198.51805114746094"><feFlood flood-opacity="0" result="BackgroundImageFix"/><feBlend mode="normal" in="SourceGraphic" in2="BackgroundImageFix" result="shape"/><feColorMatrix in="SourceAlpha" type="matrix" result="hardAlpha" values="0 0 0 0 0 0 0 0 0 0 0 0 0 0 0 0 0 0 127 0"/><feOffset dy="1.1018182039260864" dx="-0.5509091019630432"/><feGaussianBlur stdDeviation="2.203636407852173"/><feComposite in2="hardAlpha" operator="arithmetic" k2="-1" k3="1"/><feColorMatrix type="matrix" values="0 0 0 0 1 0 0 0 0 0.9055640697479248 0 0 0 0 0.737500011920929 0 0 0 1 0"/><feBlend mode="normal" in2="shape" result="effect1_innerShadow"/><feColorMatrix in="SourceAlpha" type="matrix" result="hardAlpha" values="0 0 0 0 0 0 0 0 0 0 0 0 0 0 0 0 0 0 127 0"/><feOffset dy="-4.958181858062744" dx="20.934545516967773"/><feGaussianBlur stdDeviation="21.21000099182129"/><feComposite in2="hardAlpha" operator="arithmetic" k2="-1" k3="1"/><feColorMatrix type="matrix" values="0 0 0 0 0.5958333611488342 0 0 0 0 0.4149015545845032 0 0 0 0 0.22840279340744019 0 0 0 1 0"/><feBlend mode="normal" in2="effect1_innerShadow" result="effect2_innerShadow"/></filter><mask id="master_svgs_0_1061"><g style="mix-blend-mode:passthrough" filter="url(#master_svgr_0_1061)"><path d="M72.3241461392212,99.55459755859374C71.2219261392212,86.76879755859375,83.62196613922119,73.37689755859375,89.4085661392212,67.59019755859376C104.7024661392212,52.29622755859375,147.5919661392212,48.88498755859375,167.1150661392212,65.93679755859375C188.8835661392212,84.95019755859374,193.01756613922117,100.93239755859375,194.1195661392212,136.75439755859375C195.22156613922118,172.57699755859375,192.4665661392212,194.62099755859376,184.75056613922118,206.46999755859375C177.0355661392212,218.31899755859374,177.8615661392212,234.57699755859375,178.13756613922118,241.18999755859375C178.4125661392212,247.80299755859374,176.48356613922118,251.10999755859376,168.7685661392212,251.10999755859376C161.05286613922118,251.10999755859376,134.8750661392212,256.6209975585938,136.8039661392212,242.29199755859375C138.7328661392212,227.96299755859374,125.5061661392212,232.09699755859376,122.47506613922118,233.19899755859376C119.44416613922118,234.30099755859376,122.47506613922118,242.56799755859376,120.2707661392212,248.62999755859374C118.0663661392212,254.69199755859376,94.09166613922119,253.54899755859375,83.62196613922119,251.10999755859376C72.9769861392212,248.62999755859374,81.77876613922119,231.46699755859376,78.3863661392212,217.49199755859374C77.2090261392212,212.64299755859375,72.3241461392212,199.02999755859375,72.3241461392212,193.79399755859376C72.3241461392212,188.55899755859375,65.5369761392212,176.35599755859374,67.63970213922119,159.90099755859376C69.89494613922119,142.25339755859375,73.7019161392212,115.53659755859374,72.3241461392212,99.55459755859374C72.3241461392212,99.55459755859374,72.3241461392212,99.55459755859374,72.3241461392212,99.55459755859374Z" fill="#FFFFFF" fill-opacity="1"/></g></mask><filter id="master_svgt_0_1062" filterUnits="objectBoundingBox" color-interpolation-filters="sRGB" x="-17.629091262817383" y="-17.629091262817383" width="179.64943313598633" height="138.86701583862305"><feFlood flood-opacity="0" result="BackgroundImageFix"/><feBlend mode="normal" in="SourceGraphic" in2="BackgroundImageFix" result="shape"/><feGaussianBlur stdDeviation="4.407272815704346" result="effect1_foregroundBlur"/></filter><linearGradient x1="0.5992366075515747" y1="0.12234041839838028" x2="0.4820958375930786" y2="1.0465036630630493" id="master_svgu__87"><stop offset="0%" stop-color="#8C6639" stop-opacity="0"/><stop offset="36.45833432674408%" stop-color="#8C6639" stop-opacity="0"/><stop offset="100%" stop-color="#8C6639" stop-opacity="1"/></linearGradient><filter id="master_svgv_0_1063" filterUnits="objectBoundingBox" color-interpolation-filters="sRGB" x="-12.119999885559082" y="-12.119999885559082" width="60.91389274597168" height="46.76315116882324"><feFlood flood-opacity="0" result="BackgroundImageFix"/><feBlend mode="normal" in="SourceGraphic" in2="BackgroundImageFix" result="shape"/><feGaussianBlur stdDeviation="3.0299999713897705" result="effect1_foregroundBlur"/></filter><linearGradient x1="0.8415313959121704" y1="0.3670296370983124" x2="4.6178431745147464e-8" y2="0.33032676577568054" id="master_svgw__88"><stop offset="0%" stop-color="#E8C38D" stop-opacity="1"/><stop offset="100%" stop-color="#BE9558" stop-opacity="0"/></linearGradient><filter id="master_svgx_0_1064" filterUnits="objectBoundingBox" color-interpolation-filters="sRGB" x="-25.34181785583496" y="-25.34181785583496" width="84.26974868774414" height="79.60291481018066"><feFlood flood-opacity="0" result="BackgroundImageFix"/><feBlend mode="normal" in="SourceGraphic" in2="BackgroundImageFix" result="shape"/><feGaussianBlur stdDeviation="6.33545446395874" result="effect1_foregroundBlur"/></filter><filter id="master_svgy_0_1065" filterUnits="objectBoundingBox" color-interpolation-filters="sRGB" x="-6.610909461975098" y="-6.610909461975098" width="56.79644584655762" height="20.937374114990234"><feFlood flood-opacity="0" result="BackgroundImageFix"/><feBlend mode="normal" in="SourceGraphic" in2="BackgroundImageFix" result="shape"/><feGaussianBlur stdDeviation="1.6527273654937744" result="effect1_foregroundBlur"/></filter><filter id="master_svgz_0_1066" filterUnits="objectBoundingBox" color-interpolation-filters="sRGB" x="-14.323637008666992" y="-14.323637008666992" width="67.66351699829102" height="56.601314544677734"><feFlood flood-opacity="0" result="BackgroundImageFix"/><feBlend mode="normal" in="SourceGraphic" in2="BackgroundImageFix" result="shape"/><feGaussianBlur stdDeviation="3.580909252166748" result="effect1_foregroundBlur"/></filter><linearGradient x1="0.353130042552948" y1="0.10843198001384735" x2="0.4943820834159851" y2="0.8378835320472717" id="master_svg10__91"><stop offset="0%" stop-color="#946F41" stop-opacity="1"/><stop offset="100%" stop-color="#946F41" stop-opacity="0"/></linearGradient><linearGradient x1="0.873563289642334" y1="0.834916889667511" x2="0.6896552443504333" y2="0.2476133406162262" id="master_svg11__92"><stop offset="0%" stop-color="#0C2339" stop-opacity="1"/><stop offset="100%" stop-color="#32698E" stop-opacity="1"/></linearGradient><linearGradient x1="0.750522792339325" y1="1.0012016296386719" x2="0.5925180315971375" y2="0.35864219069480896" id="master_svg12__93"><stop offset="0%" stop-color="#0C2339" stop-opacity="1"/><stop offset="100%" stop-color="#32698E" stop-opacity="1"/></linearGradient><filter id="master_svg13_0_1070" filterUnits="objectBoundingBox" color-interpolation-filters="sRGB" x="-15.425455093383789" y="-15.425455093383789" width="153.30503463745117" height="43.304505348205566"><feFlood flood-opacity="0" result="BackgroundImageFix"/><feBlend mode="normal" in="SourceGraphic" in2="BackgroundImageFix" result="shape"/><feGaussianBlur stdDeviation="3.8563637733459473" result="effect1_foregroundBlur"/></filter><filter id="master_svg14_0_1071" filterUnits="objectBoundingBox" color-interpolation-filters="sRGB" x="-9.916363716125488" y="-9.916363716125488" width="151.79660987854004" height="49.98029327392578"><feFlood flood-opacity="0" result="BackgroundImageFix"/><feBlend mode="normal" in="SourceGraphic" in2="BackgroundImageFix" result="shape"/><feGaussianBlur stdDeviation="2.479090929031372" result="effect1_foregroundBlur"/></filter><filter id="master_svg15_0_1072" filterUnits="objectBoundingBox" color-interpolation-filters="sRGB" x="-2.203636407852173" y="-2.203636407852173" width="136.63345384597778" height="33.301477909088135"><feFlood flood-opacity="0" result="BackgroundImageFix"/><feBlend mode="normal" in="SourceGraphic" in2="BackgroundImageFix" result="shape"/><feGaussianBlur stdDeviation="0.5509091019630432" result="effect1_foregroundBlur"/></filter><filter id="master_svg16_0_1073" filterUnits="objectBoundingBox" color-interpolation-filters="sRGB" x="0" y="0" width="135.82530212402344" height="49.888671875"><feFlood flood-opacity="0" result="BackgroundImageFix"/><feBlend mode="normal" in="SourceGraphic" in2="BackgroundImageFix" result="shape"/><feColorMatrix in="SourceAlpha" type="matrix" result="hardAlpha" values="0 0 0 0 0 0 0 0 0 0 0 0 0 0 0 0 0 0 127 0"/><feOffset dy="-1.1018182039260864" dx="0"/><feGaussianBlur stdDeviation="1.6527273654937744"/><feComposite in2="hardAlpha" operator="arithmetic" k2="-1" k3="1"/><feColorMatrix type="matrix" values="0 0 0 0 0.16385415196418762 0 0 0 0 0.38613468408584595 0 0 0 0 0.5958333611488342 0 0 0 1 0"/><feBlend mode="normal" in2="shape" result="effect1_innerShadow"/><feColorMatrix in="SourceAlpha" type="matrix" result="hardAlpha" values="0 0 0 0 0 0 0 0 0 0 0 0 0 0 0 0 0 0 127 0"/><feOffset dy="-0.5881129503250122" dx="5.29301643371582"/><feGaussianBlur stdDeviation="4.410847187042236"/><feComposite in2="hardAlpha" operator="arithmetic" k2="-1" k3="1"/><feColorMatrix type="matrix" values="0 0 0 0 0.23137255012989044 0 0 0 0 0.47058823704719543 0 0 0 0 0.615686297416687 0 0 0 1 0"/><feBlend mode="normal" in2="effect1_innerShadow" result="effect2_innerShadow"/></filter><filter id="master_svg17_0_1075" filterUnits="objectBoundingBox" color-interpolation-filters="sRGB" x="0" y="0" width="135.83229064941406" height="49.78461837768555"><feFlood flood-opacity="0" result="BackgroundImageFix"/><feBlend mode="normal" in="SourceGraphic" in2="BackgroundImageFix" result="shape"/><feColorMatrix in="SourceAlpha" type="matrix" result="hardAlpha" values="0 0 0 0 0 0 0 0 0 0 0 0 0 0 0 0 0 0 127 0"/><feOffset dy="-0.5881129503250122" dx="5.29301643371582"/><feGaussianBlur stdDeviation="4.410847187042236"/><feComposite in2="hardAlpha" operator="arithmetic" k2="-1" k3="1"/><feColorMatrix type="matrix" values="0 0 0 0 0.23137255012989044 0 0 0 0 0.47058823704719543 0 0 0 0 0.615686297416687 0 0 0 1 0"/><feBlend mode="normal" in2="shape" result="effect1_innerShadow"/></filter><mask id="master_svg18_0_1075"><g style="mix-blend-mode:passthrough" filter="url(#master_svg17_0_1075)"><path d="M62.793389313537595,125.20404951171875C60.0185123135376,102.60842951171875,69.1311823135376,94.89292951171875,72.7133823135376,95.99514951171875C60.5889423135376,101.23071951171875,70.5089023135376,105.91514951171875,83.1844823135376,108.94624951171875C95.8599823135376,111.97734951171876,110.7400823135376,105.91514951171875,115.1489823135376,105.91514951171875C119.5580823135376,105.91514951171875,133.8869823135376,107.56844951171875,141.0513823135376,107.56844951171875C148.21588231353758,107.56844951171875,157.5847823135376,102.60847951171876,165.0245823135376,105.91514951171875C172.4645823135376,109.22184951171874,184.8645823135376,106.19074951171875,190.1005823135376,105.91514951171875C194.2885823135376,105.69470951171876,192.0625823135376,103.88435951171876,190.6845823135376,102.78213951171875C200.6045823135376,101.67991951171875,197.8155823135376,130.16404951171876,197.54058231353758,132.09294951171876C197.2645823135376,134.02184951171876,193.6825823135376,138.70624951171874,188.1715823135376,140.91074951171873C182.6605823135376,143.11514951171876,66.6511323135376,156.61744951171875,62.793389313537595,125.20404951171875C62.793389313537595,125.20404951171875,62.793389313537595,125.20404951171875,62.793389313537595,125.20404951171875Z" fill="#FFFFFF" fill-opacity="1"/></g></mask><filter id="master_svg19_0_1076" filterUnits="objectBoundingBox" color-interpolation-filters="sRGB" x="-11.018181800842285" y="-11.018181800842285" width="49.04720115661621" height="67.77858543395996"><feFlood flood-opacity="0" result="BackgroundImageFix"/><feBlend mode="normal" in="SourceGraphic" in2="BackgroundImageFix" result="shape"/><feGaussianBlur stdDeviation="2.7545454502105713" result="effect1_foregroundBlur"/></filter><filter id="master_svg1a_0_1077" filterUnits="objectBoundingBox" color-interpolation-filters="sRGB" x="-14.323637008666992" y="-14.323637008666992" width="56.740943908691406" height="67.22505187988281"><feFlood flood-opacity="0" result="BackgroundImageFix"/><feBlend mode="normal" in="SourceGraphic" in2="BackgroundImageFix" result="shape"/><feGaussianBlur stdDeviation="3.580909252166748" result="effect1_foregroundBlur"/></filter><filter id="master_svg1b_0_1078" filterUnits="objectBoundingBox" color-interpolation-filters="sRGB" x="-17.629091262817383" y="-17.629091262817383" width="84.5546760559082" height="77.38582992553711"><feFlood flood-opacity="0" result="BackgroundImageFix"/><feBlend mode="normal" in="SourceGraphic" in2="BackgroundImageFix" result="shape"/><feGaussianBlur stdDeviation="4.407272815704346" result="effect1_foregroundBlur"/></filter><filter id="master_svg1c_0_1079" filterUnits="objectBoundingBox" color-interpolation-filters="sRGB" x="-12.119999885559082" y="-12.119999885559082" width="64.39618110656738" height="49.31795310974121"><feFlood flood-opacity="0" result="BackgroundImageFix"/><feBlend mode="normal" in="SourceGraphic" in2="BackgroundImageFix" result="shape"/><feGaussianBlur stdDeviation="3.0299999713897705" result="effect1_foregroundBlur"/></filter><filter id="master_svg1d_0_1080" filterUnits="objectBoundingBox" color-interpolation-filters="sRGB" x="-8.159173607826233" y="-6.469242453575134" width="73.824294090271" height="47.31737804412842"><feFlood flood-opacity="0" result="BackgroundImageFix"/><feColorMatrix in="SourceAlpha" type="matrix" values="0 0 0 0 0 0 0 0 0 0 0 0 0 0 0 0 0 0 127 0"/><feOffset dy="0.5881129503250122" dx="-1.1018182039260864"/><feGaussianBlur stdDeviation="1.7643388509750366"/><feColorMatrix type="matrix" values="0 0 0 0 0.17468750476837158 0 0 0 0 0.35741955041885376 0 0 0 0 0.48750001192092896 0 0 0 1 0"/><feBlend mode="normal" in2="BackgroundImageFix" result="effect1_dropShadow"/><feBlend mode="normal" in="SourceGraphic" in2="effect1_dropShadow" result="shape"/><feColorMatrix in="SourceAlpha" type="matrix" result="hardAlpha" values="0 0 0 0 0 0 0 0 0 0 0 0 0 0 0 0 0 0 127 0"/><feOffset dy="-1.6527273654937744" dx="2.203636407852173"/><feGaussianBlur stdDeviation="1.9281818866729736"/><feComposite in2="hardAlpha" operator="arithmetic" k2="-1" k3="1"/><feColorMatrix type="matrix" values="0 0 0 0 0 0 0 0 0 0 0 0 0 0 0 0 0 0 0.25 0"/><feBlend mode="normal" in2="shape" result="effect2_innerShadow"/><feColorMatrix in="SourceAlpha" type="matrix" result="hardAlpha" values="0 0 0 0 0 0 0 0 0 0 0 0 0 0 0 0 0 0 127 0"/><feOffset dy="0" dx="1.1762259006500244"/><feGaussianBlur stdDeviation="1.1762259006500244"/><feComposite in2="hardAlpha" operator="arithmetic" k2="-1" k3="1"/><feColorMatrix type="matrix" values="0 0 0 0 1 0 0 0 0 1 0 0 0 0 1 0 0 0 0.25 0"/><feBlend mode="normal" in2="effect2_innerShadow" result="effect3_innerShadow"/><feColorMatrix in="SourceAlpha" type="matrix" result="hardAlpha" values="0 0 0 0 0 0 0 0 0 0 0 0 0 0 0 0 0 0 127 0"/><feOffset dy="0" dx="6.469242095947266"/><feGaussianBlur stdDeviation="4.704903602600098"/><feComposite in2="hardAlpha" operator="arithmetic" k2="-1" k3="1"/><feColorMatrix type="matrix" values="0 0 0 0 0.5079166889190674 0 0 0 0 0.6280505657196045 0 0 0 0 0.7666666507720947 0 0 0 0.49000000953674316 0"/><feBlend mode="normal" in2="effect3_innerShadow" result="effect4_innerShadow"/></filter><filter id="master_svg1e_0_1082" filterUnits="objectBoundingBox" color-interpolation-filters="sRGB" x="0" y="0" width="6.422598361968994" height="6.422598361968994"><feFlood flood-opacity="0" result="BackgroundImageFix"/><feBlend mode="normal" in="SourceGraphic" in2="BackgroundImageFix" result="shape"/><feColorMatrix in="SourceAlpha" type="matrix" result="hardAlpha" values="0 0 0 0 0 0 0 0 0 0 0 0 0 0 0 0 0 0 127 0"/><feOffset dy="0.4012652635574341" dx="-0.4012652635574341"/><feGaussianBlur stdDeviation="0.4012652635574341"/><feComposite in2="hardAlpha" operator="arithmetic" k2="-1" k3="1"/><feColorMatrix type="matrix" values="0 0 0 0 1 0 0 0 0 1 0 0 0 0 1 0 0 0 0.5 0"/><feBlend mode="normal" in2="shape" result="effect1_innerShadow"/></filter><filter id="master_svg1f_0_1083" filterUnits="objectBoundingBox" color-interpolation-filters="sRGB" x="-4.012652397155762" y="-4.012652397155762" width="10.835191488265991" height="8.818715155124664"><feFlood flood-opacity="0" result="BackgroundImageFix"/><feBlend mode="normal" in="SourceGraphic" in2="BackgroundImageFix" result="shape"/><feGaussianBlur stdDeviation="1.0031630992889404" result="effect1_foregroundBlur"/></filter><filter id="master_svg1g_0_1084" filterUnits="objectBoundingBox" color-interpolation-filters="sRGB" x="-0.8025304675102234" y="-0.8025304675102234" width="3.5241423845291138" height="2.121629059314728"><feFlood flood-opacity="0" result="BackgroundImageFix"/><feBlend mode="normal" in="SourceGraphic" in2="BackgroundImageFix" result="shape"/><feGaussianBlur stdDeviation="0.20063261687755585" result="effect1_foregroundBlur"/></filter><filter id="master_svg1h_0_1086" filterUnits="objectBoundingBox" color-interpolation-filters="sRGB" x="0" y="0" width="6.422598361968994" height="6.422598361968994"><feFlood flood-opacity="0" result="BackgroundImageFix"/><feBlend mode="normal" in="SourceGraphic" in2="BackgroundImageFix" result="shape"/><feColorMatrix in="SourceAlpha" type="matrix" result="hardAlpha" values="0 0 0 0 0 0 0 0 0 0 0 0 0 0 0 0 0 0 127 0"/><feOffset dy="0.4012652635574341" dx="-0.4012652635574341"/><feGaussianBlur stdDeviation="0.4012652635574341"/><feComposite in2="hardAlpha" operator="arithmetic" k2="-1" k3="1"/><feColorMatrix type="matrix" values="0 0 0 0 1 0 0 0 0 1 0 0 0 0 1 0 0 0 0.5 0"/><feBlend mode="normal" in2="shape" result="effect1_innerShadow"/></filter><filter id="master_svg1i_0_1087" filterUnits="objectBoundingBox" color-interpolation-filters="sRGB" x="-4.012652397155762" y="-4.012652397155762" width="10.835191488265991" height="8.818715155124664"><feFlood flood-opacity="0" result="BackgroundImageFix"/><feBlend mode="normal" in="SourceGraphic" in2="BackgroundImageFix" result="shape"/><feGaussianBlur stdDeviation="1.0031630992889404" result="effect1_foregroundBlur"/></filter><filter id="master_svg1j_0_1088" filterUnits="objectBoundingBox" color-interpolation-filters="sRGB" x="-0.8025304675102234" y="-0.8025304675102234" width="3.55681836605072" height="2.022685796022415"><feFlood flood-opacity="0" result="BackgroundImageFix"/><feBlend mode="normal" in="SourceGraphic" in2="BackgroundImageFix" result="shape"/><feGaussianBlur stdDeviation="0.20063261687755585" result="effect1_foregroundBlur"/></filter><filter id="master_svg1k_0_1090" filterUnits="objectBoundingBox" color-interpolation-filters="sRGB" x="-14.323636651039124" y="-13.221818447113037" width="44.975839614868164" height="33.7071475982666"><feFlood flood-opacity="0" result="BackgroundImageFix"/><feColorMatrix in="SourceAlpha" type="matrix" values="0 0 0 0 0 0 0 0 0 0 0 0 0 0 0 0 0 0 127 0"/><feOffset dy="-0.5509091019630432" dx="-1.1018182039260864"/><feGaussianBlur stdDeviation="1.1018182039260864"/><feColorMatrix type="matrix" values="0 0 0 0 0 0 0 0 0 0 0 0 0 0 0 0 0 0 0.25 0"/><feBlend mode="normal" in2="BackgroundImageFix" result="effect1_dropShadow"/><feColorMatrix in="SourceAlpha" type="matrix" values="0 0 0 0 0 0 0 0 0 0 0 0 0 0 0 0 0 0 127 0"/><feOffset dy="0.5509091019630432" dx="0"/><feGaussianBlur stdDeviation="2.203636407852173"/><feColorMatrix type="matrix" values="0 0 0 0 0.3843137323856354 0 0 0 0 0.23137255012989044 0 0 0 0 0.08627451211214066 0 0 0 1 0"/><feBlend mode="normal" in2="effect1_dropShadow" result="effect2_dropShadow"/><feBlend mode="normal" in="SourceGraphic" in2="effect2_dropShadow" result="shape"/></filter><filter id="master_svg1l_0_1091" filterUnits="objectBoundingBox" color-interpolation-filters="sRGB" x="-13.221818923950195" y="-13.221818923950195" width="94.1472053527832" height="56.90486717224121"><feFlood flood-opacity="0" result="BackgroundImageFix"/><feBlend mode="normal" in="SourceGraphic" in2="BackgroundImageFix" result="shape"/><feGaussianBlur stdDeviation="3.305454730987549" result="effect1_foregroundBlur"/></filter><linearGradient x1="0.45173442363739014" y1="-0.09950803965330124" x2="0.45173442363739014" y2="0.6694111227989197" id="master_svg1m__002"><stop offset="0%" stop-color="#9E794C" stop-opacity="1"/><stop offset="100%" stop-color="#9E794C" stop-opacity="0"/></linearGradient><filter id="master_svg1n_0_1092" filterUnits="objectBoundingBox" color-interpolation-filters="sRGB" x="-16.527273178100586" y="-16.527273178100586" width="93.4787826538086" height="54.26980018615723"><feFlood flood-opacity="0" result="BackgroundImageFix"/><feBlend mode="normal" in="SourceGraphic" in2="BackgroundImageFix" result="shape"/><feGaussianBlur stdDeviation="4.1318182945251465" result="effect1_foregroundBlur"/></filter><filter id="master_svg1o_0_1093" filterUnits="objectBoundingBox" color-interpolation-filters="sRGB" x="-13.221818923950195" y="-13.221818923950195" width="55.92827033996582" height="41.61612129211426"><feFlood flood-opacity="0" result="BackgroundImageFix"/><feBlend mode="normal" in="SourceGraphic" in2="BackgroundImageFix" result="shape"/><feGaussianBlur stdDeviation="3.305454730987549" result="effect1_foregroundBlur"/></filter><filter id="master_svg1p_0_1094" filterUnits="objectBoundingBox" color-interpolation-filters="sRGB" x="-3.305454730987549" y="-3.305454730987549" width="40.91450595855713" height="21.829360961914062"><feFlood flood-opacity="0" result="BackgroundImageFix"/><feBlend mode="normal" in="SourceGraphic" in2="BackgroundImageFix" result="shape"/><feGaussianBlur stdDeviation="0.8263636827468872" result="effect1_foregroundBlur"/></filter><linearGradient x1="0.2353581190109253" y1="0.5570221543312073" x2="0.41939911246299744" y2="0.9390267133712769" id="master_svg1q__005"><stop offset="0%" stop-color="#F1D5A5" stop-opacity="1"/><stop offset="100%" stop-color="#F5DFB9" stop-opacity="0"/></linearGradient><filter id="master_svg1r_0_1095" filterUnits="objectBoundingBox" color-interpolation-filters="sRGB" x="-10.362810015678406" y="-6.9457438588142395" width="38.91471004486084" height="48.28359889984131"><feFlood flood-opacity="0" result="BackgroundImageFix"/><feColorMatrix in="SourceAlpha" type="matrix" values="0 0 0 0 0 0 0 0 0 0 0 0 0 0 0 0 0 0 127 0"/><feOffset dy="0.5509091019630432" dx="0"/><feGaussianBlur stdDeviation="0.5509091019630432"/><feColorMatrix type="matrix" values="0 0 0 0 0 0 0 0 0 0 0 0 0 0 0 0 0 0 0.25 0"/><feBlend mode="normal" in2="BackgroundImageFix" result="effect1_dropShadow"/><feColorMatrix in="SourceAlpha" type="matrix" values="0 0 0 0 0 0 0 0 0 0 0 0 0 0 0 0 0 0 127 0"/><feOffset dy="1.7643388509750366" dx="-1.1018182039260864"/><feGaussianBlur stdDeviation="1.7643388509750366"/><feColorMatrix type="matrix" values="0 0 0 0 0.27843138575553894 0 0 0 0 0.1921568363904953 0 0 0 0 0.09019607305526733 0 0 0 0.7400000095367432 0"/><feBlend mode="normal" in2="effect1_dropShadow" result="effect2_dropShadow"/><feBlend mode="normal" in="SourceGraphic" in2="effect2_dropShadow" result="shape"/><feColorMatrix in="SourceAlpha" type="matrix" result="hardAlpha" values="0 0 0 0 0 0 0 0 0 0 0 0 0 0 0 0 0 0 127 0"/><feOffset dy="2.203636407852173" dx="0"/><feGaussianBlur stdDeviation="1.1018182039260864"/><feComposite in2="hardAlpha" operator="arithmetic" k2="-1" k3="1"/><feColorMatrix type="matrix" values="0 0 0 0 0.5236631631851196 0 0 0 0 0.7175045609474182 0 0 0 0 0.904166579246521 0 0 0 1 0"/><feBlend mode="normal" in2="shape" result="effect3_innerShadow"/><feColorMatrix in="SourceAlpha" type="matrix" result="hardAlpha" values="0 0 0 0 0 0 0 0 0 0 0 0 0 0 0 0 0 0 127 0"/><feOffset dy="-1.1018182039260864" dx="0"/><feGaussianBlur stdDeviation="1.6527273654937744"/><feComposite in2="hardAlpha" operator="arithmetic" k2="-1" k3="1"/><feColorMatrix type="matrix" values="0 0 0 0 0.16385415196418762 0 0 0 0 0.38613468408584595 0 0 0 0 0.5958333611488342 0 0 0 1 0"/><feBlend mode="normal" in2="effect3_innerShadow" result="effect4_innerShadow"/><feColorMatrix in="SourceAlpha" type="matrix" result="hardAlpha" values="0 0 0 0 0 0 0 0 0 0 0 0 0 0 0 0 0 0 127 0"/><feOffset dy="-0.5881129503250122" dx="5.29301643371582"/><feGaussianBlur stdDeviation="4.410847187042236"/><feComposite in2="hardAlpha" operator="arithmetic" k2="-1" k3="1"/><feColorMatrix type="matrix" values="0 0 0 0 0.23137255012989044 0 0 0 0 0.47058823704719543 0 0 0 0 0.615686297416687 0 0 0 1 0"/><feBlend mode="normal" in2="effect4_innerShadow" result="effect5_innerShadow"/></filter></defs><g style="mix-blend-mode:passthrough"><g style="mix-blend-mode:passthrough"><ellipse cx="124" cy="124" rx="124" ry="124" fill="#80B4F0" fill-opacity="1"/></g><g style="mix-blend-mode:passthrough" mask="url(#master_svg0_0_1027)"><g style="mix-blend-mode:passthrough" filter="url(#master_svg1_0_1029)"><g style="mix-blend-mode:passthrough"><g style="mix-blend-mode:passthrough" filter="url(#master_svg2_0_1031)"><ellipse cx="121.51999759674072" cy="254.33780097961426" rx="75.2266616821289" ry="4.133333206176758" fill="#9E8C6C" fill-opacity="1"/></g><g style="mix-blend-mode:passthrough" filter="url(#master_svg3_0_1032)"><path d="M162.65600827789308,252.5029879296875C162.65600827789308,253.7464779296875,159.51140827789305,253.6287579296875,124.91760827789307,256.4431779296875C84.32004317759306,259.2576779296875,84.32000827789307,254.8722379296875,84.32000827789307,253.6287579296875C84.32000827789307,252.3852579296875,86.32132827789307,247.9998796072275,135.20990827789308,247.9998779296875C168.99990827789307,247.9998779296875,162.65600827789308,251.2594879296875,162.65600827789308,252.5029879296875C162.65600827789308,252.5029879296875,162.65600827789308,252.5029879296875,162.65600827789308,252.5029879296875Z" fill="#9E8C6C" fill-opacity="1"/></g><g style="mix-blend-mode:passthrough" transform="matrix(0.9818267226219177,0.1897798627614975,-0.18977989256381989,0.981826663017273,46.919628776573575,-10.50411370093218)" filter="url(#master_svg4_0_1033)"><path d="M123.80071760406494,240.1344583671875C123.80071760406494,241.0853663671875,116.65121760406494,248.7422363671875,99.00941760406494,250.8944763671875C78.30583652496495,253.0466763671875,78.30581760406494,249.69311636718749,78.30581760406494,248.7421763671875C78.30581760406494,247.7912863671875,78.55115660406494,247.7582763671875,103.02991760406493,243.0266963671875C119.53331760406493,239.8366983671875,123.80071760406494,239.1835483671875,123.80071760406494,240.1344583671875C123.80071760406494,240.1344583671875,123.80071760406494,240.1344583671875,123.80071760406494,240.1344583671875Z" fill="#563313" fill-opacity="1"/></g><g style="mix-blend-mode:passthrough" transform="matrix(0.981826663017273,0.18977989256381989,-0.1897798776626587,0.981826663017273,47.99193282081262,-21.57838888784829)" filter="url(#master_svg5_0_1034)"><path d="M179.94917898101806,240.0660669453125C179.94917898101806,241.0169839453125,174.18297898101807,247.4902039453125,156.54117898101808,249.6424039453125C142.77734898101806,255.3900439453125,136.66497898101807,248.4968639453125,136.66497898101807,247.5459239453125C136.66497898101807,246.5950339453125,137.17529698101808,245.8299239453125,160.74377898101807,242.8916639453125C177.42347898101806,240.8121939453125,179.94917898101806,239.1151569453125,179.94917898101806,240.0660669453125C179.94917898101806,240.0660669453125,179.94917898101806,240.0660669453125,179.94917898101806,240.0660669453125Z" fill="#563313" fill-opacity="1"/></g></g><g style="mix-blend-mode:passthrough"><g style="mix-blend-mode:passthrough"><path d="M48.40058889312744,138.05329833984376C49.06188889312744,128.57418833984374,61.71908889312744,122.53033833984375,67.96498889312744,120.69329833984375C73.47628889312745,123.90810833984375,85.43548889312744,131.27459833984375,89.18298889312744,135.02219833984375C93.86748889312744,139.70659833984377,61.62718889312744,195.09329833984376,56.94278889312744,194.54219833984376C52.25838889312744,193.99109833984375,52.53388889312744,198.39999833984376,40.96058889312744,209.14659833984376C29.38718889312744,219.89329833984374,20.018338893127442,200.32889833984376,20.845008893127442,190.40889833984374C21.671678893127442,180.48889833984376,18.365008893127442,179.93769833984373,15.333898893127442,174.97769833984376C12.302788893127442,170.01769833984375,16.436128893127442,167.81329833984375,23.60055889312744,165.33329833984374C30.76498889312744,162.85329833984375,47.57388889312744,149.90219833984375,48.40058889312744,138.05329833984376C48.40058889312744,138.05329833984376,48.40058889312744,138.05329833984376,48.40058889312744,138.05329833984376Z" fill="#C05A5D" fill-opacity="1"/></g><g style="mix-blend-mode:passthrough" mask="url(#master_svg6_0_1038)"><g style="opacity:0.4000000059604645;mix-blend-mode:passthrough" transform="matrix(0.9993816018104553,0.03516267612576485,-0.035162679851055145,0.9993816018104553,5.834452852587617,-1.0853665773569219)" filter="url(#master_svg7_0_1039)"><path d="M39.92370967437744,215.34493505859376C31.066719674377442,208.62583505859374,33.68819357437744,179.20433505859376,36.106049674377445,165.33343505859375C36.106049674377445,165.33343505859375,65.88388967437744,194.34773505859374,65.88388967437744,194.34773505859374C60.92088967437744,204.14643505859374,48.78068967437744,222.06423505859374,39.92370967437744,215.34493505859376C39.92370967437744,215.34493505859376,39.92370967437744,215.34493505859376,39.92370967437744,215.34493505859376Z" fill="#4E0C06" fill-opacity="1"/></g><g style="opacity:0.4000000059604645;mix-blend-mode:passthrough" transform="matrix(0.050161831080913544,0.998741090297699,-0.998741090297699,0.05016183853149414,190.9107429858916,50.56663053915514)" filter="url(#master_svg8_0_1040)"><path d="M75.3681517642212,141.14915927734376C72.38052176422119,138.88265927734375,68.15736476422119,130.33212927734374,68.97294676422119,125.65325927734375C68.97294676422119,125.65325927734375,82.36293176422119,133.92923927734375,82.36293176422119,133.92923927734375C80.68883176422119,137.23455927734375,78.35572176422119,143.41555927734376,75.3681517642212,141.14915927734376C75.3681517642212,141.14915927734376,75.3681517642212,141.14915927734376,75.3681517642212,141.14915927734376Z" fill="#4E0C06" fill-opacity="1"/></g><g style="mix-blend-mode:passthrough" transform="matrix(0.9869248270988464,-0.16118121147155762,0.1611812561750412,0.9869248270988464,-26.931183359286194,8.354201587410671)" filter="url(#master_svg9_0_1041)"><path d="M42.46498331695557,206.26888154296876C36.072093316955566,201.41908154296874,37.96424031695557,180.18298154296875,39.709423316955565,170.17108154296875C39.709423316955565,170.17108154296875,61.20277331695557,191.11328154296876,61.20277331695557,191.11328154296876C57.62057331695557,198.18588154296876,48.85787331695557,211.11868154296874,42.46498331695557,206.26888154296876C42.46498331695557,206.26888154296876,42.46498331695557,206.26888154296876,42.46498331695557,206.26888154296876Z" fill="#4E0C06" fill-opacity="1"/></g><g style="mix-blend-mode:passthrough" filter="url(#master_svga_0_1042)"><path d="M34.09845163726807,168.36438552734376C29.248651637268065,168.80527552734375,18.850981637268067,166.15994552734375,14.258401637268067,164.78216552734375C12.145804537268067,164.78216552734375,8.510521637268067,173.31242552734375,21.422851637268067,201.98216552734374C37.68065163726807,238.07996552734375,25.556151637268066,196.47106552734374,25.556151637268066,179.93776552734374C25.556151637268066,171.35559552734375,40.16065163726807,167.81327552734376,34.09845163726807,168.36438552734376C34.09845163726807,168.36438552734376,34.09845163726807,168.36438552734376,34.09845163726807,168.36438552734376Z" fill="#9E2E31" fill-opacity="1"/></g></g></g><g style="mix-blend-mode:passthrough"><g style="mix-blend-mode:passthrough"><g style="mix-blend-mode:passthrough" filter="url(#master_svgb_0_1045)"><path d="M39.85289606109619,146.28632880859374C44.26178606109619,139.67302880859376,59.87653606109619,130.67155880859374,67.13293606109619,126.99748380859376C75.95063606109619,122.13106880859375,75.12403606109619,140.77532880859374,72.91953606109618,152.62412880859375C71.7769360610962,158.76602880859375,69.06183606109619,176.87302880859374,71.54173606109619,184.03752880859375C74.02173606109619,191.20202880859375,73.7462360610962,193.68202880859377,75.12403606109619,203.32642880859373C76.50183606109618,212.97092880859375,82.8395360610962,214.34872880859376,71.54173606109619,214.62422880859376C60.244036061096196,214.89982880859375,60.79513606109619,197.81532880859373,56.661836061096196,197.26422880859377C52.52843606109619,196.71312880859375,45.088456061096196,186.79312880859374,39.85289606109619,176.87302880859374C34.61734606109619,166.95302880859376,34.341786061096194,154.55302880859375,39.85289606109619,146.28632880859374C39.85289606109619,146.28632880859374,39.85289606109619,146.28632880859374,39.85289606109619,146.28632880859374Z" fill="#E2C693" fill-opacity="1"/></g><g style="mix-blend-mode:passthrough" mask="url(#master_svgd_0_1047)"><g style="mix-blend-mode:passthrough" filter="url(#master_svge_0_1048)"><path d="M62.128798658752444,144.41106623046875C67.41939865875244,139.12040623046875,72.96729865875244,140.36959123046876,75.07989865875244,141.65551623046875C74.71249865875244,152.49408623046875,86.32249865875244,209.66258623046875,83.89759865875244,213.85098623046875C80.86649865875245,219.08658623046875,66.53759865875244,219.68728623046874,66.53759865875244,216.60658623046874C66.53759865875244,177.75328623046875,51.93319865875244,183.81548623046876,44.49319965875244,162.32218623046876C42.49792865875244,156.55808623046875,48.35097865875244,151.29998623046876,51.93319865875244,148.81994623046876C55.515398658752446,146.33994623046874,55.515398658752446,151.02438623046874,62.128798658752444,144.41106623046875C62.128798658752444,144.41106623046875,62.128798658752444,144.41106623046875,62.128798658752444,144.41106623046875Z" fill="#976C34" fill-opacity="1"/></g><g style="mix-blend-mode:passthrough" transform="matrix(0.9974153637886047,-0.07185117900371552,0.07185117900371552,0.9974153637886047,-10.283921092527464,3.9383645442730426)" filter="url(#master_svgf_0_1049)"><path d="M49.60000705718994,158.05389248046876C63.81400705718994,158.05389248046876,69.47330705718994,149.29281248046874,70.52620705718994,144.91229248046875C76.05390705718995,164.82379248046874,66.18300705718994,174.77949248046875,64.99850705718994,177.16889248046874C63.81400705718994,179.55829248046877,55.127707057189944,181.15119248046875,55.127707057189944,172.78839248046876C55.127707057189944,166.09809248046875,51.44256705718994,160.17769248046875,49.60000705718994,158.05389248046876C49.60000705718994,158.05389248046876,49.60000705718994,158.05389248046876,49.60000705718994,158.05389248046876Z" fill="#72512B" fill-opacity="1"/></g><g style="mix-blend-mode:passthrough" filter="url(#master_svgg_0_1050)"><path d="M57.96280002593994,160.37767115234374C66.62990002593995,160.37767115234374,70.08070002593995,155.00802115234376,70.72270002593994,152.32318115234375C74.09320002593995,164.52698115234375,68.07440002593994,170.62888115234375,67.35213002593994,172.09338115234374C66.62990002593995,173.55778115234375,61.333330025939944,174.53408115234376,61.333330025939944,169.40848115234374C61.333330025939944,165.30798115234376,59.086310025939945,161.67945115234374,57.96280002593994,160.37767115234374C57.96280002593994,160.37767115234374,57.96280002593994,160.37767115234374,57.96280002593994,160.37767115234374Z" fill="#442E15" fill-opacity="1"/></g><g style="mix-blend-mode:passthrough" filter="url(#master_svgh_0_1051)"><path d="M70.96951733843994,193.74280263671875C69.19754633843993,188.24210263671876,70.23119433843995,180.59409263671876,70.96951733843994,177.45770263671875C75.27288033843995,177.45770263671875,79.09107033843995,204.23760263671875,80.46222033843995,217.62760263671873C78.88010033843995,217.74820263671876,75.52604033843994,217.77240263671877,74.76660033843994,216.90380263671875C73.81733033843994,215.81820263671875,75.71590033843994,211.83730263671876,75.71590033843994,208.94220263671875C75.71590033843994,206.04710263671876,73.18448033843994,200.61880263671875,70.96951733843994,193.74280263671875C70.96951733843994,193.74280263671875,70.96951733843994,193.74280263671875,70.96951733843994,193.74280263671875Z" fill="#492308" fill-opacity="1"/></g></g></g><g style="mix-blend-mode:passthrough"><g style="mix-blend-mode:passthrough" filter="url(#master_svgi_0_1053)"><path d="M219.34223239898682,141.91347451171876C214.9333323989868,130.89122451171875,199.50223239898682,128.31936911171874,192.33783239898682,128.41122114171876C191.69483239898682,133.92235451171874,190.7946323989868,146.98367451171876,192.33783239898682,155.14017451171875C194.26663239898681,165.33567451171876,189.0311223989868,192.33997451171876,188.48001239898682,195.09547451171875C188.03912239898682,197.29997451171874,182.41779239898682,210.52667451171874,179.66223239898682,216.86437451171875C181.86667239898682,216.86437451171875,187.1022323989868,215.21107451171875,190.40893239898682,208.59777451171874C194.5422323989868,200.33107451171875,201.15553239898682,192.61547451171873,207.4933323989868,182.69567451171875C207.4933323989868,182.69567451171875,207.6336323989868,182.47617451171874,207.6336323989868,182.47617451171874C213.99203239898682,172.52517451171875,224.81293239898682,155.59007451171874,219.34223239898682,141.91347451171876C219.34223239898682,141.91347451171876,219.34223239898682,141.91347451171876,219.34223239898682,141.91347451171876Z" fill="#EEC57D" fill-opacity="1"/></g><g style="mix-blend-mode:passthrough" mask="url(#master_svgk_0_1055)"><g style="mix-blend-mode:passthrough" filter="url(#master_svgl_0_1056)"><path d="M206.81678996734618,148.53172087109374C204.1714899673462,146.10683287109376,196.1619899673462,149.54209287109376,192.48788996734618,151.56283287109375C191.3856699673462,154.77765287109375,188.5198999673462,164.29349287109375,185.8745699673462,176.63839287109374C182.56790396734618,192.06949287109376,181.1901299673462,196.20289287109375,192.48788996734618,182.42509287109374C203.7856899673462,168.64729287109375,210.1234899673462,151.56283287109375,206.81678996734618,148.53172087109374C206.81678996734618,148.53172087109374,206.81678996734618,148.53172087109374,206.81678996734618,148.53172087109374Z" fill="url(#master_svgm__83)" fill-opacity="1"/></g><g style="mix-blend-mode:passthrough" transform="matrix(1,-0.01316521130502224,0.01316521130502224,1,-2.353688915922362,2.299991515717096)" filter="url(#master_svgn_0_1057)"><path d="M190.35331042633055,191.25484482421876C193.66021042633056,178.90890082421876,188.97541042633057,178.02704682421876,186.21961042633058,179.12936382421876C183.00454042633058,190.15254482421875,176.24363042633055,213.19094482421875,174.92085242633055,217.15924482421875C173.26737042633056,222.11974482421874,181.53476042633056,222.11974482421874,181.53476042633056,219.08834482421875C181.53476042633056,216.05694482421876,186.21961042633058,206.68734482421874,190.35331042633055,191.25484482421876C190.35331042633055,191.25484482421876,190.35331042633055,191.25484482421876,190.35331042633055,191.25484482421876Z" fill="#512003" fill-opacity="1"/></g><g style="mix-blend-mode:passthrough" filter="url(#master_svgo_0_1058)"><path d="M200.67649499664307,151.47358249609374C199.22899499664305,150.10926849609376,194.84638499664305,152.04204349609375,192.83598499664308,153.17897349609376C192.23286499664306,154.98772349609374,190.66475499664307,160.34159349609376,189.21728499664306,167.28723349609376C187.40792999664308,175.96913349609375,186.65403499664308,178.29473349609376,192.83598499664308,170.54293349609375C199.01789499664307,162.79113349609375,202.48579499664308,153.17897349609376,200.67649499664307,151.47358249609374C200.67649499664307,151.47358249609374,200.67649499664307,151.47358249609374,200.67649499664307,151.47358249609374Z" fill="url(#master_svgp__85)" fill-opacity="1"/></g></g></g></g><g style="mix-blend-mode:passthrough" filter="url(#master_svgq_0_1059)"><path d="M72.3241461392212,99.55459755859374C71.2219261392212,86.76879755859375,83.62196613922119,73.37689755859375,89.4085661392212,67.59019755859376C104.7024661392212,52.29622755859375,147.5919661392212,48.88498755859375,167.1150661392212,65.93679755859375C188.8835661392212,84.95019755859374,193.01756613922117,100.93239755859375,194.1195661392212,136.75439755859375C195.22156613922118,172.57699755859375,192.4665661392212,194.62099755859376,184.75056613922118,206.46999755859375C177.0355661392212,218.31899755859374,177.8615661392212,234.57699755859375,178.13756613922118,241.18999755859375C178.4125661392212,247.80299755859374,176.48356613922118,251.10999755859376,168.7685661392212,251.10999755859376C161.05286613922118,251.10999755859376,134.8750661392212,256.6209975585938,136.8039661392212,242.29199755859375C138.7328661392212,227.96299755859374,125.5061661392212,232.09699755859376,122.47506613922118,233.19899755859376C119.44416613922118,234.30099755859376,122.47506613922118,242.56799755859376,120.2707661392212,248.62999755859374C118.0663661392212,254.69199755859376,94.12216613922119,253.41499755859374,83.62196613922119,251.10999755859376C72.3241461392212,248.62999755859374,80.7377661392212,244.41799755859375,78.3863661392212,217.49199755859374C77.95216613922119,212.52099755859376,72.3241461392212,199.02999755859375,72.3241461392212,193.79399755859376C72.3241461392212,188.55899755859375,65.5369761392212,176.35599755859374,67.63970213922119,159.90099755859376C69.89494613922119,142.25339755859375,73.7019161392212,115.53659755859374,72.3241461392212,99.55459755859374C72.3241461392212,99.55459755859374,72.3241461392212,99.55459755859374,72.3241461392212,99.55459755859374Z" fill="#EDC377" fill-opacity="1"/></g><g style="mix-blend-mode:passthrough" mask="url(#master_svgs_0_1061)"><g style="mix-blend-mode:passthrough" filter="url(#master_svgt_0_1062)"><path d="M124.16088659820556,234.68548974609377C98.52658659820557,236.36748974609375,69.65118659820557,213.42708974609377,58.417786598205566,201.74688974609376C62.008796598205564,52.470689746093754,223.05178659820555,182.82438974609374,200.67678659820555,205.60128974609376C178.30178659820558,228.37818974609377,156.20368659820556,232.58348974609373,124.16088659820556,234.68548974609377C124.16088659820556,234.68548974609377,124.16088659820556,234.68548974609377,124.16088659820556,234.68548974609377Z" fill="url(#master_svgu__87)" fill-opacity="1"/></g><g style="mix-blend-mode:passthrough" filter="url(#master_svgv_0_1063)"><path d="M89.45111130718995,251.06908154296875C94.08044330718994,249.74648154296875,97.53247330718995,232.76393554296874,107.36221330718993,233.70909264296876C121.69111330718994,235.08686154296876,123.83841330718994,232.94891654296876,125.21621330718995,240.11335154296876C126.59401330718994,247.27778154296874,119.98061330718994,253.06448154296874,117.22511330718994,255.54448154296875C114.46951330718994,258.0244815429688,83.66444330718994,252.72248154296875,89.45111130718995,251.06908154296875C89.45111130718995,251.06908154296875,89.45111130718995,251.06908154296875,89.45111130718995,251.06908154296875Z" fill="url(#master_svgw__88)" fill-opacity="1"/></g><g style="mix-blend-mode:passthrough" filter="url(#master_svgx_0_1064)"><path d="M118.23872018609619,235.60891583984375C116.69560918609619,240.01778583984375,117.59575918609619,248.28448583984374,118.23872018609619,251.86668583984374C118.23872018609619,251.86668583984374,149.3510891860962,256.54228583984377,149.3510891860962,256.54228583984377C151.8310891860962,246.43858583984374,151.9964891860962,225.01866583984375,146.0444891860962,227.88444583984375C138.6044891860962,231.46666583984376,128.7097891860962,232.02669583984374,127.05648918609619,231.47558583984375C125.40314918609619,230.92447583984375,120.16760918609619,230.09780583984374,118.23872018609619,235.60891583984375C118.23872018609619,235.60891583984375,118.23872018609619,235.60891583984375,118.23872018609619,235.60891583984375Z" fill="#6D3B0A" fill-opacity="1"/></g><g style="mix-blend-mode:passthrough" filter="url(#master_svgy_0_1065)"><path d="M80.18667564117432,252.40899818359375C76.65955464117431,251.52721818359376,77.24740964117431,248.36751818359375,77.98222664117432,246.89788818359375C84.59553564117432,252.13344818359374,94.79110564117431,250.20455818359375,105.53780564117432,250.75566818359374C116.28450564117432,251.30677818359376,120.96890564117432,247.44899918359374,120.96890564117432,248.00010818359374C120.96890564117432,248.55121818359376,121.52000564117432,250.20455818359375,117.93780564117432,253.23566818359376C114.35560564117432,256.2667781835938,84.59553564117432,253.51121818359374,80.18667564117432,252.40899818359375C80.18667564117432,252.40899818359375,80.18667564117432,252.40899818359375,80.18667564117432,252.40899818359375Z" fill="#A07241" fill-opacity="1"/></g><g style="opacity:0.4000000059604645;mix-blend-mode:passthrough" filter="url(#master_svgz_0_1066)"><path d="M94.85261518804931,214.22957373046876C92.64817118804932,200.63557373046876,95.18328218804932,176.80914373046875,122.95929118804932,190.25628373046874C150.7354911880493,203.70337373046874,115.79479118804932,211.84147373046875,94.85261518804931,214.22957373046876C94.85261518804931,214.22957373046876,94.85261518804931,214.22957373046876,94.85261518804931,214.22957373046876Z" fill="url(#master_svg10__91)" fill-opacity="1"/></g></g><g style="mix-blend-mode:passthrough"><g style="mix-blend-mode:passthrough"><path d="M69.71556682525635,96.99543466796875C70.15645682525634,96.55454366796874,71.62793682525634,96.04423866796876,72.36277682525635,95.86053466796875C72.36277682525635,96.13609066796874,72.19556682525635,98.64876466796875,72.47112682525635,100.57765466796874C72.74667682525634,102.50654466796875,72.74667682525634,104.43543466796875,72.47112682525635,106.36433466796875C72.19556682525635,108.29323466796875,66.68445682525635,106.36433466796875,66.68445682525635,102.50654466796875C66.68445682525635,98.64876466796875,69.16445682525635,97.54654466796875,69.71556682525635,96.99543466796875C69.71556682525635,96.99543466796875,69.71556682525635,96.99543466796875,69.71556682525635,96.99543466796875Z" fill="url(#master_svg11__92)" fill-opacity="1"/></g><g style="mix-blend-mode:passthrough"><path d="M191.23556782525634,105.81327552734375C191.23556782525634,105.81327552734375,190.68445682525635,102.78216552734375,190.68445682525635,102.78216552734375C190.96001282525634,102.78216552734375,191.84210682525634,103.40718052734375,192.61334682525634,104.43549552734375C193.52639682525634,105.65290552734375,191.78667682525634,105.62957552734375,191.23556782525634,105.81327552734375C191.23556782525634,105.81327552734375,191.23556782525634,105.81327552734375,191.23556782525634,105.81327552734375Z" fill="url(#master_svg12__93)" fill-opacity="1"/></g><g style="mix-blend-mode:passthrough" filter="url(#master_svg13_0_1070)"><path d="M73.29778246978759,110.22225013671876C68.4480124697876,108.89958013671875,69.8074151697876,104.34373013671875,71.0933424697876,102.23114013671875C74.6755624697876,102.23114013671875,88.17779246978759,107.19114013671874,95.34219246978759,107.19114013671874C102.5066924697876,107.19114013671874,112.7021924697876,105.53781013671875,122.0710924697876,108.01781013671875C131.4398924697876,110.49781013671875,145.7686924697876,107.19114013671874,150.4531924697876,107.19114013671874C155.1375924697876,107.19114013671874,170.5684924697876,108.01781013671875,174.4264924697876,107.19114013671874C180.8074924697876,105.82383013671875,190.56449246978758,105.56337013671875,190.9794924697876,104.13437013671874C190.9204924697876,103.86841013671875,190.9054924697876,103.75712013671875,190.9594924697876,103.88447013671875C190.9964924697876,103.97166013671875,191.0024924697876,104.05483013671875,190.9794924697876,104.13437013671874C191.2194924697876,105.20867013671875,192.1904924697876,108.80661013671875,192.3374924697876,109.39558013671875C187.3774924697876,110.40594013671875,176.9614924697876,112.42674013671875,174.9774924697876,112.42674013671875C172.4974924697876,112.42674013671875,147.1464924697876,114.08004013671875,135.0220924697876,112.97784013671875C122.89779246978759,111.87558013671875,106.6399924697876,111.87558013671875,98.3733924697876,114.08004013671875C90.10669246978759,116.28444013671876,79.36001246978759,111.87558013671875,73.29778246978759,110.22225013671876C73.29778246978759,110.22225013671876,73.29778246978759,110.22225013671876,73.29778246978759,110.22225013671876Z" fill="#735634" fill-opacity="1"/></g><g style="opacity:0.6000000238418579;mix-blend-mode:passthrough" filter="url(#master_svg14_0_1071)"><path d="M87.0756026260376,144.66653857421875C69.2195726260376,141.80083857421874,63.9289026260376,131.62363857421875,63.9289026260376,127.58207857421876C73.8489026260376,114.07986857421875,178.62190262603758,115.67631857421875,192.8889026260376,125.37762857421875C199.7779026260376,130.06213857421875,193.4399026260376,136.95103857421876,187.6529026260376,139.43103857421875C159.6095026260376,151.44983857421875,109.3956026260376,148.24883857421875,87.0756026260376,144.66653857421875C87.0756026260376,144.66653857421875,87.0756026260376,144.66653857421875,87.0756026260376,144.66653857421875Z" fill="#523F34" fill-opacity="1"/></g><g style="opacity:0.6000000238418579;mix-blend-mode:passthrough" filter="url(#master_svg15_0_1072)"><path d="M92.86221956939697,144.94225263671876C70.54223956939697,141.36005263671876,64.48001956939697,132.33555263671875,64.48001956939697,128.29399263671874C74.40001956939697,114.79178263671875,179.17301956939696,116.38823263671875,193.44001956939698,126.08954263671875C200.32901956939696,130.77405263671875,195.09301956939697,138.42775263671876,189.03101956939696,140.25785263671875C159.82221956939696,149.07565263671876,115.18221956939698,148.52455263671874,92.86221956939697,144.94225263671876C92.86221956939697,144.94225263671876,92.86221956939697,144.94225263671876,92.86221956939697,144.94225263671876Z" fill="#453329" fill-opacity="1"/></g><g style="mix-blend-mode:passthrough" filter="url(#master_svg16_0_1073)"><path d="M62.79336266314697,125.20404560546875C60.018485663146976,102.60841560546875,69.30408566314698,94.91684760546875,72.37466566314697,95.86651170546875C63.03906766314697,101.55127560546875,70.54220566314697,105.26212560546875,83.21776566314698,108.29324560546875C95.89336566314697,111.32434560546875,110.74006566314696,105.91514560546875,115.14896566314698,105.91514560546875C119.55756566314697,105.91514560546875,133.88646566314696,107.56844560546875,141.05096566314697,107.56844560546875C148.21536566314697,107.56844560546875,157.584265663147,102.60847560546875,165.024265663147,105.91514560546875C172.464265663147,109.22184560546876,184.86426566314697,106.19074560546875,190.10026566314696,105.91514560546875C194.28826566314697,105.69469560546875,192.06226566314697,103.88435560546876,190.68426566314696,102.78212560546875C200.60426566314698,101.67990560546875,197.81526566314696,130.16404560546874,197.54026566314698,132.09294560546874C197.26426566314697,134.02184560546874,193.68226566314698,138.70624560546875,188.17126566314698,140.91074560546875C182.66026566314696,143.11514560546874,66.65110566314698,156.61754560546876,62.79336266314697,125.20404560546875C62.79336266314697,125.20404560546875,62.79336266314697,125.20404560546875,62.79336266314697,125.20404560546875Z" fill="#80B4F0" fill-opacity="1"/></g><g style="mix-blend-mode:passthrough" mask="url(#master_svg18_0_1075)"><g style="mix-blend-mode:passthrough" filter="url(#master_svg19_0_1076)"><path d="M50.708599755725096,100.02664474609375C50.9290440557251,98.92442074609374,72.9367180557251,103.51701474609375,77.7130180557251,98.64886474609375C64.4864180557251,113.41866474609375,63.9353180557251,128.13326474609374,72.4775180557251,144.39106474609375C55.9441580557251,135.57326474609374,50.488155055725095,101.12886474609375,50.708599755725096,100.02664474609375C50.708599755725096,100.02664474609375,50.708599755725096,100.02664474609375,50.708599755725096,100.02664474609375Z" fill="#98C6F6" fill-opacity="1"/></g><g style="mix-blend-mode:passthrough" filter="url(#master_svg1a_0_1077)"><path d="M188.2044096572876,115.04859521484374C184.5307096572876,107.76638521484375,173.0488896572876,107.05752521484375,169.1911096572876,107.88419521484374C172.5896296572876,106.13901521484375,181.5911096572876,103.03442521484375,190.4089096572876,104.57753321484375C201.4311096572876,106.50642521484374,196.0655096572876,108.02544521484376,195.3689096572876,115.04859521484374C193.7155096572876,131.71569521484375,188.7555096572876,142.73789521484375,184.6222096572876,142.73789521484375C180.4889096572876,142.73789521484375,196.1955096572876,130.88899521484376,188.2044096572876,115.04859521484374C188.2044096572876,115.04859521484374,188.2044096572876,115.04859521484374,188.2044096572876,115.04859521484374Z" fill="#598EC0" fill-opacity="1"/></g><g style="mix-blend-mode:passthrough" filter="url(#master_svg1b_0_1078)"><path d="M76.32889537994384,104.83358474609375C73.68355837994385,116.95806474609375,73.02222537994385,128.40886474609374,73.02222537994385,132.26666474609374C92.31112537994385,141.35996474609374,119.59112537994385,143.56446474609373,119.59112537994385,141.35996474609374C119.59112537994385,138.60446474609375,119.59112537994385,134.59356474609376,121.79552537994385,126.87806474609374C124.00002537994385,119.16246474609375,118.76442537994384,120.41776474609375,114.90662537994385,112.42666474609375C111.04892537994385,104.43555474609374,105.26222537994386,115.18226474609375,93.41332537994384,115.18226474609375C81.56444537994385,115.18226474609375,79.63555537994385,89.67806474609375,76.32889537994384,104.83358474609375C76.32889537994384,104.83358474609375,76.32889537994384,104.83358474609375,76.32889537994384,104.83358474609375Z" fill="#598EC0" fill-opacity="1"/></g></g><g style="mix-blend-mode:passthrough" filter="url(#master_svg1c_0_1079)"><path d="M135.3504387588501,134.47123232421876C142.4046387588501,133.36893232421875,148.5770387588501,122.25489232421874,150.7815387588501,116.83563232421875C150.7815387588501,116.83563232421875,160.7015387588501,130.33783232421874,160.7015387588501,130.33783232421874C161.0689387588501,134.65483232421875,167.58053875885008,135.34173232421875,163.4044387588501,137.77783232421876C160.09773875885008,139.70673232421876,151.8311387588501,137.50233232421874,146.8711387588501,133.36893232421875C144.1155387588501,144.39123232421875,131.1644387588501,141.91123232421876,126.4799887588501,141.08453232421874C121.7955487588501,140.25783232421875,126.5326387588501,135.84893232421877,135.3504387588501,134.47123232421876C135.3504387588501,134.47123232421876,135.3504387588501,134.47123232421876,135.3504387588501,134.47123232421876Z" fill="#274F76" fill-opacity="1"/></g><g style="mix-blend-mode:passthrough" filter="url(#master_svg1d_0_1080)"><path d="M157.2561459854126,109.21467985234375C151.37764598541258,111.32727615234376,141.9903459854126,118.69379615234375,151.4694459854126,131.25915615234373C163.3183459854126,146.96575615234374,175.4429459854126,130.70805615234374,175.4429459854126,126.29915615234376C175.4429459854126,121.89025615234375,175.1673459854126,107.83690615234374,157.2561459854126,109.21467985234375ZM126.1183459854126,112.24578615234375C123.5465059854126,112.98059615234375,118.0170159854126,115.93823615234375,116.4739009854126,121.89025615234375C114.5450159854126,129.33025615234374,116.1983459854126,138.14805615234374,123.6383759854126,140.35245615234373C123.8009859854126,140.40065615234374,123.9643959854126,140.44925615234376,124.1285359854126,140.49805615234374C131.47434598541258,142.68175615234375,140.2981459854126,145.30495615234375,145.9583459854126,132.63685615234374C151.7450459854126,119.68575615234374,135.76284598541258,107.28578615234375,126.1183459854126,112.24578615234375Z" fill-rule="evenodd" fill="#FFFFFF" fill-opacity="1"/></g><g style="mix-blend-mode:passthrough" transform="matrix(0.2588190734386444,0.9659258127212524,-0.9659258127212524,0.2588190734386444,238.36076524298713,-76.96641976801004)"><g style="mix-blend-mode:passthrough" transform="matrix(1,3.838655615595599e-9,-3.838655615595599e-9,1,4.4849198843621707e-7,-6.500098521655673e-7)" filter="url(#master_svg1e_0_1082)"><ellipse cx="172.54397988319397" cy="120.0469925403595" rx="3.211299180984497" ry="3.211299180984497" fill="#292929" fill-opacity="1"/></g><g style="mix-blend-mode:passthrough" transform="matrix(0.7759510278701782,-0.6307930946350098,0.6307930946350098,0.775951087474823,-36.32218343713305,135.75661040651767)" filter="url(#master_svg1f_0_1083)"><ellipse cx="174.3501728773117" cy="119.40622666478157" rx="1.4049433469772339" ry="0.39670518040657043" fill="#FFFFFF" fill-opacity="1"/></g><g style="mix-blend-mode:passthrough" transform="matrix(0.775951087474823,-0.6307930946350098,0.6307930946350098,0.775951087474823,-36.018196078955214,136.19147276281228)" filter="url(#master_svg1g_0_1084)"><ellipse cx="174.6689304113388" cy="119.05729529261589" rx="0.9595407247543335" ry="0.2582840621471405" fill="#FFFFFF" fill-opacity="1"/></g></g><g style="mix-blend-mode:passthrough" transform="matrix(0.2588190734386444,0.9659258127212524,-0.9659258127212524,0.2588190734386444,222.07191125249417,-48.022802957302474)"><g style="mix-blend-mode:passthrough" transform="matrix(1,3.838655615595599e-9,-3.838655615595599e-9,1,4.633006938092876e-7,-5.463490424517659e-7)" filter="url(#master_svg1h_0_1086)"><ellipse cx="145.53952431678772" cy="123.90477681159973" rx="3.211299180984497" ry="3.211299180984497" fill="#292929" fill-opacity="1"/></g><g style="mix-blend-mode:passthrough" transform="matrix(0.7759510278701782,-0.6307930946350098,0.6307930946350098,0.775951087474823,-44.8060061291568,119.58673235643914)" filter="url(#master_svg1i_0_1087)"><ellipse cx="147.34571731090546" cy="123.26407197117805" rx="1.4049433469772339" ry="0.39670518040657043" fill="#FFFFFF" fill-opacity="1"/></g><g style="mix-blend-mode:passthrough" transform="matrix(0.775951087474823,-0.6307930946350098,0.6307930946350098,0.775951087474823,-44.54071353578291,120.0245864220426)" filter="url(#master_svg1j_0_1088)"><ellipse cx="147.66567611694336" cy="122.92163820564747" rx="0.9758787155151367" ry="0.2088124305009842" fill="#FFFFFF" fill-opacity="1"/></g></g></g><g style="mix-blend-mode:passthrough"><g style="mix-blend-mode:passthrough" filter="url(#master_svg1k_0_1090)"><path d="M121.24440902027588,161.5838876220703C120.69329772027588,160.8655876220703,141.24973672027588,146.7038776220703,147.4221367202759,145.60165612207032C155.13773672027588,144.22387762207032,121.79552072027587,162.3021876220703,121.24440902027588,161.5838876220703C121.24440902027588,161.5838876220703,121.24440902027588,161.5838876220703,121.24440902027588,161.5838876220703Z" fill="#341206" fill-opacity="1"/></g><g style="opacity:0.800000011920929;mix-blend-mode:passthrough" transform="matrix(0.9986669421195984,0.05161723867058754,-0.05161723867058754,0.9986669421195984,8.183869041862295,-5.349185198382116)" filter="url(#master_svg1l_0_1091)"><path d="M155.44871826324464,155.92372512207032C142.66291826324462,154.8215041220703,124.40271826324462,159.8733551220703,116.87084826324462,162.53707512207032C109.33901826324463,164.83338512207033,116.32397826324463,169.8130751220703,110.31358826324463,173.4861751220703C103.40848826324464,177.7059751220703,111.91086826324462,174.93707512207033,113.83973826324463,182.37707512207032C115.76862826324464,189.81707512207032,155.44871826324464,184.58147512207032,155.44871826324464,182.37707512207032C155.44871826324464,180.17257512207033,168.39971826324464,178.2437751220703,166.19531826324464,172.4570751220703C163.99081826324462,166.6703751220703,176.39081826324463,161.7104051220703,175.28861826324464,160.0570751220703C174.18641826324463,158.40374512207032,171.43081826324465,157.30150512207032,155.44871826324464,155.92372512207032C155.44871826324464,155.92372512207032,155.44871826324464,155.92372512207032,155.44871826324464,155.92372512207032Z" fill="url(#master_svg1m__002)" fill-opacity="1"/></g><g style="mix-blend-mode:passthrough" filter="url(#master_svg1n_0_1092)"><path d="M122.62218467730713,163.95550168457032C121.51996267730713,160.64880168457032,125.83699767730712,158.9036016845703,128.13328767730712,158.44430168457032C132.90956767730714,155.50510168457032,147.14666767730714,148.6896916845703,165.88436767730713,144.9421316845703C189.30666767730713,140.25769168457032,181.59106767730714,151.27990168457032,181.86656767730713,154.86210168457032C182.14216767730713,158.44430168457032,181.86656767730713,170.2932016845703,168.63996767730714,162.30210168457032C155.41326767730715,154.3110016845703,123.99996767730713,168.0888016845703,122.62218467730713,163.95550168457032C122.62218467730713,163.95550168457032,122.62218467730713,163.95550168457032,122.62218467730713,163.95550168457032Z" fill="#FFDA97" fill-opacity="1"/></g><g style="opacity:0.699999988079071;mix-blend-mode:passthrough" filter="url(#master_svg1o_0_1093)"><path d="M140.17185776519776,152.9622978564453C137.22655776519775,155.1378078564453,120.96886748023775,160.11196785644532,120.96885776519775,165.0577778564453C129.51107776519774,162.85327785644532,150.76155776519775,170.56147785644532,150.45005776519776,160.11196785644532C150.13865776519776,149.66244285644532,145.97205776519775,148.6779178564453,140.17185776519776,152.9622978564453C140.17185776519776,152.9622978564453,140.17185776519776,152.9622978564453,140.17185776519776,152.9622978564453Z" fill="#CDA668" fill-opacity="1"/></g><g style="mix-blend-mode:passthrough" transform="matrix(1,-0.004242702387273312,0.004242702387273312,1,-0.6249153747566396,0.5120658137790031)" filter="url(#master_svg1p_0_1094)"><path d="M120.70015009230713,162.34082434082032C121.26821655230712,164.69792434082032,174.55231455230714,141.56584434082032,147.18501455230714,148.64385434082033C143.93551455230713,149.48429434082033,136.24021455230712,154.9204843408203,129.53426455230712,158.5204243408203C125.42384455230713,160.72692434082032,120.48427455230713,161.4450243408203,120.70015009230713,162.34082434082032C120.70015009230713,162.34082434082032,120.70015009230713,162.34082434082032,120.70015009230713,162.34082434082032Z" fill="url(#master_svg1q__005)" fill-opacity="1"/></g></g><g style="mix-blend-mode:passthrough" filter="url(#master_svg1r_0_1095)"><path d="M135.51708355133056,214.15691787109375C129.63025355133055,213.76511787109376,133.06424255133058,193.42131787109375,135.51708355133056,183.29847787109375C136.65226355133058,178.15540787109376,140.91332355133056,180.35957287109375,140.91332355133056,183.29847787109375C140.91332355133056,189.69540787109375,138.46049355133056,201.42171787109376,139.68693355133055,209.50361787109375C157.59266355133056,209.50361787109375,155.56866355133056,207.15321787109374,157.04036355133056,212.05141787109375C157.77626355133057,214.50051787109373,142.87556355133057,214.64671787109376,135.51708355133056,214.15691787109375C135.51708355133056,214.15691787109375,135.51708355133056,214.15691787109375,135.51708355133056,214.15691787109375Z" fill="#80B4F0" fill-opacity="1"/></g></g></g></g></svg>