<svg xmlns="http://www.w3.org/2000/svg" xmlns:xlink="http://www.w3.org/1999/xlink" fill="none" version="1.1" width="248" height="248" viewBox="0 0 248 248"><defs><mask id="master_svg0_0_1176"><g style="mix-blend-mode:passthrough"><ellipse cx="124" cy="124" rx="124" ry="124" fill="#FFFFFF" fill-opacity="1"/></g></mask><filter id="master_svg1_0_1178" filterUnits="objectBoundingBox" color-interpolation-filters="sRGB" x="-48.65428161621094" y="-13.221923828125" width="244.16798400878906" height="384.036376953125"><feFlood flood-opacity="0" result="BackgroundImageFix"/><feColorMatrix in="SourceAlpha" type="matrix" values="0 0 0 0 0 0 0 0 0 0 0 0 0 0 0 0 0 0 127 0"/><feOffset dy="19.832727432250977" dx="-8.263636589050293"/><feGaussianBlur stdDeviation="8.263636589050293"/><feColorMatrix type="matrix" values="0 0 0 0 0.45228713750839233 0 0 0 0 0.5916666388511658 0 0 0 0 0.41663193702697754 0 0 0 1 0"/><feBlend mode="normal" in2="BackgroundImageFix" result="effect1_dropShadow"/><feBlend mode="normal" in="SourceGraphic" in2="effect1_dropShadow" result="shape"/></filter><filter id="master_svg2_0_1180" filterUnits="objectBoundingBox" color-interpolation-filters="sRGB" x="-28.647274017333984" y="-28.647274017333984" width="207.74787139892578" height="65.56121444702148"><feFlood flood-opacity="0" result="BackgroundImageFix"/><feBlend mode="normal" in="SourceGraphic" in2="BackgroundImageFix" result="shape"/><feGaussianBlur stdDeviation="7.161818504333496" result="effect1_foregroundBlur"/></filter><filter id="master_svg3_0_1181" filterUnits="objectBoundingBox" color-interpolation-filters="sRGB" x="-12.119999885559082" y="-12.119999885559082" width="103.04877662658691" height="33.60888862609863"><feFlood flood-opacity="0" result="BackgroundImageFix"/><feBlend mode="normal" in="SourceGraphic" in2="BackgroundImageFix" result="shape"/><feGaussianBlur stdDeviation="3.0299999713897705" result="effect1_foregroundBlur"/></filter><filter id="master_svg4_0_1182" filterUnits="objectBoundingBox" color-interpolation-filters="sRGB" x="-11.018181800842285" y="-11.018181800842285" width="49.55550765991211" height="25.69210386276245"><feFlood flood-opacity="0" result="BackgroundImageFix"/><feBlend mode="normal" in="SourceGraphic" in2="BackgroundImageFix" result="shape"/><feGaussianBlur stdDeviation="2.7545454502105713" result="effect1_foregroundBlur"/></filter><filter id="master_svg5_0_1184" filterUnits="objectBoundingBox" color-interpolation-filters="sRGB" x="0" y="0" width="105.52804565429688" height="149.31715393066406"><feFlood flood-opacity="0" result="BackgroundImageFix"/><feBlend mode="normal" in="SourceGraphic" in2="BackgroundImageFix" result="shape"/><feColorMatrix in="SourceAlpha" type="matrix" result="hardAlpha" values="0 0 0 0 0 0 0 0 0 0 0 0 0 0 0 0 0 0 127 0"/><feOffset dy="-0.5138974785804749" dx="-0.5138974785804749"/><feGaussianBlur stdDeviation="3.0833849906921387"/><feComposite in2="hardAlpha" operator="arithmetic" k2="-1" k3="1"/><feColorMatrix type="matrix" values="0 0 0 0 0.5958333015441895 0 0 0 0 0.977546215057373 0 0 0 0 1 0 0 0 0.44999998807907104 0"/><feBlend mode="normal" in2="shape" result="effect1_innerShadow"/><feColorMatrix in="SourceAlpha" type="matrix" result="hardAlpha" values="0 0 0 0 0 0 0 0 0 0 0 0 0 0 0 0 0 0 127 0"/><feOffset dy="0.5138974785804749" dx="-4.625077724456787"/><feGaussianBlur stdDeviation="6.4237189292907715"/><feComposite in2="hardAlpha" operator="arithmetic" k2="-1" k3="1"/><feColorMatrix type="matrix" values="0 0 0 0 0.5518054962158203 0 0 0 0 0.966666579246521 0 0 0 0 0.9540950655937195 0 0 0 1 0"/><feBlend mode="normal" in2="effect1_innerShadow" result="effect2_innerShadow"/><feColorMatrix in="SourceAlpha" type="matrix" result="hardAlpha" values="0 0 0 0 0 0 0 0 0 0 0 0 0 0 0 0 0 0 127 0"/><feOffset dy="-3.0833849906921387" dx="21.06979751586914"/><feGaussianBlur stdDeviation="19.01420783996582"/><feComposite in2="hardAlpha" operator="arithmetic" k2="-1" k3="1"/><feColorMatrix type="matrix" values="0 0 0 0 0.30588236451148987 0 0 0 0 0.42352941632270813 0 0 0 0 0.4274509847164154 0 0 0 1 0"/><feBlend mode="normal" in2="effect2_innerShadow" result="effect3_innerShadow"/></filter><filter id="master_svg6_0_1185" filterUnits="objectBoundingBox" color-interpolation-filters="sRGB" x="-25.694875717163086" y="-25.694875717163086" width="119.47211074829102" height="130.23659133911133"><feFlood flood-opacity="0" result="BackgroundImageFix"/><feBlend mode="normal" in="SourceGraphic" in2="BackgroundImageFix" result="shape"/><feGaussianBlur stdDeviation="6.4237189292907715" result="effect1_foregroundBlur"/></filter><linearGradient x1="0.31858623027801514" y1="0.5019997358322144" x2="0.9717435836791992" y2="0.7041209936141968" id="master_svg7__010"><stop offset="0%" stop-color="#3D878C" stop-opacity="1"/><stop offset="100%" stop-color="#4E7C7F" stop-opacity="0"/></linearGradient><filter id="master_svg8_0_1187" filterUnits="objectBoundingBox" color-interpolation-filters="sRGB" x="-10.861255943775177" y="-7.639053523540497" width="71.29214859008789" height="43.58843994140625"><feFlood flood-opacity="0" result="BackgroundImageFix"/><feColorMatrix in="SourceAlpha" type="matrix" values="0 0 0 0 0 0 0 0 0 0 0 0 0 0 0 0 0 0 127 0"/><feOffset dy="0.5138974785804749" dx="-0.5138974785804749"/><feGaussianBlur stdDeviation="0.5138974785804749"/><feColorMatrix type="matrix" values="0 0 0 0 0.17513889074325562 0 0 0 0 0.41814541816711426 0 0 0 0 0.4333333373069763 0 0 0 1 0"/><feBlend mode="normal" in2="BackgroundImageFix" result="effect1_dropShadow"/><feColorMatrix in="SourceAlpha" type="matrix" values="0 0 0 0 0 0 0 0 0 0 0 0 0 0 0 0 0 0 127 0"/><feOffset dy="1.0972037315368652" dx="-1.0972037315368652"/><feGaussianBlur stdDeviation="1.7986412048339844"/><feColorMatrix type="matrix" values="0 0 0 0 0.2542881965637207 0 0 0 0 0.40416666865348816 0 0 0 0 0.40416666865348816 0 0 0 1 0"/><feBlend mode="normal" in2="effect1_dropShadow" result="effect2_dropShadow"/><feBlend mode="normal" in="SourceGraphic" in2="effect2_dropShadow" result="shape"/><feColorMatrix in="SourceAlpha" type="matrix" result="hardAlpha" values="0 0 0 0 0 0 0 0 0 0 0 0 0 0 0 0 0 0 127 0"/><feOffset dy="0" dx="1.0972037315368652"/><feGaussianBlur stdDeviation="1.0972037315368652"/><feComposite in2="hardAlpha" operator="arithmetic" k2="-1" k3="1"/><feColorMatrix type="matrix" values="0 0 0 0 1 0 0 0 0 1 0 0 0 0 1 0 0 0 0.25 0"/><feBlend mode="normal" in2="shape" result="effect3_innerShadow"/><feColorMatrix in="SourceAlpha" type="matrix" result="hardAlpha" values="0 0 0 0 0 0 0 0 0 0 0 0 0 0 0 0 0 0 127 0"/><feOffset dy="0" dx="6.03462028503418"/><feGaussianBlur stdDeviation="4.388814926147461"/><feComposite in2="hardAlpha" operator="arithmetic" k2="-1" k3="1"/><feColorMatrix type="matrix" values="0 0 0 0 0.4696875214576721 0 0 0 0 0.6775588989257812 0 0 0 0 0.6958333253860474 0 0 0 0.7300000190734863 0"/><feBlend mode="normal" in2="effect3_innerShadow" result="effect4_innerShadow"/></filter><filter id="master_svg9_0_1189" filterUnits="objectBoundingBox" color-interpolation-filters="sRGB" x="0" y="0" width="6.422598361968994" height="6.422598361968994"><feFlood flood-opacity="0" result="BackgroundImageFix"/><feBlend mode="normal" in="SourceGraphic" in2="BackgroundImageFix" result="shape"/><feColorMatrix in="SourceAlpha" type="matrix" result="hardAlpha" values="0 0 0 0 0 0 0 0 0 0 0 0 0 0 0 0 0 0 127 0"/><feOffset dy="0.4012652635574341" dx="-0.4012652635574341"/><feGaussianBlur stdDeviation="0.4012652635574341"/><feComposite in2="hardAlpha" operator="arithmetic" k2="-1" k3="1"/><feColorMatrix type="matrix" values="0 0 0 0 1 0 0 0 0 1 0 0 0 0 1 0 0 0 0.5 0"/><feBlend mode="normal" in2="shape" result="effect1_innerShadow"/></filter><filter id="master_svga_0_1190" filterUnits="objectBoundingBox" color-interpolation-filters="sRGB" x="-4.012652397155762" y="-4.012652397155762" width="10.835191488265991" height="8.818715155124664"><feFlood flood-opacity="0" result="BackgroundImageFix"/><feBlend mode="normal" in="SourceGraphic" in2="BackgroundImageFix" result="shape"/><feGaussianBlur stdDeviation="1.0031630992889404" result="effect1_foregroundBlur"/></filter><filter id="master_svgb_0_1191" filterUnits="objectBoundingBox" color-interpolation-filters="sRGB" x="-0.8025304675102234" y="-0.8025304675102234" width="3.5241423845291138" height="2.121629059314728"><feFlood flood-opacity="0" result="BackgroundImageFix"/><feBlend mode="normal" in="SourceGraphic" in2="BackgroundImageFix" result="shape"/><feGaussianBlur stdDeviation="0.20063261687755585" result="effect1_foregroundBlur"/></filter><filter id="master_svgc_0_1193" filterUnits="objectBoundingBox" color-interpolation-filters="sRGB" x="0" y="0" width="6.422598361968994" height="6.422598361968994"><feFlood flood-opacity="0" result="BackgroundImageFix"/><feBlend mode="normal" in="SourceGraphic" in2="BackgroundImageFix" result="shape"/><feColorMatrix in="SourceAlpha" type="matrix" result="hardAlpha" values="0 0 0 0 0 0 0 0 0 0 0 0 0 0 0 0 0 0 127 0"/><feOffset dy="0.4012652635574341" dx="-0.4012652635574341"/><feGaussianBlur stdDeviation="0.4012652635574341"/><feComposite in2="hardAlpha" operator="arithmetic" k2="-1" k3="1"/><feColorMatrix type="matrix" values="0 0 0 0 1 0 0 0 0 1 0 0 0 0 1 0 0 0 0.5 0"/><feBlend mode="normal" in2="shape" result="effect1_innerShadow"/></filter><filter id="master_svgd_0_1194" filterUnits="objectBoundingBox" color-interpolation-filters="sRGB" x="-4.012652397155762" y="-4.012652397155762" width="10.835191488265991" height="8.818715155124664"><feFlood flood-opacity="0" result="BackgroundImageFix"/><feBlend mode="normal" in="SourceGraphic" in2="BackgroundImageFix" result="shape"/><feGaussianBlur stdDeviation="1.0031630992889404" result="effect1_foregroundBlur"/></filter><filter id="master_svge_0_1195" filterUnits="objectBoundingBox" color-interpolation-filters="sRGB" x="-0.8025304675102234" y="-0.8025304675102234" width="3.55681836605072" height="2.022685796022415"><feFlood flood-opacity="0" result="BackgroundImageFix"/><feBlend mode="normal" in="SourceGraphic" in2="BackgroundImageFix" result="shape"/><feGaussianBlur stdDeviation="0.20063261687755585" result="effect1_foregroundBlur"/></filter><filter id="master_svgf_0_1197" filterUnits="objectBoundingBox" color-interpolation-filters="sRGB" x="-22.61148953437805" y="-25.18097698688507" width="84.8128719329834" height="59.64766883850098"><feFlood flood-opacity="0" result="BackgroundImageFix"/><feColorMatrix in="SourceAlpha" type="matrix" values="0 0 0 0 0 0 0 0 0 0 0 0 0 0 0 0 0 0 127 0"/><feOffset dy="-1.5416924953460693" dx="0"/><feGaussianBlur stdDeviation="3.854231119155884"/><feColorMatrix type="matrix" values="0 0 0 0 0.46666663885116577 0 0 0 0 0.9526882171630859 0 0 0 0 1 0 0 0 1 0"/><feBlend mode="normal" in2="BackgroundImageFix" result="effect1_dropShadow"/><feColorMatrix in="SourceAlpha" type="matrix" values="0 0 0 0 0 0 0 0 0 0 0 0 0 0 0 0 0 0 127 0"/><feOffset dy="-1.0277949571609497" dx="0"/><feGaussianBlur stdDeviation="1.2847437858581543"/><feColorMatrix type="matrix" values="0 0 0 0 0.0699305534362793 0 0 0 0 0.4342319369316101 0 0 0 0 0.4416666626930237 0 0 0 1 0"/><feBlend mode="normal" in2="effect1_dropShadow" result="effect2_dropShadow"/><feBlend mode="normal" in="SourceGraphic" in2="effect2_dropShadow" result="shape"/><feColorMatrix in="SourceAlpha" type="matrix" result="hardAlpha" values="0 0 0 0 0 0 0 0 0 0 0 0 0 0 0 0 0 0 127 0"/><feOffset dy="1.5416924953460693" dx="0"/><feGaussianBlur stdDeviation="0"/><feComposite in2="hardAlpha" operator="arithmetic" k2="-1" k3="1"/><feColorMatrix type="matrix" values="0 0 0 0 0.1550000011920929 0 0 0 0 0.38310348987579346 0 0 0 0 0.4000000059604645 0 0 0 1 0"/><feBlend mode="normal" in2="shape" result="effect3_innerShadow"/><feGaussianBlur stdDeviation="0.5138974785804749" result="effect4_foregroundBlur"/></filter><filter id="master_svgg_0_1198" filterUnits="objectBoundingBox" color-interpolation-filters="sRGB" x="-6.166769981384277" y="-6.166769981384277" width="22.10117530822754" height="33.411062240600586"><feFlood flood-opacity="0" result="BackgroundImageFix"/><feBlend mode="normal" in="SourceGraphic" in2="BackgroundImageFix" result="shape"/><feGaussianBlur stdDeviation="1.5416924953460693" result="effect1_foregroundBlur"/></filter><filter id="master_svgh_0_1200" filterUnits="objectBoundingBox" color-interpolation-filters="sRGB" x="-5.652872323989868" y="-12.333539962768555" width="28.917633056640625" height="90.61115264892578"><feFlood flood-opacity="0" result="BackgroundImageFix"/><feColorMatrix in="SourceAlpha" type="matrix" values="0 0 0 0 0 0 0 0 0 0 0 0 0 0 0 0 0 0 127 0"/><feOffset dy="-5.138975143432617" dx="1.5416924953460693"/><feGaussianBlur stdDeviation="1.7986412048339844"/><feColorMatrix type="matrix" values="0 0 0 0 0.10208334028720856 0 0 0 0 0.33988094329833984 0 0 0 0 0.3499999940395355 0 0 0 1 0"/><feBlend mode="normal" in2="BackgroundImageFix" result="effect1_dropShadow"/><feBlend mode="normal" in="SourceGraphic" in2="effect1_dropShadow" result="shape"/><feColorMatrix in="SourceAlpha" type="matrix" result="hardAlpha" values="0 0 0 0 0 0 0 0 0 0 0 0 0 0 0 0 0 0 127 0"/><feOffset dy="-2.0555899143218994" dx="-2.0555899143218994"/><feGaussianBlur stdDeviation="1.5416924953460693"/><feComposite in2="hardAlpha" operator="arithmetic" k2="-1" k3="1"/><feColorMatrix type="matrix" values="0 0 0 0 0.21568627655506134 0 0 0 0 0.43529412150382996 0 0 0 0 0.4470588266849518 0 0 0 1 0"/><feBlend mode="normal" in2="shape" result="effect2_innerShadow"/><feColorMatrix in="SourceAlpha" type="matrix" result="hardAlpha" values="0 0 0 0 0 0 0 0 0 0 0 0 0 0 0 0 0 0 127 0"/><feOffset dy="0.5138974785804749" dx="2.0555899143218994"/><feGaussianBlur stdDeviation="1.5416924953460693"/><feComposite in2="hardAlpha" operator="arithmetic" k2="-1" k3="1"/><feColorMatrix type="matrix" values="0 0 0 0 0 0 0 0 0 0 0 0 0 0 0 0 0 0 0.25 0"/><feBlend mode="normal" in2="effect2_innerShadow" result="effect3_innerShadow"/><feColorMatrix in="SourceAlpha" type="matrix" result="hardAlpha" values="0 0 0 0 0 0 0 0 0 0 0 0 0 0 0 0 0 0 127 0"/><feOffset dy="-0.5138974785804749" dx="-0.5138974785804749"/><feGaussianBlur stdDeviation="3.0833849906921387"/><feComposite in2="hardAlpha" operator="arithmetic" k2="-1" k3="1"/><feColorMatrix type="matrix" values="0 0 0 0 0.5958333015441895 0 0 0 0 0.977546215057373 0 0 0 0 1 0 0 0 0.44999998807907104 0"/><feBlend mode="normal" in2="effect3_innerShadow" result="effect4_innerShadow"/><feColorMatrix in="SourceAlpha" type="matrix" result="hardAlpha" values="0 0 0 0 0 0 0 0 0 0 0 0 0 0 0 0 0 0 127 0"/><feOffset dy="-1.5416924953460693" dx="9.764052391052246"/><feGaussianBlur stdDeviation="6.680667400360107"/><feComposite in2="hardAlpha" operator="arithmetic" k2="-1" k3="1"/><feColorMatrix type="matrix" values="0 0 0 0 0.3294117748737335 0 0 0 0 0.5215686559677124 0 0 0 0 0.529411792755127 0 0 0 1 0"/><feBlend mode="normal" in2="effect4_innerShadow" result="effect5_innerShadow"/></filter><filter id="master_svgi_0_1201" filterUnits="objectBoundingBox" color-interpolation-filters="sRGB" x="-8.222359776496887" y="-2.0555896759033203" width="26.524271965026855" height="82.42117309570312"><feFlood flood-opacity="0" result="BackgroundImageFix"/><feColorMatrix in="SourceAlpha" type="matrix" values="0 0 0 0 0 0 0 0 0 0 0 0 0 0 0 0 0 0 127 0"/><feOffset dy="5.138975143432617" dx="-1.0277949571609497"/><feGaussianBlur stdDeviation="1.7986412048339844"/><feColorMatrix type="matrix" values="0 0 0 0 0.0894097089767456 0 0 0 0 0.41529905796051025 0 0 0 0 0.42916667461395264 0 0 0 1 0"/><feBlend mode="normal" in2="BackgroundImageFix" result="effect1_dropShadow"/><feBlend mode="normal" in="SourceGraphic" in2="effect1_dropShadow" result="shape"/><feColorMatrix in="SourceAlpha" type="matrix" result="hardAlpha" values="0 0 0 0 0 0 0 0 0 0 0 0 0 0 0 0 0 0 127 0"/><feOffset dy="0.5138974785804749" dx="2.0555899143218994"/><feGaussianBlur stdDeviation="1.5416924953460693"/><feComposite in2="hardAlpha" operator="arithmetic" k2="-1" k3="1"/><feColorMatrix type="matrix" values="0 0 0 0 0.16137152910232544 0 0 0 0 0.586686909198761 0 0 0 0 0.5958333611488342 0 0 0 0.9900000095367432 0"/><feBlend mode="normal" in2="shape" result="effect2_innerShadow"/><feColorMatrix in="SourceAlpha" type="matrix" result="hardAlpha" values="0 0 0 0 0 0 0 0 0 0 0 0 0 0 0 0 0 0 127 0"/><feOffset dy="-0.5138974785804749" dx="-0.5138974785804749"/><feGaussianBlur stdDeviation="3.0833849906921387"/><feComposite in2="hardAlpha" operator="arithmetic" k2="-1" k3="1"/><feColorMatrix type="matrix" values="0 0 0 0 0.5958333015441895 0 0 0 0 0.977546215057373 0 0 0 0 1 0 0 0 0.44999998807907104 0"/><feBlend mode="normal" in2="effect2_innerShadow" result="effect3_innerShadow"/><feColorMatrix in="SourceAlpha" type="matrix" result="hardAlpha" values="0 0 0 0 0 0 0 0 0 0 0 0 0 0 0 0 0 0 127 0"/><feOffset dy="-1.5416924953460693" dx="9.764052391052246"/><feGaussianBlur stdDeviation="6.680667400360107"/><feComposite in2="hardAlpha" operator="arithmetic" k2="-1" k3="1"/><feColorMatrix type="matrix" values="0 0 0 0 0.3294117748737335 0 0 0 0 0.5215686559677124 0 0 0 0 0.529411792755127 0 0 0 0.25 0"/><feBlend mode="normal" in2="effect3_innerShadow" result="effect4_innerShadow"/></filter><mask id="master_svgj_0_1203"><g style="mix-blend-mode:passthrough"><path d="M74.50680084960938,128.62125082885743C75.27793084960938,126.82198082885742,75.02088084960937,122.02382082885742,75.02088084960937,120.90997282885742C82.47517084960937,118.33954082885742,88.90127084960938,145.84313082885743,85.81667084960938,154.06853082885743C84.58907084960937,157.34203082885742,71.93637084960938,147.3854308288574,71.93637084960938,143.27273082885742C71.93637084960938,139.16003082885743,74.28039084960938,129.14954082885743,74.50680084960938,128.62125082885743C74.50680084960938,128.62125082885743,74.50680084960938,128.62125082885743,74.50680084960938,128.62125082885743Z" fill="#FFFFFF" fill-opacity="1"/></g></mask><filter id="master_svgk_0_1204" filterUnits="objectBoundingBox" color-interpolation-filters="sRGB" x="-12.333539962768555" y="-12.333539962768555" width="40.603755950927734" height="54.99814987182617"><feFlood flood-opacity="0" result="BackgroundImageFix"/><feBlend mode="normal" in="SourceGraphic" in2="BackgroundImageFix" result="shape"/><feGaussianBlur stdDeviation="3.0833849906921387" result="effect1_foregroundBlur"/></filter><mask id="master_svgl_0_1207"><g style="mix-blend-mode:passthrough" transform="matrix(-0.9878308176994324,0.15553224086761475,0.15553222596645355,0.9878308176994324,338.98949901162655,-26.523281531953216)"><path d="M181.86756147070312,171.45152268066406C179.78949247070312,155.00072268066407,182.82325247070312,124.36722268066406,185.39495247070312,140.70103268066407C187.55553247070313,154.42352268066406,188.89550247070312,152.34032268066406,188.63846247070313,166.22062268066406C188.43284247070312,177.32482268066406,191.34153247070313,194.44222268066406,193.31213247070312,201.55382268066407C190.8274224707031,202.83902268066407,185.39524247070312,205.04952268066407,183.54452247070313,203.61002268066406C181.23111727070312,201.81062268066407,185.20909247070313,197.90432268066405,181.86756147070312,171.45152268066406C181.86756147070312,171.45152268066406,181.86756147070312,171.45152268066406,181.86756147070312,171.45152268066406Z" fill="#FFFFFF" fill-opacity="1"/></g></mask><filter id="master_svgm_0_1208" filterUnits="objectBoundingBox" color-interpolation-filters="sRGB" x="-4.111179828643799" y="-4.111179828643799" width="15.933648586273193" height="19.018163681030273"><feFlood flood-opacity="0" result="BackgroundImageFix"/><feBlend mode="normal" in="SourceGraphic" in2="BackgroundImageFix" result="shape"/><feGaussianBlur stdDeviation="1.0277949571609497" result="effect1_foregroundBlur"/></filter><mask id="master_svgn_0_1209"><g style="mix-blend-mode:passthrough"><path d="M171.25258193359375,136.43384362182618C172.75078193359374,132.55421362182616,178.74360193359374,116.77683362182617,179.17164193359375,127.89857362182617C179.50837193359376,136.64844362182617,179.84513193359376,138.03424362182616,180.07773193359375,138.6051436218262C186.06353193359377,156.89574362182617,186.06353193359377,176.42614362182616,186.06353193359377,177.20214362182617C186.06353193359377,177.97804362182617,176.38925193359375,176.00654362182618,176.60330193359374,171.35094362182616C176.81735193359376,166.69534362182617,174.03495193359376,163.0743436218262,171.25258193359375,154.02174362182618C168.47021193359376,144.96914362182616,169.75438493359374,140.31354362182617,171.25258193359375,136.43384362182618C171.25258193359375,136.43384362182618,171.25258193359375,136.43384362182618,171.25258193359375,136.43384362182618Z" fill="#FFFFFF" fill-opacity="1"/></g></mask><filter id="master_svgo_0_1210" filterUnits="objectBoundingBox" color-interpolation-filters="sRGB" x="-8.222359657287598" y="-8.222359657287598" width="25.44876480102539" height="40.606760025024414"><feFlood flood-opacity="0" result="BackgroundImageFix"/><feBlend mode="normal" in="SourceGraphic" in2="BackgroundImageFix" result="shape"/><feGaussianBlur stdDeviation="2.0555899143218994" result="effect1_foregroundBlur"/></filter><filter id="master_svgp_0_1212" filterUnits="objectBoundingBox" color-interpolation-filters="sRGB" x="-7.1945648193359375" y="-7.1945648193359375" width="129.10408782958984" height="25.761635780334473"><feFlood flood-opacity="0" result="BackgroundImageFix"/><feBlend mode="normal" in="SourceGraphic" in2="BackgroundImageFix" result="shape"/><feGaussianBlur stdDeviation="1.7986412048339844" result="effect1_foregroundBlur"/></filter><filter id="master_svgq_0_1213" filterUnits="objectBoundingBox" color-interpolation-filters="sRGB" x="0" y="0" width="125.6736831665039" height="147.4070587158203"><feFlood flood-opacity="0" result="BackgroundImageFix"/><feBlend mode="normal" in="SourceGraphic" in2="BackgroundImageFix" result="shape"/><feColorMatrix in="SourceAlpha" type="matrix" result="hardAlpha" values="0 0 0 0 0 0 0 0 0 0 0 0 0 0 0 0 0 0 127 0"/><feOffset dy="0" dx="-1.0277949571609497"/><feGaussianBlur stdDeviation="1.2847437858581543"/><feComposite in2="hardAlpha" operator="arithmetic" k2="-1" k3="1"/><feColorMatrix type="matrix" values="0 0 0 0 0.5478993058204651 0 0 0 0 0.682750940322876 0 0 0 0 0.8708333373069763 0 0 0 1 0"/><feBlend mode="normal" in2="shape" result="effect1_innerShadow"/><feColorMatrix in="SourceAlpha" type="matrix" result="hardAlpha" values="0 0 0 0 0 0 0 0 0 0 0 0 0 0 0 0 0 0 127 0"/><feOffset dy="0.5138974785804749" dx="1.5416924953460693"/><feGaussianBlur stdDeviation="3.3403337001800537"/><feComposite in2="hardAlpha" operator="arithmetic" k2="-1" k3="1"/><feColorMatrix type="matrix" values="0 0 0 0 0.4815624952316284 0 0 0 0 0.6200851798057556 0 0 0 0 0.862500011920929 0 0 0 1 0"/><feBlend mode="normal" in2="effect1_innerShadow" result="effect2_innerShadow"/><feColorMatrix in="SourceAlpha" type="matrix" result="hardAlpha" values="0 0 0 0 0 0 0 0 0 0 0 0 0 0 0 0 0 0 127 0"/><feOffset dy="0" dx="15.930822372436523"/><feGaussianBlur stdDeviation="7.965411186218262"/><feComposite in2="hardAlpha" operator="arithmetic" k2="-1" k3="1"/><feColorMatrix type="matrix" values="0 0 0 0 0.27781248092651367 0 0 0 0 0.3766874372959137 0 0 0 0 0.5249999761581421 0 0 0 0.7799999713897705 0"/><feBlend mode="normal" in2="effect2_innerShadow" result="effect3_innerShadow"/></filter><filter id="master_svgr_0_1215" filterUnits="objectBoundingBox" color-interpolation-filters="sRGB" x="0" y="0" width="125.6736831665039" height="147.4070587158203"><feFlood flood-opacity="0" result="BackgroundImageFix"/><feBlend mode="normal" in="SourceGraphic" in2="BackgroundImageFix" result="shape"/><feColorMatrix in="SourceAlpha" type="matrix" result="hardAlpha" values="0 0 0 0 0 0 0 0 0 0 0 0 0 0 0 0 0 0 127 0"/><feOffset dy="0.5138974785804749" dx="1.5416924953460693"/><feGaussianBlur stdDeviation="3.3403337001800537"/><feComposite in2="hardAlpha" operator="arithmetic" k2="-1" k3="1"/><feColorMatrix type="matrix" values="0 0 0 0 0.4815624952316284 0 0 0 0 0.6200851798057556 0 0 0 0 0.862500011920929 0 0 0 1 0"/><feBlend mode="normal" in2="shape" result="effect1_innerShadow"/><feColorMatrix in="SourceAlpha" type="matrix" result="hardAlpha" values="0 0 0 0 0 0 0 0 0 0 0 0 0 0 0 0 0 0 127 0"/><feOffset dy="0" dx="15.930822372436523"/><feGaussianBlur stdDeviation="7.965411186218262"/><feComposite in2="hardAlpha" operator="arithmetic" k2="-1" k3="1"/><feColorMatrix type="matrix" values="0 0 0 0 0.27781248092651367 0 0 0 0 0.3766874372959137 0 0 0 0 0.5249999761581421 0 0 0 0.7799999713897705 0"/><feBlend mode="normal" in2="effect1_innerShadow" result="effect2_innerShadow"/></filter><mask id="master_svgs_0_1215"><g style="mix-blend-mode:passthrough" filter="url(#master_svgr_0_1215)"><path d="M92.94456855468749,186.02970356323243C80.3494685546875,187.05787356323242,78.0360985546875,187.3149235632324,74.6945385546875,187.82900356323242C55.668368554687504,190.75613356323242,84.9440685546875,251.57293356323243,89.8600685546875,258.25903356323244C96.28616855468749,266.9980335632324,100.3987685546875,263.14243356323243,97.5713685546875,279.33623356323244C93.9074685546875,300.3209335632324,106.5678685546875,306.3259335632324,112.9939685546875,309.1529335632324C118.8358685546875,311.72393356323244,130.2159685546875,308.8959335632324,131.7579685546875,326.3749335632324C133.2310685546875,343.0669335632324,148.2086685546875,304.2699335632324,137.41286855468752,299.6429335632324C126.61716855468751,295.0159335632324,125.2465685546875,290.13193356323245,129.18756855468752,289.10393356323243C149.2369685546875,284.7339335632324,158.74756855468752,268.0263335632324,164.40246855468752,260.0578335632324C170.0577685546875,252.08993356323242,169.0287685546875,252.34673356323242,185.2227685546875,225.61433356323244C201.4167685546875,198.88183356323242,190.62076855468752,185.51561356323242,188.82176855468748,186.02970356323243C187.0227685546875,186.5437935632324,185.2227685546875,186.02970356323243,172.37076855468752,183.97336256323243C159.5185685546875,181.91701356323242,153.8635685546875,184.23040356323241,139.4696685546875,183.97336256323243C125.07516855468751,183.71631856323242,105.5396685546875,185.0015335632324,92.94456855468749,186.02970356323243C92.94456855468749,186.02970356323243,92.94456855468749,186.02970356323243,92.94456855468749,186.02970356323243Z" fill="#FFFFFF" fill-opacity="1"/></g></mask><filter id="master_svgt_0_1216" filterUnits="objectBoundingBox" color-interpolation-filters="sRGB" x="-17.472515106201172" y="-17.472515106201172" width="117.61450958251953" height="54.59148597717285"><feFlood flood-opacity="0" result="BackgroundImageFix"/><feBlend mode="normal" in="SourceGraphic" in2="BackgroundImageFix" result="shape"/><feGaussianBlur stdDeviation="4.368128776550293" result="effect1_foregroundBlur"/></filter><linearGradient x1="0.8431747555732727" y1="0.41072407364845276" x2="0.3550180196762085" y2="0.37147384881973267" id="master_svgu__021"><stop offset="0%" stop-color="#8FB4E7" stop-opacity="1"/><stop offset="100%" stop-color="#8FB4E7" stop-opacity="0"/></linearGradient><filter id="master_svgv_0_1217" filterUnits="objectBoundingBox" color-interpolation-filters="sRGB" x="-11.305745124816895" y="-11.305745124816895" width="57.5693302154541" height="103.32310676574707"><feFlood flood-opacity="0" result="BackgroundImageFix"/><feBlend mode="normal" in="SourceGraphic" in2="BackgroundImageFix" result="shape"/><feGaussianBlur stdDeviation="2.8264362812042236" result="effect1_foregroundBlur"/></filter><linearGradient x1="0.4476776719093323" y1="0.5651600956916809" x2="1.0759999752044678" y2="0.5414012670516968" id="master_svgw__022"><stop offset="0%" stop-color="#5E7DAC" stop-opacity="1"/><stop offset="100%" stop-color="#6D91C5" stop-opacity="0"/></linearGradient><filter id="master_svgx_0_1218" filterUnits="objectBoundingBox" color-interpolation-filters="sRGB" x="-15.416924476623535" y="-15.416924476623535" width="91.09182167053223" height="172.743501663208"><feFlood flood-opacity="0" result="BackgroundImageFix"/><feBlend mode="normal" in="SourceGraphic" in2="BackgroundImageFix" result="shape"/><feGaussianBlur stdDeviation="3.854231119155884" result="effect1_foregroundBlur"/></filter><filter id="master_svgy_0_1219" filterUnits="objectBoundingBox" color-interpolation-filters="sRGB" x="-12.333539962768555" y="-12.333539962768555" width="72.15221786499023" height="95.25448989868164"><feFlood flood-opacity="0" result="BackgroundImageFix"/><feBlend mode="normal" in="SourceGraphic" in2="BackgroundImageFix" result="shape"/><feGaussianBlur stdDeviation="3.0833849906921387" result="effect1_foregroundBlur"/></filter><filter id="master_svgz_0_1220" filterUnits="objectBoundingBox" color-interpolation-filters="sRGB" x="-13.361334800720215" y="-13.361334800720215" width="102.50285148620605" height="58.42525863647461"><feFlood flood-opacity="0" result="BackgroundImageFix"/><feBlend mode="normal" in="SourceGraphic" in2="BackgroundImageFix" result="shape"/><feGaussianBlur stdDeviation="3.3403337001800537" result="effect1_foregroundBlur"/></filter><filter id="master_svg10_0_1221" filterUnits="objectBoundingBox" color-interpolation-filters="sRGB" x="-8.222359657287598" y="-8.222359657287598" width="31.867307662963867" height="31.353209495544434"><feFlood flood-opacity="0" result="BackgroundImageFix"/><feBlend mode="normal" in="SourceGraphic" in2="BackgroundImageFix" result="shape"/><feGaussianBlur stdDeviation="2.0555899143218994" result="effect1_foregroundBlur"/></filter><filter id="master_svg11_0_1223" filterUnits="objectBoundingBox" color-interpolation-filters="sRGB" x="0" y="0" width="24.244091033935547" height="26.949155807495117"><feFlood flood-opacity="0" result="BackgroundImageFix"/><feBlend mode="normal" in="SourceGraphic" in2="BackgroundImageFix" result="shape"/><feColorMatrix in="SourceAlpha" type="matrix" result="hardAlpha" values="0 0 0 0 0 0 0 0 0 0 0 0 0 0 0 0 0 0 127 0"/><feOffset dy="0" dx="1.0972037315368652"/><feGaussianBlur stdDeviation="1.0972037315368652"/><feComposite in2="hardAlpha" operator="arithmetic" k2="-1" k3="1"/><feColorMatrix type="matrix" values="0 0 0 0 1 0 0 0 0 1 0 0 0 0 1 0 0 0 0.25 0"/><feBlend mode="normal" in2="shape" result="effect1_innerShadow"/><feColorMatrix in="SourceAlpha" type="matrix" result="hardAlpha" values="0 0 0 0 0 0 0 0 0 0 0 0 0 0 0 0 0 0 127 0"/><feOffset dy="0" dx="3.0833849906921387"/><feGaussianBlur stdDeviation="2.8264362812042236"/><feComposite in2="hardAlpha" operator="arithmetic" k2="-1" k3="1"/><feColorMatrix type="matrix" values="0 0 0 0 0.8235294222831726 0 0 0 0 0.800000011920929 0 0 0 0 0.8039215803146362 0 0 0 1 0"/><feBlend mode="normal" in2="effect1_innerShadow" result="effect2_innerShadow"/></filter><filter id="master_svg12_0_1224" filterUnits="objectBoundingBox" color-interpolation-filters="sRGB" x="-10.277950286865234" y="-10.277950286865234" width="52.42922782897949" height="50.8869743347168"><feFlood flood-opacity="0" result="BackgroundImageFix"/><feBlend mode="normal" in="SourceGraphic" in2="BackgroundImageFix" result="shape"/><feGaussianBlur stdDeviation="2.5694875717163086" result="effect1_foregroundBlur"/></filter><filter id="master_svg13_0_1225" filterUnits="objectBoundingBox" color-interpolation-filters="sRGB" x="-15.416924715042114" y="-9.764052212238312" width="43.31141471862793" height="43.18929672241211"><feFlood flood-opacity="0" result="BackgroundImageFix"/><feColorMatrix in="SourceAlpha" type="matrix" values="0 0 0 0 0 0 0 0 0 0 0 0 0 0 0 0 0 0 127 0"/><feOffset dy="0.5138974785804749" dx="-1.5416924953460693"/><feGaussianBlur stdDeviation="1.0277949571609497"/><feColorMatrix type="matrix" values="0 0 0 0 0.1106249988079071 0 0 0 0 0.25552815198898315 0 0 0 0 0.49166667461395264 0 0 0 0.9200000166893005 0"/><feBlend mode="normal" in2="BackgroundImageFix" result="effect1_dropShadow"/><feColorMatrix in="SourceAlpha" type="matrix" values="0 0 0 0 0 0 0 0 0 0 0 0 0 0 0 0 0 0 127 0"/><feOffset dy="1.0277949571609497" dx="-2.5694875717163086"/><feGaussianBlur stdDeviation="1.7986412048339844"/><feColorMatrix type="matrix" values="0 0 0 0 0.3410937488079071 0 0 0 0 0.5043197870254517 0 0 0 0 0.737500011920929 0 0 0 1 0"/><feBlend mode="normal" in2="effect1_dropShadow" result="effect2_dropShadow"/><feBlend mode="normal" in="SourceGraphic" in2="effect2_dropShadow" result="shape"/><feColorMatrix in="SourceAlpha" type="matrix" result="hardAlpha" values="0 0 0 0 0 0 0 0 0 0 0 0 0 0 0 0 0 0 127 0"/><feOffset dy="-2.7545454502105713" dx="3.305454730987549"/><feGaussianBlur stdDeviation="4.1318182945251465"/><feComposite in2="hardAlpha" operator="arithmetic" k2="-1" k3="1"/><feColorMatrix type="matrix" values="0 0 0 0 0 0 0 0 0 0 0 0 0 0 0 0 0 0 0.1899999976158142 0"/><feBlend mode="normal" in2="shape" result="effect3_innerShadow"/><feColorMatrix in="SourceAlpha" type="matrix" result="hardAlpha" values="0 0 0 0 0 0 0 0 0 0 0 0 0 0 0 0 0 0 127 0"/><feOffset dy="0" dx="1.0972037315368652"/><feGaussianBlur stdDeviation="1.0972037315368652"/><feComposite in2="hardAlpha" operator="arithmetic" k2="-1" k3="1"/><feColorMatrix type="matrix" values="0 0 0 0 1 0 0 0 0 1 0 0 0 0 1 0 0 0 0.25 0"/><feBlend mode="normal" in2="effect3_innerShadow" result="effect4_innerShadow"/><feColorMatrix in="SourceAlpha" type="matrix" result="hardAlpha" values="0 0 0 0 0 0 0 0 0 0 0 0 0 0 0 0 0 0 127 0"/><feOffset dy="0" dx="3.0833849906921387"/><feGaussianBlur stdDeviation="2.8264362812042236"/><feComposite in2="hardAlpha" operator="arithmetic" k2="-1" k3="1"/><feColorMatrix type="matrix" values="0 0 0 0 0.8235294222831726 0 0 0 0 0.800000011920929 0 0 0 0 0.8039215803146362 0 0 0 1 0"/><feBlend mode="normal" in2="effect4_innerShadow" result="effect5_innerShadow"/></filter><filter id="master_svg14_0_1227" filterUnits="objectBoundingBox" color-interpolation-filters="sRGB" x="0" y="0" width="24.244091033935547" height="26.949155807495117"><feFlood flood-opacity="0" result="BackgroundImageFix"/><feBlend mode="normal" in="SourceGraphic" in2="BackgroundImageFix" result="shape"/><feColorMatrix in="SourceAlpha" type="matrix" result="hardAlpha" values="0 0 0 0 0 0 0 0 0 0 0 0 0 0 0 0 0 0 127 0"/><feOffset dy="0" dx="1.0972037315368652"/><feGaussianBlur stdDeviation="1.0972037315368652"/><feComposite in2="hardAlpha" operator="arithmetic" k2="-1" k3="1"/><feColorMatrix type="matrix" values="0 0 0 0 1 0 0 0 0 1 0 0 0 0 1 0 0 0 0.25 0"/><feBlend mode="normal" in2="shape" result="effect1_innerShadow"/><feColorMatrix in="SourceAlpha" type="matrix" result="hardAlpha" values="0 0 0 0 0 0 0 0 0 0 0 0 0 0 0 0 0 0 127 0"/><feOffset dy="0" dx="3.0833849906921387"/><feGaussianBlur stdDeviation="2.8264362812042236"/><feComposite in2="hardAlpha" operator="arithmetic" k2="-1" k3="1"/><feColorMatrix type="matrix" values="0 0 0 0 0.8235294222831726 0 0 0 0 0.800000011920929 0 0 0 0 0.8039215803146362 0 0 0 1 0"/><feBlend mode="normal" in2="effect1_innerShadow" result="effect2_innerShadow"/></filter><mask id="master_svg15_0_1227"><g style="mix-blend-mode:passthrough" filter="url(#master_svg14_0_1227)"><path d="M184.60322396850586,221.15646393432618C174.73279396850586,212.10856393432618,184.60318396850585,198.02256393432617,190.51517396850585,198.02256393432617C204.13847396850585,198.02257962292617,204.65257396850586,206.55348393432618,204.65257396850586,210.61766393432617C204.65257396850586,215.50146393432618,196.94127396850587,232.46626393432618,184.60322396850586,221.15646393432618C184.60322396850586,221.15646393432618,184.60322396850586,221.15646393432618,184.60322396850586,221.15646393432618Z" fill="#FFFFFF" fill-opacity="1"/></g></mask><filter id="master_svg16_0_1229" filterUnits="objectBoundingBox" color-interpolation-filters="sRGB" x="0" y="0" width="2.2786829471588135" height="6.422598361968994"><feFlood flood-opacity="0" result="BackgroundImageFix"/><feBlend mode="normal" in="SourceGraphic" in2="BackgroundImageFix" result="shape"/><feColorMatrix in="SourceAlpha" type="matrix" result="hardAlpha" values="0 0 0 0 0 0 0 0 0 0 0 0 0 0 0 0 0 0 127 0"/><feOffset dy="0.4012652635574341" dx="-0.4012652635574341"/><feGaussianBlur stdDeviation="0.4012652635574341"/><feComposite in2="hardAlpha" operator="arithmetic" k2="-1" k3="1"/><feColorMatrix type="matrix" values="0 0 0 0 1 0 0 0 0 1 0 0 0 0 1 0 0 0 0.5 0"/><feBlend mode="normal" in2="shape" result="effect1_innerShadow"/></filter><filter id="master_svg17_0_1230" filterUnits="objectBoundingBox" color-interpolation-filters="sRGB" x="-4.012652397155762" y="-4.012652397155762" width="9.959213972091675" height="8.666047751903534"><feFlood flood-opacity="0" result="BackgroundImageFix"/><feBlend mode="normal" in="SourceGraphic" in2="BackgroundImageFix" result="shape"/><feGaussianBlur stdDeviation="1.0031630992889404" result="effect1_foregroundBlur"/></filter><filter id="master_svg18_0_1231" filterUnits="objectBoundingBox" color-interpolation-filters="sRGB" x="-0.8025304675102234" y="-0.8025304675102234" width="2.9258722066879272" height="2.0222314298152924"><feFlood flood-opacity="0" result="BackgroundImageFix"/><feBlend mode="normal" in="SourceGraphic" in2="BackgroundImageFix" result="shape"/><feGaussianBlur stdDeviation="0.20063261687755585" result="effect1_foregroundBlur"/></filter><filter id="master_svg19_0_1233" filterUnits="objectBoundingBox" color-interpolation-filters="sRGB" x="-15.416924715042114" y="-9.764052212238312" width="43.31141471862793" height="43.18929672241211"><feFlood flood-opacity="0" result="BackgroundImageFix"/><feColorMatrix in="SourceAlpha" type="matrix" values="0 0 0 0 0 0 0 0 0 0 0 0 0 0 0 0 0 0 127 0"/><feOffset dy="0.5138974785804749" dx="-1.5416924953460693"/><feGaussianBlur stdDeviation="1.0277949571609497"/><feColorMatrix type="matrix" values="0 0 0 0 0.1106249988079071 0 0 0 0 0.25552815198898315 0 0 0 0 0.49166667461395264 0 0 0 0.9200000166893005 0"/><feBlend mode="normal" in2="BackgroundImageFix" result="effect1_dropShadow"/><feColorMatrix in="SourceAlpha" type="matrix" values="0 0 0 0 0 0 0 0 0 0 0 0 0 0 0 0 0 0 127 0"/><feOffset dy="1.0277949571609497" dx="-2.5694875717163086"/><feGaussianBlur stdDeviation="1.7986412048339844"/><feColorMatrix type="matrix" values="0 0 0 0 0.3410937488079071 0 0 0 0 0.5043197870254517 0 0 0 0 0.737500011920929 0 0 0 1 0"/><feBlend mode="normal" in2="effect1_dropShadow" result="effect2_dropShadow"/><feBlend mode="normal" in="SourceGraphic" in2="effect2_dropShadow" result="shape"/><feColorMatrix in="SourceAlpha" type="matrix" result="hardAlpha" values="0 0 0 0 0 0 0 0 0 0 0 0 0 0 0 0 0 0 127 0"/><feOffset dy="0" dx="1.0972037315368652"/><feGaussianBlur stdDeviation="1.0972037315368652"/><feComposite in2="hardAlpha" operator="arithmetic" k2="-1" k3="1"/><feColorMatrix type="matrix" values="0 0 0 0 1 0 0 0 0 1 0 0 0 0 1 0 0 0 0.25 0"/><feBlend mode="normal" in2="shape" result="effect3_innerShadow"/><feColorMatrix in="SourceAlpha" type="matrix" result="hardAlpha" values="0 0 0 0 0 0 0 0 0 0 0 0 0 0 0 0 0 0 127 0"/><feOffset dy="0" dx="3.0833849906921387"/><feGaussianBlur stdDeviation="2.8264362812042236"/><feComposite in2="hardAlpha" operator="arithmetic" k2="-1" k3="1"/><feColorMatrix type="matrix" values="0 0 0 0 0.8235294222831726 0 0 0 0 0.800000011920929 0 0 0 0 0.8039215803146362 0 0 0 1 0"/><feBlend mode="normal" in2="effect3_innerShadow" result="effect4_innerShadow"/></filter><mask id="master_svg1a_0_1233"><g style="mix-blend-mode:passthrough" filter="url(#master_svg19_0_1233)"><path d="M164.98598302734376,220.12820553588867C157.27463302734375,209.07530553588867,167.42519302734374,198.51610553588867,173.76555302734374,197.05952653588866C177.12225302734376,196.28838553588866,185.02395302734374,194.79756553588868,189.95915302734375,204.25676553588866C196.12825302734376,216.08070553588868,176.55295302734376,234.26550553588868,164.98598302734376,220.12820553588867C164.98598302734376,220.12820553588867,164.98598302734376,220.12820553588867,164.98598302734376,220.12820553588867Z" fill="#FFFFFF" fill-opacity="1"/></g></mask><filter id="master_svg1b_0_1235" filterUnits="objectBoundingBox" color-interpolation-filters="sRGB" x="0" y="0" width="2.9367196559906006" height="6.422598838806152"><feFlood flood-opacity="0" result="BackgroundImageFix"/><feBlend mode="normal" in="SourceGraphic" in2="BackgroundImageFix" result="shape"/><feColorMatrix in="SourceAlpha" type="matrix" result="hardAlpha" values="0 0 0 0 0 0 0 0 0 0 0 0 0 0 0 0 0 0 127 0"/><feOffset dy="0.4012652635574341" dx="-0.4012652635574341"/><feGaussianBlur stdDeviation="0.4012652635574341"/><feComposite in2="hardAlpha" operator="arithmetic" k2="-1" k3="1"/><feColorMatrix type="matrix" values="0 0 0 0 1 0 0 0 0 1 0 0 0 0 1 0 0 0 0.5 0"/><feBlend mode="normal" in2="shape" result="effect1_innerShadow"/></filter><filter id="master_svg1c_0_1236" filterUnits="objectBoundingBox" color-interpolation-filters="sRGB" x="-4.01265287399292" y="-4.01265287399292" width="10.058903455734253" height="8.682109236717224"><feFlood flood-opacity="0" result="BackgroundImageFix"/><feBlend mode="normal" in="SourceGraphic" in2="BackgroundImageFix" result="shape"/><feGaussianBlur stdDeviation="1.00316321849823" result="effect1_foregroundBlur"/></filter><filter id="master_svg1d_0_1237" filterUnits="objectBoundingBox" color-interpolation-filters="sRGB" x="-0.8025305271148682" y="-0.8025305271148682" width="3.017605423927307" height="1.9507805407047272"><feFlood flood-opacity="0" result="BackgroundImageFix"/><feBlend mode="normal" in="SourceGraphic" in2="BackgroundImageFix" result="shape"/><feGaussianBlur stdDeviation="0.20063263177871704" result="effect1_foregroundBlur"/></filter></defs><g style="mix-blend-mode:passthrough"><g style="mix-blend-mode:passthrough"><ellipse cx="124" cy="124" rx="124" ry="124" fill="#B6E1AB" fill-opacity="1"/></g><g style="mix-blend-mode:passthrough" mask="url(#master_svg0_0_1176)"><g style="mix-blend-mode:passthrough" filter="url(#master_svg1_0_1178)"><g style="mix-blend-mode:passthrough"><g style="opacity:0.6700000166893005;mix-blend-mode:passthrough" filter="url(#master_svg2_0_1180)"><ellipse cx="141.35999298095703" cy="342.51551628112793" rx="75.2266616821289" ry="4.133333206176758" fill="#7D899B" fill-opacity="1"/></g><g style="opacity:0.4000000059604645;mix-blend-mode:passthrough" filter="url(#master_svg3_0_1181)"><path d="M175.33154443359376,341.78299815307616C175.33154443359376,343.0264881530762,172.18694443359374,342.90876815307615,137.59314443359375,345.7231881530762C96.99557933329375,348.53768815307615,96.99554443359375,344.1522481530762,96.99554443359375,342.90876815307615C96.99554443359375,341.66526815307617,98.99686443359376,337.2798898306162,147.88544443359376,337.2798881530762C181.67544443359375,337.2798881530762,175.33154443359376,340.5394981530762,175.33154443359376,341.78299815307616C175.33154443359376,341.78299815307616,175.33154443359376,341.78299815307616,175.33154443359376,341.78299815307616Z" fill="#9DA5B0" fill-opacity="1"/></g><g style="opacity:0.800000011920929;mix-blend-mode:passthrough" transform="matrix(0.9989786148071289,0.04518547281622887,-0.045185476541519165,0.9989786148071289,15.414529104051212,-5.165235801016706)" filter="url(#master_svg4_0_1182)"><path d="M149.31485439453124,340.1392930749512C149.31485439453124,340.62451307495115,148.21665439453125,340.5785730749512,136.13695439453124,341.6767730749512C121.96076615343125,342.7749630749512,121.96075439453125,341.0637830749512,121.96075439453125,340.5785730749512C121.96075439453125,340.0933630749512,122.65959039453125,338.38218372952815,139.73095439453124,338.3821830749512C151.53005439453125,338.3821830749512,149.31485439453124,339.6540830749512,149.31485439453124,340.1392930749512C149.31485439453124,340.1392930749512,149.31485439453124,340.1392930749512,149.31485439453124,340.1392930749512Z" fill="#405372" fill-opacity="1"/></g></g><g style="mix-blend-mode:passthrough"><g style="mix-blend-mode:passthrough" filter="url(#master_svg5_0_1184)"><path d="M87.26690454101562,66.51331080932617C67.11472454101562,89.54441080932617,76.29972454101562,159.0486108093262,83.41124454101562,190.92161080932618C113.22820454101563,195.29161080932616,173.94200454101562,201.40961080932618,178.25990454101563,190.92161080932618C183.65790454101563,177.81261080932617,177.74590454101562,130.5169108093262,178.25990454101563,100.44301080932618C178.7739045410156,70.36901080932617,167.97850454101564,66.51331080932617,155.89760454101562,57.00274080932617C143.81610454101562,47.49216060932617,112.45710454101562,37.72454080932617,87.26690454101562,66.51331080932617C87.26690454101562,66.51331080932617,87.26690454101562,66.51331080932617,87.26690454101562,66.51331080932617Z" fill="#4FC0CB" fill-opacity="1"/></g><g style="mix-blend-mode:passthrough" filter="url(#master_svg6_0_1185)"><path d="M118.46044848632812,115.26728432495118C113.52524848632812,113.21095432495117,117.60364848632813,110.29780432495117,120.25984848632812,109.09827273495117C108.69284848632813,108.07010432495117,52.65814848632812,194.92591432495118,118.46044848632812,187.48371432495117C152.19934848632812,183.66831432495115,148.79184848632812,152.28151432495116,137.48164848632814,147.65471432495116C126.17184848632812,143.02791432495115,119.46964848632813,133.03031432495118,124.37314848632812,127.07881432495117C136.45484848632813,112.41487432495117,168.58384848632812,139.94341432495116,148.79184848632812,121.17931432495118C128.99924848632813,102.41514432495117,124.62954848632813,117.83771432495118,118.46044848632812,115.26728432495118C118.46044848632812,115.26728432495118,118.46044848632812,115.26728432495118,118.46044848632812,115.26728432495118Z" fill="url(#master_svg7__010)" fill-opacity="1"/></g></g><g style="mix-blend-mode:passthrough"><g style="mix-blend-mode:passthrough" filter="url(#master_svg8_0_1187)"><path d="M142.5696923828125,69.24422937182617C137.9428923828125,70.87217237182617,129.1519923828125,76.59568237182617,131.0026923828125,86.46611237182617C133.31609238281249,98.80421237182617,146.71849238281249,98.30281237182618,150.5379923828125,97.77601237182617C165.4464923828125,95.71971237182618,164.9322923828125,64.68285237182617,142.5696923828125,69.24422937182617ZM114.0378923828125,73.61395237182617C112.4956423828125,73.61395237182617,101.4427823828125,79.26891237182618,104.2702493828125,88.26541237182617C107.0977223828125,97.26191237182617,114.7541923828125,97.77601237182617,120.2068923828125,97.77601237182617C132.5449923828125,97.77601237182617,133.31609238281249,70.78648237182617,114.0378923828125,73.61395237182617Z" fill-rule="evenodd" fill="#FFFFFF" fill-opacity="1"/></g><g style="mix-blend-mode:passthrough" transform="matrix(0.2588190734386444,0.9659258127212524,-0.9659258127212524,0.2588190734386444,183.30271654185424,-73.14932269014037)"><g style="mix-blend-mode:passthrough" transform="matrix(1,-1.683217831782713e-8,1.683217831782713e-8,1,-0.0000013948441903721687,0.0000023449982649026424)" filter="url(#master_svg9_0_1189)"><ellipse cx="142.52768635749817" cy="86.07901692390442" rx="3.211299180984497" ry="3.211299180984497" fill="#292929" fill-opacity="1"/></g><g style="mix-blend-mode:passthrough" transform="matrix(0.775951087474823,-0.6307931542396545,0.6307930946350098,0.775951087474823,-21.62049251090889,109.2122142478861)" filter="url(#master_svga_0_1190)"><ellipse cx="144.3341234922409" cy="85.43825104832649" rx="1.4049433469772339" ry="0.39670518040657043" fill="#FFFFFF" fill-opacity="1"/></g><g style="mix-blend-mode:passthrough" transform="matrix(0.775951087474823,-0.6307930946350098,0.6307931542396545,0.7759510278701782,-21.316461400157095,109.64705946639742)" filter="url(#master_svgb_0_1191)"><ellipse cx="144.652881026268" cy="85.08925864100456" rx="0.9595407247543335" ry="0.2582840621471405" fill="#FFFFFF" fill-opacity="1"/></g></g><g style="mix-blend-mode:passthrough" transform="matrix(0.2588190734386444,0.9659258127212524,-0.9659258127212524,0.2588190734386444,173.01474448956446,-59.74201266348746)"><g style="mix-blend-mode:passthrough" transform="matrix(1,-1.683217831782713e-8,1.683217831782713e-8,1,-0.0000013948422150633633,0.0000021113615815693265)" filter="url(#master_svgc_0_1193)"><ellipse cx="128.64732670783997" cy="86.07889866828918" rx="3.211299180984497" ry="3.211299180984497" fill="#292929" fill-opacity="1"/></g><g style="mix-blend-mode:passthrough" transform="matrix(0.775951087474823,-0.6307931542396545,0.6307930946350098,0.775951087474823,-24.73037440215785,100.45657925717614)" filter="url(#master_svgd_0_1194)"><ellipse cx="130.4537638425827" cy="85.43825486302376" rx="1.4049433469772339" ry="0.39670518040657043" fill="#FFFFFF" fill-opacity="1"/></g><g style="mix-blend-mode:passthrough" transform="matrix(0.7759510278701782,-0.6307930946350098,0.6307930946350098,0.7759510278701782,-24.465065373481593,100.8944306905305)" filter="url(#master_svge_0_1195)"><ellipse cx="130.7737226486206" cy="85.09582109749317" rx="0.9758787155151367" ry="0.2088124305009842" fill="#FFFFFF" fill-opacity="1"/></g></g></g><g style="mix-blend-mode:passthrough"><g style="mix-blend-mode:passthrough" filter="url(#master_svgf_0_1197)"><path d="M131.0561923828125,103.45565348901367C110.4927923828125,102.63311598901367,104.3237783828125,122.30544498901367,103.8096923828125,132.2444449890137C106.3801223828125,132.2444449890137,107.6653323828125,104.99791498901367,131.0561923828125,104.74086498901367C149.76899238281248,104.53523498901367,156.67489238281252,117.50734498901367,157.78869238281248,124.01914498901367C157.4459923828125,117.50734498901367,151.6196923828125,104.27819298901368,131.0561923828125,103.45565348901367C131.0561923828125,103.45565348901367,131.0561923828125,103.45565348901367,131.0561923828125,103.45565348901367Z" fill="#446E6E" fill-opacity="1"/></g><g style="mix-blend-mode:passthrough" filter="url(#master_svgg_0_1198)"><path d="M106.27254553710938,120.33053709838867C107.16143553710937,118.26623709838867,108.56706553710937,116.22195709838867,109.23402553710937,115.14066709838868C110.86448553710937,113.28704209838867,113.50272553710937,110.69195709838867,111.01267553710937,115.14066709838868C107.90005553710938,120.70153709838867,109.60745553710937,124.40880709838868,106.27254553710938,130.66490709838868C102.81575653710938,137.14940709838868,101.48883553710938,131.69340709838866,102.71531053710937,130.06210709838868C105.67674553710937,126.12310709838867,105.53437553710937,122.04481709838868,106.27254553710938,120.33053709838867C106.27254553710938,120.33053709838867,106.27254553710938,120.33053709838867,106.27254553710938,120.33053709838867Z" fill="#437A7C" fill-opacity="1"/></g></g><g style="mix-blend-mode:passthrough"><g style="mix-blend-mode:passthrough" filter="url(#master_svgh_0_1200)"><path d="M70.78521800390625,170.44382145385742C68.70714400390625,153.9931214538574,75.55466400390625,114.39042145385743,76.22679400390625,131.1163314538574C76.78451400390625,144.99662145385741,79.52469400390625,151.6797214538574,79.26765400390624,165.56002145385742C79.06203400390625,176.6643214538574,82.95190400390625,193.66312145385743,84.92260400390624,200.7747214538574C82.43790400390625,202.05992145385744,77.00567400390625,204.27092145385743,75.15494400390625,202.83142145385742C72.84154400390625,201.03212145385743,74.12674400390625,196.89652145385742,70.78521800390625,170.44382145385742C70.78521800390625,170.44382145385742,70.78521800390625,170.44382145385742,70.78521800390625,170.44382145385742Z" fill="#4FC0CB" fill-opacity="1"/></g><g style="mix-blend-mode:passthrough" transform="matrix(-0.9878308176994324,0.15553224086761475,0.15553222596645355,0.9878308176994324,338.98941520881834,-26.523274975037793)" filter="url(#master_svgi_0_1201)"><path d="M181.867530953125,171.45167145385741C179.789461953125,155.00087145385743,182.823221953125,124.36737145385742,185.394921953125,140.70118145385743C187.555501953125,154.42367145385742,188.895471953125,152.34047145385742,188.638431953125,166.22077145385742C188.432811953125,177.32497145385742,191.341501953125,194.44237145385742,193.312101953125,201.55397145385743C190.827391953125,202.83917145385743,185.395211953125,205.04967145385743,183.544491953125,203.61017145385742C181.231086753125,201.81077145385743,185.209061953125,197.9044714538574,181.867530953125,171.45167145385741C181.867530953125,171.45167145385741,181.867530953125,171.45167145385741,181.867530953125,171.45167145385741Z" fill="#61CBD6" fill-opacity="1"/></g><g style="mix-blend-mode:passthrough" mask="url(#master_svgj_0_1203)"><g style="mix-blend-mode:passthrough" filter="url(#master_svgk_0_1204)"><path d="M70.82919452148437,132.09813200073242C70.82919452148437,132.09813200073242,76.46401452148437,120.90983200073242,76.46401452148437,120.90983200073242C76.46401452148437,121.89703700073242,86.60673452148437,145.26093200073242,86.32503452148437,149.5388320007324C86.04333452148438,153.81663200073243,80.12670452148437,148.88063200073242,77.59103452148437,147.23533200073243C75.05533452148437,145.58993200073243,73.92836452148437,145.58993200073243,71.67442452148437,144.27373200073242C69.87126952148438,143.22073200073243,70.35962362148437,135.71793200073242,70.82919452148437,132.09813200073242C70.82919452148437,132.09813200073242,70.82919452148437,132.09813200073242,70.82919452148437,132.09813200073242Z" fill="#4C7A7C" fill-opacity="1"/></g></g><g style="mix-blend-mode:passthrough" mask="url(#master_svgn_0_1209)"><g style="mix-blend-mode:passthrough" mask="url(#master_svgl_0_1207)"><g style="mix-blend-mode:passthrough" filter="url(#master_svgm_0_1208)"><rect x="174.75360107421875" y="134.27613830566406" width="7.711288928985596" height="10.795804023742676" rx="0" fill="#57C6CF" fill-opacity="1"/></g></g><g style="mix-blend-mode:passthrough" filter="url(#master_svgo_0_1210)"><path d="M179.1232873828125,132.99083291870116C179.3609273828125,134.41327291870118,179.3993973828125,136.73865291870118,179.8944573828125,137.87466291870118C180.4884973828125,143.65337291870117,180.8351473828125,152.30227291870116,180.5975073828125,152.65787291870117C180.3004573828125,153.10237291870118,177.3301873828125,154.73227291870117,176.4391273828125,153.10237291870118C175.5480473828125,151.47247291870116,174.9539573828125,150.43527291870117,174.9539573828125,148.95357291870118C174.9539573828125,147.47187291870117,171.3896233828125,142.13777291870116,171.6866513828125,140.80417291870117C171.9836793828125,139.47062291870117,173.4688173828125,131.17308291870117,174.9539573828125,129.98771391870116C175.8492473828125,129.27312991870116,176.9086273828125,129.88790191870117,177.8000673828125,130.04412591870118C177.9634673828125,129.98599191870116,178.2236473828125,129.96451791870118,178.6092073828125,129.98771391870116C178.3652373828125,130.09726491870117,178.0916073828125,130.09521991870116,177.8000673828125,130.04412591870118C176.9028273828125,130.36330291870118,178.9222973828125,131.78755291870118,179.1232873828125,132.99083291870116C179.1232873828125,132.99083291870116,179.1232873828125,132.99083291870116,179.1232873828125,132.99083291870116Z" fill="#64CED3" fill-opacity="1"/></g></g></g><g style="mix-blend-mode:passthrough"><g style="mix-blend-mode:passthrough" filter="url(#master_svgp_0_1212)"><path d="M73.4786376953125,186.96977905151368C73.4786376953125,186.96977905151368,73.4786376953125,190.82542905151368,73.4786376953125,190.82542905151368C110.6642376953125,192.28200905151368,185.3946376953125,194.73250905151366,186.8346376953125,192.88180905151367C188.27363769531252,191.03104905151366,188.2906376953125,186.62705905151367,188.11963769531252,184.65638905151368C186.06363769531248,184.99911905151367,181.4886376953125,185.47892905151366,179.6376376953125,184.65638905151368C177.3236376953125,183.62821905151367,161.64423769531248,181.57187905151366,159.0739376953125,182.34300605151367C156.5035376953125,183.11413605151367,139.5386376953125,183.37117905151368,134.9121376953125,183.37117905151368C130.2849376953125,183.37117905151368,88.6441376953125,185.42751905151368,86.33073769531251,185.68455905151367C84.4800376953125,185.89019905151366,76.9915576953125,186.62705905151367,73.4786376953125,186.96977905151368C73.4786376953125,186.96977905151368,73.4786376953125,186.96977905151368,73.4786376953125,186.96977905151368Z" fill="#2C686A" fill-opacity="1"/></g><g style="mix-blend-mode:passthrough" filter="url(#master_svgq_0_1213)"><path d="M92.94456855468749,186.02976459838868C80.3494685546875,187.05793459838867,78.0360985546875,187.31498459838866,74.6945385546875,187.82906459838867C55.668368554687504,190.75619459838867,84.9440685546875,251.57299459838868,89.8600685546875,258.2590945983887C96.28616855468749,266.99809459838866,100.3987685546875,263.1424945983887,97.5713685546875,279.3362945983887C93.9074685546875,300.32099459838867,106.5678685546875,306.32599459838866,112.9939685546875,309.15299459838866C118.8358685546875,311.7239945983887,130.2159685546875,308.89599459838865,131.7579685546875,326.37499459838864C133.2310685546875,343.06699459838865,148.2086685546875,304.2699945983887,137.41286855468752,299.64299459838867C126.61716855468751,295.01599459838866,125.2465685546875,290.1319945983887,129.18756855468752,289.1039945983887C149.2369685546875,284.7339945983887,158.74756855468752,268.02639459838866,164.40246855468752,260.05789459838866C170.0577685546875,252.08999459838867,169.0287685546875,252.34679459838867,185.2227685546875,225.61439459838869C201.4167685546875,198.88189459838867,190.62076855468752,185.51567459838867,188.82176855468748,186.02976459838868C187.0227685546875,186.54385459838866,185.2227685546875,186.02976459838868,172.37076855468752,183.97342359838868C159.5185685546875,181.91707459838867,153.8635685546875,184.23046459838866,139.4696685546875,183.97342359838868C125.07516855468751,183.71637959838867,105.5396685546875,185.00159459838866,92.94456855468749,186.02976459838868C92.94456855468749,186.02976459838868,92.94456855468749,186.02976459838868,92.94456855468749,186.02976459838868Z" fill="#739AD0" fill-opacity="1"/></g><g style="mix-blend-mode:passthrough" mask="url(#master_svgs_0_1215)"><g style="mix-blend-mode:passthrough" filter="url(#master_svgt_0_1216)"><path d="M158.04581943359375,193.3957352819824C143.65131943359376,189.4886752819824,110.74981943359376,191.76779228198242,96.09838943359375,193.3957352819824C92.24271943359375,193.79619528198242,88.38712543359375,190.05417528198242,88.90121163359375,201.62114528198242C89.41530043359376,213.18804528198243,99.38891943359376,195.90985528198243,111.26401943359375,197.50843528198243C124.63021943359375,199.3077052819824,126.42951943359375,202.64924528198242,136.45411943359375,197.50843528198243C146.47911943359375,192.36756528198242,148.53531943359374,211.38874528198244,161.64451943359376,210.87464528198242C174.75331943359373,210.3605452819824,176.03851943359376,198.27955528198243,158.04581943359375,193.3957352819824C158.04581943359375,193.3957352819824,158.04581943359375,193.3957352819824,158.04581943359375,193.3957352819824Z" fill="url(#master_svgu__021)" fill-opacity="1"/></g><g style="opacity:0.30000001192092896;mix-blend-mode:passthrough" transform="matrix(0.9501997232437134,-0.3116415739059448,0.3116415739059448,0.9501997232437134,-59.12236164296564,36.546123714226724)" filter="url(#master_svgv_0_1217)"><path d="M115.68951318359375,210.34570278198242C106.67841318359375,203.1709187819824,92.56359318359375,200.6177727819824,84.78851318359375,206.59676278198242C90.86903318359376,215.56528278198243,86.78212318359375,263.3880827819824,86.78212318359375,278.2498827819824C86.78212318359375,293.1122827819824,96.25181318359375,275.0137827819824,97.34831318359375,269.1201827819824C98.44481318359375,263.2265827819824,101.93361318359375,278.76248278198244,106.81791318359375,278.2498827819824C111.70221318359376,277.73738278198243,126.95331318359375,219.31418278198242,115.68951318359375,210.34570278198242C115.68951318359375,210.34570278198242,115.68951318359375,210.34570278198242,115.68951318359375,210.34570278198242Z" fill="url(#master_svgw__022)" fill-opacity="1"/></g><g style="mix-blend-mode:passthrough" filter="url(#master_svgx_0_1218)"><path d="M124.37313271484375,260.4839991882324C106.27733271484375,260.4839991882324,96.78383271484375,217.1293991882324,94.29913271484375,195.45205918823243C88.13013271484375,183.3710591882324,89.92943271484376,197.76547918823243,87.10193271484376,195.45205918823243C84.27449271484375,193.13867918823243,84.01739271484375,188.76894918823243,77.07725271484375,193.13867918823243C70.13709271484375,197.50837918823242,82.98924271484375,227.06829918823243,87.10193271484376,241.71979918823243C91.21463271484375,256.3709991882324,102.78153271484375,260.4839991882324,100.46813271484375,264.0826991882324C98.61743271484374,266.9611991882324,95.58433271484375,269.05209918823243,94.29913271484375,269.73769918823245C94.29913271484375,269.73769918823245,92.24273271484375,285.1599991882324,92.24273271484375,285.1599991882324C92.24273271484375,285.1599991882324,105.60903271484375,312.9201991882324,105.60903271484375,312.9201991882324C105.60903271484375,312.9201991882324,124.37313271484375,318.8331991882324,124.37313271484375,318.8331991882324C126.68653271484375,324.1451991882324,131.67303271484374,334.2551991882324,133.11253271484375,332.19919918823246C134.91193271484374,329.62819918823243,133.11253271484375,312.40619918823245,126.94363271484374,309.06519918823244C120.77453271484376,305.72319918823246,109.72173271484375,301.6101991882324,105.60903271484375,298.2691991882324C101.49633271484375,294.92819918823244,104.83783271484376,281.5611991882324,105.60903271484375,274.3641991882324C106.38013271484375,267.1672991882324,110.49283271484376,267.6808991882324,119.74633271484376,269.73769918823245C128.99993271484374,271.79389918823244,146.99283271484376,260.4839991882324,124.37313271484375,260.4839991882324C124.37313271484375,260.4839991882324,124.37313271484375,260.4839991882324,124.37313271484375,260.4839991882324Z" fill="#5B7AA8" fill-opacity="0.6700000166893005"/></g><g style="mix-blend-mode:passthrough" filter="url(#master_svgy_0_1219)"><path d="M122.059801953125,265.88180254760744C126.378101953125,266.7043325476074,122.659501953125,270.33722254760744,120.260501953125,272.05084254760743C118.461201953125,273.52569254760743,104.580801953125,272.05084254760743,103.038601953125,272.05084254760743C101.496301953125,272.05084254760743,93.508741953125,285.9310925476074,108.950601953125,285.9310925476074C133.369701953125,285.9310925476074,133.369701953125,290.04379254760744,130.285101953125,291.58609254760745C127.516701953125,292.9702925476074,112.54920195312499,285.6740925476074,106.123101953125,289.01569254760744C102.226101953125,291.0420925476074,105.094901953125,306.49459254760745,118.718201953125,309.0649925476074C132.341401953125,311.63549254760744,132.85560195312502,323.45959254760743,132.85560195312502,326.5441925476074C132.85560195312502,329.62819254760745,134.140801953125,329.37139254760746,135.168901953125,327.8293925476074C136.197101953125,326.28679254760743,137.996401953125,327.8293925476074,137.22530195312498,329.37139254760746C136.608401953125,330.6052925476074,134.05510195312502,332.62729254760745,132.85560195312502,333.4842925476074C132.85560195312502,333.4842925476074,127.457701953125,321.91699254760744,127.457701953125,321.91699254760744C125.05860195312499,319.7748925476074,119.438001953125,315.4910925476074,116.147801953125,315.4910925476074C112.035001953125,315.4910925476074,99.182971953125,304.4381925476074,93.785051953125,300.3255925476074C88.387151953125,296.21289254760745,88.901231953125,272.05084254760743,93.785051953125,265.88180254760744C98.668891953125,259.71276254760744,116.661901953125,264.8536225476074,122.059801953125,265.88180254760744C122.059801953125,265.88180254760744,122.059801953125,265.88180254760744,122.059801953125,265.88180254760744Z" fill="#506D9A" fill-opacity="0.7900000214576721"/></g></g><g style="opacity:0.4000000059604645;mix-blend-mode:passthrough" filter="url(#master_svgz_0_1220)"><path d="M130.0280525878906,231.18117147338867C118.51255258789062,227.89102147338866,105.00925258789063,232.55206147338868,99.69702258789063,235.29386147338866C97.89771758789063,236.75044147338866,95.37870258789063,242.2854414733887,99.69702258789063,252.77274147338866C105.09495258789063,265.8819414733887,116.14775258789062,260.99814147338867,126.94355258789062,260.2270414733887C137.7393525878906,259.4559414733887,136.96825258789062,249.68824147338867,150.59155258789062,252.77274147338866C164.21475258789064,255.85734147338866,159.84505258789062,250.45934147338866,169.86975258789062,242.49104147338866C179.8944525878906,234.52273147338866,164.21475258789064,231.18117147338867,154.4474525878906,235.29386147338866C144.6795525878906,239.40652147338866,144.42255258789064,235.29386147338866,130.0280525878906,231.18117147338867C130.0280525878906,231.18117147338867,130.0280525878906,231.18117147338867,130.0280525878906,231.18117147338867Z" fill="#6689BA" fill-opacity="1"/></g><g style="opacity:0.4000000059604645;mix-blend-mode:passthrough" filter="url(#master_svg10_0_1221)"><path d="M119.38968295898438,300.71849952026366C116.60005295898438,299.6878015202637,117.87575595898437,300.84120952026365,118.79339295898437,302.37499452026367C123.19809295898438,305.68795452026365,127.23566295898438,305.68795452026365,129.98853295898436,308.0806745202637C132.74153295898438,310.47336452026366,132.2366329589844,317.4673645202637,132.97073295898437,314.52246452026367C133.70483295898438,311.5776645202637,131.50253295898438,305.68794452026367,128.38253295898437,304.7676845202637C125.26257295898438,303.84741452026367,122.87671295898437,302.0068745202637,119.38968295898438,300.71849952026366C119.38968295898438,300.71849952026366,119.38968295898438,300.71849952026366,119.38968295898438,300.71849952026366Z" fill="#9EC7FF" fill-opacity="1"/></g></g><g style="mix-blend-mode:passthrough"><g style="mix-blend-mode:passthrough" filter="url(#master_svg11_0_1223)"><path d="M184.60325830078125,221.15634186401368C174.73282830078125,212.10844186401368,184.60321830078124,198.02244186401367,190.51520830078124,198.02244186401367C204.13850830078124,198.02245755261367,204.65260830078125,206.55336186401368,204.65260830078125,210.61754186401367C204.65260830078125,215.50134186401368,196.94130830078126,232.46614186401368,184.60325830078125,221.15634186401368C184.60325830078125,221.15634186401368,184.60325830078125,221.15634186401368,184.60325830078125,221.15634186401368Z" fill="#FFFFFF" fill-opacity="1"/></g><g style="opacity:0.5;mix-blend-mode:passthrough" filter="url(#master_svg12_0_1224)"><path d="M162.71715314453124,221.38520553588867C154.21899314453125,209.74480553588867,165.40525314453126,198.62432553588866,172.39257314453124,197.09032053588868C176.09177314453126,196.27819153588868,184.79977314453126,194.70812553588868,190.23847314453124,204.67010553588867C197.03697314453126,217.12260553588868,175.46427314453126,236.27410553588868,162.71715314453124,221.38520553588867C162.71715314453124,221.38520553588867,162.71715314453124,221.38520553588867,162.71715314453124,221.38520553588867Z" fill="#8F9497" fill-opacity="1"/></g><g style="mix-blend-mode:passthrough" filter="url(#master_svg13_0_1225)"><path d="M164.98598302734376,220.12820553588867C157.27463302734375,209.07530553588867,167.42519302734374,198.51610553588867,173.76555302734374,197.05952653588866C177.12225302734376,196.28838553588866,185.02395302734374,194.79756553588868,189.95915302734375,204.25676553588866C196.12825302734376,216.08070553588868,176.55295302734376,234.26550553588868,164.98598302734376,220.12820553588867C164.98598302734376,220.12820553588867,164.98598302734376,220.12820553588867,164.98598302734376,220.12820553588867Z" fill="#FFFFFF" fill-opacity="1"/></g><g style="mix-blend-mode:passthrough" mask="url(#master_svg15_0_1227)"><g style="mix-blend-mode:passthrough" transform="matrix(-0.2713887393474579,0.9624698162078857,-0.9624698162078857,-0.2713887393474579,446.27769252741166,60.95234634025985)"><g style="mix-blend-mode:passthrough" transform="matrix(1,1.9215542490513826e-9,1.894715495609489e-9,1,-3.778010295718559e-7,-3.844409377506963e-7)" filter="url(#master_svg16_0_1229)"><ellipse cx="201.20704090595245" cy="202.6085274219513" rx="1.1393414735794067" ry="3.211299180984497" fill="#292929" fill-opacity="1"/></g><g style="mix-blend-mode:passthrough" transform="matrix(0.40000009536743164,-0.9165151119232178,0.2771240472793579,0.9608341455459595,64.94947338579232,192.4345027070608)" filter="url(#master_svg17_0_1230)"><ellipse cx="202.31639230251312" cy="201.89136680960655" rx="0.9669545888900757" ry="0.32037147879600525" fill="#FFFFFF" fill-opacity="1"/></g><g style="mix-blend-mode:passthrough" transform="matrix(0.40000012516975403,-0.9165151119232178,0.2771240472793579,0.9608341455459595,65.1705489453417,192.6748536668615)" filter="url(#master_svg18_0_1231)"><ellipse cx="202.2810835838318" cy="201.56907032430172" rx="0.6604056358337402" ry="0.2085852473974228" fill="#FFFFFF" fill-opacity="1"/></g></g></g><g style="mix-blend-mode:passthrough" mask="url(#master_svg1a_0_1233)"><g style="mix-blend-mode:passthrough" transform="matrix(-0.3371018171310425,0.9414681792259216,-0.9414681792259216,-0.3371018171310425,434.62128651607713,89.21279892119082)"><g style="mix-blend-mode:passthrough" transform="matrix(1,4.029807953997988e-8,-1.5061393243698262e-9,1,2.976390760522918e-7,-0.000007491525281011491)" filter="url(#master_svg1b_0_1235)"><ellipse cx="187.3711460828781" cy="200.828528881073" rx="1.4683598279953003" ry="3.211299419403076" fill="#292929" fill-opacity="1"/></g><g style="mix-blend-mode:passthrough" transform="matrix(0.49024125933647156,-0.871586799621582,0.34841835498809814,0.9373391270637512,25.99674634495841,175.98923200731065)" filter="url(#master_svg1c_0_1236)"><ellipse cx="188.57144057750702" cy="200.1194593310356" rx="1.0167988538742065" ry="0.32840174436569214" fill="#FFFFFF" fill-opacity="1"/></g><g style="mix-blend-mode:passthrough" transform="matrix(0.49024125933647156,-0.871586799621582,0.34841835498809814,0.9373391270637512,26.225156042878552,176.27809999503938)" filter="url(#master_svg1d_0_1237)"><ellipse cx="188.6034432053566" cy="199.80949838459492" rx="0.7062721848487854" ry="0.17285974323749542" fill="#FFFFFF" fill-opacity="1"/></g></g></g></g></g></g></g></svg>