<svg xmlns="http://www.w3.org/2000/svg" xmlns:xlink="http://www.w3.org/1999/xlink" fill="none" version="1.1" width="248" height="248" viewBox="0 0 248 248"><defs><mask id="master_svg0_0_1242"><g style="mix-blend-mode:passthrough"><ellipse cx="124" cy="124" rx="124" ry="124" fill="#FFFFFF" fill-opacity="1"/></g></mask><filter id="master_svg1_0_1244" filterUnits="objectBoundingBox" color-interpolation-filters="sRGB" x="-42.41162109375" y="-13.221923828125" width="215.44415283203125" height="319.819091796875"><feFlood flood-opacity="0" result="BackgroundImageFix"/><feColorMatrix in="SourceAlpha" type="matrix" values="0 0 0 0 0 0 0 0 0 0 0 0 0 0 0 0 0 0 127 0"/><feOffset dy="19.832727432250977" dx="-8.263636589050293"/><feGaussianBlur stdDeviation="8.263636589050293"/><feColorMatrix type="matrix" values="0 0 0 0 0.5666666626930237 0 0 0 0 0.316388875246048 0 0 0 0 0.5416387915611267 0 0 0 1 0"/><feBlend mode="normal" in2="BackgroundImageFix" result="effect1_dropShadow"/><feBlend mode="normal" in="SourceGraphic" in2="effect1_dropShadow" result="shape"/></filter><filter id="master_svg2_0_1246" filterUnits="objectBoundingBox" color-interpolation-filters="sRGB" x="-28.647274017333984" y="-28.647274017333984" width="176.73851013183594" height="78.11504745483398"><feFlood flood-opacity="0" result="BackgroundImageFix"/><feBlend mode="normal" in="SourceGraphic" in2="BackgroundImageFix" result="shape"/><feGaussianBlur stdDeviation="7.161818504333496" result="effect1_foregroundBlur"/></filter><filter id="master_svg3_0_1247" filterUnits="objectBoundingBox" color-interpolation-filters="sRGB" x="-8.814545631408691" y="-8.814545631408691" width="129.14129066467285" height="33.3523063659668"><feFlood flood-opacity="0" result="BackgroundImageFix"/><feBlend mode="normal" in="SourceGraphic" in2="BackgroundImageFix" result="shape"/><feGaussianBlur stdDeviation="2.203636407852173" result="effect1_foregroundBlur"/></filter><filter id="master_svg4_0_1248" filterUnits="objectBoundingBox" color-interpolation-filters="sRGB" x="-6.610909461975098" y="-6.610909461975098" width="56.5059871673584" height="32.18505096435547"><feFlood flood-opacity="0" result="BackgroundImageFix"/><feBlend mode="normal" in="SourceGraphic" in2="BackgroundImageFix" result="shape"/><feGaussianBlur stdDeviation="1.6527273654937744" result="effect1_foregroundBlur"/></filter><linearGradient x1="0.5102600455284119" y1="0.6591464281082153" x2="1.0197510719299316" y2="0.3490070402622223" id="master_svg5__18"><stop offset="0%" stop-color="#4D181D" stop-opacity="1"/><stop offset="100%" stop-color="#341B18" stop-opacity="0"/></linearGradient><filter id="master_svg6_0_1249" filterUnits="objectBoundingBox" color-interpolation-filters="sRGB" x="-3.305454730987549" y="-3.305454730987549" width="120.34481143951416" height="34.24572277069092"><feFlood flood-opacity="0" result="BackgroundImageFix"/><feBlend mode="normal" in="SourceGraphic" in2="BackgroundImageFix" result="shape"/><feGaussianBlur stdDeviation="0.8263636827468872" result="effect1_foregroundBlur"/></filter><filter id="master_svg7_0_1251" filterUnits="objectBoundingBox" color-interpolation-filters="sRGB" x="0" y="0" width="25.78955841064453" height="126.88545989990234"><feFlood flood-opacity="0" result="BackgroundImageFix"/><feBlend mode="normal" in="SourceGraphic" in2="BackgroundImageFix" result="shape"/><feColorMatrix in="SourceAlpha" type="matrix" result="hardAlpha" values="0 0 0 0 0 0 0 0 0 0 0 0 0 0 0 0 0 0 127 0"/><feOffset dy="-1.6527273654937744" dx="-6.059999942779541"/><feGaussianBlur stdDeviation="2.203636407852173"/><feComposite in2="hardAlpha" operator="arithmetic" k2="-1" k3="1"/><feColorMatrix type="matrix" values="0 0 0 0 0.7291666865348816 0 0 0 0 0.2795138955116272 0 0 0 0 0.3100728392601013 0 0 0 1 0"/><feBlend mode="normal" in2="shape" result="effect1_innerShadow"/><feColorMatrix in="SourceAlpha" type="matrix" result="hardAlpha" values="0 0 0 0 0 0 0 0 0 0 0 0 0 0 0 0 0 0 127 0"/><feOffset dy="1.6527273654937744" dx="-0.5509091019630432"/><feGaussianBlur stdDeviation="4.682727336883545"/><feComposite in2="hardAlpha" operator="arithmetic" k2="-1" k3="1"/><feColorMatrix type="matrix" values="0 0 0 0 1 0 0 0 0 0.875 0 0 0 0 0.875 0 0 0 1 0"/><feBlend mode="normal" in2="effect1_innerShadow" result="effect2_innerShadow"/><feColorMatrix in="SourceAlpha" type="matrix" result="hardAlpha" values="0 0 0 0 0 0 0 0 0 0 0 0 0 0 0 0 0 0 127 0"/><feOffset dy="-12.67090892791748" dx="13.772727966308594"/><feGaussianBlur stdDeviation="14.323637008666992"/><feComposite in2="hardAlpha" operator="arithmetic" k2="-1" k3="1"/><feColorMatrix type="matrix" values="0 0 0 0 0.6916666626930237 0 0 0 0 0.10663193464279175 0 0 0 0 0.11921331286430359 0 0 0 0.3700000047683716 0"/><feBlend mode="normal" in2="effect2_innerShadow" result="effect3_innerShadow"/></filter><mask id="master_svg8_0_1253"><g style="mix-blend-mode:passthrough"><path d="M61.859798028564455,171.62405918579103C61.11069802856446,163.384559185791,67.37359802856446,148.84045918579102,70.59869802856446,142.59845918579103C70.59869802856446,136.555339185791,73.73479802856446,131.88184918579103,75.59239802856445,129.575470185791C77.44989802856445,127.26908918579102,75.90449802856446,134.17160918579103,75.59239802856445,136.98051918579102C75.28029802856446,139.789459185791,73.71969802856445,177.86615918579102,73.40759802856445,205.01905918579104C73.09549802856445,232.17275918579102,65.91709802856445,254.643759185791,59.98715802856445,255.89175918579102C54.057168028564455,257.140759185791,48.12717802856445,247.152759185791,51.87242802856446,232.17275918579102C55.617678028564455,217.19145918579102,56.24190802856445,213.446059185791,56.24190802856445,200.961759185791C56.24190802856445,188.477959185791,62.79609802856445,181.92355918579102,61.859798028564455,171.62405918579103C61.859798028564455,171.62405918579103,61.859798028564455,171.62405918579103,61.859798028564455,171.62405918579103Z" fill="#FFFFFF" fill-opacity="1"/></g></mask><filter id="master_svg9_0_1254" filterUnits="objectBoundingBox" color-interpolation-filters="sRGB" x="-11.018181800842285" y="-11.018181800842285" width="46.46014595031738" height="133.31914710998535"><feFlood flood-opacity="0" result="BackgroundImageFix"/><feBlend mode="normal" in="SourceGraphic" in2="BackgroundImageFix" result="shape"/><feGaussianBlur stdDeviation="2.7545454502105713" result="effect1_foregroundBlur"/></filter><filter id="master_svga_0_1255" filterUnits="objectBoundingBox" color-interpolation-filters="sRGB" x="0" y="0" width="126.44076538085938" height="245.44065856933594"><feFlood flood-opacity="0" result="BackgroundImageFix"/><feBlend mode="normal" in="SourceGraphic" in2="BackgroundImageFix" result="shape"/><feColorMatrix in="SourceAlpha" type="matrix" result="hardAlpha" values="0 0 0 0 0 0 0 0 0 0 0 0 0 0 0 0 0 0 127 0"/><feOffset dy="1.6527273654937744" dx="-0.5509091019630432"/><feGaussianBlur stdDeviation="4.682727336883545"/><feComposite in2="hardAlpha" operator="arithmetic" k2="-1" k3="1"/><feColorMatrix type="matrix" values="0 0 0 0 1 0 0 0 0 0.875 0 0 0 0 0.875 0 0 0 1 0"/><feBlend mode="normal" in2="shape" result="effect1_innerShadow"/><feColorMatrix in="SourceAlpha" type="matrix" result="hardAlpha" values="0 0 0 0 0 0 0 0 0 0 0 0 0 0 0 0 0 0 127 0"/><feOffset dy="-12.67090892791748" dx="13.772727966308594"/><feGaussianBlur stdDeviation="14.323637008666992"/><feComposite in2="hardAlpha" operator="arithmetic" k2="-1" k3="1"/><feColorMatrix type="matrix" values="0 0 0 0 0.6916666626930237 0 0 0 0 0.10663193464279175 0 0 0 0 0.11921331286430359 0 0 0 0.3700000047683716 0"/><feBlend mode="normal" in2="effect1_innerShadow" result="effect2_innerShadow"/></filter><filter id="master_svgb_0_1257" filterUnits="objectBoundingBox" color-interpolation-filters="sRGB" x="0" y="0" width="126.44076538085938" height="245.44065856933594"><feFlood flood-opacity="0" result="BackgroundImageFix"/><feBlend mode="normal" in="SourceGraphic" in2="BackgroundImageFix" result="shape"/><feColorMatrix in="SourceAlpha" type="matrix" result="hardAlpha" values="0 0 0 0 0 0 0 0 0 0 0 0 0 0 0 0 0 0 127 0"/><feOffset dy="-12.67090892791748" dx="13.772727966308594"/><feGaussianBlur stdDeviation="14.323637008666992"/><feComposite in2="hardAlpha" operator="arithmetic" k2="-1" k3="1"/><feColorMatrix type="matrix" values="0 0 0 0 0.6916666626930237 0 0 0 0 0.10663193464279175 0 0 0 0 0.11921331286430359 0 0 0 0.6899999976158142 0"/><feBlend mode="normal" in2="shape" result="effect1_innerShadow"/></filter><mask id="master_svgc_0_1257"><g style="mix-blend-mode:passthrough" filter="url(#master_svgb_0_1257)"><path d="M78.22524158325196,65.71894229125976C80.71904158325195,47.264742291259765,97.39074158325195,41.62229229125977,101.91644158325195,39.53392229125976C111.80584158325195,34.97052229125977,133.17794158325194,35.60516229125977,148.11304158325197,47.82494229125977C163.04834158325195,60.04464229125976,166.66934158325193,115.71234229125976,169.38434158325197,125.21684229125977C172.10034158325195,134.72074229125977,173.91034158325195,155.99244229125975,173.91034158325195,170.02244229125978C173.91034158325195,184.05244229125975,181.15134158325196,208.49244229125978,178.88834158325196,222.97444229125978C176.62634158325196,237.45744229125975,186.57634158325197,255.61644229125977,185.50934158325197,261.3784422912598C184.44234158325196,267.1404422912598,180.17534158325196,272.4744422912598,176.54734158325195,276.10344229125974C172.91934158325193,279.7314422912598,158.40834158325197,281.01144229125975,141.97634158325195,282.2914422912597C128.83074158325195,283.3154422912597,128.53204158325195,273.3614422912598,130.02554158325194,268.25644229125976C126.09944158325196,269.3204422912597,109.30434158325195,268.69944229125974,101.39774158325196,268.25644229125976C102.31124158325196,276.76144229125975,97.55224158325196,282.4474422912598,73.86104158325196,276.10344229125974C47.557341583251954,269.05944229125976,64.37187158325196,233.47144229125976,65.23163158325195,231.10744229125976C66.09142158325196,228.74344229125975,70.12034158325196,204.12544229125976,68.87343158325196,179.81144229125977C67.62654158325195,155.49644229125977,73.86104158325196,140.53344229125975,73.86104158325196,134.29864229125977C73.86104158325196,128.06444229125975,75.10794158325196,88.78674229125977,78.22524158325196,65.71894229125976C78.22524158325196,65.71894229125976,78.22524158325196,65.71894229125976,78.22524158325196,65.71894229125976Z" fill="#FFFFFF" fill-opacity="1"/></g></mask><filter id="master_svgd_0_1258" filterUnits="objectBoundingBox" color-interpolation-filters="sRGB" x="-17.629091262817383" y="-17.629091262817383" width="156.5516014099121" height="194.38586807250977"><feFlood flood-opacity="0" result="BackgroundImageFix"/><feBlend mode="normal" in="SourceGraphic" in2="BackgroundImageFix" result="shape"/><feGaussianBlur stdDeviation="4.407272815704346" result="effect1_foregroundBlur"/></filter><linearGradient x1="0.41067028045654297" y1="0.5037987232208252" x2="0.3510199189186096" y2="1.0152496099472046" id="master_svge__22"><stop offset="0%" stop-color="#EB6E80" stop-opacity="1"/><stop offset="36.45833432674408%" stop-color="#EB6E80" stop-opacity="1"/><stop offset="100%" stop-color="#9D2F38" stop-opacity="1"/></linearGradient><filter id="master_svgf_0_1259" filterUnits="objectBoundingBox" color-interpolation-filters="sRGB" x="-45.17454528808594" y="-45.17454528808594" width="166.3848648071289" height="230.70314025878906"><feFlood flood-opacity="0" result="BackgroundImageFix"/><feBlend mode="normal" in="SourceGraphic" in2="BackgroundImageFix" result="shape"/><feGaussianBlur stdDeviation="11.293636322021484" result="effect1_foregroundBlur"/></filter><filter id="master_svgg_0_1261" filterUnits="objectBoundingBox" color-interpolation-filters="sRGB" x="-8.814545631408691" y="-8.814545631408691" width="81.96936225891113" height="48.44601058959961"><feFlood flood-opacity="0" result="BackgroundImageFix"/><feBlend mode="normal" in="SourceGraphic" in2="BackgroundImageFix" result="shape"/><feGaussianBlur stdDeviation="2.203636407852173" result="effect1_foregroundBlur"/></filter><linearGradient x1="0.4999999701976776" y1="0.9069592952728271" x2="0.4486280679702759" y2="-0.08458907157182693" id="master_svgh__25"><stop offset="0%" stop-color="#7A1923" stop-opacity="1"/><stop offset="100%" stop-color="#7A1923" stop-opacity="0"/></linearGradient><filter id="master_svgi_0_1262" filterUnits="objectBoundingBox" color-interpolation-filters="sRGB" x="-11.018181800842285" y="-11.018181800842285" width="48.51653480529785" height="36.149216651916504"><feFlood flood-opacity="0" result="BackgroundImageFix"/><feBlend mode="normal" in="SourceGraphic" in2="BackgroundImageFix" result="shape"/><feGaussianBlur stdDeviation="2.7545454502105713" result="effect1_foregroundBlur"/></filter><filter id="master_svgj_0_1263" filterUnits="objectBoundingBox" color-interpolation-filters="sRGB" x="-4.407272815704346" y="-4.407272815704346" width="33.24244213104248" height="22.73313331604004"><feFlood flood-opacity="0" result="BackgroundImageFix"/><feBlend mode="normal" in="SourceGraphic" in2="BackgroundImageFix" result="shape"/><feGaussianBlur stdDeviation="1.1018182039260864" result="effect1_foregroundBlur"/></filter><linearGradient x1="0.277243047952652" y1="0.5438711643218994" x2="0.41203930974006653" y2="0.11803723126649857" id="master_svgk__27"><stop offset="0%" stop-color="#4E1016" stop-opacity="1"/><stop offset="100%" stop-color="#6E1C24" stop-opacity="0"/></linearGradient><filter id="master_svgl_0_1264" filterUnits="objectBoundingBox" color-interpolation-filters="sRGB" x="-4.407272815704346" y="-4.407272815704346" width="43.18116092681885" height="25.52055835723877"><feFlood flood-opacity="0" result="BackgroundImageFix"/><feBlend mode="normal" in="SourceGraphic" in2="BackgroundImageFix" result="shape"/><feGaussianBlur stdDeviation="1.1018182039260864" result="effect1_foregroundBlur"/></filter><linearGradient x1="0.6747385263442993" y1="0.607192873954773" x2="0.5793102979660034" y2="0.1259181648492813" id="master_svgm__28"><stop offset="0%" stop-color="#450F15" stop-opacity="1"/><stop offset="100%" stop-color="#6F1D25" stop-opacity="0"/></linearGradient><filter id="master_svgn_0_1265" filterUnits="objectBoundingBox" color-interpolation-filters="sRGB" x="-22.03636360168457" y="-22.03636360168457" width="173.92047500610352" height="86.80226135253906"><feFlood flood-opacity="0" result="BackgroundImageFix"/><feBlend mode="normal" in="SourceGraphic" in2="BackgroundImageFix" result="shape"/><feGaussianBlur stdDeviation="5.509090900421143" result="effect1_foregroundBlur"/></filter><filter id="master_svgo_0_1266" filterUnits="objectBoundingBox" color-interpolation-filters="sRGB" x="-17.629091262817383" y="-17.629091262817383" width="106.7787971496582" height="74.56121444702148"><feFlood flood-opacity="0" result="BackgroundImageFix"/><feBlend mode="normal" in="SourceGraphic" in2="BackgroundImageFix" result="shape"/><feGaussianBlur stdDeviation="4.407272815704346" result="effect1_foregroundBlur"/></filter><linearGradient x1="0.5709710717201233" y1="0.07014463096857071" x2="0.4999999701976776" y2="0.78448486328125" id="master_svgp__30"><stop offset="0%" stop-color="#7A2A2C" stop-opacity="1"/><stop offset="100%" stop-color="#7A2A2C" stop-opacity="0"/></linearGradient><filter id="master_svgq_0_1267" filterUnits="objectBoundingBox" color-interpolation-filters="sRGB" x="-7.7127275466918945" y="-7.7127275466918945" width="32.1740608215332" height="149.60679054260254"><feFlood flood-opacity="0" result="BackgroundImageFix"/><feBlend mode="normal" in="SourceGraphic" in2="BackgroundImageFix" result="shape"/><feGaussianBlur stdDeviation="1.9281818866729736" result="effect1_foregroundBlur"/></filter><filter id="master_svgr_0_1268" filterUnits="objectBoundingBox" color-interpolation-filters="sRGB" x="-4.407272815704346" y="-4.407272815704346" width="23.266562461853027" height="127.67818546295166"><feFlood flood-opacity="0" result="BackgroundImageFix"/><feBlend mode="normal" in="SourceGraphic" in2="BackgroundImageFix" result="shape"/><feGaussianBlur stdDeviation="1.1018182039260864" result="effect1_foregroundBlur"/></filter><filter id="master_svgs_0_1270" filterUnits="objectBoundingBox" color-interpolation-filters="sRGB" x="-7.7127275466918945" y="-7.7127275466918945" width="67.45392036437988" height="38.15069007873535"><feFlood flood-opacity="0" result="BackgroundImageFix"/><feBlend mode="normal" in="SourceGraphic" in2="BackgroundImageFix" result="shape"/><feGaussianBlur stdDeviation="1.9281818866729736" result="effect1_foregroundBlur"/></filter><filter id="master_svgt_0_1271" filterUnits="objectBoundingBox" color-interpolation-filters="sRGB" x="-6.610909461975098" y="-6.610909461975098" width="21.679734230041504" height="34.6168270111084"><feFlood flood-opacity="0" result="BackgroundImageFix"/><feBlend mode="normal" in="SourceGraphic" in2="BackgroundImageFix" result="shape"/><feGaussianBlur stdDeviation="1.6527273654937744" result="effect1_foregroundBlur"/></filter><filter id="master_svgu_0_1272" filterUnits="objectBoundingBox" color-interpolation-filters="sRGB" x="-6.610909461975098" y="-6.610909461975098" width="22.53477954864502" height="33.42619514465332"><feFlood flood-opacity="0" result="BackgroundImageFix"/><feBlend mode="normal" in="SourceGraphic" in2="BackgroundImageFix" result="shape"/><feGaussianBlur stdDeviation="1.6527273654937744" result="effect1_foregroundBlur"/></filter><filter id="master_svgv_0_1273" filterUnits="objectBoundingBox" color-interpolation-filters="sRGB" x="-3.8563636541366577" y="-4.407272756099701" width="62.069146156311035" height="33.669312477111816"><feFlood flood-opacity="0" result="BackgroundImageFix"/><feColorMatrix in="SourceAlpha" type="matrix" values="0 0 0 0 0 0 0 0 0 0 0 0 0 0 0 0 0 0 127 0"/><feOffset dy="1.1018182039260864" dx="0"/><feGaussianBlur stdDeviation="0.2754545509815216"/><feColorMatrix type="matrix" values="0 0 0 0 0.4375 0 0 0 0 0.17135417461395264 0 0 0 0 0.20967918634414673 0 0 0 1 0"/><feBlend mode="normal" in2="BackgroundImageFix" result="effect1_dropShadow"/><feColorMatrix in="SourceAlpha" type="matrix" values="0 0 0 0 0 0 0 0 0 0 0 0 0 0 0 0 0 0 127 0"/><feOffset dy="1.6527273654937744" dx="1.6527273654937744"/><feGaussianBlur stdDeviation="0.5509091019630432"/><feColorMatrix type="matrix" values="0 0 0 0 0.6791666746139526 0 0 0 0 0.24336805939674377 0 0 0 0 0.3031146824359894 0 0 0 1 0"/><feBlend mode="normal" in2="effect1_dropShadow" result="effect2_dropShadow"/><feColorMatrix in="SourceAlpha" type="matrix" values="0 0 0 0 0 0 0 0 0 0 0 0 0 0 0 0 0 0 127 0"/><feOffset dy="0.5509091019630432" dx="2.203636407852173"/><feGaussianBlur stdDeviation="1.1018182039260864"/><feColorMatrix type="matrix" values="0 0 0 0 0.7333333492279053 0 0 0 0 0.32083332538604736 0 0 0 0 0.37738579511642456 0 0 0 1 0"/><feBlend mode="normal" in2="effect2_dropShadow" result="effect3_dropShadow"/><feBlend mode="normal" in="SourceGraphic" in2="effect3_dropShadow" result="shape"/><feColorMatrix in="SourceAlpha" type="matrix" result="hardAlpha" values="0 0 0 0 0 0 0 0 0 0 0 0 0 0 0 0 0 0 127 0"/><feOffset dy="-1.1018182039260864" dx="0"/><feGaussianBlur stdDeviation="1.1018182039260864"/><feComposite in2="hardAlpha" operator="arithmetic" k2="-1" k3="1"/><feColorMatrix type="matrix" values="0 0 0 0 0.38749998807907104 0 0 0 0 0.12270832061767578 0 0 0 0 0.12270832061767578 0 0 0 0.20999999344348907 0"/><feBlend mode="normal" in2="shape" result="effect4_innerShadow"/><feColorMatrix in="SourceAlpha" type="matrix" result="hardAlpha" values="0 0 0 0 0 0 0 0 0 0 0 0 0 0 0 0 0 0 127 0"/><feOffset dy="0" dx="6.469242095947266"/><feGaussianBlur stdDeviation="4.704903602600098"/><feComposite in2="hardAlpha" operator="arithmetic" k2="-1" k3="1"/><feColorMatrix type="matrix" values="0 0 0 0 0.5916666388511658 0 0 0 0 0.4634721875190735 0 0 0 0 0.49952688813209534 0 0 0 0.699999988079071 0"/><feBlend mode="normal" in2="effect4_innerShadow" result="effect5_innerShadow"/></filter><filter id="master_svgw_0_1275" filterUnits="objectBoundingBox" color-interpolation-filters="sRGB" x="0" y="0" width="12.495234489440918" height="12.495234489440918"><feFlood flood-opacity="0" result="BackgroundImageFix"/><feBlend mode="normal" in="SourceGraphic" in2="BackgroundImageFix" result="shape"/><feColorMatrix in="SourceAlpha" type="matrix" result="hardAlpha" values="0 0 0 0 0 0 0 0 0 0 0 0 0 0 0 0 0 0 127 0"/><feOffset dy="0.5881129503250122" dx="-0.5881129503250122"/><feGaussianBlur stdDeviation="0.5881129503250122"/><feComposite in2="hardAlpha" operator="arithmetic" k2="-1" k3="1"/><feColorMatrix type="matrix" values="0 0 0 0 1 0 0 0 0 1 0 0 0 0 1 0 0 0 0.5 0"/><feBlend mode="normal" in2="shape" result="effect1_innerShadow"/></filter><filter id="master_svgx_0_1276" filterUnits="objectBoundingBox" color-interpolation-filters="sRGB" x="-5.881129264831543" y="-5.881129264831543" width="17.228922843933105" height="13.30584704875946"><feFlood flood-opacity="0" result="BackgroundImageFix"/><feBlend mode="normal" in="SourceGraphic" in2="BackgroundImageFix" result="shape"/><feGaussianBlur stdDeviation="1.4702823162078857" result="effect1_foregroundBlur"/></filter><filter id="master_svgy_0_1277" filterUnits="objectBoundingBox" color-interpolation-filters="sRGB" x="-1.1762259006500244" y="-1.1762259006500244" width="6.086045026779175" height="3.3574408292770386"><feFlood flood-opacity="0" result="BackgroundImageFix"/><feBlend mode="normal" in="SourceGraphic" in2="BackgroundImageFix" result="shape"/><feGaussianBlur stdDeviation="0.2940564751625061" result="effect1_foregroundBlur"/></filter><filter id="master_svgz_0_1279" filterUnits="objectBoundingBox" color-interpolation-filters="sRGB" x="0" y="0" width="11.91261100769043" height="11.91261100769043"><feFlood flood-opacity="0" result="BackgroundImageFix"/><feBlend mode="normal" in="SourceGraphic" in2="BackgroundImageFix" result="shape"/><feColorMatrix in="SourceAlpha" type="matrix" result="hardAlpha" values="0 0 0 0 0 0 0 0 0 0 0 0 0 0 0 0 0 0 127 0"/><feOffset dy="0.5881129503250122" dx="-0.5881129503250122"/><feGaussianBlur stdDeviation="0.5881129503250122"/><feComposite in2="hardAlpha" operator="arithmetic" k2="-1" k3="1"/><feColorMatrix type="matrix" values="0 0 0 0 1 0 0 0 0 1 0 0 0 0 1 0 0 0 0.5 0"/><feBlend mode="normal" in2="shape" result="effect1_innerShadow"/></filter><filter id="master_svg10_0_1280" filterUnits="objectBoundingBox" color-interpolation-filters="sRGB" x="-5.881129264831543" y="-5.881129264831543" width="16.97402572631836" height="13.233873128890991"><feFlood flood-opacity="0" result="BackgroundImageFix"/><feBlend mode="normal" in="SourceGraphic" in2="BackgroundImageFix" result="shape"/><feGaussianBlur stdDeviation="1.4702823162078857" result="effect1_foregroundBlur"/></filter><filter id="master_svg11_0_1281" filterUnits="objectBoundingBox" color-interpolation-filters="sRGB" x="-1.1762259006500244" y="-1.1762259006500244" width="5.972564220428467" height="3.1270607709884644"><feFlood flood-opacity="0" result="BackgroundImageFix"/><feBlend mode="normal" in="SourceGraphic" in2="BackgroundImageFix" result="shape"/><feGaussianBlur stdDeviation="0.2940564751625061" result="effect1_foregroundBlur"/></filter><filter id="master_svg12_0_1283" filterUnits="objectBoundingBox" color-interpolation-filters="sRGB" x="-16.527273178100586" y="-16.527273178100586" width="110.58402633666992" height="84.81937026977539"><feFlood flood-opacity="0" result="BackgroundImageFix"/><feBlend mode="normal" in="SourceGraphic" in2="BackgroundImageFix" result="shape"/><feGaussianBlur stdDeviation="4.1318182945251465" result="effect1_foregroundBlur"/></filter><filter id="master_svg13_0_1284" filterUnits="objectBoundingBox" color-interpolation-filters="sRGB" x="-15.425455093383789" y="-21.48545503616333" width="91.24680519104004" height="50.59222984313965"><feFlood flood-opacity="0" result="BackgroundImageFix"/><feColorMatrix in="SourceAlpha" type="matrix" values="0 0 0 0 0 0 0 0 0 0 0 0 0 0 0 0 0 0 127 0"/><feOffset dy="-6.059999942779541" dx="0"/><feGaussianBlur stdDeviation="1.6527273654937744"/><feColorMatrix type="matrix" values="0 0 0 0 0.762499988079071 0 0 0 0 0.2954687476158142 0 0 0 0 0.3632635474205017 0 0 0 1 0"/><feBlend mode="normal" in2="BackgroundImageFix" result="effect1_dropShadow"/><feBlend mode="normal" in="SourceGraphic" in2="effect1_dropShadow" result="shape"/><feGaussianBlur stdDeviation="2.203636407852173" result="effect2_foregroundBlur"/></filter><filter id="master_svg14_0_1285" filterUnits="objectBoundingBox" color-interpolation-filters="sRGB" x="-6.610909461975098" y="-6.610909461975098" width="86.1218433380127" height="34.82551574707031"><feFlood flood-opacity="0" result="BackgroundImageFix"/><feBlend mode="normal" in="SourceGraphic" in2="BackgroundImageFix" result="shape"/><feGaussianBlur stdDeviation="1.6527273654937744" result="effect1_foregroundBlur"/></filter><filter id="master_svg15_0_1286" filterUnits="objectBoundingBox" color-interpolation-filters="sRGB" x="-7.7127275466918945" y="-7.7127275466918945" width="82.18288612365723" height="39.30091094970703"><feFlood flood-opacity="0" result="BackgroundImageFix"/><feBlend mode="normal" in="SourceGraphic" in2="BackgroundImageFix" result="shape"/><feGaussianBlur stdDeviation="1.9281818866729736" result="effect1_foregroundBlur"/></filter><filter id="master_svg16_0_1287" filterUnits="objectBoundingBox" color-interpolation-filters="sRGB" x="-2.203636407852173" y="-1.6527273058891296" width="77.50702691078186" height="30.748527944087982"><feFlood flood-opacity="0" result="BackgroundImageFix"/><feColorMatrix in="SourceAlpha" type="matrix" values="0 0 0 0 0 0 0 0 0 0 0 0 0 0 0 0 0 0 127 0"/><feOffset dy="-0.5509091019630432" dx="0"/><feGaussianBlur stdDeviation="0.2754545509815216"/><feColorMatrix type="matrix" values="0 0 0 0 0 0 0 0 0 0 0 0 0 0 0 0 0 0 0.25 0"/><feBlend mode="normal" in2="BackgroundImageFix" result="effect1_dropShadow"/><feColorMatrix in="SourceAlpha" type="matrix" values="0 0 0 0 0 0 0 0 0 0 0 0 0 0 0 0 0 0 127 0"/><feOffset dy="1.1018182039260864" dx="0"/><feGaussianBlur stdDeviation="0.2754545509815216"/><feColorMatrix type="matrix" values="0 0 0 0 0.4375 0 0 0 0 0.17135417461395264 0 0 0 0 0.20967918634414673 0 0 0 1 0"/><feBlend mode="normal" in2="effect1_dropShadow" result="effect2_dropShadow"/><feBlend mode="normal" in="SourceGraphic" in2="effect2_dropShadow" result="shape"/><feColorMatrix in="SourceAlpha" type="matrix" result="hardAlpha" values="0 0 0 0 0 0 0 0 0 0 0 0 0 0 0 0 0 0 127 0"/><feOffset dy="0.5509091019630432" dx="-0.5509091019630432"/><feGaussianBlur stdDeviation="0.5509091019630432"/><feComposite in2="hardAlpha" operator="arithmetic" k2="-1" k3="1"/><feColorMatrix type="matrix" values="0 0 0 0 0.8541666865348816 0 0 0 0 0.6513020992279053 0 0 0 0 0.6807501316070557 0 0 0 1 0"/><feBlend mode="normal" in2="shape" result="effect3_innerShadow"/><feColorMatrix in="SourceAlpha" type="matrix" result="hardAlpha" values="0 0 0 0 0 0 0 0 0 0 0 0 0 0 0 0 0 0 127 0"/><feOffset dy="-1.1018182039260864" dx="0"/><feGaussianBlur stdDeviation="1.1018182039260864"/><feComposite in2="hardAlpha" operator="arithmetic" k2="-1" k3="1"/><feColorMatrix type="matrix" values="0 0 0 0 0.38749998807907104 0 0 0 0 0.12270832061767578 0 0 0 0 0.12270832061767578 0 0 0 0.20999999344348907 0"/><feBlend mode="normal" in2="effect3_innerShadow" result="effect4_innerShadow"/><feColorMatrix in="SourceAlpha" type="matrix" result="hardAlpha" values="0 0 0 0 0 0 0 0 0 0 0 0 0 0 0 0 0 0 127 0"/><feOffset dy="0" dx="0.5509091019630432"/><feGaussianBlur stdDeviation="1.9281818866729736"/><feComposite in2="hardAlpha" operator="arithmetic" k2="-1" k3="1"/><feColorMatrix type="matrix" values="0 0 0 0 0.5916666388511658 0 0 0 0 0.4634721875190735 0 0 0 0 0.49952688813209534 0 0 0 0.699999988079071 0"/><feBlend mode="normal" in2="effect4_innerShadow" result="effect5_innerShadow"/></filter><filter id="master_svg17_0_1289" filterUnits="objectBoundingBox" color-interpolation-filters="sRGB" x="0" y="0" width="28.644685745239258" height="133.30641174316406"><feFlood flood-opacity="0" result="BackgroundImageFix"/><feBlend mode="normal" in="SourceGraphic" in2="BackgroundImageFix" result="shape"/><feColorMatrix in="SourceAlpha" type="matrix" result="hardAlpha" values="0 0 0 0 0 0 0 0 0 0 0 0 0 0 0 0 0 0 127 0"/><feOffset dy="-4.958181858062744" dx="0"/><feGaussianBlur stdDeviation="2.203636407852173"/><feComposite in2="hardAlpha" operator="arithmetic" k2="-1" k3="1"/><feColorMatrix type="matrix" values="0 0 0 0 0.7291666865348816 0 0 0 0 0.2795138955116272 0 0 0 0 0.3100728392601013 0 0 0 1 0"/><feBlend mode="normal" in2="shape" result="effect1_innerShadow"/><feColorMatrix in="SourceAlpha" type="matrix" result="hardAlpha" values="0 0 0 0 0 0 0 0 0 0 0 0 0 0 0 0 0 0 127 0"/><feOffset dy="1.6527273654937744" dx="1.1018182039260864"/><feGaussianBlur stdDeviation="3.580909252166748"/><feComposite in2="hardAlpha" operator="arithmetic" k2="-1" k3="1"/><feColorMatrix type="matrix" values="0 0 0 0 1 0 0 0 0 0.7208333015441895 0 0 0 0 0.7208333015441895 0 0 0 1 0"/><feBlend mode="normal" in2="effect1_innerShadow" result="effect2_innerShadow"/><feColorMatrix in="SourceAlpha" type="matrix" result="hardAlpha" values="0 0 0 0 0 0 0 0 0 0 0 0 0 0 0 0 0 0 127 0"/><feOffset dy="-12.67090892791748" dx="13.772727966308594"/><feGaussianBlur stdDeviation="14.323637008666992"/><feComposite in2="hardAlpha" operator="arithmetic" k2="-1" k3="1"/><feColorMatrix type="matrix" values="0 0 0 0 0.6916666626930237 0 0 0 0 0.10663193464279175 0 0 0 0 0.11921331286430359 0 0 0 0.3700000047683716 0"/><feBlend mode="normal" in2="effect2_innerShadow" result="effect3_innerShadow"/></filter><mask id="master_svg18_0_1291"><g style="mix-blend-mode:passthrough"><path d="M172.00825278198243,143.5570942199707C172.00825278198243,138.9493942199707,170.87711278198242,131.3812842199707,169.85563278198242,127.3257942199707C180.81783278198242,131.1222042199707,185.78013278198242,177.7343942199707,185.78013278198242,185.4552942199707C185.78013278198242,193.1763942199707,195.57733278198242,229.4337942199707,198.05163278198242,241.7967942199707C200.52593278198242,254.16079421997068,188.8305327819824,261.6247942199707,185.78013278198242,259.7177942199707C182.72983278198242,257.8117942199707,174.72256278198242,247.8977942199707,174.72256278198242,241.7967942199707C174.72256278198242,235.6957942199707,179.68856278198243,228.45979421997072,177.78204278198243,223.1215942199707C175.87559278198242,217.7834942199707,174.72256278198242,207.0990942199707,174.72256278198242,194.51609421997068C174.72256278198242,181.9334942199707,172.34072278198244,181.6863942199707,172.93552278198243,173.3592942199707C173.5627927819824,164.5774942199707,172.00825278198243,149.0426942199707,172.00825278198243,143.5570942199707C172.00825278198243,143.5570942199707,172.00825278198243,143.5570942199707,172.00825278198243,143.5570942199707Z" fill="#FFFFFF" fill-opacity="1"/></g></mask><filter id="master_svg19_0_1292" filterUnits="objectBoundingBox" color-interpolation-filters="sRGB" x="-8.814545631408691" y="-8.814545631408691" width="30.882142066955566" height="122.30749702453613"><feFlood flood-opacity="0" result="BackgroundImageFix"/><feBlend mode="normal" in="SourceGraphic" in2="BackgroundImageFix" result="shape"/><feGaussianBlur stdDeviation="2.203636407852173" result="effect1_foregroundBlur"/></filter><filter id="master_svg1a_0_1293" filterUnits="objectBoundingBox" color-interpolation-filters="sRGB" x="-6.610909461975098" y="-6.610909461975098" width="23.773921966552734" height="122.8694019317627"><feFlood flood-opacity="0" result="BackgroundImageFix"/><feBlend mode="normal" in="SourceGraphic" in2="BackgroundImageFix" result="shape"/><feGaussianBlur stdDeviation="1.6527273654937744" result="effect1_foregroundBlur"/></filter><filter id="master_svg1b_0_1294" filterUnits="objectBoundingBox" color-interpolation-filters="sRGB" x="-4.407272815704346" y="-4.407272815704346" width="19.993709564208984" height="20.72456645965576"><feFlood flood-opacity="0" result="BackgroundImageFix"/><feBlend mode="normal" in="SourceGraphic" in2="BackgroundImageFix" result="shape"/><feGaussianBlur stdDeviation="1.1018182039260864" result="effect1_foregroundBlur"/></filter></defs><g style="mix-blend-mode:passthrough"><g style="mix-blend-mode:passthrough"><ellipse cx="124" cy="124" rx="124" ry="124" fill="#C3ABE1" fill-opacity="1"/></g><g style="mix-blend-mode:passthrough" mask="url(#master_svg0_0_1242)"><g style="mix-blend-mode:passthrough" filter="url(#master_svg1_0_1244)"><g style="mix-blend-mode:passthrough"><g style="mix-blend-mode:passthrough" filter="url(#master_svg2_0_1246)"><path d="M178.5933148803711,275.4869589416504C178.5933148803711,280.4330589416504,159.39531488037107,284.5857589416504,133.4672148803711,285.7382589416504C116.78781488037109,284.7402589416504,135.38671488037107,273.7580389416504,116.78781488037109,273.7580389416504C95.3191148803711,273.7580389416504,112.00531488037109,285.7382589416504,99.26121488037109,285.4731589416504C75.91021488037109,284.0371589416504,59.149314880371094,280.1084589416504,59.149314880371094,275.4869589416504C59.149314880371094,269.6497489416504,85.8878148803711,264.9177589416504,118.87161488037108,264.9177589416504C151.85501488037107,264.9177589416504,178.5933148803711,269.6497489416504,178.5933148803711,275.4869589416504C178.5933148803711,275.4869589416504,178.5933148803711,275.4869589416504,178.5933148803711,275.4869589416504Z" fill="#B46D74" fill-opacity="1"/></g><g style="opacity:0.699999988079071;mix-blend-mode:passthrough" filter="url(#master_svg3_0_1247)"><path d="M176.11510980224608,275.6441174572754C167.04810980224607,279.4829874572754,167.7241098022461,283.4346874572754,133.80360980224611,283.4751874572754C123.0840098022461,283.4751874572754,135.8736098022461,270.51275745727537,113.1061098022461,270.51275745727537C100.6876098022461,270.51275745727537,102.7518098022461,281.0290874572754,95.9836098022461,281.0290874572754C66.0924978022461,277.88228745727537,66.4392881412461,268.0086994572754,66.43928814424609,270.51275745727537C66.4392881502461,274.8558074572754,68.17614980224609,267.7519893584954,117.06480980224609,267.7519874572754C150.8550098022461,267.7519874572754,186.51210980224607,271.2424474572754,176.11510980224608,275.6441174572754C176.11510980224608,275.6441174572754,176.11510980224608,275.6441174572754,176.11510980224608,275.6441174572754Z" fill="#522E32" fill-opacity="1"/></g><g style="opacity:0.699999988079071;mix-blend-mode:passthrough" transform="matrix(0.981826663017273,0.1897798776626587,-0.18977989256381989,0.981826663017273,49.492405052207744,-13.861371997054903)" filter="url(#master_svg4_0_1248)"><path d="M140.4059269897461,251.8936084416504C140.4059269897461,253.31647144165038,136.2894269897461,266.6359714416504,118.64772698974609,269.85637144165037C103.0754369897461,272.6989714416504,97.1217269897461,264.50877144165037,97.1217269897461,263.0858714416504C97.1217269897461,261.66297144165037,97.63204498974609,260.5181914416504,121.2005269897461,256.1216014416504C137.8802269897461,253.0100514416504,140.4059269897461,250.4707414416504,140.4059269897461,251.8936084416504C140.4059269897461,251.8936084416504,140.4059269897461,251.8936084416504,140.4059269897461,251.8936084416504Z" fill="url(#master_svg5__18)" fill-opacity="1"/></g><g style="mix-blend-mode:passthrough" filter="url(#master_svg6_0_1249)"><path d="M75.5839420288086,278.9718468322754C66.18542202880859,277.1409468322754,64.5478320288086,273.1232468322754,64.9038578288086,271.3431468322754C64.9038578288086,271.3431468322754,102.8947420288086,256.1328468322754,102.8947420288086,256.1328468322754C127.6918420288086,259.4759868322754,177.5076420288086,266.8989468322754,178.39164202880858,269.8456468322754C179.2756420288086,272.79234683227537,177.04064202880858,276.72124683227537,175.8136420288086,278.3173468322754C173.6036420288086,279.1153468322754,168.5946420288086,280.8588468322754,166.2366420288086,281.44814683227537C163.28974202880858,282.1848468322754,146.22404202880858,284.3957468322754,135.7363420288086,283.5957468322754C125.24874202880859,282.7958468322754,130.0527420288086,271.3431468322754,128.0693420288086,271.3431468322754C126.0858420288086,271.3431468322754,101.97924202880859,268.4442468322754,102.8947420288086,271.3431468322754C103.8101420288086,274.2420468322754,99.08034202880859,278.9718468322754,97.8597420288086,279.7347468322754C96.63914202880859,280.4976468322754,87.33214202880859,281.2604468322754,75.5839420288086,278.9718468322754C75.5839420288086,278.9718468322754,75.5839420288086,278.9718468322754,75.5839420288086,278.9718468322754Z" fill="#3C161A" fill-opacity="1"/></g></g><g style="mix-blend-mode:passthrough"><g style="mix-blend-mode:passthrough" filter="url(#master_svg7_0_1251)"><path d="M61.308711602783205,171.62405918579103C60.55961160278321,163.384559185791,66.82251160278321,148.84045918579102,70.0476116027832,142.59845918579103C70.0476116027832,136.555339185791,73.1837116027832,131.88184918579103,75.0413116027832,129.575470185791C76.8988116027832,127.26908918579102,75.35341160278321,134.17160918579103,75.0413116027832,136.98051918579102C74.72921160278321,139.789459185791,73.1686116027832,177.86615918579102,72.8565116027832,205.01905918579104C72.5444116027832,232.17275918579102,65.3660116027832,254.643759185791,59.4360716027832,255.89175918579102C53.506081602783205,257.140759185791,47.5760916027832,247.152759185791,51.32134160278321,232.17275918579102C55.066591602783205,217.19145918579102,55.6908216027832,213.446059185791,55.6908216027832,200.961759185791C55.6908216027832,188.477959185791,62.2450116027832,181.92355918579102,61.308711602783205,171.62405918579103C61.308711602783205,171.62405918579103,61.308711602783205,171.62405918579103,61.308711602783205,171.62405918579103Z" fill="#EC7082" fill-opacity="1"/></g><g style="mix-blend-mode:passthrough" mask="url(#master_svg8_0_1253)"><g style="mix-blend-mode:passthrough" filter="url(#master_svg9_0_1254)"><path d="M67.61989119262695,168.87734551391603C67.61989119262695,148.602225513916,79.86779119262695,143.07871551391602,81.56899119262695,145.06341751391602C81.56899119262695,145.06341751391602,78.08039119262695,224.054645513916,78.08039119262695,224.054645513916C72.34799119262695,236.94014551391604,60.27363119262695,261.164245513916,57.834908192626955,254.97324551391603C54.78651119262695,247.23524551391603,62.78411119262695,222.05134551391603,63.56977119262695,217.271545513916C65.53106119262695,205.338845513916,67.61989119262695,189.224545513916,67.61989119262695,168.87734551391603C67.61989119262695,168.87734551391603,67.61989119262695,168.87734551391603,67.61989119262695,168.87734551391603Z" fill="#6F1C24" fill-opacity="1"/></g></g></g><g style="mix-blend-mode:passthrough" filter="url(#master_svga_0_1255)"><path d="M78.22524158325196,65.71894229125976C80.71904158325195,47.264742291259765,97.39074158325195,41.62229229125977,101.91644158325195,39.53392229125976C111.80584158325195,34.97052229125977,133.17794158325194,35.60516229125977,148.11304158325197,47.82494229125977C163.04834158325195,60.04464229125976,166.66934158325193,115.71234229125976,169.38434158325197,125.21684229125977C172.10034158325195,134.72074229125977,173.91034158325195,155.99244229125975,173.91034158325195,170.02244229125978C173.91034158325195,184.05244229125975,181.15134158325196,208.49244229125978,178.88834158325196,222.97444229125978C176.62634158325196,237.45744229125975,186.57634158325197,255.61644229125977,185.50934158325197,261.3784422912598C184.44234158325196,267.1404422912598,180.17534158325196,272.4744422912598,176.54734158325195,276.10344229125974C172.91934158325193,279.7314422912598,158.40834158325197,281.01144229125975,141.97634158325195,282.2914422912597C128.83074158325195,283.3154422912597,128.53204158325195,273.3614422912598,130.02554158325194,268.25644229125976C126.09944158325196,269.3204422912597,109.30434158325195,268.69944229125974,101.39774158325196,268.25644229125976C102.31124158325196,276.76144229125975,97.55224158325196,282.4474422912598,73.86104158325196,276.10344229125974C47.557341583251954,269.05944229125976,64.37187158325196,233.47144229125976,65.23163158325195,231.10744229125976C66.09142158325196,228.74344229125975,70.12034158325196,204.12544229125976,68.87343158325196,179.81144229125977C67.62654158325195,155.49644229125977,73.86104158325196,140.53344229125975,73.86104158325196,134.29864229125977C73.86104158325196,128.06444229125975,75.10794158325196,88.78674229125977,78.22524158325196,65.71894229125976C78.22524158325196,65.71894229125976,78.22524158325196,65.71894229125976,78.22524158325196,65.71894229125976Z" fill="#EC7082" fill-opacity="1"/></g><g style="mix-blend-mode:passthrough" mask="url(#master_svgc_0_1257)"><g style="mix-blend-mode:passthrough" transform="matrix(0.985217273235321,-0.1713094413280487,0.1713094562292099,0.985217273235321,-19.543030907446962,11.942123929358445)" filter="url(#master_svgd_0_1258)"><path d="M96.35496082153321,278.0851336975098C67.3116708215332,282.0771336975098,59.170735821533206,237.28413369750976,59.430017901533205,226.88213369750977C87.2621608215332,23.914533697509768,210.6220608215332,154.46943369750977,173.9730608215332,241.12913369750976C161.7560608215332,270.01813369750977,128.1630608215332,273.7121336975098,96.35496082153321,278.0851336975098C96.35496082153321,278.0851336975098,96.35496082153321,278.0851336975098,96.35496082153321,278.0851336975098Z" fill="url(#master_svge__22)" fill-opacity="1"/></g><g style="opacity:0.6000000238418579;mix-blend-mode:passthrough" filter="url(#master_svgf_0_1259)"><path d="M117.03016013793945,133.63492705688478C100.03496013793945,134.01262705688475,86.65906013793945,119.31490705688476,82.09553013793945,111.91882705688477C62.739850137939456,150.95652705688477,78.28074013793946,231.53682705688476,82.09553013793945,237.62382705688475C85.91036013793945,243.71182705688477,101.45126013793946,249.79882705688476,112.30926013793945,252.08182705688478C123.16726013793945,254.36482705688476,104.15256013793945,235.34082705688476,112.30926013793945,240.28782705688477C120.46586013793944,245.23282705688476,139.21846013793947,235.13382705688477,142.52296013793944,221.44382705688477C145.82736013793945,207.75322705688478,117.03016013793945,185.09262705688477,112.30926013793945,181.31582705688476C107.58836013793945,177.53902705688478,97.67446013793945,158.65572705688476,101.45126013793946,154.87902705688475C105.22796013793945,151.10222705688477,121.27896013793945,165.26492705688477,133.55306013793944,170.45782705688475C145.82736013793945,175.65092705688477,143.46696013793945,182.73222705688477,147.71606013793945,181.31582705688476C151.96456013793946,179.89952705688478,140.16256013793947,164.32072705688478,133.55306013793944,149.21392705688476C126.94406013793946,134.10702705688476,138.27446013793946,133.16282705688477,117.03016013793945,133.63492705688478C117.03016013793945,133.63492705688478,117.03016013793945,133.63492705688478,117.03016013793945,133.63492705688478Z" fill="#9D2E31" fill-opacity="1"/></g><g style="mix-blend-mode:passthrough" filter="url(#master_svgg_0_1261)"><path d="M100.17141947387695,258.18929268188475C100.59770947387696,256.05789268188477,94.66520947387696,247.53213268188478,91.64567947387695,243.53569268188477C96.97425947387696,239.80570268188475,153.37287947387696,244.00566268188476,155.50397947387694,246.40352268188477C157.63567947387696,248.80139268188478,152.20837947387696,254.08659268188475,148.74517947387696,254.61939268188476C145.28137947387694,255.15219268188477,144.72107947387696,257.21379268188474,136.30747947387695,260.1064926818848C130.09987947387697,262.2407926818848,128.38837947387697,272.7878926818848,130.05887947387697,272.87049268188474C130.05887947387697,272.87049268188474,102.56927947387695,271.5106926818848,102.56927947387695,271.5106926818848C101.76997947387696,269.46809268188474,99.90495947387696,264.9565926818848,98.83927947387696,263.2513926818848C97.50712947387696,261.11999268188475,99.63854947387695,260.85349268188475,100.17141947387695,258.18929268188475C100.17141947387695,258.18929268188475,100.17141947387695,258.18929268188475,100.17141947387695,258.18929268188475Z" fill="url(#master_svgh__25)" fill-opacity="1"/></g><g style="mix-blend-mode:passthrough" filter="url(#master_svgi_0_1262)"><path d="M130.3232623840332,261.62875166625975C128.9328623840332,261.11629166625977,110.2396423840332,258.21234166625976,105.9139223840332,259.74971766625976C102.50877238403321,260.9599216662598,104.40876838403321,268.1132716662598,105.8442323840332,271.70550166625975C113.1799923840332,272.95870166625974,127.41896238403321,274.74780166625976,125.6885623840332,271.87800166625976C123.5257623840332,268.29078166625976,131.7137623840332,262.1412116662598,130.3232623840332,261.62875166625975C130.3232623840332,261.62875166625975,130.3232623840332,261.62875166625975,130.3232623840332,261.62875166625975Z" fill="#6F1C24" fill-opacity="1"/></g><g style="mix-blend-mode:passthrough" filter="url(#master_svgj_0_1263)"><path d="M94.74441283325196,258.55556486938474C98.37965283325195,260.1361048693848,100.91289283325196,266.15088486938475,101.72511283325196,268.96068486938475C115.09382283325195,271.46318486938475,117.00362283325195,265.00942486938476,116.87192283325196,259.0165748693848C116.74022283325195,253.02370486938477,104.70832283325196,258.96075486938474,98.78130283325196,256.58995686938476C92.85430083325195,254.21914486938476,90.20038283325195,256.5798878693848,94.74441283325196,258.55556486938474C94.74441283325196,258.55556486938474,94.74441283325196,258.55556486938474,94.74441283325196,258.55556486938474Z" fill="url(#master_svgk__27)" fill-opacity="1"/></g><g style="mix-blend-mode:passthrough" filter="url(#master_svgl_0_1264)"><path d="M143.77665603637695,256.70875346313477C134.73875603637694,257.38900346313477,130.86995603637695,265.2950434631348,129.69565603637696,269.2228434631348C127.10415603637695,269.58724346313477,120.38034603637695,269.4880434631348,117.17337703637695,265.69804346313475C113.16465603637695,260.96044346313477,124.58340603637696,262.53960346313477,128.95655603637695,257.3161434631348C133.32975603637695,252.09266146313476,143.77665603637695,253.18594746313477,146.81355603637695,252.70004276313477C149.85055603637696,252.21413746313476,155.07395603637696,255.85842346313476,143.77665603637695,256.70875346313477C143.77665603637695,256.70875346313477,143.77665603637695,256.70875346313477,143.77665603637695,256.70875346313477Z" fill="url(#master_svgm__28)" fill-opacity="1"/></g><g style="mix-blend-mode:passthrough" filter="url(#master_svgn_0_1265)"><path d="M67.7995772277832,247.20064565063475C67.1805772277832,240.59818565063478,60.6640772277832,242.90215425063477,57.483207227783204,244.87944565063478C53.6145772277832,253.64833565063478,60.836007227783206,270.4124356506348,61.3518372277832,275.05483565063474C61.8676472277832,279.69723565063475,98.9201772277832,284.0619356506348,105.3678772277832,281.74073565063475C110.5260772277832,279.8837356506348,113.1623772277832,265.81293565063476,109.9382772277832,270.28253565063477C72.7993772277832,268.73503565063476,68.57327722778321,255.45373565063477,67.7995772277832,247.20064565063475C67.7995772277832,247.20064565063475,67.7995772277832,247.20064565063475,67.7995772277832,247.20064565063475ZM139.7259772277832,272.01883565063474C132.80957722778322,268.42233565063475,128.89057722778318,273.5173356506348,127.79547722778321,276.51433565063473C127.79547722778321,285.8513356506348,147.6795772277832,285.67843565063475,149.23597722778322,285.5055356506348C150.7917772277832,285.33263565063476,181.2233772277832,279.2809356506348,183.1253772277832,276.51433565063473C185.0273772277832,273.7478356506348,187.7943772277832,254.03643565063476,185.0273772277832,261.2985356506348C182.2613772277832,268.56063565063477,148.3712772277832,276.51433565063473,139.7259772277832,272.01883565063474C139.7259772277832,272.01883565063474,139.7259772277832,272.01883565063474,139.7259772277832,272.01883565063474Z" fill="#A0343F" fill-opacity="1"/></g><g style="opacity:0.5;mix-blend-mode:passthrough" filter="url(#master_svgo_0_1266)"><path d="M122.51242849731446,204.73415494750978C108.93262849731445,194.92596494750975,85.07152849731446,203.27461494750978,74.83842849731445,208.67492494750977C106.62112849731446,208.67492494750977,147.07202849731445,244.57991494750976,146.34952849731445,238.88771494750978C145.62702849731446,233.19541494750976,139.48702849731444,216.99441494750977,122.51242849731446,204.73415494750978C122.51242849731446,204.73415494750978,122.51242849731446,204.73415494750978,122.51242849731446,204.73415494750978Z" fill="url(#master_svgp__30)" fill-opacity="1"/></g><g style="opacity:0.6000000238418579;mix-blend-mode:passthrough" filter="url(#master_svgq_0_1267)"><path d="M171.33392213012695,155.89233643188476C170.20912213012696,148.01883643188478,170.04709213012694,137.53093643188475,170.51575613012696,134.81269643188477C167.35119213012695,104.87643643188477,182.34025213012694,172.30753643188476,182.57985213012697,181.89133643188478C182.81945213012696,191.47543643188476,182.57985213012697,212.87833643188475,185.27925213012696,225.01883643188478C187.97865213012696,237.15993643188477,185.80175213012694,250.07593643188477,185.27925213012696,256.9719364318847C184.75685213012696,263.8679364318848,181.09975213012694,261.98593643188474,174.83048213012694,256.13493643188474C168.56121213012696,250.28293643188476,169.24414413012695,236.57193643188475,171.33390213012694,232.39293643188478C173.42365213012695,228.21293643188477,174.62150213012694,214.65463643188477,173.36765213012694,212.87833643188475C172.11379213012697,211.10213643188476,174.93496213012696,189.26433643188477,173.36765213012694,187.38343643188477C171.80033213012695,185.50243643188477,171.33392213012695,176.09863643188476,171.33392213012695,173.79993643188476C171.33392213012695,171.50113643188476,172.73991213012695,165.73423643188477,171.33392213012695,155.89233643188476C171.33392213012695,155.89233643188476,171.33392213012695,155.89233643188476,171.33392213012695,155.89233643188476Z" fill="#82252D" fill-opacity="1"/></g><g style="opacity:0.8999999761581421;mix-blend-mode:passthrough" filter="url(#master_svgr_0_1268)"><path d="M172.7834335559082,158.82777119750978C172.00397955590822,156.74927119750976,171.5926145559082,143.02259119750977,171.4843635559082,136.41907119750977C171.4843635559082,136.41907119750977,175.3815635559082,142.10246119750977,175.3815635559082,142.10246119750977C175.3815635559082,142.10246119750977,185.9363635559082,229.13907119750976,185.9363635559082,229.13907119750976C185.3951635559082,237.85407119750977,183.5331635559082,255.28307119750977,180.4153935559082,255.28307119750977C176.5182335559082,255.28307119750977,175.3815635559082,248.46307119750975,174.0825135559082,242.61607119750977C172.7834535559082,236.77107119750977,177.97965355590821,229.62627119750977,176.5182335559082,224.42987119750978C175.0567935559082,219.23397119750976,177.4618235559082,220.15927119750978,175.0260835559082,215.77517119750976C173.0774935559082,212.26737119750976,173.7036135559082,185.83727119750978,174.0825135559082,182.21077119750976C170.5101095559082,175.22827119750977,173.7577435559082,161.42587119750976,172.7834335559082,158.82777119750978C172.7834335559082,158.82777119750978,172.7834335559082,158.82777119750978,172.7834335559082,158.82777119750978Z" fill="#52161C" fill-opacity="1"/></g></g><g style="mix-blend-mode:passthrough"><g style="mix-blend-mode:passthrough" filter="url(#master_svgs_0_1270)"><path d="M102.10159490356446,62.51121175415039C96.38870490356446,62.86707175415039,92.60680490356445,67.66058175415039,91.54399490356445,72.57609175415038C93.79114490356446,75.4488917541504,99.57929490356446,79.14439175415039,104.08719490356445,82.52529175415039C109.72209490356445,86.7514917541504,144.49019490356446,77.52649175415038,143.55389490356447,74.8388917541504C140.09689490356445,64.91609175415039,136.89599490356446,60.89139175415039,131.85909490356445,60.89139175415039C123.45229490356445,60.89139274680039,123.12359490356445,66.20434175415039,120.50739490356446,71.63799175415039C117.89119490356445,77.07159175415039,114.88229490356446,71.44729175415038,111.86899490356446,69.68084175415039C109.94859490356446,68.55514175415038,110.07679490356446,62.014431754150394,102.10159490356446,62.51121175415039C102.10159490356446,62.51121175415039,102.10159490356446,62.51121175415039,102.10159490356446,62.51121175415039Z" fill="#CF3F53" fill-opacity="1"/></g><g style="mix-blend-mode:passthrough" filter="url(#master_svgt_0_1271)"><path d="M96.6489080480957,67.01249044165039C97.8889580480957,65.70538244165039,98.7575680480957,66.71923244165039,99.0368680480957,67.3895464416504C98.7255480480957,73.60210644165039,97.9813780480957,86.31069644165039,97.4954680480957,87.44459644165039C96.88973804809571,88.85799644165039,92.56765804809571,85.29849644165039,91.8371680480957,84.6968964416504C91.8371680480957,84.6968964416504,91.8310780480957,84.69179644165038,91.8310780480957,84.69179644165038C91.1188770480957,84.10539644165038,90.40668604809571,80.7118964416504,90.6161565480957,77.6535964416504C90.82562804809571,74.59537644165039,91.7891780480957,73.79935644165039,91.8310780480957,71.62085644165039C91.8729680480957,69.44236644165039,95.0988280480957,68.64636644165039,96.6489080480957,67.01249044165039C96.6489080480957,67.01249044165039,96.6489080480957,67.01249044165039,96.6489080480957,67.01249044165039Z" fill="#2F0707" fill-opacity="1"/></g><g style="mix-blend-mode:passthrough" transform="matrix(0.9888578653335571,0.14886274933815002,-0.14886276423931122,0.9888578653335571,10.867745075986647,-17.17673228404385)" filter="url(#master_svgu_0_1272)"><path d="M126.22172775512695,64.64383809790039C127.46178775512695,63.33673009790039,128.33038775512696,64.35058009790039,128.60969775512694,65.0208940979004C128.29836775512695,71.23345409790039,129.88297775512694,82.5987440979004,129.39700775512696,83.73264409790039C128.78957775512694,85.14994409790039,124.10435775512695,83.04634409790039,123.39216775512695,82.45984409790039C122.67996775512695,81.87334409790039,119.97949475512695,78.3432440979004,120.18896625512696,75.2849440979004C120.39843775512695,72.22672409790039,121.36198775512695,71.43070409790039,121.40388775512696,69.25220409790039C121.44578775512696,67.07371409790039,124.67163775512695,66.27771409790039,126.22172775512695,64.64383809790039C126.22172775512695,64.64383809790039,126.22172775512695,64.64383809790039,126.22172775512695,64.64383809790039Z" fill="#2F0707" fill-opacity="1"/></g><g style="mix-blend-mode:passthrough" filter="url(#master_svgv_0_1273)"><path d="M92.08192322778321,81.0828675354004C89.2223872277832,72.5042475354004,96.63165722778321,66.38804753540039,100.81938722778321,66.38804753540039C104.4980272277832,66.38804753540039,113.1312272277832,68.17523753540038,113.5284272277832,77.50846753540038C113.9255272277832,86.84166753540039,107.7696272277832,89.62166753540039,105.58522722778321,89.82026753540039C103.4009272277832,90.01886753540039,95.6563372277832,91.80606753540039,92.08192322778321,81.0828675354004C92.08192322778321,81.0828675354004,92.08192322778321,81.0828675354004,92.08192322778321,81.0828675354004ZM118.89002722778321,79.4941675354004C117.9368272277832,71.23332753540039,125.04852722778321,65.19656753540039,128.8189272277832,65.19656753540039C138.7478272277832,65.19656753540039,142.9180272277832,69.96245753540039,144.5066272277832,77.50846753540038C146.0952272277832,85.05436753540039,137.2769272277832,89.17896753540039,134.7762272277832,89.82026753540039C132.1985272277832,90.4813675354004,120.0815272277832,89.82026753540039,118.89002722778321,79.4941675354004C118.89002722778321,79.4941675354004,118.89002722778321,79.4941675354004,118.89002722778321,79.4941675354004Z" fill="#FFFFFF" fill-opacity="1"/></g><g style="mix-blend-mode:passthrough" transform="matrix(0.2588190734386444,0.9659258127212524,-0.9659258127212524,0.2588190734386444,166.22256695401654,-75.47958766384664)"><g style="mix-blend-mode:passthrough" transform="matrix(1,-1.705170760146757e-8,1.705170760146757e-8,1,-0.0000012033891891860549,0.0000022558512711157164)" filter="url(#master_svgw_0_1275)"><ellipse cx="138.54235982894897" cy="76.82055997848511" rx="6.247617244720459" ry="6.247617244720459" fill="#292929" fill-opacity="1"/></g><g style="mix-blend-mode:passthrough" transform="matrix(0.775951087474823,-0.6307930946350098,0.6307931542396545,0.7759510278701782,-15.96952913486723,104.64337995611663)" filter="url(#master_svgx_0_1276)"><ellipse cx="142.05639505386353" cy="75.57398504018784" rx="2.7333321571350098" ry="0.7717942595481873" fill="#FFFFFF" fill-opacity="1"/></g><g style="mix-blend-mode:passthrough" transform="matrix(0.775951087474823,-0.6307931542396545,0.6307930946350098,0.7759510278701782,-15.37806635269385,105.4895035335071)" filter="url(#master_svgy_0_1277)"><ellipse cx="142.67667591571808" cy="74.89513939619064" rx="1.866796612739563" ry="0.5024945139884949" fill="#FFFFFF" fill-opacity="1"/></g></g><g style="mix-blend-mode:passthrough" transform="matrix(0.2588190734386444,0.9659258127212524,-0.9659258127212524,0.2588190734386444,147.85676488350816,-51.544529361229024)"><g style="mix-blend-mode:passthrough" transform="matrix(1,-1.6461244811694087e-8,1.6461244811694087e-8,1,-0.0000011617207746894564,0.0000017698381924446949)" filter="url(#master_svgz_0_1279)"><ellipse cx="113.47175884246826" cy="76.52938747406006" rx="5.956305503845215" ry="5.956305503845215" fill="#292929" fill-opacity="1"/></g><g style="mix-blend-mode:passthrough" transform="matrix(0.775951087474823,-0.6307930946350098,0.6307930946350098,0.7759510278701782,-21.47035817080564,88.76193846555452)" filter="url(#master_svg10_0_1280)"><ellipse cx="116.82202053070068" cy="75.3408716917038" rx="2.6058835983276367" ry="0.7358072996139526" fill="#FFFFFF" fill-opacity="1"/></g><g style="mix-blend-mode:passthrough" transform="matrix(0.7759510278701782,-0.6307930946350098,0.6307931542396545,0.775951087474823,-20.978262581415947,89.57414351050966)" filter="url(#master_svg11_0_1281)"><ellipse cx="117.41559743881226" cy="74.70574778318405" rx="1.810056209564209" ry="0.38730448484420776" fill="#FFFFFF" fill-opacity="1"/></g></g></g><g style="mix-blend-mode:passthrough"><g style="mix-blend-mode:passthrough" filter="url(#master_svg12_0_1283)"><path d="M119.45720213012694,136.22690527954103C100.32170213012695,137.546505279541,87.28975213012696,121.56360527954101,83.16571213012695,113.40720527954102C80.25516213012695,108.62290527954102,83.16571213012695,103.23460527954101,85.64013213012696,105.70900527954102C88.11457213012696,108.18340527954102,100.21170213012695,111.75760527954101,102.68610213012695,113.40720527954102C105.16050213012696,115.05680527954101,124.68100213012696,117.25630527954101,127.70530213012695,117.25630527954101C130.72960213012695,117.25630527954101,145.02630213012696,108.73330527954101,147.50080213012694,105.70900527954102C149.48040213012695,103.28960527954101,154.92370213012697,90.58755527954102,157.39820213012695,84.53900527954102C158.58970213012697,85.27217027954102,160.53240213012697,91.41240527954102,158.77320213012695,110.10800527954102C156.57380213012695,133.47760527954102,143.37680213012695,134.57720527954103,119.45720213012694,136.22690527954103C119.45720213012694,136.22690527954103,119.45720213012694,136.22690527954103,119.45720213012694,136.22690527954103Z" fill="#F48192" fill-opacity="1"/></g><g style="mix-blend-mode:passthrough" filter="url(#master_svg13_0_1284)"><path d="M117.32826951293944,107.25335215454102C101.01376951293946,107.25335215454102,85.54989951293945,94.73205215454101,81.11796951293945,87.55652215454101C81.11796951293945,87.55652215454101,87.92303951293945,105.70485215454102,87.92303951293945,105.70485215454102C114.12346951293945,120.54985215454101,143.89226951293944,117.91695215454101,150.02066951293943,105.70485215454102C153.55046951293946,98.67075215454102,155.01036951293946,90.29859215454101,154.69346951293946,82.91205215454102C138.41756951293945,111.03355215454101,133.64286951293946,107.25335215454102,117.32826951293944,107.25335215454102C117.32826951293944,107.25335215454102,117.32826951293944,107.25335215454102,117.32826951293944,107.25335215454102Z" fill="#550D0A" fill-opacity="1"/></g><g style="mix-blend-mode:passthrough" filter="url(#master_svg14_0_1285)"><path d="M88.8134380090332,109.15962481079102C84.1916140090332,108.69752481079101,83.34429300903321,102.88168481079101,83.4983606090332,100.03154481079102C87.3983380090332,101.70051481079102,95.7239780090332,105.03845481079101,97.8269780090332,105.03845481079101C100.4554780090332,105.03845481079101,112.1006780090332,112.01742481079101,114.24507800903321,111.91992481079102C116.38947800903321,111.82242481079102,120.28847800903321,112.79722481079102,121.2631780090332,112.89462481079102C122.23787800903321,112.99212481079101,139.3929780090332,107.24122481079101,140.1727780090332,105.77909481079101C140.9526780090332,104.31699481079102,146.5089780090332,101.10036481079102,147.8734780090332,100.41804481079102C149.2380780090332,99.73573481079102,154.59927800903318,95.93425481079102,155.9637780090332,97.49383181079102C157.3283780090332,99.05341481079101,154.98887800903321,104.70690481079102,154.1114780090332,105.77909481079101C153.2346780090332,106.85128481079101,150.3104780090332,105.77909481079101,147.8734780090332,105.77909481079101C145.4364780090332,105.77909481079101,144.2669780090332,106.26644481079101,142.70737800903322,108.23532481079101C141.1477780090332,110.20412481079101,142.52327800903322,113.72862481079102,141.7307780090332,115.42752481079101C140.9377780090332,117.12632481079102,133.8025780090332,120.07102481079102,130.6314780090332,118.03242481079101C127.4602780090332,115.99372481079101,126.82787800903321,116.67012481079101,123.8236780090332,116.78562481079102C120.8194780090332,116.901224810791,119.4329780090332,114.01262481079101,117.9308780090332,114.70582481079101C116.42877800903321,115.39912481079102,109.7271780090332,115.28352481079102,105.2208780090332,114.70582481079101C100.71467800903321,114.12812481079101,100.8301780090332,109.15962481079102,99.09697800903321,108.23532481079101C97.3637780090332,107.31092481079102,94.5906780090332,109.73742481079101,88.8134380090332,109.15962481079102C88.8134380090332,109.15962481079102,88.8134380090332,109.15962481079102,88.8134380090332,109.15962481079102Z" fill="#1E0607" fill-opacity="1"/></g><g style="mix-blend-mode:passthrough" filter="url(#master_svg15_0_1286)"><path d="M88.83916271606445,93.78850981079101C87.34270271606445,92.69496981079102,86.34503271606445,94.24416981079102,86.03325271606445,95.15548981079101C86.03325271606445,95.15548981079101,98.26405271606446,105.08399981079101,98.26405271606446,105.08399981079101C98.95955271606445,104.07679981079102,101.25175271606446,99.93419981079101,99.92795271606445,99.53129981079101C98.27325271606445,99.02769981079102,90.70973271606445,95.15548981079101,88.83916271606445,93.78850981079101C88.83916271606445,93.78850981079101,88.83916271606445,93.78850981079101,88.83916271606445,93.78850981079101ZM103.94775271606446,103.64509981079101C102.56635271606446,103.47239981079102,102.74865271606446,105.53959981079102,103.01245271606444,106.59479981079102C107.30525271606444,108.36949981079101,116.23605271606445,111.91889981079102,117.61745271606445,111.91889981079102C119.34415271606446,111.91889981079102,119.34415271606446,107.81789981079102,117.61745271606445,107.74599981079102C115.89065271606445,107.67399981079102,105.67445271606445,103.86089981079101,103.94775271606446,103.64509981079101C103.94775271606446,103.64509981079101,103.94775271606446,103.64509981079101,103.94775271606446,103.64509981079101ZM146.61905271606446,93.78850981079101C145.13275271606446,95.69165981079101,145.52345271606447,97.94994981079101,145.90435271606447,98.84119981079101C148.09555271606445,97.15695981079102,152.53585271606445,93.19841981079102,152.76455271606446,90.83796981079101C153.05005271606444,87.88741581079101,150.90615271606447,87.55092281079102,150.76345271606445,88.55132781079102C150.62075271606446,89.55173981079102,148.47685271606446,91.40962981079102,146.61905271606446,93.78850981079101C146.61905271606446,93.78850981079101,146.61905271606446,93.78850981079101,146.61905271606446,93.78850981079101ZM130.04075271606445,105.08399981079101C128.21145271606446,105.08399981079101,127.65885271606444,107.97259981079102,127.61125271606446,109.41689981079102C127.61125271606446,109.41689981079102,140.47365271606446,106.59479981079102,140.47365271606446,106.59479981079102C140.14015271606445,105.61159981079102,139.24455271606445,103.64509981079101,138.32985271606447,103.64509981079101C137.18655271606445,103.64509981079101,132.32745271606444,105.08399981079101,130.04075271606445,105.08399981079101C130.04075271606445,105.08399981079101,130.04075271606445,105.08399981079101,130.04075271606445,105.08399981079101Z" fill="#EA6E80" fill-opacity="1"/></g><g style="mix-blend-mode:passthrough" transform="matrix(0.9984328746795654,-0.05596243217587471,0.05596243962645531,0.9984328746795654,-5.089468934441115,4.73217738944949)" filter="url(#master_svg16_0_1287)"><path d="M153.28800213012696,93.23920059204102C150.53250213012694,95.57902059204102,145.05220213012694,100.97619059204102,145.17680213012696,103.84640059204102C145.33270213012696,107.43410059204102,149.38840213012696,108.68200059204102,152.19630213012695,108.68200059204102C155.00420213012694,108.68200059204102,161.39930213012696,99.63473059204101,153.28800213012696,93.23920059204102ZM87.51351213012695,94.61977059204102C84.75769213012696,95.81568059204102,79.96364213012696,99.36182059204101,82.83383413012696,103.97910059204102C86.42157213012695,109.75070059204101,92.78700213012695,109.62620059204102,95.28290213012696,108.69020059204101C97.77870213012696,107.75430059204102,100.36260213012696,104.01140059204101,94.94330213012695,100.42293059204101C90.89077213012695,97.73955059204101,88.50143213012696,95.29572059204102,87.51351213012695,94.61977059204102ZM100.56410213012695,111.02180059204102C99.94020213012695,107.90210059204102,103.00790213012695,107.33010059204102,104.61980213012696,107.43410059204102C106.02370213012695,107.85010059204102,109.79860213012695,109.15000059204101,113.66720213012695,111.02180059204102C118.50280213012695,113.36170059204102,117.72280213012695,115.54550059204101,112.26330213012696,115.85750059204102C106.80370213012695,116.16940059204101,101.34410213012696,114.92160059204102,100.56410213012695,111.02180059204102ZM126.61410213012695,111.80180059204102C127.86210213012696,111.05300059204102,131.18980213012696,109.41000059204102,132.69770213012697,108.68200059204102C144.39690213012696,105.56230059204101,142.68080213012695,114.45360059204101,137.53340213012694,118.19730059204102C132.38570213012696,121.94100059204101,126.61410213012695,119.28920059204101,125.67820213012695,118.19730059204102C124.74230213012694,117.10540059204101,120.99860213012695,117.88530059204102,119.43870213012696,117.10540059204101C117.87880213012696,116.32550059204101,119.75060213012695,114.29760059204102,120.99860213012695,113.36170059204102C122.24650213012696,112.42570059204101,125.05430213012696,112.73770059204102,126.61410213012695,111.80180059204102Z" fill-rule="evenodd" fill="#FFFFFF" fill-opacity="1"/></g></g><g style="mix-blend-mode:passthrough"><g style="mix-blend-mode:passthrough" filter="url(#master_svg17_0_1289)"><path d="M172.00823594848632,143.55687075805665C172.00823594848632,138.94927075805663,170.87361594848633,130.92818075805664,169.74806594848633,126.70737075805664C180.71026594848632,130.50378075805665,185.78016594848634,177.73417075805665,185.78016594848634,185.45527075805666C185.78016594848634,193.17637075805663,195.57736594848632,229.43337075805664,198.05166594848632,241.79737075805664C200.52596594848632,254.16037075805664,188.83056594848634,261.62437075805667,185.78016594848634,259.7183707580566C182.72976594848632,257.8113707580567,174.72254594848633,247.89737075805664,174.72254594848633,241.79737075805664C174.72254594848633,235.69637075805664,179.68852594848633,228.45937075805665,177.78206594848632,223.12147075805666C175.87555594848632,217.78347075805664,174.72254594848633,207.09907075805665,174.72254594848633,194.51607075805663C174.72254594848633,181.93317075805663,172.66771594848632,179.57857075805663,173.03652594848631,171.67177075805665C173.40533594848634,163.76487075805665,172.00823594848632,149.04257075805663,172.00823594848632,143.55687075805665C172.00823594848632,143.55687075805665,172.00823594848632,143.55687075805665,172.00823594848632,143.55687075805665Z" fill="#F87F90" fill-opacity="1"/></g><g style="mix-blend-mode:passthrough" mask="url(#master_svg18_0_1291)"><g style="opacity:0.699999988079071;mix-blend-mode:passthrough" filter="url(#master_svg19_0_1292)"><path d="M176.36975625854492,164.2093910949707C177.05913625854492,154.1220910949707,173.5472762585449,145.6451710949707,171.70517625854492,142.6675910949707C171.70517625854492,149.8481810949707,171.29403625854493,165.3572910949707,169.64947325854493,169.9490910949707C167.59377625854492,175.6888910949707,174.52952625854493,184.1815910949707,172.6456762585449,190.0709910949707C170.76182625854491,195.9602910949707,174.52952625854493,217.79999109497072,174.52952625854493,226.14329109497072C174.52952625854493,234.4859910949707,171.70517625854492,240.0709910949707,174.52952625854493,246.0455910949707C177.35387625854491,252.0205910949707,185.43144625854492,235.94539109497072,181.42214625854493,227.5017910949707C177.4127862585449,219.0581910949707,179.81654625854492,201.18949109497072,177.01604625854492,185.9458910949707C174.21549625854493,170.7020910949707,175.50803625854493,176.8184910949707,176.36975625854492,164.2093910949707C176.36975625854492,164.2093910949707,176.36975625854492,164.2093910949707,176.36975625854492,164.2093910949707Z" fill="#831922" fill-opacity="1"/></g><g style="opacity:0.5;mix-blend-mode:passthrough" filter="url(#master_svg1a_0_1293)"><path d="M172.83006946166992,138.8146325012207C171.8550094616699,134.9143725012207,170.85739946166993,130.1028455012207,169.11722946166992,129.7012825012207C169.67651046166992,158.5701825012207,170.56309946166994,233.4382825012207,171.18817946166993,236.0472825012207C171.9695394616699,239.3082825012207,175.9306894616699,240.9422825012207,177.53700946166992,237.1942825012207C179.1433294616699,233.4452825012207,180.99202946166992,230.3382825012207,178.31479946166993,221.6376825012207C175.63765946166993,212.9366825012207,177.16208946166992,189.0140825012207,176.4928194616699,186.8724825012207C175.8234994616699,184.7305825012207,174.0833494616699,177.5022825012207,175.02036946166993,171.0770825012207C175.9573594616699,164.6517825012207,173.77212946166992,142.5828825012207,172.83006946166992,138.8146325012207C172.83006946166992,138.8146325012207,172.83006946166992,138.8146325012207,172.83006946166992,138.8146325012207Z" fill="#6F1C24" fill-opacity="1"/></g></g><g style="mix-blend-mode:passthrough" filter="url(#master_svg1b_0_1294)"><path d="M169.46788317504883,126.70477044555665C168.46956317504882,125.79631044555664,166.64253317504884,123.67042944555664,163.77797317504883,124.65023644555664C163.77797317504883,126.29568044555664,165.65760317504882,132.25818044555663,167.95654317504884,132.83189044555664C170.48584317504884,133.46302044555665,172.97906317504882,137.50460044555663,174.01037317504884,135.95760044555664C175.51837317504882,133.69559044555663,175.98577317504882,132.63580044555664,169.46788317504883,126.70477044555665C169.46788317504883,126.70477044555665,169.46788317504883,126.70477044555665,169.46788317504883,126.70477044555665Z" fill="#ED7989" fill-opacity="1"/></g></g></g></g></g></svg>