<svg xmlns="http://www.w3.org/2000/svg" xmlns:xlink="http://www.w3.org/1999/xlink" fill="none" version="1.1" width="248" height="248" viewBox="0 0 248 248"><defs><mask id="master_svg0_0_1299"><g style="mix-blend-mode:passthrough"><ellipse cx="124" cy="124" rx="124" ry="124" fill="#FFFFFF" fill-opacity="1"/></g></mask><filter id="master_svg1_0_1301" filterUnits="objectBoundingBox" color-interpolation-filters="sRGB" x="-41.31817626953125" y="-13.221923828125" width="246.41796875" height="296.54638671875"><feFlood flood-opacity="0" result="BackgroundImageFix"/><feColorMatrix in="SourceAlpha" type="matrix" values="0 0 0 0 0 0 0 0 0 0 0 0 0 0 0 0 0 0 127 0"/><feOffset dy="19.832727432250977" dx="-8.263636589050293"/><feGaussianBlur stdDeviation="8.263636589050293"/><feColorMatrix type="matrix" values="0 0 0 0 0.8458333015441895 0 0 0 0 0.5956076383590698 0 0 0 0 0.5956076383590698 0 0 0 1 0"/><feBlend mode="normal" in2="BackgroundImageFix" result="effect1_dropShadow"/><feBlend mode="normal" in="SourceGraphic" in2="effect1_dropShadow" result="shape"/></filter><filter id="master_svg2_0_1303" filterUnits="objectBoundingBox" color-interpolation-filters="sRGB" x="-28.647274017333984" y="-28.647274017333984" width="207.74787139892578" height="65.56121444702148"><feFlood flood-opacity="0" result="BackgroundImageFix"/><feBlend mode="normal" in="SourceGraphic" in2="BackgroundImageFix" result="shape"/><feGaussianBlur stdDeviation="7.161818504333496" result="effect1_foregroundBlur"/></filter><filter id="master_svg3_0_1304" filterUnits="objectBoundingBox" color-interpolation-filters="sRGB" x="-8.814545631408691" y="-8.814545631408691" width="96.82254219055176" height="26.010994911193848"><feFlood flood-opacity="0" result="BackgroundImageFix"/><feBlend mode="normal" in="SourceGraphic" in2="BackgroundImageFix" result="shape"/><feGaussianBlur stdDeviation="2.203636407852173" result="effect1_foregroundBlur"/></filter><filter id="master_svg4_0_1305" filterUnits="objectBoundingBox" color-interpolation-filters="sRGB" x="-6.610909461975098" y="-6.610909461975098" width="35.90194129943848" height="18.792426586151123"><feFlood flood-opacity="0" result="BackgroundImageFix"/><feBlend mode="normal" in="SourceGraphic" in2="BackgroundImageFix" result="shape"/><feGaussianBlur stdDeviation="1.6527273654937744" result="effect1_foregroundBlur"/></filter><filter id="master_svg5_0_1306" filterUnits="objectBoundingBox" color-interpolation-filters="sRGB" x="-6.610909461975098" y="-6.610909461975098" width="34.948692321777344" height="19.11103391647339"><feFlood flood-opacity="0" result="BackgroundImageFix"/><feBlend mode="normal" in="SourceGraphic" in2="BackgroundImageFix" result="shape"/><feGaussianBlur stdDeviation="1.6527273654937744" result="effect1_foregroundBlur"/></filter><filter id="master_svg6_0_1307" filterUnits="objectBoundingBox" color-interpolation-filters="sRGB" x="0" y="0" width="138.78538513183594" height="138.0510711669922"><feFlood flood-opacity="0" result="BackgroundImageFix"/><feBlend mode="normal" in="SourceGraphic" in2="BackgroundImageFix" result="shape"/><feColorMatrix in="SourceAlpha" type="matrix" result="hardAlpha" values="0 0 0 0 0 0 0 0 0 0 0 0 0 0 0 0 0 0 127 0"/><feOffset dy="1.6527273654937744" dx="-0.5509091019630432"/><feGaussianBlur stdDeviation="4.682727336883545"/><feComposite in2="hardAlpha" operator="arithmetic" k2="-1" k3="1"/><feColorMatrix type="matrix" values="0 0 0 0 1 0 0 0 0 0.875 0 0 0 0 0.875 0 0 0 1 0"/><feBlend mode="normal" in2="shape" result="effect1_innerShadow"/><feColorMatrix in="SourceAlpha" type="matrix" result="hardAlpha" values="0 0 0 0 0 0 0 0 0 0 0 0 0 0 0 0 0 0 127 0"/><feOffset dy="-9.36545467376709" dx="12.67090892791748"/><feGaussianBlur stdDeviation="7.437273025512695"/><feComposite in2="hardAlpha" operator="arithmetic" k2="-1" k3="1"/><feColorMatrix type="matrix" values="0 0 0 0 0.6916666626930237 0 0 0 0 0.10663193464279175 0 0 0 0 0.11921331286430359 0 0 0 1 0"/><feBlend mode="normal" in2="effect1_innerShadow" result="effect2_innerShadow"/></filter><filter id="master_svg7_0_1309" filterUnits="objectBoundingBox" color-interpolation-filters="sRGB" x="0" y="0" width="138.1400146484375" height="132.5662841796875"><feFlood flood-opacity="0" result="BackgroundImageFix"/><feBlend mode="normal" in="SourceGraphic" in2="BackgroundImageFix" result="shape"/><feColorMatrix in="SourceAlpha" type="matrix" result="hardAlpha" values="0 0 0 0 0 0 0 0 0 0 0 0 0 0 0 0 0 0 127 0"/><feOffset dy="1.6527273654937744" dx="-0.5509091019630432"/><feGaussianBlur stdDeviation="4.682727336883545"/><feComposite in2="hardAlpha" operator="arithmetic" k2="-1" k3="1"/><feColorMatrix type="matrix" values="0 0 0 0 1 0 0 0 0 0.875 0 0 0 0 0.875 0 0 0 1 0"/><feBlend mode="normal" in2="shape" result="effect1_innerShadow"/><feColorMatrix in="SourceAlpha" type="matrix" result="hardAlpha" values="0 0 0 0 0 0 0 0 0 0 0 0 0 0 0 0 0 0 127 0"/><feOffset dy="-9.36545467376709" dx="12.67090892791748"/><feGaussianBlur stdDeviation="7.437273025512695"/><feComposite in2="hardAlpha" operator="arithmetic" k2="-1" k3="1"/><feColorMatrix type="matrix" values="0 0 0 0 0.6916666626930237 0 0 0 0 0.10663193464279175 0 0 0 0 0.11921331286430359 0 0 0 1 0"/><feBlend mode="normal" in2="effect1_innerShadow" result="effect2_innerShadow"/></filter><mask id="master_svg8_0_1309"><g style="mix-blend-mode:passthrough" filter="url(#master_svg7_0_1309)"><path d="M77.11224849243163,179.4437582702637C8.039948492431641,162.75505827026367,44.27441849243164,126.51872827026367,44.60877849243164,123.50925827026367C91.68204849243165,138.21205827026367,160.12854849243163,165.36835827026368,171.51754849243164,158.57795827026368C171.74954849243164,155.8248582702637,172.35454849243163,154.93745827026368,172.91454849243163,173.4129582702637C173.61454849243165,196.50725827026366,164.86654849243163,240.24625827026367,164.51654849243164,245.84525827026368C164.16654849243164,251.44325827026367,148.42054849243164,262.2912582702637,135.82354849243166,251.09325827026368C123.22654849243165,239.89625827026367,123.22704849243163,250.39425827026366,112.72954849243165,254.24325827026368C102.23194849243164,258.09225827026364,94.55994849243163,256.53925827026364,85.86594849243164,243.16325827026367C77.17194849243164,229.78925827026367,88.77064849243163,182.26045827026365,77.11224849243163,179.4437582702637C77.11224849243163,179.4437582702637,77.11224849243163,179.4437582702637,77.11224849243163,179.4437582702637Z" fill="#FFFFFF" fill-opacity="1"/></g></mask><filter id="master_svg9_0_1310" filterUnits="objectBoundingBox" color-interpolation-filters="sRGB" x="-7.7127275466918945" y="-7.7127275466918945" width="96.57270240783691" height="28.658079147338867"><feFlood flood-opacity="0" result="BackgroundImageFix"/><feBlend mode="normal" in="SourceGraphic" in2="BackgroundImageFix" result="shape"/><feGaussianBlur stdDeviation="1.9281818866729736" result="effect1_foregroundBlur"/></filter><filter id="master_svga_0_1311" filterUnits="objectBoundingBox" color-interpolation-filters="sRGB" x="-8.814545631408691" y="-8.814545631408691" width="34.43049430847168" height="28.473711013793945"><feFlood flood-opacity="0" result="BackgroundImageFix"/><feBlend mode="normal" in="SourceGraphic" in2="BackgroundImageFix" result="shape"/><feGaussianBlur stdDeviation="2.203636407852173" result="effect1_foregroundBlur"/></filter><filter id="master_svgb_0_1312" filterUnits="objectBoundingBox" color-interpolation-filters="sRGB" x="-4.407272815704346" y="-4.407272815704346" width="17.389480590820312" height="14.205554485321045"><feFlood flood-opacity="0" result="BackgroundImageFix"/><feBlend mode="normal" in="SourceGraphic" in2="BackgroundImageFix" result="shape"/><feGaussianBlur stdDeviation="1.1018182039260864" result="effect1_foregroundBlur"/></filter><filter id="master_svgc_0_1313" filterUnits="objectBoundingBox" color-interpolation-filters="sRGB" x="-11.018181800842285" y="-11.018181800842285" width="135.06517219543457" height="52.877098083496094"><feFlood flood-opacity="0" result="BackgroundImageFix"/><feBlend mode="normal" in="SourceGraphic" in2="BackgroundImageFix" result="shape"/><feGaussianBlur stdDeviation="2.7545454502105713" result="effect1_foregroundBlur"/></filter><filter id="master_svgd_0_1314" filterUnits="objectBoundingBox" color-interpolation-filters="sRGB" x="-8.814545631408691" y="-8.814545631408691" width="125.52019691467285" height="47.28091812133789"><feFlood flood-opacity="0" result="BackgroundImageFix"/><feBlend mode="normal" in="SourceGraphic" in2="BackgroundImageFix" result="shape"/><feGaussianBlur stdDeviation="2.203636407852173" result="effect1_foregroundBlur"/></filter><filter id="master_svge_0_1315" filterUnits="objectBoundingBox" color-interpolation-filters="sRGB" x="-13.221818923950195" y="-13.221818923950195" width="44.8249568939209" height="92.14578628540039"><feFlood flood-opacity="0" result="BackgroundImageFix"/><feBlend mode="normal" in="SourceGraphic" in2="BackgroundImageFix" result="shape"/><feGaussianBlur stdDeviation="3.305454730987549" result="effect1_foregroundBlur"/></filter><filter id="master_svgf_0_1316" filterUnits="objectBoundingBox" color-interpolation-filters="sRGB" x="-7.7127275466918945" y="-7.7127275466918945" width="28.8924617767334" height="75.98602867126465"><feFlood flood-opacity="0" result="BackgroundImageFix"/><feBlend mode="normal" in="SourceGraphic" in2="BackgroundImageFix" result="shape"/><feGaussianBlur stdDeviation="1.9281818866729736" result="effect1_foregroundBlur"/></filter><filter id="master_svgg_0_1317" filterUnits="objectBoundingBox" color-interpolation-filters="sRGB" x="-8.814545631408691" y="-8.814545631408691" width="41.40167999267578" height="35.990196228027344"><feFlood flood-opacity="0" result="BackgroundImageFix"/><feBlend mode="normal" in="SourceGraphic" in2="BackgroundImageFix" result="shape"/><feGaussianBlur stdDeviation="2.203636407852173" result="effect1_foregroundBlur"/></filter><filter id="master_svgh_0_1319" filterUnits="objectBoundingBox" color-interpolation-filters="sRGB" x="-5.509090900421143" y="-5.509090900421143" width="108.06258487701416" height="33.87357425689697"><feFlood flood-opacity="0" result="BackgroundImageFix"/><feBlend mode="normal" in="SourceGraphic" in2="BackgroundImageFix" result="shape"/><feGaussianBlur stdDeviation="1.3772727251052856" result="effect1_foregroundBlur"/></filter><filter id="master_svgi_0_1320" filterUnits="objectBoundingBox" color-interpolation-filters="sRGB" x="0" y="0" width="173.36944580078125" height="133.16282653808594"><feFlood flood-opacity="0" result="BackgroundImageFix"/><feBlend mode="normal" in="SourceGraphic" in2="BackgroundImageFix" result="shape"/><feColorMatrix in="SourceAlpha" type="matrix" result="hardAlpha" values="0 0 0 0 0 0 0 0 0 0 0 0 0 0 0 0 0 0 127 0"/><feOffset dy="-4.958181858062744" dx="0"/><feGaussianBlur stdDeviation="6.886363983154297"/><feComposite in2="hardAlpha" operator="arithmetic" k2="-1" k3="1"/><feColorMatrix type="matrix" values="0 0 0 0 0 0 0 0 0 0 0 0 0 0 0 0 0 0 0.25 0"/><feBlend mode="normal" in2="shape" result="effect1_innerShadow"/></filter><filter id="master_svgj_0_1322" filterUnits="objectBoundingBox" color-interpolation-filters="sRGB" x="0" y="0" width="173.36944580078125" height="133.16282653808594"><feFlood flood-opacity="0" result="BackgroundImageFix"/><feBlend mode="normal" in="SourceGraphic" in2="BackgroundImageFix" result="shape"/><feColorMatrix in="SourceAlpha" type="matrix" result="hardAlpha" values="0 0 0 0 0 0 0 0 0 0 0 0 0 0 0 0 0 0 127 0"/><feOffset dy="-4.958181858062744" dx="0"/><feGaussianBlur stdDeviation="6.886363983154297"/><feComposite in2="hardAlpha" operator="arithmetic" k2="-1" k3="1"/><feColorMatrix type="matrix" values="0 0 0 0 0 0 0 0 0 0 0 0 0 0 0 0 0 0 0.25 0"/><feBlend mode="normal" in2="shape" result="effect1_innerShadow"/></filter><mask id="master_svgk_0_1322"><g style="mix-blend-mode:passthrough" filter="url(#master_svgj_0_1322)"><path d="M63.32198042602539,62.99728717651367C63.93758042602539,60.22738717651367,75.6328804260254,52.353487176513674,81.4034804260254,48.76286717651367C138.3411804260254,26.064787176513672,178.4872804260254,50.34468717651367,182.19828042602538,52.225287176513675C186.7362804260254,54.524087176513675,184.8912804260254,62.99728717651367,196.4322804260254,66.84438717651366C207.9742804260254,70.69158717651368,209.8982804260254,83.00238717651368,213.36028042602538,94.54368717651367C216.8222804260254,106.08498717651368,210.28228042602538,141.86388717651369,172.58028042602538,161.86888717651368C134.8785804260254,181.87388717651368,86.78948042602539,168.02488717651366,78.32578042602539,161.86888717651368C69.86208042602539,155.71288717651368,48.70284042602539,140.32488717651367,42.54740042602539,116.08768717651367C36.39197042602539,91.85078717651368,48.31811042602539,75.30808717651368,50.62639042602539,73.76928717651367C52.934680426025395,72.23048717651366,62.552580426025386,66.45968717651367,63.32198042602539,62.99728717651367C63.32198042602539,62.99728717651367,63.32198042602539,62.99728717651367,63.32198042602539,62.99728717651367Z" fill="#FFFFFF" fill-opacity="1"/></g></mask><filter id="master_svgl_0_1323" filterUnits="objectBoundingBox" color-interpolation-filters="sRGB" x="-6.610909461975098" y="-6.610909461975098" width="165.21112251281738" height="56.22954750061035"><feFlood flood-opacity="0" result="BackgroundImageFix"/><feBlend mode="normal" in="SourceGraphic" in2="BackgroundImageFix" result="shape"/><feGaussianBlur stdDeviation="1.6527273654937744" result="effect1_foregroundBlur"/></filter><linearGradient x1="0.48032185435295105" y1="0.45899343490600586" x2="0.48032185435295105" y2="0.9624849557876587" id="master_svgm__05"><stop offset="0%" stop-color="#369495" stop-opacity="1"/><stop offset="100%" stop-color="#369495" stop-opacity="0"/></linearGradient><filter id="master_svgn_0_1324" filterUnits="objectBoundingBox" color-interpolation-filters="sRGB" x="-51.78545546531677" y="-49.03091025352478" width="172.93110513687134" height="105.82419776916504"><feFlood flood-opacity="0" result="BackgroundImageFix"/><feColorMatrix in="SourceAlpha" type="matrix" values="0 0 0 0 0 0 0 0 0 0 0 0 0 0 0 0 0 0 127 0"/><feOffset dy="0" dx="-2.7545454502105713"/><feGaussianBlur stdDeviation="2.203636407852173"/><feColorMatrix type="matrix" values="0 0 0 0 0 0 0 0 0 0 0 0 0 0 0 0 0 0 0.4000000059604645 0"/><feBlend mode="normal" in2="BackgroundImageFix" result="effect1_dropShadow"/><feColorMatrix in="SourceAlpha" type="matrix" values="0 0 0 0 0 0 0 0 0 0 0 0 0 0 0 0 0 0 127 0"/><feOffset dy="0" dx="-5.509090900421143"/><feGaussianBlur stdDeviation="1.6527273654937744"/><feColorMatrix type="matrix" values="0 0 0 0 0.5096875429153442 0 0 0 0 0.9667882919311523 0 0 0 0 0.970833420753479 0 0 0 1 0"/><feBlend mode="normal" in2="effect1_dropShadow" result="effect2_dropShadow"/><feColorMatrix in="SourceAlpha" type="matrix" values="0 0 0 0 0 0 0 0 0 0 0 0 0 0 0 0 0 0 127 0"/><feOffset dy="-3.8563637733459473" dx="0"/><feGaussianBlur stdDeviation="2.7545454502105713"/><feColorMatrix type="matrix" values="0 0 0 0 0 0 0 0 0 0 0 0 0 0 0 0 0 0 0.44999998807907104 0"/><feBlend mode="normal" in2="effect2_dropShadow" result="effect3_dropShadow"/><feColorMatrix in="SourceAlpha" type="matrix" values="0 0 0 0 0 0 0 0 0 0 0 0 0 0 0 0 0 0 127 0"/><feOffset dy="-6.610909461975098" dx="0"/><feGaussianBlur stdDeviation="2.203636407852173"/><feColorMatrix type="matrix" values="0 0 0 0 0.5568627715110779 0 0 0 0 0.9921568632125854 0 0 0 0 0.9960784316062927 0 0 0 1 0"/><feBlend mode="normal" in2="effect3_dropShadow" result="effect4_dropShadow"/><feColorMatrix in="SourceAlpha" type="matrix" values="0 0 0 0 0 0 0 0 0 0 0 0 0 0 0 0 0 0 127 0"/><feOffset dy="2.203636407852173" dx="3.8563637733459473"/><feGaussianBlur stdDeviation="1.3772727251052856"/><feColorMatrix type="matrix" values="0 0 0 0 0 0 0 0 0 0 0 0 0 0 0 0 0 0 0.25 0"/><feBlend mode="normal" in2="effect4_dropShadow" result="effect5_dropShadow"/><feColorMatrix in="SourceAlpha" type="matrix" values="0 0 0 0 0 0 0 0 0 0 0 0 0 0 0 0 0 0 127 0"/><feOffset dy="7.161818504333496" dx="0"/><feGaussianBlur stdDeviation="1.6527273654937744"/><feColorMatrix type="matrix" values="0 0 0 0 0.5583333373069763 0 0 0 0 0.996225118637085 0 0 0 0 1 0 0 0 1 0"/><feBlend mode="normal" in2="effect5_dropShadow" result="effect6_dropShadow"/><feBlend mode="normal" in="SourceGraphic" in2="effect6_dropShadow" result="shape"/><feColorMatrix in="SourceAlpha" type="matrix" result="hardAlpha" values="0 0 0 0 0 0 0 0 0 0 0 0 0 0 0 0 0 0 127 0"/><feOffset dy="3.305454730987549" dx="0.5509091019630432"/><feGaussianBlur stdDeviation="2.203636407852173"/><feComposite in2="hardAlpha" operator="arithmetic" k2="-1" k3="1"/><feColorMatrix type="matrix" values="0 0 0 0 0.38333332538604736 0 0 0 0 0.07549653947353363 0 0 0 0 0.07187500596046448 0 0 0 1 0"/><feBlend mode="normal" in2="shape" result="effect7_innerShadow"/><feColorMatrix in="SourceAlpha" type="matrix" result="hardAlpha" values="0 0 0 0 0 0 0 0 0 0 0 0 0 0 0 0 0 0 127 0"/><feOffset dy="-3.305454730987549" dx="-1.6527273654937744"/><feGaussianBlur stdDeviation="1.6527273654937744"/><feComposite in2="hardAlpha" operator="arithmetic" k2="-1" k3="1"/><feColorMatrix type="matrix" values="0 0 0 0 0.3708333373069763 0 0 0 0 0.08867102861404419 0 0 0 0 0.08498263359069824 0 0 0 1 0"/><feBlend mode="normal" in2="effect7_innerShadow" result="effect8_innerShadow"/><feColorMatrix in="SourceAlpha" type="matrix" result="hardAlpha" values="0 0 0 0 0 0 0 0 0 0 0 0 0 0 0 0 0 0 127 0"/><feOffset dy="3.8563637733459473" dx="3.305454730987549"/><feGaussianBlur stdDeviation="2.203636407852173"/><feComposite in2="hardAlpha" operator="arithmetic" k2="-1" k3="1"/><feColorMatrix type="matrix" values="0 0 0 0 0.22083333134651184 0 0 0 0 0.03772570192813873 0 0 0 0 0.03772570192813873 0 0 0 1 0"/><feBlend mode="normal" in2="effect8_innerShadow" result="effect9_innerShadow"/><feColorMatrix in="SourceAlpha" type="matrix" result="hardAlpha" values="0 0 0 0 0 0 0 0 0 0 0 0 0 0 0 0 0 0 127 0"/><feOffset dy="-7.161818504333496" dx="4.958181858062744"/><feGaussianBlur stdDeviation="9.09000015258789"/><feComposite in2="hardAlpha" operator="arithmetic" k2="-1" k3="1"/><feColorMatrix type="matrix" values="0 0 0 0 0.5333333611488342 0 0 0 0 0.12156862765550613 0 0 0 0 0.11764705926179886 0 0 0 1 0"/><feBlend mode="normal" in2="effect9_innerShadow" result="effect10_innerShadow"/></filter><filter id="master_svgo_0_1327" filterUnits="objectBoundingBox" color-interpolation-filters="sRGB" x="-15.976363718509674" y="-10.467272698879242" width="59.02963066101074" height="59.02963066101074"><feFlood flood-opacity="0" result="BackgroundImageFix"/><feColorMatrix in="SourceAlpha" type="matrix" values="0 0 0 0 0 0 0 0 0 0 0 0 0 0 0 0 0 0 127 0"/><feOffset dy="0.5509091019630432" dx="-0.5509091019630432"/><feGaussianBlur stdDeviation="0.5509091019630432"/><feColorMatrix type="matrix" values="0 0 0 0 0.2708333432674408 0 0 0 0 0.022631261497735977 0 0 0 0 0.019184023141860962 0 0 0 1 0"/><feBlend mode="normal" in2="BackgroundImageFix" result="effect1_dropShadow"/><feColorMatrix in="SourceAlpha" type="matrix" values="0 0 0 0 0 0 0 0 0 0 0 0 0 0 0 0 0 0 127 0"/><feOffset dy="2.203636407852173" dx="-2.203636407852173"/><feGaussianBlur stdDeviation="2.7545454502105713"/><feColorMatrix type="matrix" values="0 0 0 0 0.3333333432674408 0 0 0 0 0.06805554032325745 0 0 0 0 0.10664136707782745 0 0 0 1 0"/><feBlend mode="normal" in2="effect1_dropShadow" result="effect2_dropShadow"/><feBlend mode="normal" in="SourceGraphic" in2="effect2_dropShadow" result="shape"/><feColorMatrix in="SourceAlpha" type="matrix" result="hardAlpha" values="0 0 0 0 0 0 0 0 0 0 0 0 0 0 0 0 0 0 127 0"/><feOffset dy="-3.8563637733459473" dx="0"/><feGaussianBlur stdDeviation="2.203636407852173"/><feComposite in2="hardAlpha" operator="arithmetic" k2="-1" k3="1"/><feColorMatrix type="matrix" values="0 0 0 0 0.5666666626930237 0 0 0 0 0.12277776002883911 0 0 0 0 0.12277776002883911 0 0 0 0.25999999046325684 0"/><feBlend mode="normal" in2="shape" result="effect3_innerShadow"/><feColorMatrix in="SourceAlpha" type="matrix" result="hardAlpha" values="0 0 0 0 0 0 0 0 0 0 0 0 0 0 0 0 0 0 127 0"/><feOffset dy="0" dx="1.1762259006500244"/><feGaussianBlur stdDeviation="1.1762259006500244"/><feComposite in2="hardAlpha" operator="arithmetic" k2="-1" k3="1"/><feColorMatrix type="matrix" values="0 0 0 0 1 0 0 0 0 1 0 0 0 0 1 0 0 0 0.25 0"/><feBlend mode="normal" in2="effect3_innerShadow" result="effect4_innerShadow"/><feColorMatrix in="SourceAlpha" type="matrix" result="hardAlpha" values="0 0 0 0 0 0 0 0 0 0 0 0 0 0 0 0 0 0 127 0"/><feOffset dy="0" dx="6.469242095947266"/><feGaussianBlur stdDeviation="4.704903602600098"/><feComposite in2="hardAlpha" operator="arithmetic" k2="-1" k3="1"/><feColorMatrix type="matrix" values="0 0 0 0 0.5916666388511658 0 0 0 0 0.4634721875190735 0 0 0 0 0.49952688813209534 0 0 0 0.699999988079071 0"/><feBlend mode="normal" in2="effect4_innerShadow" result="effect5_innerShadow"/></filter><filter id="master_svgp_0_1329" filterUnits="objectBoundingBox" color-interpolation-filters="sRGB" x="0" y="0" width="11.91261100769043" height="11.91261100769043"><feFlood flood-opacity="0" result="BackgroundImageFix"/><feBlend mode="normal" in="SourceGraphic" in2="BackgroundImageFix" result="shape"/><feColorMatrix in="SourceAlpha" type="matrix" result="hardAlpha" values="0 0 0 0 0 0 0 0 0 0 0 0 0 0 0 0 0 0 127 0"/><feOffset dy="0.5881129503250122" dx="-0.5881129503250122"/><feGaussianBlur stdDeviation="0.5881129503250122"/><feComposite in2="hardAlpha" operator="arithmetic" k2="-1" k3="1"/><feColorMatrix type="matrix" values="0 0 0 0 1 0 0 0 0 1 0 0 0 0 1 0 0 0 0.5 0"/><feBlend mode="normal" in2="shape" result="effect1_innerShadow"/></filter><filter id="master_svgq_0_1330" filterUnits="objectBoundingBox" color-interpolation-filters="sRGB" x="-5.881129264831543" y="-5.881129264831543" width="16.97402572631836" height="13.233873128890991"><feFlood flood-opacity="0" result="BackgroundImageFix"/><feBlend mode="normal" in="SourceGraphic" in2="BackgroundImageFix" result="shape"/><feGaussianBlur stdDeviation="1.4702823162078857" result="effect1_foregroundBlur"/></filter><filter id="master_svgr_0_1331" filterUnits="objectBoundingBox" color-interpolation-filters="sRGB" x="-1.1762259006500244" y="-1.1762259006500244" width="5.972564220428467" height="3.1270607709884644"><feFlood flood-opacity="0" result="BackgroundImageFix"/><feBlend mode="normal" in="SourceGraphic" in2="BackgroundImageFix" result="shape"/><feGaussianBlur stdDeviation="0.2940564751625061" result="effect1_foregroundBlur"/></filter><filter id="master_svgs_0_1333" filterUnits="objectBoundingBox" color-interpolation-filters="sRGB" x="-15.976363718509674" y="-10.467272698879242" width="59.02963066101074" height="59.02963066101074"><feFlood flood-opacity="0" result="BackgroundImageFix"/><feColorMatrix in="SourceAlpha" type="matrix" values="0 0 0 0 0 0 0 0 0 0 0 0 0 0 0 0 0 0 127 0"/><feOffset dy="0.5509091019630432" dx="-0.5509091019630432"/><feGaussianBlur stdDeviation="0.5509091019630432"/><feColorMatrix type="matrix" values="0 0 0 0 0.2708333432674408 0 0 0 0 0.022631261497735977 0 0 0 0 0.019184023141860962 0 0 0 1 0"/><feBlend mode="normal" in2="BackgroundImageFix" result="effect1_dropShadow"/><feColorMatrix in="SourceAlpha" type="matrix" values="0 0 0 0 0 0 0 0 0 0 0 0 0 0 0 0 0 0 127 0"/><feOffset dy="2.203636407852173" dx="-2.203636407852173"/><feGaussianBlur stdDeviation="2.7545454502105713"/><feColorMatrix type="matrix" values="0 0 0 0 0.3333333432674408 0 0 0 0 0.06805554032325745 0 0 0 0 0.10664136707782745 0 0 0 1 0"/><feBlend mode="normal" in2="effect1_dropShadow" result="effect2_dropShadow"/><feBlend mode="normal" in="SourceGraphic" in2="effect2_dropShadow" result="shape"/><feColorMatrix in="SourceAlpha" type="matrix" result="hardAlpha" values="0 0 0 0 0 0 0 0 0 0 0 0 0 0 0 0 0 0 127 0"/><feOffset dy="-3.8563637733459473" dx="0"/><feGaussianBlur stdDeviation="2.203636407852173"/><feComposite in2="hardAlpha" operator="arithmetic" k2="-1" k3="1"/><feColorMatrix type="matrix" values="0 0 0 0 0.5666666626930237 0 0 0 0 0.12277776002883911 0 0 0 0 0.12277776002883911 0 0 0 0.25999999046325684 0"/><feBlend mode="normal" in2="shape" result="effect3_innerShadow"/><feColorMatrix in="SourceAlpha" type="matrix" result="hardAlpha" values="0 0 0 0 0 0 0 0 0 0 0 0 0 0 0 0 0 0 127 0"/><feOffset dy="0" dx="1.1762259006500244"/><feGaussianBlur stdDeviation="1.1762259006500244"/><feComposite in2="hardAlpha" operator="arithmetic" k2="-1" k3="1"/><feColorMatrix type="matrix" values="0 0 0 0 1 0 0 0 0 1 0 0 0 0 1 0 0 0 0.25 0"/><feBlend mode="normal" in2="effect3_innerShadow" result="effect4_innerShadow"/><feColorMatrix in="SourceAlpha" type="matrix" result="hardAlpha" values="0 0 0 0 0 0 0 0 0 0 0 0 0 0 0 0 0 0 127 0"/><feOffset dy="0" dx="6.469242095947266"/><feGaussianBlur stdDeviation="4.704903602600098"/><feComposite in2="hardAlpha" operator="arithmetic" k2="-1" k3="1"/><feColorMatrix type="matrix" values="0 0 0 0 0.5916666388511658 0 0 0 0 0.4634721875190735 0 0 0 0 0.49952688813209534 0 0 0 0.699999988079071 0"/><feBlend mode="normal" in2="effect4_innerShadow" result="effect5_innerShadow"/></filter><filter id="master_svgt_0_1335" filterUnits="objectBoundingBox" color-interpolation-filters="sRGB" x="0" y="0" width="11.91261100769043" height="11.91261100769043"><feFlood flood-opacity="0" result="BackgroundImageFix"/><feBlend mode="normal" in="SourceGraphic" in2="BackgroundImageFix" result="shape"/><feColorMatrix in="SourceAlpha" type="matrix" result="hardAlpha" values="0 0 0 0 0 0 0 0 0 0 0 0 0 0 0 0 0 0 127 0"/><feOffset dy="0.5881129503250122" dx="-0.5881129503250122"/><feGaussianBlur stdDeviation="0.5881129503250122"/><feComposite in2="hardAlpha" operator="arithmetic" k2="-1" k3="1"/><feColorMatrix type="matrix" values="0 0 0 0 1 0 0 0 0 1 0 0 0 0 1 0 0 0 0.5 0"/><feBlend mode="normal" in2="shape" result="effect1_innerShadow"/></filter><filter id="master_svgu_0_1336" filterUnits="objectBoundingBox" color-interpolation-filters="sRGB" x="-5.881129264831543" y="-5.881129264831543" width="16.97402572631836" height="13.233873128890991"><feFlood flood-opacity="0" result="BackgroundImageFix"/><feBlend mode="normal" in="SourceGraphic" in2="BackgroundImageFix" result="shape"/><feGaussianBlur stdDeviation="1.4702823162078857" result="effect1_foregroundBlur"/></filter><filter id="master_svgv_0_1337" filterUnits="objectBoundingBox" color-interpolation-filters="sRGB" x="-1.1762259006500244" y="-1.1762259006500244" width="5.972564220428467" height="3.1270607709884644"><feFlood flood-opacity="0" result="BackgroundImageFix"/><feBlend mode="normal" in="SourceGraphic" in2="BackgroundImageFix" result="shape"/><feGaussianBlur stdDeviation="0.2940564751625061" result="effect1_foregroundBlur"/></filter><filter id="master_svgw_0_1338" filterUnits="objectBoundingBox" color-interpolation-filters="sRGB" x="-1.6527273058891296" y="-0.5509091019630432" width="123.44078850746155" height="14.714798212051392"><feFlood flood-opacity="0" result="BackgroundImageFix"/><feColorMatrix in="SourceAlpha" type="matrix" values="0 0 0 0 0 0 0 0 0 0 0 0 0 0 0 0 0 0 127 0"/><feOffset dy="0.5509091019630432" dx="-0.5509091019630432"/><feGaussianBlur stdDeviation="0.2754545509815216"/><feColorMatrix type="matrix" values="0 0 0 0 0.42916667461395264 0 0 0 0 0.07793746143579483 0 0 0 0 0.07331597805023193 0 0 0 1 0"/><feBlend mode="normal" in2="BackgroundImageFix" result="effect1_dropShadow"/><feBlend mode="normal" in="SourceGraphic" in2="effect1_dropShadow" result="shape"/><feColorMatrix in="SourceAlpha" type="matrix" result="hardAlpha" values="0 0 0 0 0 0 0 0 0 0 0 0 0 0 0 0 0 0 127 0"/><feOffset dy="1.1018182039260864" dx="0"/><feGaussianBlur stdDeviation="0.5509091019630432"/><feComposite in2="hardAlpha" operator="arithmetic" k2="-1" k3="1"/><feColorMatrix type="matrix" values="0 0 0 0 1 0 0 0 0 1 0 0 0 0 1 0 0 0 0.2800000011920929 0"/><feBlend mode="normal" in2="shape" result="effect2_innerShadow"/></filter><filter id="master_svgx_0_1340" filterUnits="objectBoundingBox" color-interpolation-filters="sRGB" x="0" y="0" width="30.424549102783203" height="66.35907745361328"><feFlood flood-opacity="0" result="BackgroundImageFix"/><feBlend mode="normal" in="SourceGraphic" in2="BackgroundImageFix" result="shape"/><feColorMatrix in="SourceAlpha" type="matrix" result="hardAlpha" values="0 0 0 0 0 0 0 0 0 0 0 0 0 0 0 0 0 0 127 0"/><feOffset dy="1.6527273654937744" dx="-1.6527273654937744"/><feGaussianBlur stdDeviation="3.305454730987549"/><feComposite in2="hardAlpha" operator="arithmetic" k2="-1" k3="1"/><feColorMatrix type="matrix" values="0 0 0 0 1 0 0 0 0 0.875 0 0 0 0 0.875 0 0 0 1 0"/><feBlend mode="normal" in2="shape" result="effect1_innerShadow"/><feColorMatrix in="SourceAlpha" type="matrix" result="hardAlpha" values="0 0 0 0 0 0 0 0 0 0 0 0 0 0 0 0 0 0 127 0"/><feOffset dy="-9.36545467376709" dx="12.67090892791748"/><feGaussianBlur stdDeviation="7.437273025512695"/><feComposite in2="hardAlpha" operator="arithmetic" k2="-1" k3="1"/><feColorMatrix type="matrix" values="0 0 0 0 0.6916666626930237 0 0 0 0 0.10663193464279175 0 0 0 0 0.11921331286430359 0 0 0 1 0"/><feBlend mode="normal" in2="effect1_innerShadow" result="effect2_innerShadow"/></filter><filter id="master_svgy_0_1342" filterUnits="objectBoundingBox" color-interpolation-filters="sRGB" x="0" y="0" width="30.332901000976562" height="66.35907745361328"><feFlood flood-opacity="0" result="BackgroundImageFix"/><feBlend mode="normal" in="SourceGraphic" in2="BackgroundImageFix" result="shape"/><feColorMatrix in="SourceAlpha" type="matrix" result="hardAlpha" values="0 0 0 0 0 0 0 0 0 0 0 0 0 0 0 0 0 0 127 0"/><feOffset dy="1.6527273654937744" dx="-1.6527273654937744"/><feGaussianBlur stdDeviation="3.305454730987549"/><feComposite in2="hardAlpha" operator="arithmetic" k2="-1" k3="1"/><feColorMatrix type="matrix" values="0 0 0 0 1 0 0 0 0 0.875 0 0 0 0 0.875 0 0 0 1 0"/><feBlend mode="normal" in2="shape" result="effect1_innerShadow"/><feColorMatrix in="SourceAlpha" type="matrix" result="hardAlpha" values="0 0 0 0 0 0 0 0 0 0 0 0 0 0 0 0 0 0 127 0"/><feOffset dy="-9.36545467376709" dx="12.67090892791748"/><feGaussianBlur stdDeviation="7.437273025512695"/><feComposite in2="hardAlpha" operator="arithmetic" k2="-1" k3="1"/><feColorMatrix type="matrix" values="0 0 0 0 0.6916666626930237 0 0 0 0 0.10663193464279175 0 0 0 0 0.11921331286430359 0 0 0 1 0"/><feBlend mode="normal" in2="effect1_innerShadow" result="effect2_innerShadow"/></filter><mask id="master_svgz_0_1342"><g style="mix-blend-mode:passthrough" filter="url(#master_svgy_0_1342)"><path d="M196.31406318969726,228.8248510437012C200.62896318969726,213.48315104370118,182.39716318969727,184.74375104370117,172.74191318969727,172.29185104370117C171.01060318969726,186.40855104370118,170.87570318969728,203.66235104370116,166.94873618969726,225.02945104370116C165.44410318969727,233.21665104370118,169.67884318969726,232.62035104370116,171.34354318969727,231.22215104370116C171.14378318969727,233.61945104370116,190.92046318969727,248.00235104370117,196.31406318969726,228.8248510437012C196.31406318969726,228.8248510437012,196.31406318969726,228.8248510437012,196.31406318969726,228.8248510437012Z" fill="#FFFFFF" fill-opacity="1"/></g></mask><filter id="master_svg10_0_1343" filterUnits="objectBoundingBox" color-interpolation-filters="sRGB" x="0" y="0" width="25.85417938232422" height="18.606229782104492"><feFlood flood-opacity="0" result="BackgroundImageFix"/><feBlend mode="normal" in="SourceGraphic" in2="BackgroundImageFix" result="shape"/><feColorMatrix in="SourceAlpha" type="matrix" result="hardAlpha" values="0 0 0 0 0 0 0 0 0 0 0 0 0 0 0 0 0 0 127 0"/><feOffset dy="-5.509090900421143" dx="2.7545454502105713"/><feGaussianBlur stdDeviation="3.580909252166748"/><feComposite in2="hardAlpha" operator="arithmetic" k2="-1" k3="1"/><feColorMatrix type="matrix" values="0 0 0 0 0.7875000238418579 0 0 0 0 0.37379997968673706 0 0 0 0 0.14109373092651367 0 0 0 1 0"/><feBlend mode="normal" in2="shape" result="effect1_innerShadow"/></filter><filter id="master_svg11_0_1344" filterUnits="objectBoundingBox" color-interpolation-filters="sRGB" x="-17.629091262817383" y="-17.629091262817383" width="48.83734130859375" height="89.40761184692383"><feFlood flood-opacity="0" result="BackgroundImageFix"/><feBlend mode="normal" in="SourceGraphic" in2="BackgroundImageFix" result="shape"/><feGaussianBlur stdDeviation="4.407272815704346" result="effect1_foregroundBlur"/></filter><filter id="master_svg12_0_1345" filterUnits="objectBoundingBox" color-interpolation-filters="sRGB" x="-4.407272815704346" y="-4.407272815704346" width="19.022467613220215" height="65.95390033721924"><feFlood flood-opacity="0" result="BackgroundImageFix"/><feBlend mode="normal" in="SourceGraphic" in2="BackgroundImageFix" result="shape"/><feGaussianBlur stdDeviation="1.1018182039260864" result="effect1_foregroundBlur"/></filter><filter id="master_svg13_0_1346" filterUnits="objectBoundingBox" color-interpolation-filters="sRGB" x="-4.407272815704346" y="-4.407272815704346" width="15.177169799804688" height="53.481369972229004"><feFlood flood-opacity="0" result="BackgroundImageFix"/><feBlend mode="normal" in="SourceGraphic" in2="BackgroundImageFix" result="shape"/><feGaussianBlur stdDeviation="1.1018182039260864" result="effect1_foregroundBlur"/></filter><mask id="master_svg14_0_1348"><g style="mix-blend-mode:passthrough"><path d="M172.8481970275879,172.45031211791994C172.8241970275879,172.19841211791993,172.60369702758788,168.92961211791993,172.49649702758788,167.32670211791992C140.9746970275879,167.32670211791992,155.0700870275879,184.66060211791992,166.4089970275879,194.81290211791992C177.7479970275879,204.96530211791992,182.8999970275879,189.35050211791992,182.2407970275879,186.71350211791992C181.5815970275879,184.07660211791992,172.8781970275879,172.76519211791992,172.8481970275879,172.45031211791994C172.8481970275879,172.45031211791994,172.8481970275879,172.45031211791994,172.8481970275879,172.45031211791994Z" fill="#FFFFFF" fill-opacity="1"/></g></mask><filter id="master_svg15_0_1349" filterUnits="objectBoundingBox" color-interpolation-filters="sRGB" x="-11.018181800842285" y="-11.018181800842285" width="36.91037368774414" height="45.912071228027344"><feFlood flood-opacity="0" result="BackgroundImageFix"/><feBlend mode="normal" in="SourceGraphic" in2="BackgroundImageFix" result="shape"/><feGaussianBlur stdDeviation="2.7545454502105713" result="effect1_foregroundBlur"/></filter><filter id="master_svg16_0_1351" filterUnits="objectBoundingBox" color-interpolation-filters="sRGB" x="-2.754545509815216" y="-1.6527273058891296" width="48.38975954055786" height="48.38975954055786"><feFlood flood-opacity="0" result="BackgroundImageFix"/><feColorMatrix in="SourceAlpha" type="matrix" values="0 0 0 0 0 0 0 0 0 0 0 0 0 0 0 0 0 0 127 0"/><feOffset dy="0.5509091019630432" dx="-0.5509091019630432"/><feGaussianBlur stdDeviation="0.5509091019630432"/><feColorMatrix type="matrix" values="0 0 0 0 0.5874999761581421 0 0 0 0 0.07970655709505081 0 0 0 0 0.07343751192092896 0 0 0 1 0"/><feBlend mode="normal" in2="BackgroundImageFix" result="effect1_dropShadow"/><feBlend mode="normal" in="SourceGraphic" in2="effect1_dropShadow" result="shape"/><feColorMatrix in="SourceAlpha" type="matrix" result="hardAlpha" values="0 0 0 0 0 0 0 0 0 0 0 0 0 0 0 0 0 0 127 0"/><feOffset dy="0" dx="1.1762259006500244"/><feGaussianBlur stdDeviation="1.1762259006500244"/><feComposite in2="hardAlpha" operator="arithmetic" k2="-1" k3="1"/><feColorMatrix type="matrix" values="0 0 0 0 1 0 0 0 0 1 0 0 0 0 1 0 0 0 0.25 0"/><feBlend mode="normal" in2="shape" result="effect2_innerShadow"/><feColorMatrix in="SourceAlpha" type="matrix" result="hardAlpha" values="0 0 0 0 0 0 0 0 0 0 0 0 0 0 0 0 0 0 127 0"/><feOffset dy="0" dx="6.469242095947266"/><feGaussianBlur stdDeviation="4.704903602600098"/><feComposite in2="hardAlpha" operator="arithmetic" k2="-1" k3="1"/><feColorMatrix type="matrix" values="0 0 0 0 0.8125 0 0 0 0 0.39206352829933167 0 0 0 0 0.2606770992279053 0 0 0 1 0"/><feBlend mode="normal" in2="effect2_innerShadow" result="effect3_innerShadow"/></filter><filter id="master_svg17_0_1352" filterUnits="objectBoundingBox" color-interpolation-filters="sRGB" x="-10.362810015678406" y="-7.60826450586319" width="36.053826332092285" height="44.34191417694092"><feFlood flood-opacity="0" result="BackgroundImageFix"/><feColorMatrix in="SourceAlpha" type="matrix" values="0 0 0 0 0 0 0 0 0 0 0 0 0 0 0 0 0 0 127 0"/><feOffset dy="0.5509091019630432" dx="0"/><feGaussianBlur stdDeviation="0.5509091019630432"/><feColorMatrix type="matrix" values="0 0 0 0 0 0 0 0 0 0 0 0 0 0 0 0 0 0 0.25 0"/><feBlend mode="normal" in2="BackgroundImageFix" result="effect1_dropShadow"/><feColorMatrix in="SourceAlpha" type="matrix" values="0 0 0 0 0 0 0 0 0 0 0 0 0 0 0 0 0 0 127 0"/><feOffset dy="1.1018182039260864" dx="-1.1018182039260864"/><feGaussianBlur stdDeviation="1.7643388509750366"/><feColorMatrix type="matrix" values="0 0 0 0 0.27843138575553894 0 0 0 0 0.1921568363904953 0 0 0 0 0.09019607305526733 0 0 0 0.4000000059604645 0"/><feBlend mode="normal" in2="effect1_dropShadow" result="effect2_dropShadow"/><feBlend mode="normal" in="SourceGraphic" in2="effect2_dropShadow" result="shape"/><feColorMatrix in="SourceAlpha" type="matrix" result="hardAlpha" values="0 0 0 0 0 0 0 0 0 0 0 0 0 0 0 0 0 0 127 0"/><feOffset dy="-1.1018182039260864" dx="0"/><feGaussianBlur stdDeviation="1.6527273654937744"/><feComposite in2="hardAlpha" operator="arithmetic" k2="-1" k3="1"/><feColorMatrix type="matrix" values="0 0 0 0 0.7208333611488342 0 0 0 0 0.7208333611488342 0 0 0 0 0.7208333611488342 0 0 0 1 0"/><feBlend mode="normal" in2="shape" result="effect3_innerShadow"/><feColorMatrix in="SourceAlpha" type="matrix" result="hardAlpha" values="0 0 0 0 0 0 0 0 0 0 0 0 0 0 0 0 0 0 127 0"/><feOffset dy="-1.1018182039260864" dx="0"/><feGaussianBlur stdDeviation="1.3772727251052856"/><feComposite in2="hardAlpha" operator="arithmetic" k2="-1" k3="1"/><feColorMatrix type="matrix" values="0 0 0 0 0.8583333492279053 0 0 0 0 0.8583333492279053 0 0 0 0 0.8583333492279053 0 0 0 1 0"/><feBlend mode="normal" in2="effect3_innerShadow" result="effect4_innerShadow"/></filter></defs><g style="mix-blend-mode:passthrough"><g style="mix-blend-mode:passthrough"><ellipse cx="124" cy="124" rx="124" ry="124" fill="#FFB7B7" fill-opacity="1"/></g><g style="mix-blend-mode:passthrough" mask="url(#master_svg0_0_1299)"><g style="mix-blend-mode:passthrough" filter="url(#master_svg1_0_1301)"><g style="mix-blend-mode:passthrough"><g style="mix-blend-mode:passthrough" filter="url(#master_svg2_0_1303)"><ellipse cx="121.7371940612793" cy="260.53651237487793" rx="75.2266616821289" ry="4.133333206176758" fill="#B76A69" fill-opacity="1"/></g><g style="mix-blend-mode:passthrough" filter="url(#master_svg3_0_1304)"><path d="M162.8733527404785,258.7017373718262C162.8733527404785,261.0508973718262,164.93175274047852,262.43473737182615,127.7422527404785,262.43473737182615C93.66626274047852,262.43473737182615,84.15265274047852,258.14303737182615,84.15265274047852,256.89953737182617C84.15265274047852,253.10669037182618,86.53853274047852,254.19862737182618,135.4271527404785,254.19862637182618C169.2172527404785,254.19862637182618,162.8733527404785,256.3525473718262,162.8733527404785,258.7017373718262C162.8733527404785,258.7017373718262,162.8733527404785,258.7017373718262,162.8733527404785,258.7017373718262Z" fill="#A06766" fill-opacity="1"/></g><g style="mix-blend-mode:passthrough" transform="matrix(0.9818266034126282,0.1897798776626587,-0.18977989256381989,0.9818267226219177,49.26586331191896,-13.316758069322304)" filter="url(#master_svg4_0_1305)"><path d="M116.84483770141601,250.76578757495116C116.84483770141601,251.21209357495118,113.28073770141602,254.80577557495118,104.48593770141602,255.81590557495116C94.16474713384602,256.8260455749512,94.16473770141602,255.25207557495116,94.16473770141602,254.80577557495118C94.16473770141602,254.35947557495118,94.28704370141601,254.34396557495117,106.49013770141602,252.12323557495117C114.71753770141602,250.62603597495118,116.84483770141601,250.31948457495116,116.84483770141601,250.76578757495116C116.84483770141601,250.76578757495116,116.84483770141601,250.76578757495116,116.84483770141601,250.76578757495116Z" fill="#3C0102" fill-opacity="1"/></g><g style="mix-blend-mode:passthrough" transform="matrix(0.981826663017273,0.1897798776626587,-0.18977989256381989,0.981826663017273,50.20289563181876,-21.729939208203177)" filter="url(#master_svg5_0_1306)"><path d="M159.91247139282225,253.56722073120116C159.91247139282225,254.39997073120117,158.63567139282227,253.78335073120118,154.96477139282226,254.40473073120117C141.20103139282227,259.43811073120116,138.56177537918228,256.1786407312012,138.56177537918228,255.34590073120117C138.56177537918228,254.51316073120117,138.50025309282228,253.16321073120116,153.66307139282227,251.50773973120118C162.58907139282226,250.53320473120118,159.91247139282225,252.73449073120116,159.91247139282225,253.56722073120116C159.91247139282225,253.56722073120116,159.91247139282225,253.56722073120116,159.91247139282225,253.56722073120116Z" fill="#521515" fill-opacity="1"/></g></g><g style="mix-blend-mode:passthrough" filter="url(#master_svg6_0_1307)"><path d="M77.307288092041,179.50005084838867C-0.054411907958986205,160.45355084838866,50.16938809204102,121.03362084838867,50.50388809204102,118.02415084838867C97.576988092041,132.72695084838867,160.128888092041,165.36825084838867,171.51688809204103,158.5777508483887C171.749888092041,155.82465084838867,172.35488809204102,154.93725084838866,172.91488809204102,173.4124508483887C173.613888092041,196.50735084838868,164.86688809204102,240.24615084838865,164.51688809204103,245.84515084838867C164.166888092041,251.44415084838866,148.41988809204102,262.29115084838867,135.82388809204102,251.09415084838867C123.22678809204102,239.8961508483887,123.22678809204102,250.39415084838868,112.72928809204102,254.24315084838867C102.23168809204101,258.09215084838866,94.55968809204101,256.53915084838866,85.86588809204102,243.16415084838866C77.17188809204102,229.78815084838868,88.55958809204103,182.2704508483887,77.307288092041,179.50005084838867C77.307288092041,179.50005084838867,77.307288092041,179.50005084838867,77.307288092041,179.50005084838867Z" fill="#D3312F" fill-opacity="1"/></g><g style="mix-blend-mode:passthrough" mask="url(#master_svg8_0_1309)"><g style="mix-blend-mode:passthrough" filter="url(#master_svg9_0_1310)"><path d="M120.63144541625977,250.43647397338867C102.57284541625977,257.44195397338865,89.36616541625976,249.85268397338868,85.02014541625977,245.18235397338867C85.02014541625977,245.18235397338867,85.99313741625977,258.41495397338866,85.99313741625977,258.41495397338866C85.99313741625977,258.41495397338866,166.16734541625976,258.41495397338866,166.16734541625976,258.41495397338866C166.16734541625976,258.41495397338866,166.16734541625976,246.93374397338866,166.16734541625976,246.93374397338866C153.24604541625976,256.11875397338866,138.98844541625976,253.09597397338868,133.47484541625977,250.43647397338867C133.47484541625977,250.43647397338867,120.63144541625977,250.43647397338867,120.63144541625977,250.43647397338867C120.63144541625977,250.43647397338867,120.63144541625977,250.43647397338867,120.63144541625977,250.43647397338867Z" fill="#881718" fill-opacity="1"/></g><g style="mix-blend-mode:passthrough" filter="url(#master_svga_0_1311)"><path d="M87.69032139282227,180.11415944213869C86.71942139282227,172.70695944213867,76.13756139282226,175.24833004213866,70.96802139282227,177.44490944213868C70.96802139282227,177.44490944213868,76.22745139282226,184.95218944213866,76.22745139282226,184.95218944213866C80.45297139282226,186.42585944213866,88.66132139282226,187.52135944213867,87.69032139282227,180.11415944213869C87.69032139282227,180.11415944213869,87.69032139282227,180.11415944213869,87.69032139282227,180.11415944213869Z" fill="#991E1D" fill-opacity="1"/></g><g style="mix-blend-mode:passthrough" filter="url(#master_svgb_0_1312)"><path d="M80.40176080688477,178.03806686402544C77.63474080688476,178.03806243164368,75.36177280688477,179.28981686401366,74.57117080688477,179.91568686401368C75.23000180688477,181.59568686401366,77.31848080688476,184.56040686401366,80.40176080688477,182.97922686401367C84.25590080688477,181.00276686401367,83.86053080688477,178.03807240451368,80.40176080688477,178.03806686402544C80.40176080688477,178.03806686402544,80.40176080688477,178.03806686402544,80.40176080688477,178.03806686402544Z" fill="#871514" fill-opacity="1"/></g><g style="opacity:0.4000000059604645;mix-blend-mode:passthrough" filter="url(#master_svgc_0_1313)"><path d="M83.32375254516602,168.36237545776368C83.33375254516602,168.33797545776366,83.34365254516601,168.31127545776368,83.35325254516601,168.28237545776366C83.35325254516601,168.28237545776366,65.32245254516602,153.37937545776367,65.32245254516602,153.37937545776367C65.32245254516602,153.37937545776367,102.70735254516602,158.94739545776366,102.70735254516602,158.94739545776366C120.25345254516601,157.08642545776368,158.57595254516602,154.08231845776368,171.49645254516602,156.95350545776367C187.64645254516603,160.54247545776366,170.61545254516602,164.30607545776368,167.43545254516602,165.72657545776366C162.37915254516602,167.9859754577637,168.387452545166,173.50267545776367,162.20615254516602,176.89227545776367C156.02545254516602,180.28187545776368,159.49245254516603,166.52457545776366,148.11695254516601,168.28237545776366C137.400652545166,169.93827545776367,142.185952545166,180.87997545776366,137.400652545166,179.68367545776368C132.61535254516602,178.48737545776368,132.01735254516603,176.89227545776367,129.026552545166,179.68367545776368C126.03565254516602,182.47517545776367,122.845252545166,187.65927545776367,123.044752545166,180.87997545776366C123.244252545166,174.10087545776366,121.25035254516601,165.72657545776366,116.06625254516601,174.30027545776366C110.88215254516601,182.87397545776366,106.15365254516601,180.33137545776367,104.90055254516602,176.89227545776367C100.83215254516602,165.72657545776366,98.43955254516601,178.59877545776368,90.34525254516602,172.30637545776366C85.72915254516602,168.71777545776368,83.93005254516602,168.26177545776366,83.32375254516602,168.36237545776368C82.84145254516602,168.44247545776366,83.11405254516602,168.87487545776366,83.32375254516602,168.36237545776368C83.32375254516602,168.36237545776368,83.32375254516602,168.36237545776368,83.32375254516602,168.36237545776368Z" fill="#7C1817" fill-opacity="1"/></g><g style="opacity:0.4000000059604645;mix-blend-mode:passthrough" filter="url(#master_svgd_0_1314)"><path d="M90.08240479125976,169.23271139526366C71.65500479125977,166.13971139526367,56.57606479125977,149.34121139526368,62.131464791259766,147.88621139526367C62.131464791259766,147.88621139526367,168.63250479125975,161.80211139526367,168.63250479125975,161.80211139526367C168.80050479125975,162.69041139526368,169.03450479125976,164.46681139526368,168.63250479125975,164.46681139526368C168.13250479125975,164.46681139526368,165.05250479125976,169.24841139526367,162.88050479125977,170.08371139526366C160.70850479125977,170.9192113952637,157.11640479125975,170.08371139526366,153.60800479125976,170.08371139526366C150.09910479125978,170.08371139526366,147.41410479125977,171.4928113952637,144.40670479125976,172.80711139526366C141.39930479125977,174.12141139526366,137.20860479125975,170.62471139526366,135.01740479125976,173.8284113952637C132.53300479125977,177.46081139526368,125.62210479125977,179.00881139526368,125.45180479125976,175.77481139526367C125.28150479125976,172.54081139526366,113.06060479125976,168.21151139526367,111.01810479125976,170.08371139526366C108.97560479125977,171.95601139526366,106.59260479125976,174.33901139526367,105.40120479125977,172.80711139526366C104.20970479125977,171.27521139526368,102.50760479125977,169.23271139526366,101.65660479125977,168.21151139526367C100.80550479125976,167.19021139526367,94.61770479125977,169.99401139526367,90.08240479125976,169.23271139526366C90.08240479125976,169.23271139526366,90.08240479125976,169.23271139526366,90.08240479125976,169.23271139526366Z" fill="#631817" fill-opacity="1"/></g><g style="mix-blend-mode:passthrough" filter="url(#master_svge_0_1315)"><path d="M161.77122265258788,194.13766725463867C163.0271526525879,175.71767725463866,170.7834626525879,172.91513725463867,172.7603626525879,171.63596725463867C172.4115626525879,185.93936725463868,171.05096265258788,216.56956725463868,168.3996626525879,224.66326725463867C165.0854626525879,234.78006725463868,153.39853165258788,238.79216725463868,154.44512415258788,236.87316725463867C155.4917126525879,234.95476725463868,160.20138265258788,217.16266725463868,161.77122265258788,194.13766725463867C161.77122265258788,194.13766725463867,161.77122265258788,194.13766725463867,161.77122265258788,194.13766725463867Z" fill="#C12422" fill-opacity="1"/></g><g style="mix-blend-mode:passthrough" filter="url(#master_svgf_0_1316)"><path d="M170.32494166625978,178.17689545776366C170.69799166625975,172.84452545776367,176.33480166625978,168.94954545776366,176.33480166625978,173.43674545776366C175.36380166625977,194.95212545776366,170.08102166625977,228.66742545776367,167.93553166625978,229.83802545776368C165.25364166625977,231.30122545776368,166.82440166625977,233.94492545776367,163.91273166625976,229.83802545776368C160.71495166625976,225.3272254577637,165.83354166625978,222.36642545776368,166.29978166625978,218.52652545776368C166.76603166625978,214.68672545776366,166.36640166625978,210.2998254577637,166.29980166625975,205.80792545776367C166.23319166625976,201.31592545776368,168.60162166625977,199.71322545776368,167.93553166625978,194.56922545776368C167.26947166625976,189.42522545776367,169.85870166625978,184.84232545776368,170.32494166625978,178.17689545776366C170.32494166625978,178.17689545776366,170.32494166625978,178.17689545776366,170.32494166625978,178.17689545776366Z" fill="#721011" fill-opacity="1"/></g><g style="mix-blend-mode:passthrough" filter="url(#master_svgg_0_1317)"><path d="M55.74503297875977,151.55506139526366C53.486426978759766,149.76546139526369,55.744993978759766,143.41748139526368,59.770046978759765,141.22996139526367C64.60991697875977,141.22996139526367,81.95444697875976,159.00126139526367,78.05574697875977,159.47226139526367C74.15694697875976,159.94316139526367,70.47464697875976,159.08186139526367,67.38254697875976,155.66756139526368C64.29043697875977,152.25326139526368,58.568286978759765,153.79196139526368,55.74503297875977,151.55506139526366C55.74503297875977,151.55506139526366,55.74503297875977,151.55506139526366,55.74503297875977,151.55506139526366Z" fill="#881615" fill-opacity="1"/></g></g><g style="mix-blend-mode:passthrough"><g style="mix-blend-mode:passthrough" filter="url(#master_svgh_0_1319)"><path d="M101.67848076782226,171.47440436401368C80.61282076782227,166.00440436401368,76.15646076782227,159.88385436401367,77.33540576782227,157.42336436401368C109.01378076782227,152.86127436401367,172.43688076782226,145.79452436401368,174.15918076782225,156.74351436401366C175.88138076782226,167.69250436401367,129.51238076782226,178.70200436401367,101.67848076782226,171.47440436401368C101.67848076782226,171.47440436401368,101.67848076782226,171.47440436401368,101.67848076782226,171.47440436401368Z" fill="#6C1A19" fill-opacity="1"/></g><g style="mix-blend-mode:passthrough" filter="url(#master_svgi_0_1320)"><path d="M63.32198042602539,62.99728717651367C63.93758042602539,60.22738717651367,75.6328804260254,52.353487176513674,81.4034804260254,48.76286717651367C138.3411804260254,26.064787176513672,178.4872804260254,50.34468717651367,182.19828042602538,52.225287176513675C186.7362804260254,54.524087176513675,184.8912804260254,62.99728717651367,196.4322804260254,66.84438717651366C207.9742804260254,70.69158717651368,209.8982804260254,83.00238717651368,213.36028042602538,94.54368717651367C216.8222804260254,106.08498717651368,210.28228042602538,141.86388717651369,172.58028042602538,161.86888717651368C134.8785804260254,181.87388717651368,86.78948042602539,168.02488717651366,78.32578042602539,161.86888717651368C69.86208042602539,155.71288717651368,48.70284042602539,140.32488717651367,42.54740042602539,116.08768717651367C36.39197042602539,91.85078717651368,48.31811042602539,75.30808717651368,50.62639042602539,73.76928717651367C52.934680426025395,72.23048717651366,62.552580426025386,66.45968717651367,63.32198042602539,62.99728717651367C63.32198042602539,62.99728717651367,63.32198042602539,62.99728717651367,63.32198042602539,62.99728717651367Z" fill="#6ADEDF" fill-opacity="1"/></g><g style="opacity:0.5;mix-blend-mode:passthrough" mask="url(#master_svgk_0_1322)"><g style="mix-blend-mode:passthrough" filter="url(#master_svgl_0_1323)"><path d="M53.32216040844727,136.98975436401366C48.564922408447266,133.70059436401368,66.63401240844726,159.61515436401368,69.56941240844726,161.68725436401368C85.36871240844727,182.14865436401368,164.83281240844727,171.44975436401367,170.78981240844726,170.15475436401368C175.55581240844725,169.11875436401368,214.12581240844727,124.65478436401366,202.26281240844727,131.88796436401367C161.98381240844725,156.44825436401368,66.33641240844727,145.98775436401368,53.32216040844727,136.98975436401366C53.32216040844727,136.98975436401366,53.32216040844727,136.98975436401366,53.32216040844727,136.98975436401366Z" fill="url(#master_svgm__05)" fill-opacity="1"/></g></g><g style="mix-blend-mode:passthrough" filter="url(#master_svgn_0_1324)"><path d="M56.651261021728516,82.84668131713867C64.01454102172852,71.44558131713868,73.77364102172851,68.21490131713867,77.6340410217285,66.77881131713868C97.17284102172852,59.510257317138674,173.8876410217285,52.99238131713867,193.5716410217285,73.49738131713868C208.5646410217285,89.11538131713867,203.6056410217285,117.29798131713866,184.90164102172852,127.68978131713867C166.19564102172853,138.08148131713867,95.73924102172852,138.54168131713868,72.67144102172851,132.14328131713867C54.35439102172852,127.06258131713867,47.44723102172851,97.09808131713868,56.651261021728516,82.84668131713867C56.651261021728516,82.84668131713867,56.651261021728516,82.84668131713867,56.651261021728516,82.84668131713867Z" fill="#D3312F" fill-opacity="1"/></g></g><g style="mix-blend-mode:passthrough"><g style="mix-blend-mode:passthrough"><g style="mix-blend-mode:passthrough" filter="url(#master_svgo_0_1327)"><ellipse cx="83.9759464263916" cy="105.05441474914551" rx="18.496633529663086" ry="18.496633529663086" fill="#FFFFFF" fill-opacity="1"/></g><g style="mix-blend-mode:passthrough" transform="matrix(0.2588190734386444,0.9659258127212524,-0.9659258127212524,0.2588190734386444,159.79165875412798,-12.725095659531462)"><g style="mix-blend-mode:passthrough" transform="matrix(1,-1.6461244811694087e-8,1.6461244811694087e-8,1,-0.000001609246808698117,0.0000014516787274487797)" filter="url(#master_svgp_0_1329)"><ellipse cx="94.14396953582764" cy="103.71603298187256" rx="5.956305503845215" ry="5.956305503845215" fill="#292929" fill-opacity="1"/></g><g style="mix-blend-mode:passthrough" transform="matrix(0.775951087474823,-0.6307930946350098,0.6307930946350098,0.7759510278701782,-42.949931298533784,82.66108841582809)" filter="url(#master_svgq_0_1330)"><ellipse cx="97.49398708343506" cy="102.5275171995163" rx="2.6058835983276367" ry="0.7358072996139526" fill="#FFFFFF" fill-opacity="1"/></g><g style="mix-blend-mode:passthrough" transform="matrix(0.7759510278701782,-0.6307930946350098,0.6307931542396545,0.775951087474823,-42.45786078329638,83.47347319227401)" filter="url(#master_svgr_0_1331)"><ellipse cx="98.08780813217163" cy="101.89251536130905" rx="1.810056209564209" ry="0.38730448484420776" fill="#FFFFFF" fill-opacity="1"/></g></g></g><g style="mix-blend-mode:passthrough"><g style="mix-blend-mode:passthrough" filter="url(#master_svgs_0_1333)"><ellipse cx="172.95443153381348" cy="105.05441474914551" rx="18.496633529663086" ry="18.496633529663086" fill="#FFFFFF" fill-opacity="1"/></g><g style="mix-blend-mode:passthrough" transform="matrix(0.2588190734386444,0.9659258127212524,-0.9659258127212524,0.2588190734386444,225.7408092083018,-98.67187940339102)"><g style="mix-blend-mode:passthrough" transform="matrix(1,-1.6461244811694087e-8,1.6461244811694087e-8,1,-0.0000016092453734017909,0.000002916377113137969)" filter="url(#master_svgt_0_1335)"><ellipse cx="183.12256145477295" cy="103.71594524383545" rx="5.956305503845215" ry="5.956305503845215" fill="#292929" fill-opacity="1"/></g><g style="mix-blend-mode:passthrough" transform="matrix(0.775951087474823,-0.6307930946350098,0.6307930946350098,0.7759510278701782,-23.014264497083104,138.7883041132486)" filter="url(#master_svgu_0_1336)"><ellipse cx="186.47282314300537" cy="102.52742946147919" rx="2.6058835983276367" ry="0.7358072996139526" fill="#FFFFFF" fill-opacity="1"/></g><g style="mix-blend-mode:passthrough" transform="matrix(0.7759510278701782,-0.6307930946350098,0.6307931542396545,0.775951087474823,-22.522243377744644,139.6005348874794)" filter="url(#master_svgv_0_1337)"><ellipse cx="187.06640005111694" cy="101.89242762327194" rx="1.810056209564209" ry="0.38730448484420776" fill="#FFFFFF" fill-opacity="1"/></g></g></g><g style="mix-blend-mode:passthrough" filter="url(#master_svgw_0_1338)"><path d="M67.34425812329101,84.17733385620117C65.63066512329101,82.21899385620117,68.96449512329102,81.05334385620117,70.73841512329102,80.57740385620117C74.92043512329101,79.45538385620117,84.51089512329102,76.83336385620117,88.91729512329101,74.99735585620117C94.42539512329101,72.70234385620117,94.27229512329102,74.99736185620117,91.51829512329101,77.29237385620117C88.76429512329102,79.58738385620117,69.48625512329102,86.62543385620117,67.34425812329101,84.17733385620117C67.34425812329101,84.17733385620117,67.34425812329101,84.17733385620117,67.34425812329101,84.17733385620117ZM163.556595123291,75.19849385620117C164.652795123291,74.19384485620117,169.22359512329103,75.94683385620117,171.45859512329102,76.93268385620117C173.694595123291,77.91853385620117,187.873595123291,81.93423385620117,188.102595123291,85.35913385620117C188.330595123291,88.78413385620117,176.22859512329103,83.98916385620117,170.635595123291,81.93423385620117C165.04079512329102,79.87925385620117,162.18709512329102,76.45430385620118,163.556595123291,75.19849385620117C163.556595123291,75.19849385620117,163.556595123291,75.19849385620117,163.556595123291,75.19849385620117Z" fill="#222222" fill-opacity="1"/></g></g><g style="mix-blend-mode:passthrough"><g style="mix-blend-mode:passthrough" filter="url(#master_svgx_0_1340)"><path d="M196.31411045532226,228.82479000854494C200.62901045532226,213.48309000854493,182.39721045532227,184.74369000854492,172.74201045532226,172.29179000854492C171.01070045532228,186.40849000854493,170.54140045532228,208.4584900085449,166.94883545532227,225.0293900085449C165.16651045532225,233.25079000854493,169.67895045532225,232.6202900085449,171.34364045532226,231.2220900085449C171.14388045532226,233.6193900085449,190.92051045532227,248.00229000854492,196.31411045532226,228.82479000854494C196.31411045532226,228.82479000854494,196.31411045532226,228.82479000854494,196.31411045532226,228.82479000854494Z" fill="#D3312F" fill-opacity="1"/></g><g style="mix-blend-mode:passthrough" mask="url(#master_svgz_0_1342)"><g style="mix-blend-mode:passthrough" filter="url(#master_svg10_0_1343)"><path d="M173.73723510375976,229.76726385620117C182.65407510375977,230.29182385620118,181.92927510375978,225.67173385620117,184.73047510375977,225.67173385620117C188.58347510375978,225.67173385620117,187.38817510375978,230.87766385620117,195.29257510375976,229.76726385620117C198.06757510375976,229.37743385620118,197.01697510375976,233.00052385620117,195.29257510375976,240.97603385620118C193.56817510375976,248.95153385620117,176.97056510375975,240.32933385620117,173.73723510375976,237.52713385620117C170.50392010375975,234.72494385620118,170.07284510375976,229.55169385620118,173.73723510375976,229.76726385620117C173.73723510375976,229.76726385620117,173.73723510375976,229.76726385620117,173.73723510375976,229.76726385620117Z" fill="#E28C52" fill-opacity="1"/></g><g style="mix-blend-mode:passthrough" filter="url(#master_svg11_0_1344)"><path d="M171.82703281860353,184.90209518432619C171.3488328186035,171.83223518432618,169.10416281860353,172.94797518432617,168.04156281860352,175.13956518432616C166.95818281860352,176.43085518432616,160.8690628186035,221.56139518432616,162.06447181860352,225.54609518432616C163.25988281860353,229.53089518432617,176.60863281860352,228.13609518432617,175.41323281860352,224.35059518432618C174.2178328186035,220.56519518432617,172.4247328186035,201.23939518432616,171.82703281860353,184.90209518432619C171.82703281860353,184.90209518432619,171.82703281860353,184.90209518432619,171.82703281860353,184.90209518432619Z" fill="#981C1D" fill-opacity="1"/></g><g style="mix-blend-mode:passthrough" filter="url(#master_svg12_0_1345)"><path d="M175.19520440063476,187.29085260620118C175.09310440063476,184.22725260620118,173.79107440063476,176.22792260620116,173.15283440063476,172.61120560620117C167.50130440063475,168.32679260620117,162.73771440063476,222.7096526062012,166.11995440063475,226.91805260620117C170.04139440063477,231.79725260620117,174.27236440063476,228.59865260620117,173.24040440063476,226.91805260620117C171.71564440063477,224.43525260620117,175.32280440063477,191.12035260620118,175.19520440063476,187.29085260620118C175.19520440063476,187.29085260620118,175.19520440063476,187.29085260620118,175.19520440063476,187.29085260620118Z" fill="#9F0F0E" fill-opacity="1"/></g><g style="mix-blend-mode:passthrough" filter="url(#master_svg13_0_1346)"><path d="M172.85554045532226,187.20361393432617C172.70701045532226,185.27302393432618,172.05108045532228,181.82016393432616,171.74166045532226,180.33506393432617C169.94717045532227,194.81476393432618,166.39531645532227,223.97826393432618,166.54382572532228,224.79506393432618C166.72946245532228,225.81596393432616,168.86428045532227,222.84576393432616,169.04992045532225,220.52536393432618C169.23555045532225,218.20486393432617,170.99913045532227,214.02806393432616,170.90631045532226,212.26456393432616C170.81349045532227,210.50096393432617,170.81349045532227,203.26116393432616,171.74166045532226,201.59046393432618C172.66982045532225,199.91976393432617,173.04115045532225,189.61687393432618,172.85554045532226,187.20361393432617C172.85554045532226,187.20361393432617,172.85554045532226,187.20361393432617,172.85554045532226,187.20361393432617Z" fill="#801616" fill-opacity="1"/></g></g><g style="mix-blend-mode:passthrough" mask="url(#master_svg14_0_1348)"><g style="mix-blend-mode:passthrough" filter="url(#master_svg15_0_1349)"><path d="M177.4160156311035,172.0777577429199C174.58341563110352,172.0777577429199,175.9554156311035,171.69472774291992,175.84821563110353,170.09181074291993C163.1001056311035,166.56793774291992,159.8208556311035,180.1922677429199,171.15981563110353,190.34456774291993C182.49871563110352,200.49686774291993,178.56981563110352,182.31506774291992,177.91051563110352,179.67806774291992C177.25131563110352,177.0411277429199,180.7510156311035,172.0777577429199,177.4160156311035,172.0777577429199C177.4160156311035,172.0777577429199,177.4160156311035,172.0777577429199,177.4160156311035,172.0777577429199Z" fill="#CB2D2B" fill-opacity="1"/></g></g></g><g style="mix-blend-mode:passthrough"><g style="mix-blend-mode:passthrough" filter="url(#master_svg16_0_1351)"><ellipse cx="128.58930015563965" cy="199.76905632019043" rx="21.991243362426758" ry="21.991243362426758" fill="#F68663" fill-opacity="1"/></g><g style="mix-blend-mode:passthrough" filter="url(#master_svg17_0_1352)"><path d="M122.69625459594727,212.83266842651366C117.48853459594727,212.48596842651367,120.52637359594726,194.48906842651368,122.69625459594727,185.53392842651368C123.70048459594726,180.98414842651368,127.47000459594727,182.93405342651369,127.47000459594727,185.53392842651368C127.47000459594727,191.19290842651367,125.30012459594727,201.56646842651367,126.38508459594726,208.71616842651366C142.22520459594728,208.71616842651366,140.43470459594727,206.63686842651367,141.73670459594726,210.96996842651367C142.38760459594727,213.13646842651366,129.20589459594726,213.26586842651366,122.69625459594727,212.83266842651366C122.69625459594727,212.83266842651366,122.69625459594727,212.83266842651366,122.69625459594727,212.83266842651366Z" fill="#FFFFFF" fill-opacity="1"/></g></g></g></g></g></svg>