<svg xmlns="http://www.w3.org/2000/svg" xmlns:xlink="http://www.w3.org/1999/xlink" width="238" height="58" viewBox="0 0 238 58" fill="none"><defs><rect id="path_0" x="0" y="0" width="56.00000000000001" height="56.00000000000001" /></defs><g opacity="1" transform="translate(2.842170943040401e-14 0)  rotate(0 118.6394004914883 28.710682720500564)"><g opacity="1" transform="translate(0 0)  rotate(0 28.000000000000004 28.000000000000004)"><mask id="bg-mask-0" fill="white"><use xlink:href="#path_0"></use></mask><g mask="url(#bg-mask-0)" ><path id="矩形 1" fill-rule="evenodd" style="fill:#FFFFFF" transform="translate(10.639999999999986 5.600000000000023)  rotate(-3.14 17.360000000000003 1.960000000000001)" opacity="1" d="M1.96,3.92L32.76,3.92C33.84,3.92 34.72,3.04 34.72,1.96L34.72,1.96C34.72,0.88 33.84,0 32.76,0L1.96,0C0.88,0 0,0.88 0,1.96L0,1.96C0,3.04 0.88,3.92 1.96,3.92Z " /><path id="矩形 2" fill-rule="evenodd" style="fill:#FFFFFF" transform="translate(10.639999999999986 12.039999999999964)  rotate(0 17.360000000000003 20.580000000000005)" opacity="1" d="M5.62,41.16L29.1,41.16C32.2,41.16 34.72,38.64 34.72,35.54L34.72,5.62C34.72,2.52 32.2,0 29.1,0L5.62,0C2.52,0 0,2.52 0,5.62L0,35.54C0,38.64 2.52,41.16 5.62,41.16Z " /><path id="文本 1" fill-rule="evenodd" style="fill:#FFA600" transform="translate(13.960215189873452 15.539571139240593)  rotate(0 14.499893924050639 20.539249367088615)" opacity="1" d="M1.41,34.93L1.9,35.53C1.9,35.53 3.05,37.16 5.93,38.9C5.93,38.9 7.35,39.83 9.63,40.45C9.63,40.45 11.92,41.08 14.47,41.08C14.47,41.08 19.48,41.08 23.89,38.19C23.89,38.19 26.17,36.73 27.59,34.03C27.59,34.03 29,31.34 29,27.8C29,27.8 29,24.27 27.61,21.85C27.61,21.85 26.22,19.42 24.16,18.44C24.16,18.44 22.09,17.47 19.64,16.79C19.64,16.79 17.19,16.1 15.13,15.78C15.13,15.78 13.06,15.45 11.67,14.53C11.67,14.53 10.28,13.6 10.28,12.11C10.28,12.11 10.28,10.61 11.45,9.77C11.45,9.77 12.62,8.92 14.39,8.92C14.39,8.92 16.16,8.92 17.3,9.63C17.3,9.63 17.68,9.9 18.15,10.34C18.15,10.34 18.61,10.77 18.77,10.88C18.77,10.88 20.46,11.97 21.6,11.97C21.6,11.97 23.56,11.97 25.41,9.25C25.41,9.25 26.71,7.35 26.71,6.26C26.71,6.26 26.71,5.17 25.03,3.59L23.67,2.56C23.67,2.56 22.63,1.69 19.94,0.84C19.94,0.84 17.25,0 13.98,0C13.98,0 7.83,0 4.27,3.56C4.27,3.56 0.71,7.13 0.71,11.92C0.71,11.92 0.71,15.4 2.09,17.87C2.09,17.87 3.48,20.35 5.55,21.49C5.55,21.49 7.62,22.63 10.01,23.48C10.01,23.48 12.41,24.32 14.47,24.7C14.47,24.7 16.54,25.08 17.93,25.93C17.93,25.93 19.32,26.77 19.32,28.02C19.32,28.02 19.32,32.16 14.26,32.16C14.26,32.16 13.06,32.16 11.64,31.31C11.64,31.31 10.23,30.47 9.47,29.54C9.47,29.54 6.75,26.82 5.22,26.82C5.22,26.82 3.7,26.82 2.34,28.13C2.34,28.13 0,30.41 0,31.8C0,31.8 0,33.19 1.41,34.93Z " /></g></g><path id="文本 1" fill-rule="evenodd" style="fill:#FAFBFF" transform="translate(53.27567907887965 10.434853954776372)  rotate(0 92.00156095204848 23.49325574311238)" opacity="1" d="M120.63 7.93C120.63 7.93 121.53 8.21 123.01 8.21C123.01 8.21 124.48 8.21 125.38 7.93C125.38 7.93 126.27 7.65 126.44 7.31L126.62 6.97C126.62 6.97 126.97 6.29 127.04 5.75C127.04 5.75 127.11 5.21 127.11 4.13C127.11 4.13 127.11 3.05 127.04 2.51C127.04 2.51 126.97 1.97 126.6 1.27C126.6 1.27 125.99 0 123.03 0C123.03 0 120.02 0 119.37 1.27C119.37 1.27 119.04 1.92 118.97 2.46C118.97 2.46 118.9 3 118.9 4.08C118.9 4.08 118.9 5.16 118.97 5.7C118.97 5.7 119.04 6.24 119.39 6.95C119.39 6.95 119.74 7.65 120.63 7.93ZM1.78 28.59C1.78 28.59 0 31.07 0 32.29C0 32.29 0 33.51 0.89 34.08C0.89 34.08 5.07 36.71 9.6 36.71C9.6 36.71 14.13 36.71 17.13 35.25C17.13 35.25 18.78 34.41 19.69 32.69C19.69 32.69 20.61 30.98 20.61 28.54C20.61 28.54 20.61 26.1 19.69 24.48C19.69 24.48 18.78 22.86 17.41 22.2C17.41 22.2 14.5 20.75 11.41 20.42C11.41 20.42 8.21 20 8.21 18.59C8.21 18.59 8.21 17.56 10.98 17.56C10.98 17.56 12.77 17.56 14.29 18.26C14.29 18.26 15.82 18.96 16.38 18.96C16.38 18.96 17.46 18.96 18.49 17.32C18.49 17.32 19.53 15.68 19.53 14.55C19.53 14.55 19.53 13.42 17.88 12.67C17.88 12.67 14.36 11.08 11.03 11.08C11.03 11.08 0.84 11.08 0.84 18.49C0.84 18.49 0.84 20.98 1.74 22.79C1.74 22.79 2.63 24.6 3.99 25.44C3.99 25.44 6.9 27.22 9.86 27.65C9.86 27.65 13 28.07 13 28.96C13 28.96 13 30.09 10.14 30.09C10.14 30.09 8.54 30.09 6.57 28.94C6.57 28.94 4.6 27.79 3.45 27.79C3.45 27.79 2.3 27.79 1.78 28.59ZM65.01 11.5C69.8 11.5 72.15 15.58 72.15 15.58C72.66 14.88 73.39 14.11 73.39 14.11C74.12 13.33 75.71 12.42 75.71 12.42C77.31 11.5 79 11.5 79 11.5C82.75 11.5 85.29 14.39 85.29 14.39C87.82 17.27 87.82 23.94 87.82 23.94L87.82 32.15C87.82 33.23 87.75 33.77 87.75 33.77C87.68 34.31 87.31 35.02 87.31 35.02C86.7 36.28 83.69 36.28 83.69 36.28C80.74 36.28 80.08 34.97 80.08 34.97C79.75 34.27 79.68 33.73 79.68 33.73C79.61 33.19 79.61 32.11 79.61 32.11L79.61 23.89C79.61 19.81 76.7 19.81 76.7 19.81C75.06 19.81 74.47 20.89 74.47 20.89C73.88 21.97 73.88 23.94 73.88 23.94L73.88 32.15C73.88 33.28 73.81 33.8 73.81 33.8C73.74 34.31 73.37 35.02 73.37 35.02C72.71 36.28 69.71 36.28 69.71 36.28C66.75 36.28 66.09 34.97 66.09 34.97C65.76 34.27 65.69 33.73 65.69 33.73C65.62 33.19 65.62 32.11 65.62 32.11L65.62 23.89C65.62 19.81 62.71 19.81 62.71 19.81C59.89 19.81 59.89 23.89 59.89 23.89L59.89 32.2C59.89 33.28 59.82 33.82 59.82 33.82C59.75 34.36 59.38 35.06 59.38 35.06C58.67 36.28 55.72 36.28 55.72 36.28C52.76 36.28 52.1 35.02 52.1 35.02C51.77 34.31 51.7 33.8 51.7 33.8C51.63 33.28 51.63 32.15 51.63 32.15L51.63 15.63C51.63 14.55 51.7 14.01 51.7 14.01C51.77 13.47 52.15 12.81 52.15 12.81C52.85 11.55 55.48 11.55 55.48 11.55C58.11 11.55 58.91 12.39 58.91 12.39C59.71 13.24 59.71 14.83 59.71 14.83C61.91 11.5 65.01 11.5 65.01 11.5ZM34.13 11.59C34.13 11.59 29.95 11.59 26.45 15.28C26.45 15.28 22.95 18.96 22.95 23.87C22.95 23.87 22.95 28.77 26.43 32.48C26.43 32.48 29.9 36.19 33.96 36.19C33.96 36.19 38.02 36.19 39.76 33.7C39.76 33.7 39.9 34.92 40.77 35.56C40.77 35.56 41.64 36.19 44.19 36.19C44.19 36.19 46.75 36.19 47.41 34.97C47.41 34.97 47.74 34.27 47.81 33.73C47.81 33.73 47.88 33.19 47.88 32.11L47.88 15.68C47.88 15.68 47.88 14.6 47.81 14.06C47.81 14.06 47.74 13.52 47.39 12.81C47.39 12.81 47.03 12.11 46.14 11.83C46.14 11.83 45.25 11.55 43.42 11.55C43.42 11.55 39.99 11.55 39.71 14.18C39.71 14.18 39.38 13.71 38.87 13.21C38.87 13.21 38.35 12.72 37.04 12.16C37.04 12.16 35.72 11.59 34.13 11.59ZM105.19 35.63C105.19 35.63 109.04 35.63 112.44 32.01C112.44 32.01 115.85 28.4 115.85 23.61C115.85 23.61 115.85 18.82 112.42 15.21C112.42 15.21 108.99 11.59 105.17 11.59C105.17 11.59 101.34 11.59 99.56 14.03C99.56 14.03 99.42 12.81 98.55 12.18C98.55 12.18 97.68 11.55 95.19 11.55C95.19 11.55 92.71 11.55 92.05 12.81C92.05 12.81 91.72 13.47 91.65 13.99C91.65 13.99 91.58 14.5 91.58 15.58L91.58 43C91.58 43 91.58 44.08 91.65 44.59C91.65 44.59 91.72 45.11 92.07 45.77C92.07 45.77 92.42 46.42 93.29 46.7C93.29 46.7 94.16 46.99 95.62 46.99C95.62 46.99 97.07 46.99 97.92 46.7C97.92 46.7 98.76 46.42 99.11 45.74C99.11 45.74 99.46 45.06 99.54 44.55C99.54 44.55 99.61 44.03 99.61 42.95L99.61 33.47C99.61 33.47 101.34 35.63 105.19 35.63ZM139.08 32.15L139.08 23.85C139.08 23.85 139.08 22.01 140.23 20.89C140.23 20.89 141.38 19.76 143.24 19.76C143.24 19.76 145.09 19.76 146.19 20.84C146.19 20.84 147.3 21.92 147.3 23.85L147.3 32.11C147.3 32.11 147.3 33.7 147.58 34.5C147.58 34.5 148.09 36.24 151.43 36.24C151.43 36.24 154.43 36.24 155.09 34.97C155.09 34.97 155.42 34.31 155.49 33.77C155.49 33.77 155.56 33.23 155.56 32.15L155.56 23.89C155.56 23.89 155.56 18.73 152.44 15.14C152.44 15.14 149.31 11.55 144.62 11.55C144.62 11.55 142.7 11.55 141.1 12.63C141.1 12.63 140.49 13 139.83 13.61C139.83 13.61 139.18 14.22 138.99 14.55C138.99 14.55 138.99 13.42 138.52 12.63C138.52 12.63 137.86 11.55 135 11.55C135 11.55 132.04 11.55 131.38 12.72C131.38 12.72 131.01 13.38 130.94 13.92C130.94 13.92 130.87 14.46 130.87 15.49L130.87 32.11C130.87 32.11 130.87 33.19 130.94 33.73C130.94 33.73 131.01 34.27 131.34 34.97C131.34 34.97 131.99 36.24 134.95 36.24C134.95 36.24 137.96 36.24 138.57 34.97C138.57 34.97 138.94 34.31 139.01 33.77C139.01 33.77 139.08 33.23 139.08 32.15ZM159.78 34.97C159.45 34.27 159.38 33.73 159.38 33.73C159.31 33.19 159.31 32.11 159.31 32.11L159.31 15.49C159.31 14.46 159.38 13.92 159.38 13.92C159.45 13.38 159.83 12.72 159.83 12.72C160.49 11.55 163.44 11.55 163.44 11.55C166.31 11.55 166.96 12.63 166.96 12.63C167.43 13.42 167.43 14.55 167.43 14.55C167.62 14.22 168.28 13.61 168.28 13.61C168.94 13 169.55 12.63 169.55 12.63C171.14 11.55 173.07 11.55 173.07 11.55C177.76 11.55 180.88 15.14 180.88 15.14C184 18.73 184 23.89 184 23.89L184 32.15C184 33.23 183.93 33.77 183.93 33.77C183.86 34.31 183.53 34.97 183.53 34.97C182.88 36.24 179.87 36.24 179.87 36.24C176.54 36.24 176.02 34.5 176.02 34.5C175.74 33.7 175.74 32.11 175.74 32.11L175.74 23.85C175.74 21.92 174.64 20.84 174.64 20.84C173.54 19.76 171.68 19.76 171.68 19.76C169.83 19.76 168.68 20.89 168.68 20.89C167.53 22.01 167.53 23.85 167.53 23.85L167.53 32.15C167.53 33.23 167.46 33.77 167.46 33.77C167.39 34.31 167.01 34.97 167.01 34.97C166.4 36.24 163.4 36.24 163.4 36.24C160.44 36.24 159.78 34.97 159.78 34.97ZM123.03 11.59C125.28 11.59 126.22 12.39 126.22 12.39C127.02 13.05 127.07 14.41 127.07 14.41C127.11 14.88 127.11 15.77 127.11 15.77L127.11 32.2C127.11 33.28 127.04 33.82 127.04 33.82C126.97 34.36 126.6 35.06 126.6 35.06C125.99 36.28 122.98 36.28 122.98 36.28C120.02 36.28 119.37 35.02 119.37 35.02C119.04 34.31 118.97 33.8 118.97 33.8C118.9 33.28 118.9 32.15 118.9 32.15L118.9 15.68C118.9 14.6 118.97 14.06 118.97 14.06C119.04 13.52 119.37 12.81 119.37 12.81C120.02 11.59 123.03 11.59 123.03 11.59ZM106.62 26.43C106.62 26.43 105.43 27.65 103.71 27.65C103.71 27.65 102 27.65 100.9 26.4C100.9 26.4 99.79 25.16 99.79 23.66C99.79 23.66 99.79 22.16 100.33 21.52L100.87 20.89C100.87 20.89 101.95 19.62 103.76 19.62C103.76 19.62 105.57 19.62 106.69 20.86C106.69 20.86 107.82 22.11 107.82 23.66C107.82 23.66 107.82 25.21 106.62 26.43ZM31.17 24.71L31.17 23.94C31.17 23.94 31.17 22.39 32.32 21.08C32.32 21.08 33.47 19.76 35.32 19.76C35.32 19.76 37.18 19.76 38.28 21.08C38.28 21.08 39.38 22.39 39.38 23.92C39.38 23.92 39.38 25.44 38.23 26.71C38.23 26.71 37.08 27.98 35.35 27.98C35.35 27.98 33.61 27.98 32.39 26.73C32.39 26.73 31.17 25.49 31.17 24.71Z" /></g></svg>